<?xml version="1.0" encoding="UTF-8" standalone="no"?>
<!-- This is a Stata 18.0 generated SVG file (http://www.stata.com) -->

<svg version="1.1" width="7.500in" height="4.500in" viewBox="0 0 5400 3240" xmlns="http://www.w3.org/2000/svg" xmlns:xlink="http://www.w3.org/1999/xlink">
	<desc>Stata Graph - Graph</desc>
	<rect x="0" y="0" width="5400" height="3240" style="fill:#FFFFFF;stroke:none"/>
	<rect x="0.00" y="0.00" width="5400.00" height="3240.00" style="fill:#FFFFFF"/>
	<rect x="3.24" y="3.24" width="5393.52" height="3233.52" style="fill:none;stroke:#FFFFFF;stroke-width:6.48"/>
	<rect x="684.62" y="113.40" width="4601.98" height="2833.14" style="fill:#FFFFFF"/>
	<rect x="687.86" y="116.64" width="4595.50" height="2826.66" style="fill:none;stroke:#FFFFFF;stroke-width:6.48"/>
	<line x1="684.62" y1="2946.54" x2="749.42" y2="2946.54" style="stroke:#F0F0F0;stroke-width:9.72"/>
	<line x1="781.82" y1="2946.54" x2="846.62" y2="2946.54" style="stroke:#F0F0F0;stroke-width:9.72"/>
	<line x1="879.02" y1="2946.54" x2="943.82" y2="2946.54" style="stroke:#F0F0F0;stroke-width:9.72"/>
	<line x1="976.22" y1="2946.54" x2="1041.02" y2="2946.54" style="stroke:#F0F0F0;stroke-width:9.72"/>
	<line x1="1073.42" y1="2946.54" x2="1138.22" y2="2946.54" style="stroke:#F0F0F0;stroke-width:9.72"/>
	<line x1="1170.62" y1="2946.54" x2="1235.42" y2="2946.54" style="stroke:#F0F0F0;stroke-width:9.72"/>
	<line x1="1267.82" y1="2946.54" x2="1332.62" y2="2946.54" style="stroke:#F0F0F0;stroke-width:9.72"/>
	<line x1="1365.02" y1="2946.54" x2="1429.82" y2="2946.54" style="stroke:#F0F0F0;stroke-width:9.72"/>
	<line x1="1462.22" y1="2946.54" x2="1527.02" y2="2946.54" style="stroke:#F0F0F0;stroke-width:9.72"/>
	<line x1="1559.42" y1="2946.54" x2="1624.22" y2="2946.54" style="stroke:#F0F0F0;stroke-width:9.72"/>
	<line x1="1656.62" y1="2946.54" x2="1721.42" y2="2946.54" style="stroke:#F0F0F0;stroke-width:9.72"/>
	<line x1="1753.82" y1="2946.54" x2="1818.62" y2="2946.54" style="stroke:#F0F0F0;stroke-width:9.72"/>
	<line x1="1851.02" y1="2946.54" x2="1915.82" y2="2946.54" style="stroke:#F0F0F0;stroke-width:9.72"/>
	<line x1="1948.22" y1="2946.54" x2="2013.02" y2="2946.54" style="stroke:#F0F0F0;stroke-width:9.72"/>
	<line x1="2045.42" y1="2946.54" x2="2110.22" y2="2946.54" style="stroke:#F0F0F0;stroke-width:9.72"/>
	<line x1="2142.62" y1="2946.54" x2="2207.42" y2="2946.54" style="stroke:#F0F0F0;stroke-width:9.72"/>
	<line x1="2239.82" y1="2946.54" x2="2304.62" y2="2946.54" style="stroke:#F0F0F0;stroke-width:9.72"/>
	<line x1="2337.02" y1="2946.54" x2="2401.82" y2="2946.54" style="stroke:#F0F0F0;stroke-width:9.72"/>
	<line x1="2434.22" y1="2946.54" x2="2499.02" y2="2946.54" style="stroke:#F0F0F0;stroke-width:9.72"/>
	<line x1="2531.42" y1="2946.54" x2="2596.22" y2="2946.54" style="stroke:#F0F0F0;stroke-width:9.72"/>
	<line x1="2628.62" y1="2946.54" x2="2693.42" y2="2946.54" style="stroke:#F0F0F0;stroke-width:9.72"/>
	<line x1="2725.82" y1="2946.54" x2="2790.62" y2="2946.54" style="stroke:#F0F0F0;stroke-width:9.72"/>
	<line x1="2823.02" y1="2946.54" x2="2887.82" y2="2946.54" style="stroke:#F0F0F0;stroke-width:9.72"/>
	<line x1="2920.22" y1="2946.54" x2="2985.02" y2="2946.54" style="stroke:#F0F0F0;stroke-width:9.72"/>
	<line x1="3017.42" y1="2946.54" x2="3082.22" y2="2946.54" style="stroke:#F0F0F0;stroke-width:9.72"/>
	<line x1="3114.62" y1="2946.54" x2="3179.42" y2="2946.54" style="stroke:#F0F0F0;stroke-width:9.72"/>
	<line x1="3211.82" y1="2946.54" x2="3276.62" y2="2946.54" style="stroke:#F0F0F0;stroke-width:9.72"/>
	<line x1="3309.02" y1="2946.54" x2="3373.82" y2="2946.54" style="stroke:#F0F0F0;stroke-width:9.72"/>
	<line x1="3406.22" y1="2946.54" x2="3471.02" y2="2946.54" style="stroke:#F0F0F0;stroke-width:9.72"/>
	<line x1="3503.42" y1="2946.54" x2="3568.22" y2="2946.54" style="stroke:#F0F0F0;stroke-width:9.72"/>
	<line x1="3600.62" y1="2946.54" x2="3665.42" y2="2946.54" style="stroke:#F0F0F0;stroke-width:9.72"/>
	<line x1="3697.82" y1="2946.54" x2="3762.62" y2="2946.54" style="stroke:#F0F0F0;stroke-width:9.72"/>
	<line x1="3795.02" y1="2946.54" x2="3859.82" y2="2946.54" style="stroke:#F0F0F0;stroke-width:9.72"/>
	<line x1="3892.22" y1="2946.54" x2="3957.02" y2="2946.54" style="stroke:#F0F0F0;stroke-width:9.72"/>
	<line x1="3989.42" y1="2946.54" x2="4054.22" y2="2946.54" style="stroke:#F0F0F0;stroke-width:9.72"/>
	<line x1="4086.62" y1="2946.54" x2="4151.42" y2="2946.54" style="stroke:#F0F0F0;stroke-width:9.72"/>
	<line x1="4183.82" y1="2946.54" x2="4248.62" y2="2946.54" style="stroke:#F0F0F0;stroke-width:9.72"/>
	<line x1="4281.02" y1="2946.54" x2="4345.82" y2="2946.54" style="stroke:#F0F0F0;stroke-width:9.72"/>
	<line x1="4378.22" y1="2946.54" x2="4443.02" y2="2946.54" style="stroke:#F0F0F0;stroke-width:9.72"/>
	<line x1="4475.42" y1="2946.54" x2="4540.22" y2="2946.54" style="stroke:#F0F0F0;stroke-width:9.72"/>
	<line x1="4572.62" y1="2946.54" x2="4637.42" y2="2946.54" style="stroke:#F0F0F0;stroke-width:9.72"/>
	<line x1="4669.82" y1="2946.54" x2="4734.62" y2="2946.54" style="stroke:#F0F0F0;stroke-width:9.72"/>
	<line x1="4767.02" y1="2946.54" x2="4831.82" y2="2946.54" style="stroke:#F0F0F0;stroke-width:9.72"/>
	<line x1="4864.22" y1="2946.54" x2="4929.02" y2="2946.54" style="stroke:#F0F0F0;stroke-width:9.72"/>
	<line x1="4961.42" y1="2946.54" x2="5026.22" y2="2946.54" style="stroke:#F0F0F0;stroke-width:9.72"/>
	<line x1="5058.62" y1="2946.54" x2="5123.42" y2="2946.54" style="stroke:#F0F0F0;stroke-width:9.72"/>
	<line x1="5155.82" y1="2946.54" x2="5220.62" y2="2946.54" style="stroke:#F0F0F0;stroke-width:9.72"/>
	<line x1="5253.02" y1="2946.54" x2="5286.60" y2="2946.54" style="stroke:#F0F0F0;stroke-width:9.72"/>
	<line x1="684.62" y1="2100.60" x2="749.42" y2="2100.60" style="stroke:#F0F0F0;stroke-width:9.72"/>
	<line x1="781.82" y1="2100.60" x2="846.62" y2="2100.60" style="stroke:#F0F0F0;stroke-width:9.72"/>
	<line x1="879.02" y1="2100.60" x2="943.82" y2="2100.60" style="stroke:#F0F0F0;stroke-width:9.72"/>
	<line x1="976.22" y1="2100.60" x2="1041.02" y2="2100.60" style="stroke:#F0F0F0;stroke-width:9.72"/>
	<line x1="1073.42" y1="2100.60" x2="1138.22" y2="2100.60" style="stroke:#F0F0F0;stroke-width:9.72"/>
	<line x1="1170.62" y1="2100.60" x2="1235.42" y2="2100.60" style="stroke:#F0F0F0;stroke-width:9.72"/>
	<line x1="1267.82" y1="2100.60" x2="1332.62" y2="2100.60" style="stroke:#F0F0F0;stroke-width:9.72"/>
	<line x1="1365.02" y1="2100.60" x2="1429.82" y2="2100.60" style="stroke:#F0F0F0;stroke-width:9.72"/>
	<line x1="1462.22" y1="2100.60" x2="1527.02" y2="2100.60" style="stroke:#F0F0F0;stroke-width:9.72"/>
	<line x1="1559.42" y1="2100.60" x2="1624.22" y2="2100.60" style="stroke:#F0F0F0;stroke-width:9.72"/>
	<line x1="1656.62" y1="2100.60" x2="1721.42" y2="2100.60" style="stroke:#F0F0F0;stroke-width:9.72"/>
	<line x1="1753.82" y1="2100.60" x2="1818.62" y2="2100.60" style="stroke:#F0F0F0;stroke-width:9.72"/>
	<line x1="1851.02" y1="2100.60" x2="1915.82" y2="2100.60" style="stroke:#F0F0F0;stroke-width:9.72"/>
	<line x1="1948.22" y1="2100.60" x2="2013.02" y2="2100.60" style="stroke:#F0F0F0;stroke-width:9.72"/>
	<line x1="2045.42" y1="2100.60" x2="2110.22" y2="2100.60" style="stroke:#F0F0F0;stroke-width:9.72"/>
	<line x1="2142.62" y1="2100.60" x2="2207.42" y2="2100.60" style="stroke:#F0F0F0;stroke-width:9.72"/>
	<line x1="2239.82" y1="2100.60" x2="2304.62" y2="2100.60" style="stroke:#F0F0F0;stroke-width:9.72"/>
	<line x1="2337.02" y1="2100.60" x2="2401.82" y2="2100.60" style="stroke:#F0F0F0;stroke-width:9.72"/>
	<line x1="2434.22" y1="2100.60" x2="2499.02" y2="2100.60" style="stroke:#F0F0F0;stroke-width:9.72"/>
	<line x1="2531.42" y1="2100.60" x2="2596.22" y2="2100.60" style="stroke:#F0F0F0;stroke-width:9.72"/>
	<line x1="2628.62" y1="2100.60" x2="2693.42" y2="2100.60" style="stroke:#F0F0F0;stroke-width:9.72"/>
	<line x1="2725.82" y1="2100.60" x2="2790.62" y2="2100.60" style="stroke:#F0F0F0;stroke-width:9.72"/>
	<line x1="2823.02" y1="2100.60" x2="2887.82" y2="2100.60" style="stroke:#F0F0F0;stroke-width:9.72"/>
	<line x1="2920.22" y1="2100.60" x2="2985.02" y2="2100.60" style="stroke:#F0F0F0;stroke-width:9.72"/>
	<line x1="3017.42" y1="2100.60" x2="3082.22" y2="2100.60" style="stroke:#F0F0F0;stroke-width:9.72"/>
	<line x1="3114.62" y1="2100.60" x2="3179.42" y2="2100.60" style="stroke:#F0F0F0;stroke-width:9.72"/>
	<line x1="3211.82" y1="2100.60" x2="3276.62" y2="2100.60" style="stroke:#F0F0F0;stroke-width:9.72"/>
	<line x1="3309.02" y1="2100.60" x2="3373.82" y2="2100.60" style="stroke:#F0F0F0;stroke-width:9.72"/>
	<line x1="3406.22" y1="2100.60" x2="3471.02" y2="2100.60" style="stroke:#F0F0F0;stroke-width:9.72"/>
	<line x1="3503.42" y1="2100.60" x2="3568.22" y2="2100.60" style="stroke:#F0F0F0;stroke-width:9.72"/>
	<line x1="3600.62" y1="2100.60" x2="3665.42" y2="2100.60" style="stroke:#F0F0F0;stroke-width:9.72"/>
	<line x1="3697.82" y1="2100.60" x2="3762.62" y2="2100.60" style="stroke:#F0F0F0;stroke-width:9.72"/>
	<line x1="3795.02" y1="2100.60" x2="3859.82" y2="2100.60" style="stroke:#F0F0F0;stroke-width:9.72"/>
	<line x1="3892.22" y1="2100.60" x2="3957.02" y2="2100.60" style="stroke:#F0F0F0;stroke-width:9.72"/>
	<line x1="3989.42" y1="2100.60" x2="4054.22" y2="2100.60" style="stroke:#F0F0F0;stroke-width:9.72"/>
	<line x1="4086.62" y1="2100.60" x2="4151.42" y2="2100.60" style="stroke:#F0F0F0;stroke-width:9.72"/>
	<line x1="4183.82" y1="2100.60" x2="4248.62" y2="2100.60" style="stroke:#F0F0F0;stroke-width:9.72"/>
	<line x1="4281.02" y1="2100.60" x2="4345.82" y2="2100.60" style="stroke:#F0F0F0;stroke-width:9.72"/>
	<line x1="4378.22" y1="2100.60" x2="4443.02" y2="2100.60" style="stroke:#F0F0F0;stroke-width:9.72"/>
	<line x1="4475.42" y1="2100.60" x2="4540.22" y2="2100.60" style="stroke:#F0F0F0;stroke-width:9.72"/>
	<line x1="4572.62" y1="2100.60" x2="4637.42" y2="2100.60" style="stroke:#F0F0F0;stroke-width:9.72"/>
	<line x1="4669.82" y1="2100.60" x2="4734.62" y2="2100.60" style="stroke:#F0F0F0;stroke-width:9.72"/>
	<line x1="4767.02" y1="2100.60" x2="4831.82" y2="2100.60" style="stroke:#F0F0F0;stroke-width:9.72"/>
	<line x1="4864.22" y1="2100.60" x2="4929.02" y2="2100.60" style="stroke:#F0F0F0;stroke-width:9.72"/>
	<line x1="4961.42" y1="2100.60" x2="5026.22" y2="2100.60" style="stroke:#F0F0F0;stroke-width:9.72"/>
	<line x1="5058.62" y1="2100.60" x2="5123.42" y2="2100.60" style="stroke:#F0F0F0;stroke-width:9.72"/>
	<line x1="5155.82" y1="2100.60" x2="5220.62" y2="2100.60" style="stroke:#F0F0F0;stroke-width:9.72"/>
	<line x1="5253.02" y1="2100.60" x2="5286.60" y2="2100.60" style="stroke:#F0F0F0;stroke-width:9.72"/>
	<line x1="684.62" y1="1254.49" x2="749.42" y2="1254.49" style="stroke:#F0F0F0;stroke-width:9.72"/>
	<line x1="781.82" y1="1254.49" x2="846.62" y2="1254.49" style="stroke:#F0F0F0;stroke-width:9.72"/>
	<line x1="879.02" y1="1254.49" x2="943.82" y2="1254.49" style="stroke:#F0F0F0;stroke-width:9.72"/>
	<line x1="976.22" y1="1254.49" x2="1041.02" y2="1254.49" style="stroke:#F0F0F0;stroke-width:9.72"/>
	<line x1="1073.42" y1="1254.49" x2="1138.22" y2="1254.49" style="stroke:#F0F0F0;stroke-width:9.72"/>
	<line x1="1170.62" y1="1254.49" x2="1235.42" y2="1254.49" style="stroke:#F0F0F0;stroke-width:9.72"/>
	<line x1="1267.82" y1="1254.49" x2="1332.62" y2="1254.49" style="stroke:#F0F0F0;stroke-width:9.72"/>
	<line x1="1365.02" y1="1254.49" x2="1429.82" y2="1254.49" style="stroke:#F0F0F0;stroke-width:9.72"/>
	<line x1="1462.22" y1="1254.49" x2="1527.02" y2="1254.49" style="stroke:#F0F0F0;stroke-width:9.72"/>
	<line x1="1559.42" y1="1254.49" x2="1624.22" y2="1254.49" style="stroke:#F0F0F0;stroke-width:9.72"/>
	<line x1="1656.62" y1="1254.49" x2="1721.42" y2="1254.49" style="stroke:#F0F0F0;stroke-width:9.72"/>
	<line x1="1753.82" y1="1254.49" x2="1818.62" y2="1254.49" style="stroke:#F0F0F0;stroke-width:9.72"/>
	<line x1="1851.02" y1="1254.49" x2="1915.82" y2="1254.49" style="stroke:#F0F0F0;stroke-width:9.72"/>
	<line x1="1948.22" y1="1254.49" x2="2013.02" y2="1254.49" style="stroke:#F0F0F0;stroke-width:9.72"/>
	<line x1="2045.42" y1="1254.49" x2="2110.22" y2="1254.49" style="stroke:#F0F0F0;stroke-width:9.72"/>
	<line x1="2142.62" y1="1254.49" x2="2207.42" y2="1254.49" style="stroke:#F0F0F0;stroke-width:9.72"/>
	<line x1="2239.82" y1="1254.49" x2="2304.62" y2="1254.49" style="stroke:#F0F0F0;stroke-width:9.72"/>
	<line x1="2337.02" y1="1254.49" x2="2401.82" y2="1254.49" style="stroke:#F0F0F0;stroke-width:9.72"/>
	<line x1="2434.22" y1="1254.49" x2="2499.02" y2="1254.49" style="stroke:#F0F0F0;stroke-width:9.72"/>
	<line x1="2531.42" y1="1254.49" x2="2596.22" y2="1254.49" style="stroke:#F0F0F0;stroke-width:9.72"/>
	<line x1="2628.62" y1="1254.49" x2="2693.42" y2="1254.49" style="stroke:#F0F0F0;stroke-width:9.72"/>
	<line x1="2725.82" y1="1254.49" x2="2790.62" y2="1254.49" style="stroke:#F0F0F0;stroke-width:9.72"/>
	<line x1="2823.02" y1="1254.49" x2="2887.82" y2="1254.49" style="stroke:#F0F0F0;stroke-width:9.72"/>
	<line x1="2920.22" y1="1254.49" x2="2985.02" y2="1254.49" style="stroke:#F0F0F0;stroke-width:9.72"/>
	<line x1="3017.42" y1="1254.49" x2="3082.22" y2="1254.49" style="stroke:#F0F0F0;stroke-width:9.72"/>
	<line x1="3114.62" y1="1254.49" x2="3179.42" y2="1254.49" style="stroke:#F0F0F0;stroke-width:9.72"/>
	<line x1="3211.82" y1="1254.49" x2="3276.62" y2="1254.49" style="stroke:#F0F0F0;stroke-width:9.72"/>
	<line x1="3309.02" y1="1254.49" x2="3373.82" y2="1254.49" style="stroke:#F0F0F0;stroke-width:9.72"/>
	<line x1="3406.22" y1="1254.49" x2="3471.02" y2="1254.49" style="stroke:#F0F0F0;stroke-width:9.72"/>
	<line x1="3503.42" y1="1254.49" x2="3568.22" y2="1254.49" style="stroke:#F0F0F0;stroke-width:9.72"/>
	<line x1="3600.62" y1="1254.49" x2="3665.42" y2="1254.49" style="stroke:#F0F0F0;stroke-width:9.72"/>
	<line x1="3697.82" y1="1254.49" x2="3762.62" y2="1254.49" style="stroke:#F0F0F0;stroke-width:9.72"/>
	<line x1="3795.02" y1="1254.49" x2="3859.82" y2="1254.49" style="stroke:#F0F0F0;stroke-width:9.72"/>
	<line x1="3892.22" y1="1254.49" x2="3957.02" y2="1254.49" style="stroke:#F0F0F0;stroke-width:9.72"/>
	<line x1="3989.42" y1="1254.49" x2="4054.22" y2="1254.49" style="stroke:#F0F0F0;stroke-width:9.72"/>
	<line x1="4086.62" y1="1254.49" x2="4151.42" y2="1254.49" style="stroke:#F0F0F0;stroke-width:9.72"/>
	<line x1="4183.82" y1="1254.49" x2="4248.62" y2="1254.49" style="stroke:#F0F0F0;stroke-width:9.72"/>
	<line x1="4281.02" y1="1254.49" x2="4345.82" y2="1254.49" style="stroke:#F0F0F0;stroke-width:9.72"/>
	<line x1="4378.22" y1="1254.49" x2="4443.02" y2="1254.49" style="stroke:#F0F0F0;stroke-width:9.72"/>
	<line x1="4475.42" y1="1254.49" x2="4540.22" y2="1254.49" style="stroke:#F0F0F0;stroke-width:9.72"/>
	<line x1="4572.62" y1="1254.49" x2="4637.42" y2="1254.49" style="stroke:#F0F0F0;stroke-width:9.72"/>
	<line x1="4669.82" y1="1254.49" x2="4734.62" y2="1254.49" style="stroke:#F0F0F0;stroke-width:9.72"/>
	<line x1="4767.02" y1="1254.49" x2="4831.82" y2="1254.49" style="stroke:#F0F0F0;stroke-width:9.72"/>
	<line x1="4864.22" y1="1254.49" x2="4929.02" y2="1254.49" style="stroke:#F0F0F0;stroke-width:9.72"/>
	<line x1="4961.42" y1="1254.49" x2="5026.22" y2="1254.49" style="stroke:#F0F0F0;stroke-width:9.72"/>
	<line x1="5058.62" y1="1254.49" x2="5123.42" y2="1254.49" style="stroke:#F0F0F0;stroke-width:9.72"/>
	<line x1="5155.82" y1="1254.49" x2="5220.62" y2="1254.49" style="stroke:#F0F0F0;stroke-width:9.72"/>
	<line x1="5253.02" y1="1254.49" x2="5286.60" y2="1254.49" style="stroke:#F0F0F0;stroke-width:9.72"/>
	<line x1="684.62" y1="408.38" x2="749.42" y2="408.38" style="stroke:#F0F0F0;stroke-width:9.72"/>
	<line x1="781.82" y1="408.38" x2="846.62" y2="408.38" style="stroke:#F0F0F0;stroke-width:9.72"/>
	<line x1="879.02" y1="408.38" x2="943.82" y2="408.38" style="stroke:#F0F0F0;stroke-width:9.72"/>
	<line x1="976.22" y1="408.38" x2="1041.02" y2="408.38" style="stroke:#F0F0F0;stroke-width:9.72"/>
	<line x1="1073.42" y1="408.38" x2="1138.22" y2="408.38" style="stroke:#F0F0F0;stroke-width:9.72"/>
	<line x1="1170.62" y1="408.38" x2="1235.42" y2="408.38" style="stroke:#F0F0F0;stroke-width:9.72"/>
	<line x1="1267.82" y1="408.38" x2="1332.62" y2="408.38" style="stroke:#F0F0F0;stroke-width:9.72"/>
	<line x1="1365.02" y1="408.38" x2="1429.82" y2="408.38" style="stroke:#F0F0F0;stroke-width:9.72"/>
	<line x1="1462.22" y1="408.38" x2="1527.02" y2="408.38" style="stroke:#F0F0F0;stroke-width:9.72"/>
	<line x1="1559.42" y1="408.38" x2="1624.22" y2="408.38" style="stroke:#F0F0F0;stroke-width:9.72"/>
	<line x1="1656.62" y1="408.38" x2="1721.42" y2="408.38" style="stroke:#F0F0F0;stroke-width:9.72"/>
	<line x1="1753.82" y1="408.38" x2="1818.62" y2="408.38" style="stroke:#F0F0F0;stroke-width:9.72"/>
	<line x1="1851.02" y1="408.38" x2="1915.82" y2="408.38" style="stroke:#F0F0F0;stroke-width:9.72"/>
	<line x1="1948.22" y1="408.38" x2="2013.02" y2="408.38" style="stroke:#F0F0F0;stroke-width:9.72"/>
	<line x1="2045.42" y1="408.38" x2="2110.22" y2="408.38" style="stroke:#F0F0F0;stroke-width:9.72"/>
	<line x1="2142.62" y1="408.38" x2="2207.42" y2="408.38" style="stroke:#F0F0F0;stroke-width:9.72"/>
	<line x1="2239.82" y1="408.38" x2="2304.62" y2="408.38" style="stroke:#F0F0F0;stroke-width:9.72"/>
	<line x1="2337.02" y1="408.38" x2="2401.82" y2="408.38" style="stroke:#F0F0F0;stroke-width:9.72"/>
	<line x1="2434.22" y1="408.38" x2="2499.02" y2="408.38" style="stroke:#F0F0F0;stroke-width:9.72"/>
	<line x1="2531.42" y1="408.38" x2="2596.22" y2="408.38" style="stroke:#F0F0F0;stroke-width:9.72"/>
	<line x1="2628.62" y1="408.38" x2="2693.42" y2="408.38" style="stroke:#F0F0F0;stroke-width:9.72"/>
	<line x1="2725.82" y1="408.38" x2="2790.62" y2="408.38" style="stroke:#F0F0F0;stroke-width:9.72"/>
	<line x1="2823.02" y1="408.38" x2="2887.82" y2="408.38" style="stroke:#F0F0F0;stroke-width:9.72"/>
	<line x1="2920.22" y1="408.38" x2="2985.02" y2="408.38" style="stroke:#F0F0F0;stroke-width:9.72"/>
	<line x1="3017.42" y1="408.38" x2="3082.22" y2="408.38" style="stroke:#F0F0F0;stroke-width:9.72"/>
	<line x1="3114.62" y1="408.38" x2="3179.42" y2="408.38" style="stroke:#F0F0F0;stroke-width:9.72"/>
	<line x1="3211.82" y1="408.38" x2="3276.62" y2="408.38" style="stroke:#F0F0F0;stroke-width:9.72"/>
	<line x1="3309.02" y1="408.38" x2="3373.82" y2="408.38" style="stroke:#F0F0F0;stroke-width:9.72"/>
	<line x1="3406.22" y1="408.38" x2="3471.02" y2="408.38" style="stroke:#F0F0F0;stroke-width:9.72"/>
	<line x1="3503.42" y1="408.38" x2="3568.22" y2="408.38" style="stroke:#F0F0F0;stroke-width:9.72"/>
	<line x1="3600.62" y1="408.38" x2="3665.42" y2="408.38" style="stroke:#F0F0F0;stroke-width:9.72"/>
	<line x1="3697.82" y1="408.38" x2="3762.62" y2="408.38" style="stroke:#F0F0F0;stroke-width:9.72"/>
	<line x1="3795.02" y1="408.38" x2="3859.82" y2="408.38" style="stroke:#F0F0F0;stroke-width:9.72"/>
	<line x1="3892.22" y1="408.38" x2="3957.02" y2="408.38" style="stroke:#F0F0F0;stroke-width:9.72"/>
	<line x1="3989.42" y1="408.38" x2="4054.22" y2="408.38" style="stroke:#F0F0F0;stroke-width:9.72"/>
	<line x1="4086.62" y1="408.38" x2="4151.42" y2="408.38" style="stroke:#F0F0F0;stroke-width:9.72"/>
	<line x1="4183.82" y1="408.38" x2="4248.62" y2="408.38" style="stroke:#F0F0F0;stroke-width:9.72"/>
	<line x1="4281.02" y1="408.38" x2="4345.82" y2="408.38" style="stroke:#F0F0F0;stroke-width:9.72"/>
	<line x1="4378.22" y1="408.38" x2="4443.02" y2="408.38" style="stroke:#F0F0F0;stroke-width:9.72"/>
	<line x1="4475.42" y1="408.38" x2="4540.22" y2="408.38" style="stroke:#F0F0F0;stroke-width:9.72"/>
	<line x1="4572.62" y1="408.38" x2="4637.42" y2="408.38" style="stroke:#F0F0F0;stroke-width:9.72"/>
	<line x1="4669.82" y1="408.38" x2="4734.62" y2="408.38" style="stroke:#F0F0F0;stroke-width:9.72"/>
	<line x1="4767.02" y1="408.38" x2="4831.82" y2="408.38" style="stroke:#F0F0F0;stroke-width:9.72"/>
	<line x1="4864.22" y1="408.38" x2="4929.02" y2="408.38" style="stroke:#F0F0F0;stroke-width:9.72"/>
	<line x1="4961.42" y1="408.38" x2="5026.22" y2="408.38" style="stroke:#F0F0F0;stroke-width:9.72"/>
	<line x1="5058.62" y1="408.38" x2="5123.42" y2="408.38" style="stroke:#F0F0F0;stroke-width:9.72"/>
	<line x1="5155.82" y1="408.38" x2="5220.62" y2="408.38" style="stroke:#F0F0F0;stroke-width:9.72"/>
	<line x1="5253.02" y1="408.38" x2="5286.60" y2="408.38" style="stroke:#F0F0F0;stroke-width:9.72"/>
	<rect x="906.19" y="1015.71" width="541.52" height="1930.84" style="fill:#1A85FF"/>
	<rect x="909.43" y="1018.95" width="535.04" height="1924.36" style="fill:none;stroke:#1A85FF;stroke-width:6.48"/>
	<rect x="1810.52" y="422.04" width="541.52" height="2524.50" style="fill:#1A85FF"/>
	<rect x="1813.76" y="425.28" width="535.04" height="2518.02" style="fill:none;stroke:#1A85FF;stroke-width:6.48"/>
	<rect x="2714.85" y="226.80" width="541.52" height="2719.74" style="fill:#1A85FF"/>
	<rect x="2718.09" y="230.04" width="535.04" height="2713.26" style="fill:none;stroke:#1A85FF;stroke-width:6.48"/>
	<rect x="3619.18" y="378.17" width="541.35" height="2568.38" style="fill:#1A85FF"/>
	<rect x="3622.42" y="381.41" width="534.87" height="2561.90" style="fill:none;stroke:#1A85FF;stroke-width:6.48"/>
	<rect x="4523.34" y="445.16" width="541.52" height="2501.38" style="fill:#1A85FF"/>
	<rect x="4526.58" y="448.40" width="535.04" height="2494.90" style="fill:none;stroke:#1A85FF;stroke-width:6.48"/>
	<line x1="684.62" y1="2946.54" x2="684.62" y2="113.40" style="stroke:#000000;stroke-width:6.48"/>
	<line x1="684.62" y1="2946.54" x2="639.56" y2="2946.54" style="stroke:#000000;stroke-width:6.48"/>
	<text x="617.12" y="2985.98" style="font-family:'Helvetica';font-size:112.56px;fill:#000000" text-anchor="end">0</text>
	<line x1="684.62" y1="2100.60" x2="639.56" y2="2100.60" style="stroke:#000000;stroke-width:6.48"/>
	<text x="617.12" y="2140.04" style="font-family:'Helvetica';font-size:112.56px;fill:#000000" text-anchor="end">2,000</text>
	<line x1="684.62" y1="1254.49" x2="639.56" y2="1254.49" style="stroke:#000000;stroke-width:6.48"/>
	<text x="617.12" y="1293.92" style="font-family:'Helvetica';font-size:112.56px;fill:#000000" text-anchor="end">4,000</text>
	<line x1="684.62" y1="408.38" x2="639.56" y2="408.38" style="stroke:#000000;stroke-width:6.48"/>
	<text x="617.12" y="447.81" style="font-family:'Helvetica';font-size:112.56px;fill:#000000" text-anchor="end">6,000</text>
	<text x="214.55" y="1530.06" style="font-family:'Helvetica';font-size:112.56px;fill:#000000" transform="rotate(-90 214.55,1530.06)" text-anchor="middle">mean of price</text>
	<line x1="684.62" y1="2946.54" x2="5286.60" y2="2946.54" style="stroke:#000000;stroke-width:6.48"/>
	<text x="1177.03" y="3070.31" style="font-family:'Helvetica';font-size:112.56px;fill:#000000" text-anchor="middle">1</text>
	<text x="2081.36" y="3070.31" style="font-family:'Helvetica';font-size:112.56px;fill:#000000" text-anchor="middle">2</text>
	<text x="2985.53" y="3070.31" style="font-family:'Helvetica';font-size:112.56px;fill:#000000" text-anchor="middle">3</text>
	<text x="3889.86" y="3070.31" style="font-family:'Helvetica';font-size:112.56px;fill:#000000" text-anchor="middle">4</text>
	<text x="4794.19" y="3070.31" style="font-family:'Helvetica';font-size:112.56px;fill:#000000" text-anchor="middle">5</text>
</svg>
