<?xml version="1.0" encoding="UTF-8" standalone="no"?>
<!-- This is a Stata 18.0 generated SVG file (http://www.stata.com) -->

<svg version="1.1" width="7.500in" height="4.500in" viewBox="0 0 5400 3240" xmlns="http://www.w3.org/2000/svg" xmlns:xlink="http://www.w3.org/1999/xlink">
	<desc>Stata Graph - Graph</desc>
	<rect x="0" y="0" width="5400" height="3240" style="fill:#FFFFFF;stroke:none"/>
	<rect x="0.00" y="0.00" width="5400.00" height="3240.00" style="fill:#FFFFFF"/>
	<rect x="3.24" y="3.24" width="5393.52" height="3233.52" style="fill:none;stroke:#FFFFFF;stroke-width:6.48"/>
	<rect x="410.23" y="113.40" width="3641.12" height="2653.26" style="fill:#FFFFFF"/>
	<rect x="413.47" y="116.64" width="3634.64" height="2646.78" style="fill:none;stroke:#FFFFFF;stroke-width:6.48"/>
	<line x1="410.23" y1="2695.28" x2="475.03" y2="2695.28" style="stroke:#F0F0F0;stroke-width:9.72"/>
	<line x1="507.43" y1="2695.28" x2="572.23" y2="2695.28" style="stroke:#F0F0F0;stroke-width:9.72"/>
	<line x1="604.63" y1="2695.28" x2="669.43" y2="2695.28" style="stroke:#F0F0F0;stroke-width:9.72"/>
	<line x1="701.83" y1="2695.28" x2="766.63" y2="2695.28" style="stroke:#F0F0F0;stroke-width:9.72"/>
	<line x1="799.03" y1="2695.28" x2="863.83" y2="2695.28" style="stroke:#F0F0F0;stroke-width:9.72"/>
	<line x1="896.23" y1="2695.28" x2="961.03" y2="2695.28" style="stroke:#F0F0F0;stroke-width:9.72"/>
	<line x1="993.43" y1="2695.28" x2="1058.23" y2="2695.28" style="stroke:#F0F0F0;stroke-width:9.72"/>
	<line x1="1090.63" y1="2695.28" x2="1155.43" y2="2695.28" style="stroke:#F0F0F0;stroke-width:9.72"/>
	<line x1="1187.83" y1="2695.28" x2="1252.63" y2="2695.28" style="stroke:#F0F0F0;stroke-width:9.72"/>
	<line x1="1285.03" y1="2695.28" x2="1349.83" y2="2695.28" style="stroke:#F0F0F0;stroke-width:9.72"/>
	<line x1="1382.23" y1="2695.28" x2="1447.03" y2="2695.28" style="stroke:#F0F0F0;stroke-width:9.72"/>
	<line x1="1479.43" y1="2695.28" x2="1544.23" y2="2695.28" style="stroke:#F0F0F0;stroke-width:9.72"/>
	<line x1="1576.63" y1="2695.28" x2="1641.43" y2="2695.28" style="stroke:#F0F0F0;stroke-width:9.72"/>
	<line x1="1673.83" y1="2695.28" x2="1738.63" y2="2695.28" style="stroke:#F0F0F0;stroke-width:9.72"/>
	<line x1="1771.03" y1="2695.28" x2="1835.83" y2="2695.28" style="stroke:#F0F0F0;stroke-width:9.72"/>
	<line x1="1868.23" y1="2695.28" x2="1933.03" y2="2695.28" style="stroke:#F0F0F0;stroke-width:9.72"/>
	<line x1="1965.43" y1="2695.28" x2="2030.23" y2="2695.28" style="stroke:#F0F0F0;stroke-width:9.72"/>
	<line x1="2062.63" y1="2695.28" x2="2127.43" y2="2695.28" style="stroke:#F0F0F0;stroke-width:9.72"/>
	<line x1="2159.83" y1="2695.28" x2="2224.63" y2="2695.28" style="stroke:#F0F0F0;stroke-width:9.72"/>
	<line x1="2257.03" y1="2695.28" x2="2321.83" y2="2695.28" style="stroke:#F0F0F0;stroke-width:9.72"/>
	<line x1="2354.23" y1="2695.28" x2="2419.03" y2="2695.28" style="stroke:#F0F0F0;stroke-width:9.72"/>
	<line x1="2451.43" y1="2695.28" x2="2516.23" y2="2695.28" style="stroke:#F0F0F0;stroke-width:9.72"/>
	<line x1="2548.63" y1="2695.28" x2="2613.43" y2="2695.28" style="stroke:#F0F0F0;stroke-width:9.72"/>
	<line x1="2645.83" y1="2695.28" x2="2710.63" y2="2695.28" style="stroke:#F0F0F0;stroke-width:9.72"/>
	<line x1="2743.03" y1="2695.28" x2="2807.83" y2="2695.28" style="stroke:#F0F0F0;stroke-width:9.72"/>
	<line x1="2840.23" y1="2695.28" x2="2905.03" y2="2695.28" style="stroke:#F0F0F0;stroke-width:9.72"/>
	<line x1="2937.43" y1="2695.28" x2="3002.23" y2="2695.28" style="stroke:#F0F0F0;stroke-width:9.72"/>
	<line x1="3034.63" y1="2695.28" x2="3099.43" y2="2695.28" style="stroke:#F0F0F0;stroke-width:9.72"/>
	<line x1="3131.83" y1="2695.28" x2="3196.63" y2="2695.28" style="stroke:#F0F0F0;stroke-width:9.72"/>
	<line x1="3229.03" y1="2695.28" x2="3293.83" y2="2695.28" style="stroke:#F0F0F0;stroke-width:9.72"/>
	<line x1="3326.23" y1="2695.28" x2="3391.03" y2="2695.28" style="stroke:#F0F0F0;stroke-width:9.72"/>
	<line x1="3423.43" y1="2695.28" x2="3488.23" y2="2695.28" style="stroke:#F0F0F0;stroke-width:9.72"/>
	<line x1="3520.63" y1="2695.28" x2="3585.43" y2="2695.28" style="stroke:#F0F0F0;stroke-width:9.72"/>
	<line x1="3617.83" y1="2695.28" x2="3682.63" y2="2695.28" style="stroke:#F0F0F0;stroke-width:9.72"/>
	<line x1="3715.03" y1="2695.28" x2="3779.83" y2="2695.28" style="stroke:#F0F0F0;stroke-width:9.72"/>
	<line x1="3812.23" y1="2695.28" x2="3877.03" y2="2695.28" style="stroke:#F0F0F0;stroke-width:9.72"/>
	<line x1="3909.43" y1="2695.28" x2="3974.23" y2="2695.28" style="stroke:#F0F0F0;stroke-width:9.72"/>
	<line x1="4006.63" y1="2695.28" x2="4051.35" y2="2695.28" style="stroke:#F0F0F0;stroke-width:9.72"/>
	<line x1="410.23" y1="1885.44" x2="475.03" y2="1885.44" style="stroke:#F0F0F0;stroke-width:9.72"/>
	<line x1="507.43" y1="1885.44" x2="572.23" y2="1885.44" style="stroke:#F0F0F0;stroke-width:9.72"/>
	<line x1="604.63" y1="1885.44" x2="669.43" y2="1885.44" style="stroke:#F0F0F0;stroke-width:9.72"/>
	<line x1="701.83" y1="1885.44" x2="766.63" y2="1885.44" style="stroke:#F0F0F0;stroke-width:9.72"/>
	<line x1="799.03" y1="1885.44" x2="863.83" y2="1885.44" style="stroke:#F0F0F0;stroke-width:9.72"/>
	<line x1="896.23" y1="1885.44" x2="961.03" y2="1885.44" style="stroke:#F0F0F0;stroke-width:9.72"/>
	<line x1="993.43" y1="1885.44" x2="1058.23" y2="1885.44" style="stroke:#F0F0F0;stroke-width:9.72"/>
	<line x1="1090.63" y1="1885.44" x2="1155.43" y2="1885.44" style="stroke:#F0F0F0;stroke-width:9.72"/>
	<line x1="1187.83" y1="1885.44" x2="1252.63" y2="1885.44" style="stroke:#F0F0F0;stroke-width:9.72"/>
	<line x1="1285.03" y1="1885.44" x2="1349.83" y2="1885.44" style="stroke:#F0F0F0;stroke-width:9.72"/>
	<line x1="1382.23" y1="1885.44" x2="1447.03" y2="1885.44" style="stroke:#F0F0F0;stroke-width:9.72"/>
	<line x1="1479.43" y1="1885.44" x2="1544.23" y2="1885.44" style="stroke:#F0F0F0;stroke-width:9.72"/>
	<line x1="1576.63" y1="1885.44" x2="1641.43" y2="1885.44" style="stroke:#F0F0F0;stroke-width:9.72"/>
	<line x1="1673.83" y1="1885.44" x2="1738.63" y2="1885.44" style="stroke:#F0F0F0;stroke-width:9.72"/>
	<line x1="1771.03" y1="1885.44" x2="1835.83" y2="1885.44" style="stroke:#F0F0F0;stroke-width:9.72"/>
	<line x1="1868.23" y1="1885.44" x2="1933.03" y2="1885.44" style="stroke:#F0F0F0;stroke-width:9.72"/>
	<line x1="1965.43" y1="1885.44" x2="2030.23" y2="1885.44" style="stroke:#F0F0F0;stroke-width:9.72"/>
	<line x1="2062.63" y1="1885.44" x2="2127.43" y2="1885.44" style="stroke:#F0F0F0;stroke-width:9.72"/>
	<line x1="2159.83" y1="1885.44" x2="2224.63" y2="1885.44" style="stroke:#F0F0F0;stroke-width:9.72"/>
	<line x1="2257.03" y1="1885.44" x2="2321.83" y2="1885.44" style="stroke:#F0F0F0;stroke-width:9.72"/>
	<line x1="2354.23" y1="1885.44" x2="2419.03" y2="1885.44" style="stroke:#F0F0F0;stroke-width:9.72"/>
	<line x1="2451.43" y1="1885.44" x2="2516.23" y2="1885.44" style="stroke:#F0F0F0;stroke-width:9.72"/>
	<line x1="2548.63" y1="1885.44" x2="2613.43" y2="1885.44" style="stroke:#F0F0F0;stroke-width:9.72"/>
	<line x1="2645.83" y1="1885.44" x2="2710.63" y2="1885.44" style="stroke:#F0F0F0;stroke-width:9.72"/>
	<line x1="2743.03" y1="1885.44" x2="2807.83" y2="1885.44" style="stroke:#F0F0F0;stroke-width:9.72"/>
	<line x1="2840.23" y1="1885.44" x2="2905.03" y2="1885.44" style="stroke:#F0F0F0;stroke-width:9.72"/>
	<line x1="2937.43" y1="1885.44" x2="3002.23" y2="1885.44" style="stroke:#F0F0F0;stroke-width:9.72"/>
	<line x1="3034.63" y1="1885.44" x2="3099.43" y2="1885.44" style="stroke:#F0F0F0;stroke-width:9.72"/>
	<line x1="3131.83" y1="1885.44" x2="3196.63" y2="1885.44" style="stroke:#F0F0F0;stroke-width:9.72"/>
	<line x1="3229.03" y1="1885.44" x2="3293.83" y2="1885.44" style="stroke:#F0F0F0;stroke-width:9.72"/>
	<line x1="3326.23" y1="1885.44" x2="3391.03" y2="1885.44" style="stroke:#F0F0F0;stroke-width:9.72"/>
	<line x1="3423.43" y1="1885.44" x2="3488.23" y2="1885.44" style="stroke:#F0F0F0;stroke-width:9.72"/>
	<line x1="3520.63" y1="1885.44" x2="3585.43" y2="1885.44" style="stroke:#F0F0F0;stroke-width:9.72"/>
	<line x1="3617.83" y1="1885.44" x2="3682.63" y2="1885.44" style="stroke:#F0F0F0;stroke-width:9.72"/>
	<line x1="3715.03" y1="1885.44" x2="3779.83" y2="1885.44" style="stroke:#F0F0F0;stroke-width:9.72"/>
	<line x1="3812.23" y1="1885.44" x2="3877.03" y2="1885.44" style="stroke:#F0F0F0;stroke-width:9.72"/>
	<line x1="3909.43" y1="1885.44" x2="3974.23" y2="1885.44" style="stroke:#F0F0F0;stroke-width:9.72"/>
	<line x1="4006.63" y1="1885.44" x2="4051.35" y2="1885.44" style="stroke:#F0F0F0;stroke-width:9.72"/>
	<line x1="410.23" y1="1075.61" x2="475.03" y2="1075.61" style="stroke:#F0F0F0;stroke-width:9.72"/>
	<line x1="507.43" y1="1075.61" x2="572.23" y2="1075.61" style="stroke:#F0F0F0;stroke-width:9.72"/>
	<line x1="604.63" y1="1075.61" x2="669.43" y2="1075.61" style="stroke:#F0F0F0;stroke-width:9.72"/>
	<line x1="701.83" y1="1075.61" x2="766.63" y2="1075.61" style="stroke:#F0F0F0;stroke-width:9.72"/>
	<line x1="799.03" y1="1075.61" x2="863.83" y2="1075.61" style="stroke:#F0F0F0;stroke-width:9.72"/>
	<line x1="896.23" y1="1075.61" x2="961.03" y2="1075.61" style="stroke:#F0F0F0;stroke-width:9.72"/>
	<line x1="993.43" y1="1075.61" x2="1058.23" y2="1075.61" style="stroke:#F0F0F0;stroke-width:9.72"/>
	<line x1="1090.63" y1="1075.61" x2="1155.43" y2="1075.61" style="stroke:#F0F0F0;stroke-width:9.72"/>
	<line x1="1187.83" y1="1075.61" x2="1252.63" y2="1075.61" style="stroke:#F0F0F0;stroke-width:9.72"/>
	<line x1="1285.03" y1="1075.61" x2="1349.83" y2="1075.61" style="stroke:#F0F0F0;stroke-width:9.72"/>
	<line x1="1382.23" y1="1075.61" x2="1447.03" y2="1075.61" style="stroke:#F0F0F0;stroke-width:9.72"/>
	<line x1="1479.43" y1="1075.61" x2="1544.23" y2="1075.61" style="stroke:#F0F0F0;stroke-width:9.72"/>
	<line x1="1576.63" y1="1075.61" x2="1641.43" y2="1075.61" style="stroke:#F0F0F0;stroke-width:9.72"/>
	<line x1="1673.83" y1="1075.61" x2="1738.63" y2="1075.61" style="stroke:#F0F0F0;stroke-width:9.72"/>
	<line x1="1771.03" y1="1075.61" x2="1835.83" y2="1075.61" style="stroke:#F0F0F0;stroke-width:9.72"/>
	<line x1="1868.23" y1="1075.61" x2="1933.03" y2="1075.61" style="stroke:#F0F0F0;stroke-width:9.72"/>
	<line x1="1965.43" y1="1075.61" x2="2030.23" y2="1075.61" style="stroke:#F0F0F0;stroke-width:9.72"/>
	<line x1="2062.63" y1="1075.61" x2="2127.43" y2="1075.61" style="stroke:#F0F0F0;stroke-width:9.72"/>
	<line x1="2159.83" y1="1075.61" x2="2224.63" y2="1075.61" style="stroke:#F0F0F0;stroke-width:9.72"/>
	<line x1="2257.03" y1="1075.61" x2="2321.83" y2="1075.61" style="stroke:#F0F0F0;stroke-width:9.72"/>
	<line x1="2354.23" y1="1075.61" x2="2419.03" y2="1075.61" style="stroke:#F0F0F0;stroke-width:9.72"/>
	<line x1="2451.43" y1="1075.61" x2="2516.23" y2="1075.61" style="stroke:#F0F0F0;stroke-width:9.72"/>
	<line x1="2548.63" y1="1075.61" x2="2613.43" y2="1075.61" style="stroke:#F0F0F0;stroke-width:9.72"/>
	<line x1="2645.83" y1="1075.61" x2="2710.63" y2="1075.61" style="stroke:#F0F0F0;stroke-width:9.72"/>
	<line x1="2743.03" y1="1075.61" x2="2807.83" y2="1075.61" style="stroke:#F0F0F0;stroke-width:9.72"/>
	<line x1="2840.23" y1="1075.61" x2="2905.03" y2="1075.61" style="stroke:#F0F0F0;stroke-width:9.72"/>
	<line x1="2937.43" y1="1075.61" x2="3002.23" y2="1075.61" style="stroke:#F0F0F0;stroke-width:9.72"/>
	<line x1="3034.63" y1="1075.61" x2="3099.43" y2="1075.61" style="stroke:#F0F0F0;stroke-width:9.72"/>
	<line x1="3131.83" y1="1075.61" x2="3196.63" y2="1075.61" style="stroke:#F0F0F0;stroke-width:9.72"/>
	<line x1="3229.03" y1="1075.61" x2="3293.83" y2="1075.61" style="stroke:#F0F0F0;stroke-width:9.72"/>
	<line x1="3326.23" y1="1075.61" x2="3391.03" y2="1075.61" style="stroke:#F0F0F0;stroke-width:9.72"/>
	<line x1="3423.43" y1="1075.61" x2="3488.23" y2="1075.61" style="stroke:#F0F0F0;stroke-width:9.72"/>
	<line x1="3520.63" y1="1075.61" x2="3585.43" y2="1075.61" style="stroke:#F0F0F0;stroke-width:9.72"/>
	<line x1="3617.83" y1="1075.61" x2="3682.63" y2="1075.61" style="stroke:#F0F0F0;stroke-width:9.72"/>
	<line x1="3715.03" y1="1075.61" x2="3779.83" y2="1075.61" style="stroke:#F0F0F0;stroke-width:9.72"/>
	<line x1="3812.23" y1="1075.61" x2="3877.03" y2="1075.61" style="stroke:#F0F0F0;stroke-width:9.72"/>
	<line x1="3909.43" y1="1075.61" x2="3974.23" y2="1075.61" style="stroke:#F0F0F0;stroke-width:9.72"/>
	<line x1="4006.63" y1="1075.61" x2="4051.35" y2="1075.61" style="stroke:#F0F0F0;stroke-width:9.72"/>
	<line x1="410.23" y1="265.61" x2="475.03" y2="265.61" style="stroke:#F0F0F0;stroke-width:9.72"/>
	<line x1="507.43" y1="265.61" x2="572.23" y2="265.61" style="stroke:#F0F0F0;stroke-width:9.72"/>
	<line x1="604.63" y1="265.61" x2="669.43" y2="265.61" style="stroke:#F0F0F0;stroke-width:9.72"/>
	<line x1="701.83" y1="265.61" x2="766.63" y2="265.61" style="stroke:#F0F0F0;stroke-width:9.72"/>
	<line x1="799.03" y1="265.61" x2="863.83" y2="265.61" style="stroke:#F0F0F0;stroke-width:9.72"/>
	<line x1="896.23" y1="265.61" x2="961.03" y2="265.61" style="stroke:#F0F0F0;stroke-width:9.72"/>
	<line x1="993.43" y1="265.61" x2="1058.23" y2="265.61" style="stroke:#F0F0F0;stroke-width:9.72"/>
	<line x1="1090.63" y1="265.61" x2="1155.43" y2="265.61" style="stroke:#F0F0F0;stroke-width:9.72"/>
	<line x1="1187.83" y1="265.61" x2="1252.63" y2="265.61" style="stroke:#F0F0F0;stroke-width:9.72"/>
	<line x1="1285.03" y1="265.61" x2="1349.83" y2="265.61" style="stroke:#F0F0F0;stroke-width:9.72"/>
	<line x1="1382.23" y1="265.61" x2="1447.03" y2="265.61" style="stroke:#F0F0F0;stroke-width:9.72"/>
	<line x1="1479.43" y1="265.61" x2="1544.23" y2="265.61" style="stroke:#F0F0F0;stroke-width:9.72"/>
	<line x1="1576.63" y1="265.61" x2="1641.43" y2="265.61" style="stroke:#F0F0F0;stroke-width:9.72"/>
	<line x1="1673.83" y1="265.61" x2="1738.63" y2="265.61" style="stroke:#F0F0F0;stroke-width:9.72"/>
	<line x1="1771.03" y1="265.61" x2="1835.83" y2="265.61" style="stroke:#F0F0F0;stroke-width:9.72"/>
	<line x1="1868.23" y1="265.61" x2="1933.03" y2="265.61" style="stroke:#F0F0F0;stroke-width:9.72"/>
	<line x1="1965.43" y1="265.61" x2="2030.23" y2="265.61" style="stroke:#F0F0F0;stroke-width:9.72"/>
	<line x1="2062.63" y1="265.61" x2="2127.43" y2="265.61" style="stroke:#F0F0F0;stroke-width:9.72"/>
	<line x1="2159.83" y1="265.61" x2="2224.63" y2="265.61" style="stroke:#F0F0F0;stroke-width:9.72"/>
	<line x1="2257.03" y1="265.61" x2="2321.83" y2="265.61" style="stroke:#F0F0F0;stroke-width:9.72"/>
	<line x1="2354.23" y1="265.61" x2="2419.03" y2="265.61" style="stroke:#F0F0F0;stroke-width:9.72"/>
	<line x1="2451.43" y1="265.61" x2="2516.23" y2="265.61" style="stroke:#F0F0F0;stroke-width:9.72"/>
	<line x1="2548.63" y1="265.61" x2="2613.43" y2="265.61" style="stroke:#F0F0F0;stroke-width:9.72"/>
	<line x1="2645.83" y1="265.61" x2="2710.63" y2="265.61" style="stroke:#F0F0F0;stroke-width:9.72"/>
	<line x1="2743.03" y1="265.61" x2="2807.83" y2="265.61" style="stroke:#F0F0F0;stroke-width:9.72"/>
	<line x1="2840.23" y1="265.61" x2="2905.03" y2="265.61" style="stroke:#F0F0F0;stroke-width:9.72"/>
	<line x1="2937.43" y1="265.61" x2="3002.23" y2="265.61" style="stroke:#F0F0F0;stroke-width:9.72"/>
	<line x1="3034.63" y1="265.61" x2="3099.43" y2="265.61" style="stroke:#F0F0F0;stroke-width:9.72"/>
	<line x1="3131.83" y1="265.61" x2="3196.63" y2="265.61" style="stroke:#F0F0F0;stroke-width:9.72"/>
	<line x1="3229.03" y1="265.61" x2="3293.83" y2="265.61" style="stroke:#F0F0F0;stroke-width:9.72"/>
	<line x1="3326.23" y1="265.61" x2="3391.03" y2="265.61" style="stroke:#F0F0F0;stroke-width:9.72"/>
	<line x1="3423.43" y1="265.61" x2="3488.23" y2="265.61" style="stroke:#F0F0F0;stroke-width:9.72"/>
	<line x1="3520.63" y1="265.61" x2="3585.43" y2="265.61" style="stroke:#F0F0F0;stroke-width:9.72"/>
	<line x1="3617.83" y1="265.61" x2="3682.63" y2="265.61" style="stroke:#F0F0F0;stroke-width:9.72"/>
	<line x1="3715.03" y1="265.61" x2="3779.83" y2="265.61" style="stroke:#F0F0F0;stroke-width:9.72"/>
	<line x1="3812.23" y1="265.61" x2="3877.03" y2="265.61" style="stroke:#F0F0F0;stroke-width:9.72"/>
	<line x1="3909.43" y1="265.61" x2="3974.23" y2="265.61" style="stroke:#F0F0F0;stroke-width:9.72"/>
	<line x1="4006.63" y1="265.61" x2="4051.35" y2="265.61" style="stroke:#F0F0F0;stroke-width:9.72"/>
	<line x1="740.64" y1="2766.66" x2="740.64" y2="2701.86" style="stroke:#F0F0F0;stroke-width:9.72"/>
	<line x1="740.64" y1="2669.46" x2="740.64" y2="2604.66" style="stroke:#F0F0F0;stroke-width:9.72"/>
	<line x1="740.64" y1="2572.26" x2="740.64" y2="2507.46" style="stroke:#F0F0F0;stroke-width:9.72"/>
	<line x1="740.64" y1="2475.06" x2="740.64" y2="2410.26" style="stroke:#F0F0F0;stroke-width:9.72"/>
	<line x1="740.64" y1="2377.86" x2="740.64" y2="2313.06" style="stroke:#F0F0F0;stroke-width:9.72"/>
	<line x1="740.64" y1="2280.66" x2="740.64" y2="2215.86" style="stroke:#F0F0F0;stroke-width:9.72"/>
	<line x1="740.64" y1="2183.46" x2="740.64" y2="2118.66" style="stroke:#F0F0F0;stroke-width:9.72"/>
	<line x1="740.64" y1="2086.26" x2="740.64" y2="2021.46" style="stroke:#F0F0F0;stroke-width:9.72"/>
	<line x1="740.64" y1="1989.06" x2="740.64" y2="1924.26" style="stroke:#F0F0F0;stroke-width:9.72"/>
	<line x1="740.64" y1="1891.86" x2="740.64" y2="1827.06" style="stroke:#F0F0F0;stroke-width:9.72"/>
	<line x1="740.64" y1="1794.66" x2="740.64" y2="1729.86" style="stroke:#F0F0F0;stroke-width:9.72"/>
	<line x1="740.64" y1="1697.46" x2="740.64" y2="1632.66" style="stroke:#F0F0F0;stroke-width:9.72"/>
	<line x1="740.64" y1="1600.26" x2="740.64" y2="1535.46" style="stroke:#F0F0F0;stroke-width:9.72"/>
	<line x1="740.64" y1="1503.06" x2="740.64" y2="1438.26" style="stroke:#F0F0F0;stroke-width:9.72"/>
	<line x1="740.64" y1="1405.86" x2="740.64" y2="1341.06" style="stroke:#F0F0F0;stroke-width:9.72"/>
	<line x1="740.64" y1="1308.66" x2="740.64" y2="1243.86" style="stroke:#F0F0F0;stroke-width:9.72"/>
	<line x1="740.64" y1="1211.46" x2="740.64" y2="1146.66" style="stroke:#F0F0F0;stroke-width:9.72"/>
	<line x1="740.64" y1="1114.26" x2="740.64" y2="1049.46" style="stroke:#F0F0F0;stroke-width:9.72"/>
	<line x1="740.64" y1="1017.06" x2="740.64" y2="952.26" style="stroke:#F0F0F0;stroke-width:9.72"/>
	<line x1="740.64" y1="919.86" x2="740.64" y2="855.06" style="stroke:#F0F0F0;stroke-width:9.72"/>
	<line x1="740.64" y1="822.66" x2="740.64" y2="757.86" style="stroke:#F0F0F0;stroke-width:9.72"/>
	<line x1="740.64" y1="725.46" x2="740.64" y2="660.66" style="stroke:#F0F0F0;stroke-width:9.72"/>
	<line x1="740.64" y1="628.26" x2="740.64" y2="563.46" style="stroke:#F0F0F0;stroke-width:9.72"/>
	<line x1="740.64" y1="531.06" x2="740.64" y2="466.26" style="stroke:#F0F0F0;stroke-width:9.72"/>
	<line x1="740.64" y1="433.86" x2="740.64" y2="369.06" style="stroke:#F0F0F0;stroke-width:9.72"/>
	<line x1="740.64" y1="336.66" x2="740.64" y2="271.86" style="stroke:#F0F0F0;stroke-width:9.72"/>
	<line x1="740.64" y1="239.46" x2="740.64" y2="174.66" style="stroke:#F0F0F0;stroke-width:9.72"/>
	<line x1="740.64" y1="142.26" x2="740.64" y2="113.40" style="stroke:#F0F0F0;stroke-width:9.72"/>
	<line x1="1820.48" y1="2766.66" x2="1820.48" y2="2701.86" style="stroke:#F0F0F0;stroke-width:9.72"/>
	<line x1="1820.48" y1="2669.46" x2="1820.48" y2="2604.66" style="stroke:#F0F0F0;stroke-width:9.72"/>
	<line x1="1820.48" y1="2572.26" x2="1820.48" y2="2507.46" style="stroke:#F0F0F0;stroke-width:9.72"/>
	<line x1="1820.48" y1="2475.06" x2="1820.48" y2="2410.26" style="stroke:#F0F0F0;stroke-width:9.72"/>
	<line x1="1820.48" y1="2377.86" x2="1820.48" y2="2313.06" style="stroke:#F0F0F0;stroke-width:9.72"/>
	<line x1="1820.48" y1="2280.66" x2="1820.48" y2="2215.86" style="stroke:#F0F0F0;stroke-width:9.72"/>
	<line x1="1820.48" y1="2183.46" x2="1820.48" y2="2118.66" style="stroke:#F0F0F0;stroke-width:9.72"/>
	<line x1="1820.48" y1="2086.26" x2="1820.48" y2="2021.46" style="stroke:#F0F0F0;stroke-width:9.72"/>
	<line x1="1820.48" y1="1989.06" x2="1820.48" y2="1924.26" style="stroke:#F0F0F0;stroke-width:9.72"/>
	<line x1="1820.48" y1="1891.86" x2="1820.48" y2="1827.06" style="stroke:#F0F0F0;stroke-width:9.72"/>
	<line x1="1820.48" y1="1794.66" x2="1820.48" y2="1729.86" style="stroke:#F0F0F0;stroke-width:9.72"/>
	<line x1="1820.48" y1="1697.46" x2="1820.48" y2="1632.66" style="stroke:#F0F0F0;stroke-width:9.72"/>
	<line x1="1820.48" y1="1600.26" x2="1820.48" y2="1535.46" style="stroke:#F0F0F0;stroke-width:9.72"/>
	<line x1="1820.48" y1="1503.06" x2="1820.48" y2="1438.26" style="stroke:#F0F0F0;stroke-width:9.72"/>
	<line x1="1820.48" y1="1405.86" x2="1820.48" y2="1341.06" style="stroke:#F0F0F0;stroke-width:9.72"/>
	<line x1="1820.48" y1="1308.66" x2="1820.48" y2="1243.86" style="stroke:#F0F0F0;stroke-width:9.72"/>
	<line x1="1820.48" y1="1211.46" x2="1820.48" y2="1146.66" style="stroke:#F0F0F0;stroke-width:9.72"/>
	<line x1="1820.48" y1="1114.26" x2="1820.48" y2="1049.46" style="stroke:#F0F0F0;stroke-width:9.72"/>
	<line x1="1820.48" y1="1017.06" x2="1820.48" y2="952.26" style="stroke:#F0F0F0;stroke-width:9.72"/>
	<line x1="1820.48" y1="919.86" x2="1820.48" y2="855.06" style="stroke:#F0F0F0;stroke-width:9.72"/>
	<line x1="1820.48" y1="822.66" x2="1820.48" y2="757.86" style="stroke:#F0F0F0;stroke-width:9.72"/>
	<line x1="1820.48" y1="725.46" x2="1820.48" y2="660.66" style="stroke:#F0F0F0;stroke-width:9.72"/>
	<line x1="1820.48" y1="628.26" x2="1820.48" y2="563.46" style="stroke:#F0F0F0;stroke-width:9.72"/>
	<line x1="1820.48" y1="531.06" x2="1820.48" y2="466.26" style="stroke:#F0F0F0;stroke-width:9.72"/>
	<line x1="1820.48" y1="433.86" x2="1820.48" y2="369.06" style="stroke:#F0F0F0;stroke-width:9.72"/>
	<line x1="1820.48" y1="336.66" x2="1820.48" y2="271.86" style="stroke:#F0F0F0;stroke-width:9.72"/>
	<line x1="1820.48" y1="239.46" x2="1820.48" y2="174.66" style="stroke:#F0F0F0;stroke-width:9.72"/>
	<line x1="1820.48" y1="142.26" x2="1820.48" y2="113.40" style="stroke:#F0F0F0;stroke-width:9.72"/>
	<line x1="2900.31" y1="2766.66" x2="2900.31" y2="2701.86" style="stroke:#F0F0F0;stroke-width:9.72"/>
	<line x1="2900.31" y1="2669.46" x2="2900.31" y2="2604.66" style="stroke:#F0F0F0;stroke-width:9.72"/>
	<line x1="2900.31" y1="2572.26" x2="2900.31" y2="2507.46" style="stroke:#F0F0F0;stroke-width:9.72"/>
	<line x1="2900.31" y1="2475.06" x2="2900.31" y2="2410.26" style="stroke:#F0F0F0;stroke-width:9.72"/>
	<line x1="2900.31" y1="2377.86" x2="2900.31" y2="2313.06" style="stroke:#F0F0F0;stroke-width:9.72"/>
	<line x1="2900.31" y1="2280.66" x2="2900.31" y2="2215.86" style="stroke:#F0F0F0;stroke-width:9.72"/>
	<line x1="2900.31" y1="2183.46" x2="2900.31" y2="2118.66" style="stroke:#F0F0F0;stroke-width:9.72"/>
	<line x1="2900.31" y1="2086.26" x2="2900.31" y2="2021.46" style="stroke:#F0F0F0;stroke-width:9.72"/>
	<line x1="2900.31" y1="1989.06" x2="2900.31" y2="1924.26" style="stroke:#F0F0F0;stroke-width:9.72"/>
	<line x1="2900.31" y1="1891.86" x2="2900.31" y2="1827.06" style="stroke:#F0F0F0;stroke-width:9.72"/>
	<line x1="2900.31" y1="1794.66" x2="2900.31" y2="1729.86" style="stroke:#F0F0F0;stroke-width:9.72"/>
	<line x1="2900.31" y1="1697.46" x2="2900.31" y2="1632.66" style="stroke:#F0F0F0;stroke-width:9.72"/>
	<line x1="2900.31" y1="1600.26" x2="2900.31" y2="1535.46" style="stroke:#F0F0F0;stroke-width:9.72"/>
	<line x1="2900.31" y1="1503.06" x2="2900.31" y2="1438.26" style="stroke:#F0F0F0;stroke-width:9.72"/>
	<line x1="2900.31" y1="1405.86" x2="2900.31" y2="1341.06" style="stroke:#F0F0F0;stroke-width:9.72"/>
	<line x1="2900.31" y1="1308.66" x2="2900.31" y2="1243.86" style="stroke:#F0F0F0;stroke-width:9.72"/>
	<line x1="2900.31" y1="1211.46" x2="2900.31" y2="1146.66" style="stroke:#F0F0F0;stroke-width:9.72"/>
	<line x1="2900.31" y1="1114.26" x2="2900.31" y2="1049.46" style="stroke:#F0F0F0;stroke-width:9.72"/>
	<line x1="2900.31" y1="1017.06" x2="2900.31" y2="952.26" style="stroke:#F0F0F0;stroke-width:9.72"/>
	<line x1="2900.31" y1="919.86" x2="2900.31" y2="855.06" style="stroke:#F0F0F0;stroke-width:9.72"/>
	<line x1="2900.31" y1="822.66" x2="2900.31" y2="757.86" style="stroke:#F0F0F0;stroke-width:9.72"/>
	<line x1="2900.31" y1="725.46" x2="2900.31" y2="660.66" style="stroke:#F0F0F0;stroke-width:9.72"/>
	<line x1="2900.31" y1="628.26" x2="2900.31" y2="563.46" style="stroke:#F0F0F0;stroke-width:9.72"/>
	<line x1="2900.31" y1="531.06" x2="2900.31" y2="466.26" style="stroke:#F0F0F0;stroke-width:9.72"/>
	<line x1="2900.31" y1="433.86" x2="2900.31" y2="369.06" style="stroke:#F0F0F0;stroke-width:9.72"/>
	<line x1="2900.31" y1="336.66" x2="2900.31" y2="271.86" style="stroke:#F0F0F0;stroke-width:9.72"/>
	<line x1="2900.31" y1="239.46" x2="2900.31" y2="174.66" style="stroke:#F0F0F0;stroke-width:9.72"/>
	<line x1="2900.31" y1="142.26" x2="2900.31" y2="113.40" style="stroke:#F0F0F0;stroke-width:9.72"/>
	<line x1="3980.14" y1="2766.66" x2="3980.14" y2="2701.86" style="stroke:#F0F0F0;stroke-width:9.72"/>
	<line x1="3980.14" y1="2669.46" x2="3980.14" y2="2604.66" style="stroke:#F0F0F0;stroke-width:9.72"/>
	<line x1="3980.14" y1="2572.26" x2="3980.14" y2="2507.46" style="stroke:#F0F0F0;stroke-width:9.72"/>
	<line x1="3980.14" y1="2475.06" x2="3980.14" y2="2410.26" style="stroke:#F0F0F0;stroke-width:9.72"/>
	<line x1="3980.14" y1="2377.86" x2="3980.14" y2="2313.06" style="stroke:#F0F0F0;stroke-width:9.72"/>
	<line x1="3980.14" y1="2280.66" x2="3980.14" y2="2215.86" style="stroke:#F0F0F0;stroke-width:9.72"/>
	<line x1="3980.14" y1="2183.46" x2="3980.14" y2="2118.66" style="stroke:#F0F0F0;stroke-width:9.72"/>
	<line x1="3980.14" y1="2086.26" x2="3980.14" y2="2021.46" style="stroke:#F0F0F0;stroke-width:9.72"/>
	<line x1="3980.14" y1="1989.06" x2="3980.14" y2="1924.26" style="stroke:#F0F0F0;stroke-width:9.72"/>
	<line x1="3980.14" y1="1891.86" x2="3980.14" y2="1827.06" style="stroke:#F0F0F0;stroke-width:9.72"/>
	<line x1="3980.14" y1="1794.66" x2="3980.14" y2="1729.86" style="stroke:#F0F0F0;stroke-width:9.72"/>
	<line x1="3980.14" y1="1697.46" x2="3980.14" y2="1632.66" style="stroke:#F0F0F0;stroke-width:9.72"/>
	<line x1="3980.14" y1="1600.26" x2="3980.14" y2="1535.46" style="stroke:#F0F0F0;stroke-width:9.72"/>
	<line x1="3980.14" y1="1503.06" x2="3980.14" y2="1438.26" style="stroke:#F0F0F0;stroke-width:9.72"/>
	<line x1="3980.14" y1="1405.86" x2="3980.14" y2="1341.06" style="stroke:#F0F0F0;stroke-width:9.72"/>
	<line x1="3980.14" y1="1308.66" x2="3980.14" y2="1243.86" style="stroke:#F0F0F0;stroke-width:9.72"/>
	<line x1="3980.14" y1="1211.46" x2="3980.14" y2="1146.66" style="stroke:#F0F0F0;stroke-width:9.72"/>
	<line x1="3980.14" y1="1114.26" x2="3980.14" y2="1049.46" style="stroke:#F0F0F0;stroke-width:9.72"/>
	<line x1="3980.14" y1="1017.06" x2="3980.14" y2="952.26" style="stroke:#F0F0F0;stroke-width:9.72"/>
	<line x1="3980.14" y1="919.86" x2="3980.14" y2="855.06" style="stroke:#F0F0F0;stroke-width:9.72"/>
	<line x1="3980.14" y1="822.66" x2="3980.14" y2="757.86" style="stroke:#F0F0F0;stroke-width:9.72"/>
	<line x1="3980.14" y1="725.46" x2="3980.14" y2="660.66" style="stroke:#F0F0F0;stroke-width:9.72"/>
	<line x1="3980.14" y1="628.26" x2="3980.14" y2="563.46" style="stroke:#F0F0F0;stroke-width:9.72"/>
	<line x1="3980.14" y1="531.06" x2="3980.14" y2="466.26" style="stroke:#F0F0F0;stroke-width:9.72"/>
	<line x1="3980.14" y1="433.86" x2="3980.14" y2="369.06" style="stroke:#F0F0F0;stroke-width:9.72"/>
	<line x1="3980.14" y1="336.66" x2="3980.14" y2="271.86" style="stroke:#F0F0F0;stroke-width:9.72"/>
	<line x1="3980.14" y1="239.46" x2="3980.14" y2="174.66" style="stroke:#F0F0F0;stroke-width:9.72"/>
	<line x1="3980.14" y1="142.26" x2="3980.14" y2="113.40" style="stroke:#F0F0F0;stroke-width:9.72"/>
	<circle cx="1744.88" cy="1723.61" r="21.74" style="fill:#1A85FF"/>
	<circle cx="1744.88" cy="1723.61" r="16.88" style="fill:none;stroke:#1A85FF;stroke-width:9.72"/>
	<circle cx="2198.31" cy="2128.44" r="21.74" style="fill:#1A85FF"/>
	<circle cx="2198.31" cy="2128.44" r="16.88" style="fill:none;stroke:#1A85FF;stroke-width:9.72"/>
	<circle cx="1431.68" cy="1723.61" r="21.74" style="fill:#1A85FF"/>
	<circle cx="1431.68" cy="1723.61" r="16.88" style="fill:none;stroke:#1A85FF;stroke-width:9.72"/>
	<circle cx="2090.31" cy="1885.44" r="21.74" style="fill:#1A85FF"/>
	<circle cx="2090.31" cy="1885.44" r="16.88" style="fill:none;stroke:#1A85FF;stroke-width:9.72"/>
	<circle cx="2986.54" cy="2290.44" r="21.74" style="fill:#1A85FF"/>
	<circle cx="2986.54" cy="2290.44" r="16.88" style="fill:none;stroke:#1A85FF;stroke-width:9.72"/>
	<circle cx="2543.91" cy="2047.44" r="21.74" style="fill:#1A85FF"/>
	<circle cx="2543.91" cy="2047.44" r="16.88" style="fill:none;stroke:#1A85FF;stroke-width:9.72"/>
	<circle cx="988.88" cy="1399.61" r="21.74" style="fill:#1A85FF"/>
	<circle cx="988.88" cy="1399.61" r="16.88" style="fill:none;stroke:#1A85FF;stroke-width:9.72"/>
	<circle cx="2122.71" cy="1885.44" r="21.74" style="fill:#1A85FF"/>
	<circle cx="2122.71" cy="1885.44" r="16.88" style="fill:none;stroke:#1A85FF;stroke-width:9.72"/>
	<circle cx="2770.71" cy="2209.44" r="21.74" style="fill:#1A85FF"/>
	<circle cx="2770.71" cy="2209.44" r="16.88" style="fill:none;stroke:#1A85FF;stroke-width:9.72"/>
	<circle cx="2252.31" cy="1966.44" r="21.74" style="fill:#1A85FF"/>
	<circle cx="2252.31" cy="1966.44" r="16.88" style="fill:none;stroke:#1A85FF;stroke-width:9.72"/>
	<circle cx="3256.54" cy="2371.44" r="21.74" style="fill:#1A85FF"/>
	<circle cx="3256.54" cy="2371.44" r="16.88" style="fill:none;stroke:#1A85FF;stroke-width:9.72"/>
	<circle cx="2792.31" cy="2371.44" r="21.74" style="fill:#1A85FF"/>
	<circle cx="2792.31" cy="2371.44" r="16.88" style="fill:none;stroke:#1A85FF;stroke-width:9.72"/>
	<circle cx="3213.34" cy="1804.61" r="21.74" style="fill:#1A85FF"/>
	<circle cx="3213.34" cy="1804.61" r="16.88" style="fill:none;stroke:#1A85FF;stroke-width:9.72"/>
	<circle cx="859.28" cy="1156.61" r="21.74" style="fill:#1A85FF"/>
	<circle cx="859.28" cy="1156.61" r="16.88" style="fill:none;stroke:#1A85FF;stroke-width:9.72"/>
	<circle cx="2565.51" cy="2209.44" r="21.74" style="fill:#1A85FF"/>
	<circle cx="2565.51" cy="2209.44" r="16.88" style="fill:none;stroke:#1A85FF;stroke-width:9.72"/>
	<circle cx="2014.71" cy="1723.61" r="21.74" style="fill:#1A85FF"/>
	<circle cx="2014.71" cy="1723.61" r="16.88" style="fill:none;stroke:#1A85FF;stroke-width:9.72"/>
	<circle cx="2057.91" cy="1723.61" r="21.74" style="fill:#1A85FF"/>
	<circle cx="2057.91" cy="1723.61" r="16.88" style="fill:none;stroke:#1A85FF;stroke-width:9.72"/>
	<circle cx="1550.48" cy="1561.61" r="21.74" style="fill:#1A85FF"/>
	<circle cx="1550.48" cy="1561.61" r="16.88" style="fill:none;stroke:#1A85FF;stroke-width:9.72"/>
	<circle cx="2284.71" cy="1966.44" r="21.74" style="fill:#1A85FF"/>
	<circle cx="2284.71" cy="1966.44" r="16.88" style="fill:none;stroke:#1A85FF;stroke-width:9.72"/>
	<circle cx="870.08" cy="1075.61" r="21.74" style="fill:#1A85FF"/>
	<circle cx="870.08" cy="1075.61" r="16.88" style="fill:none;stroke:#1A85FF;stroke-width:9.72"/>
	<circle cx="2468.31" cy="2047.44" r="21.74" style="fill:#1A85FF"/>
	<circle cx="2468.31" cy="2047.44" r="16.88" style="fill:none;stroke:#1A85FF;stroke-width:9.72"/>
	<circle cx="2468.31" cy="2209.44" r="21.74" style="fill:#1A85FF"/>
	<circle cx="2468.31" cy="2209.44" r="16.88" style="fill:none;stroke:#1A85FF;stroke-width:9.72"/>
	<circle cx="2619.51" cy="2128.44" r="21.74" style="fill:#1A85FF"/>
	<circle cx="2619.51" cy="2128.44" r="16.88" style="fill:none;stroke:#1A85FF;stroke-width:9.72"/>
	<circle cx="524.64" cy="1237.61" r="21.74" style="fill:#1A85FF"/>
	<circle cx="524.64" cy="1237.61" r="16.88" style="fill:none;stroke:#1A85FF;stroke-width:9.72"/>
	<circle cx="1442.48" cy="1804.61" r="21.74" style="fill:#1A85FF"/>
	<circle cx="1442.48" cy="1804.61" r="16.88" style="fill:none;stroke:#1A85FF;stroke-width:9.72"/>
	<circle cx="3807.34" cy="2533.44" r="21.74" style="fill:#1A85FF"/>
	<circle cx="3807.34" cy="2533.44" r="16.88" style="fill:none;stroke:#1A85FF;stroke-width:9.72"/>
	<circle cx="3677.74" cy="2533.44" r="21.74" style="fill:#1A85FF"/>
	<circle cx="3677.74" cy="2533.44" r="16.88" style="fill:none;stroke:#1A85FF;stroke-width:9.72"/>
	<circle cx="2716.71" cy="2371.44" r="21.74" style="fill:#1A85FF"/>
	<circle cx="2716.71" cy="2371.44" r="16.88" style="fill:none;stroke:#1A85FF;stroke-width:9.72"/>
	<circle cx="1366.88" cy="1723.61" r="21.74" style="fill:#1A85FF"/>
	<circle cx="1366.88" cy="1723.61" r="16.88" style="fill:none;stroke:#1A85FF;stroke-width:9.72"/>
	<circle cx="2964.94" cy="2371.44" r="21.74" style="fill:#1A85FF"/>
	<circle cx="2964.94" cy="2371.44" r="16.88" style="fill:none;stroke:#1A85FF;stroke-width:9.72"/>
	<circle cx="2597.91" cy="2290.44" r="21.74" style="fill:#1A85FF"/>
	<circle cx="2597.91" cy="2290.44" r="16.88" style="fill:none;stroke:#1A85FF;stroke-width:9.72"/>
	<circle cx="2219.91" cy="2047.44" r="21.74" style="fill:#1A85FF"/>
	<circle cx="2219.91" cy="2047.44" r="16.88" style="fill:none;stroke:#1A85FF;stroke-width:9.72"/>
	<circle cx="3040.54" cy="2371.44" r="21.74" style="fill:#1A85FF"/>
	<circle cx="3040.54" cy="2371.44" r="16.88" style="fill:none;stroke:#1A85FF;stroke-width:9.72"/>
	<circle cx="1636.88" cy="1885.44" r="21.74" style="fill:#1A85FF"/>
	<circle cx="1636.88" cy="1885.44" r="16.88" style="fill:none;stroke:#1A85FF;stroke-width:9.72"/>
	<circle cx="2964.94" cy="1804.61" r="21.74" style="fill:#1A85FF"/>
	<circle cx="2964.94" cy="1804.61" r="16.88" style="fill:none;stroke:#1A85FF;stroke-width:9.72"/>
	<circle cx="2155.11" cy="1966.44" r="21.74" style="fill:#1A85FF"/>
	<circle cx="2155.11" cy="1966.44" r="16.88" style="fill:none;stroke:#1A85FF;stroke-width:9.72"/>
	<circle cx="2144.31" cy="1966.44" r="21.74" style="fill:#1A85FF"/>
	<circle cx="2144.31" cy="1966.44" r="16.88" style="fill:none;stroke:#1A85FF;stroke-width:9.72"/>
	<circle cx="2565.51" cy="2047.44" r="21.74" style="fill:#1A85FF"/>
	<circle cx="2565.51" cy="2047.44" r="16.88" style="fill:none;stroke:#1A85FF;stroke-width:9.72"/>
	<circle cx="2219.91" cy="1966.44" r="21.74" style="fill:#1A85FF"/>
	<circle cx="2219.91" cy="1966.44" r="16.88" style="fill:none;stroke:#1A85FF;stroke-width:9.72"/>
	<circle cx="1528.88" cy="1561.61" r="21.74" style="fill:#1A85FF"/>
	<circle cx="1528.88" cy="1561.61" r="16.88" style="fill:none;stroke:#1A85FF;stroke-width:9.72"/>
	<circle cx="2932.54" cy="2209.44" r="21.74" style="fill:#1A85FF"/>
	<circle cx="2932.54" cy="2209.44" r="16.88" style="fill:none;stroke:#1A85FF;stroke-width:9.72"/>
	<circle cx="2101.11" cy="1237.61" r="21.74" style="fill:#1A85FF"/>
	<circle cx="2101.11" cy="1237.61" r="16.88" style="fill:none;stroke:#1A85FF;stroke-width:9.72"/>
	<circle cx="524.64" cy="751.61" r="21.74" style="fill:#1A85FF"/>
	<circle cx="524.64" cy="751.61" r="16.88" style="fill:none;stroke:#1A85FF;stroke-width:9.72"/>
	<circle cx="956.48" cy="1480.61" r="21.74" style="fill:#1A85FF"/>
	<circle cx="956.48" cy="1480.61" r="16.88" style="fill:none;stroke:#1A85FF;stroke-width:9.72"/>
	<circle cx="1302.08" cy="1399.61" r="21.74" style="fill:#1A85FF"/>
	<circle cx="1302.08" cy="1399.61" r="16.88" style="fill:none;stroke:#1A85FF;stroke-width:9.72"/>
	<circle cx="2176.71" cy="2047.44" r="21.74" style="fill:#1A85FF"/>
	<circle cx="2176.71" cy="2047.44" r="16.88" style="fill:none;stroke:#1A85FF;stroke-width:9.72"/>
	<circle cx="2576.31" cy="2047.44" r="21.74" style="fill:#1A85FF"/>
	<circle cx="2576.31" cy="2047.44" r="16.88" style="fill:none;stroke:#1A85FF;stroke-width:9.72"/>
	<circle cx="2327.91" cy="2047.44" r="21.74" style="fill:#1A85FF"/>
	<circle cx="2327.91" cy="2047.44" r="16.88" style="fill:none;stroke:#1A85FF;stroke-width:9.72"/>
	<circle cx="2047.11" cy="1966.44" r="21.74" style="fill:#1A85FF"/>
	<circle cx="2047.11" cy="1966.44" r="16.88" style="fill:none;stroke:#1A85FF;stroke-width:9.72"/>
	<circle cx="2036.31" cy="1966.44" r="21.74" style="fill:#1A85FF"/>
	<circle cx="2036.31" cy="1966.44" r="16.88" style="fill:none;stroke:#1A85FF;stroke-width:9.72"/>
	<circle cx="2273.91" cy="1966.44" r="21.74" style="fill:#1A85FF"/>
	<circle cx="2273.91" cy="1966.44" r="16.88" style="fill:none;stroke:#1A85FF;stroke-width:9.72"/>
	<circle cx="1485.68" cy="1561.61" r="21.74" style="fill:#1A85FF"/>
	<circle cx="1485.68" cy="1561.61" r="16.88" style="fill:none;stroke:#1A85FF;stroke-width:9.72"/>
	<circle cx="1636.88" cy="2128.44" r="21.74" style="fill:#D41159"/>
	<circle cx="1636.88" cy="2128.44" r="16.88" style="fill:none;stroke:#D41159;stroke-width:9.72"/>
	<circle cx="816.24" cy="1642.61" r="21.74" style="fill:#D41159"/>
	<circle cx="816.24" cy="1642.61" r="16.88" style="fill:none;stroke:#D41159;stroke-width:9.72"/>
	<circle cx="1442.48" cy="1480.61" r="21.74" style="fill:#D41159"/>
	<circle cx="1442.48" cy="1480.61" r="16.88" style="fill:none;stroke:#D41159;stroke-width:9.72"/>
	<circle cx="1140.08" cy="1642.61" r="21.74" style="fill:#D41159"/>
	<circle cx="1140.08" cy="1642.61" r="16.88" style="fill:none;stroke:#D41159;stroke-width:9.72"/>
	<circle cx="762.24" cy="670.61" r="21.74" style="fill:#D41159"/>
	<circle cx="762.24" cy="670.61" r="16.88" style="fill:none;stroke:#D41159;stroke-width:9.72"/>
	<circle cx="1042.88" cy="1561.61" r="21.74" style="fill:#D41159"/>
	<circle cx="1042.88" cy="1561.61" r="16.88" style="fill:none;stroke:#D41159;stroke-width:9.72"/>
	<circle cx="1550.48" cy="1804.61" r="21.74" style="fill:#D41159"/>
	<circle cx="1550.48" cy="1804.61" r="16.88" style="fill:none;stroke:#D41159;stroke-width:9.72"/>
	<circle cx="880.88" cy="1804.61" r="21.74" style="fill:#D41159"/>
	<circle cx="880.88" cy="1804.61" r="16.88" style="fill:none;stroke:#D41159;stroke-width:9.72"/>
	<circle cx="999.68" cy="1480.61" r="21.74" style="fill:#D41159"/>
	<circle cx="999.68" cy="1480.61" r="16.88" style="fill:none;stroke:#D41159;stroke-width:9.72"/>
	<circle cx="481.44" cy="1237.61" r="21.74" style="fill:#D41159"/>
	<circle cx="481.44" cy="1237.61" r="16.88" style="fill:none;stroke:#D41159;stroke-width:9.72"/>
	<circle cx="719.04" cy="1075.61" r="21.74" style="fill:#D41159"/>
	<circle cx="719.04" cy="1075.61" r="16.88" style="fill:none;stroke:#D41159;stroke-width:9.72"/>
	<circle cx="2273.91" cy="2371.44" r="21.74" style="fill:#D41159"/>
	<circle cx="2273.91" cy="2371.44" r="16.88" style="fill:none;stroke:#D41159;stroke-width:9.72"/>
	<circle cx="557.04" cy="1399.61" r="21.74" style="fill:#D41159"/>
	<circle cx="557.04" cy="1399.61" r="16.88" style="fill:none;stroke:#D41159;stroke-width:9.72"/>
	<circle cx="794.64" cy="670.61" r="21.74" style="fill:#D41159"/>
	<circle cx="794.64" cy="670.61" r="16.88" style="fill:none;stroke:#D41159;stroke-width:9.72"/>
	<circle cx="1183.28" cy="2047.44" r="21.74" style="fill:#D41159"/>
	<circle cx="1183.28" cy="2047.44" r="16.88" style="fill:none;stroke:#D41159;stroke-width:9.72"/>
	<circle cx="956.48" cy="994.61" r="21.74" style="fill:#D41159"/>
	<circle cx="956.48" cy="994.61" r="16.88" style="fill:none;stroke:#D41159;stroke-width:9.72"/>
	<circle cx="1464.08" cy="2047.44" r="21.74" style="fill:#D41159"/>
	<circle cx="1464.08" cy="2047.44" r="16.88" style="fill:none;stroke:#D41159;stroke-width:9.72"/>
	<circle cx="913.28" cy="1642.61" r="21.74" style="fill:#D41159"/>
	<circle cx="913.28" cy="1642.61" r="16.88" style="fill:none;stroke:#D41159;stroke-width:9.72"/>
	<circle cx="783.84" cy="184.78" r="21.74" style="fill:#D41159"/>
	<circle cx="783.84" cy="184.78" r="16.88" style="fill:none;stroke:#D41159;stroke-width:9.72"/>
	<circle cx="665.04" cy="1480.61" r="21.74" style="fill:#D41159"/>
	<circle cx="665.04" cy="1480.61" r="16.88" style="fill:none;stroke:#D41159;stroke-width:9.72"/>
	<circle cx="729.84" cy="1480.61" r="21.74" style="fill:#D41159"/>
	<circle cx="729.84" cy="1480.61" r="16.88" style="fill:none;stroke:#D41159;stroke-width:9.72"/>
	<circle cx="2003.91" cy="2128.44" r="21.74" style="fill:#D41159"/>
	<circle cx="2003.91" cy="2128.44" r="16.88" style="fill:none;stroke:#D41159;stroke-width:9.72"/>
	<path d=" M524.64 1165.39 L2165.91 1900.97 L3807.34 2636.55" stroke-linejoin="round" style="fill:none;stroke:#00BF7F;stroke-width:9.72"/>
	<path d=" M481.44 1029.54 L1377.68 1730.36 L2273.91 2431.35" stroke-linejoin="round" style="fill:none;stroke:#FFD400;stroke-width:9.72"/>
	<line x1="410.23" y1="2766.66" x2="410.23" y2="113.40" style="stroke:#000000;stroke-width:6.48"/>
	<line x1="410.23" y1="2695.28" x2="365.18" y2="2695.28" style="stroke:#000000;stroke-width:6.48"/>
	<text x="342.73" y="2734.71" style="font-family:'Helvetica';font-size:112.56px;fill:#000000" text-anchor="end">10</text>
	<line x1="410.23" y1="1885.44" x2="365.18" y2="1885.44" style="stroke:#000000;stroke-width:6.48"/>
	<text x="342.73" y="1924.88" style="font-family:'Helvetica';font-size:112.56px;fill:#000000" text-anchor="end">20</text>
	<line x1="410.23" y1="1075.61" x2="365.18" y2="1075.61" style="stroke:#000000;stroke-width:6.48"/>
	<text x="342.73" y="1115.05" style="font-family:'Helvetica';font-size:112.56px;fill:#000000" text-anchor="end">30</text>
	<line x1="410.23" y1="265.61" x2="365.18" y2="265.61" style="stroke:#000000;stroke-width:6.48"/>
	<text x="342.73" y="305.05" style="font-family:'Helvetica';font-size:112.56px;fill:#000000" text-anchor="end">40</text>
	<line x1="410.23" y1="2766.66" x2="4051.35" y2="2766.66" style="stroke:#000000;stroke-width:6.48"/>
	<line x1="740.64" y1="2766.66" x2="740.64" y2="2811.54" style="stroke:#000000;stroke-width:6.48"/>
	<text x="740.64" y="2912.86" style="font-family:'Helvetica';font-size:112.56px;fill:#000000" text-anchor="middle">2,000</text>
	<line x1="1820.48" y1="2766.66" x2="1820.48" y2="2811.54" style="stroke:#000000;stroke-width:6.48"/>
	<text x="1820.48" y="2912.86" style="font-family:'Helvetica';font-size:112.56px;fill:#000000" text-anchor="middle">3,000</text>
	<line x1="2900.31" y1="2766.66" x2="2900.31" y2="2811.54" style="stroke:#000000;stroke-width:6.48"/>
	<text x="2900.31" y="2912.86" style="font-family:'Helvetica';font-size:112.56px;fill:#000000" text-anchor="middle">4,000</text>
	<line x1="3980.14" y1="2766.66" x2="3980.14" y2="2811.54" style="stroke:#000000;stroke-width:6.48"/>
	<text x="3980.14" y="2912.86" style="font-family:'Helvetica';font-size:112.56px;fill:#000000" text-anchor="middle">5,000</text>
	<text x="2230.88" y="3070.31" style="font-family:'Helvetica';font-size:112.56px;fill:#000000" text-anchor="middle">Weight (lbs.)</text>
	<rect x="4090.33" y="1098.90" width="1157.46" height="682.26" style="fill:#FFFFFF"/>
	<rect x="4093.57" y="1102.14" width="1150.98" height="675.78" style="fill:none;stroke:#FFFFFF;stroke-width:6.48"/>
	<circle cx="4268.53" cy="1203.69" r="21.74" style="fill:#1A85FF"/>
	<circle cx="4268.53" cy="1203.69" r="16.88" style="fill:none;stroke:#1A85FF;stroke-width:9.72"/>
	<circle cx="4268.53" cy="1361.31" r="21.74" style="fill:#D41159"/>
	<circle cx="4268.53" cy="1361.31" r="16.88" style="fill:none;stroke:#D41159;stroke-width:9.72"/>
	<line x1="4138.93" y1="1518.75" x2="4398.13" y2="1518.75" style="stroke:#00BF7F;stroke-width:9.72"/>
	<line x1="4138.93" y1="1676.19" x2="4398.13" y2="1676.19" style="stroke:#FFD400;stroke-width:9.72"/>
	<text x="4465.63" y="1243.13" style="font-family:'Helvetica';font-size:112.56px;fill:#000000">Mileage (mpg)</text>
	<text x="4465.63" y="1400.74" style="font-family:'Helvetica';font-size:112.56px;fill:#000000">Mileage (mpg)</text>
	<text x="4465.63" y="1558.19" style="font-family:'Helvetica';font-size:112.56px;fill:#000000">Fitted values</text>
	<text x="4465.63" y="1715.63" style="font-family:'Helvetica';font-size:112.56px;fill:#000000">Fitted values</text>
</svg>
