<?xml version="1.0" encoding="UTF-8" standalone="no"?>
<!-- This is a Stata 18.0 generated SVG file (http://www.stata.com) -->

<svg version="1.1" width="7.500in" height="4.500in" viewBox="0 0 5400 3240" xmlns="http://www.w3.org/2000/svg" xmlns:xlink="http://www.w3.org/1999/xlink">
	<desc>Stata Graph - Graph</desc>
	<rect x="0" y="0" width="5400" height="3240" style="fill:#FFFFFF;stroke:none"/>
	<rect x="0.00" y="0.00" width="5400.00" height="3240.00" style="fill:#FFFFFF"/>
	<rect x="3.24" y="3.24" width="5393.52" height="3233.52" style="fill:none;stroke:#FFFFFF;stroke-width:6.48"/>
	<rect x="557.04" y="113.40" width="4729.56" height="2653.26" style="fill:#FFFFFF"/>
	<rect x="560.28" y="116.64" width="4723.08" height="2646.78" style="fill:none;stroke:#FFFFFF;stroke-width:6.48"/>
	<line x1="557.04" y1="2766.66" x2="621.84" y2="2766.66" style="stroke:#F0F0F0;stroke-width:9.72"/>
	<line x1="654.24" y1="2766.66" x2="719.04" y2="2766.66" style="stroke:#F0F0F0;stroke-width:9.72"/>
	<line x1="751.44" y1="2766.66" x2="816.24" y2="2766.66" style="stroke:#F0F0F0;stroke-width:9.72"/>
	<line x1="848.64" y1="2766.66" x2="913.44" y2="2766.66" style="stroke:#F0F0F0;stroke-width:9.72"/>
	<line x1="945.84" y1="2766.66" x2="1010.64" y2="2766.66" style="stroke:#F0F0F0;stroke-width:9.72"/>
	<line x1="1043.04" y1="2766.66" x2="1107.84" y2="2766.66" style="stroke:#F0F0F0;stroke-width:9.72"/>
	<line x1="1140.24" y1="2766.66" x2="1205.04" y2="2766.66" style="stroke:#F0F0F0;stroke-width:9.72"/>
	<line x1="1237.44" y1="2766.66" x2="1302.24" y2="2766.66" style="stroke:#F0F0F0;stroke-width:9.72"/>
	<line x1="1334.64" y1="2766.66" x2="1399.44" y2="2766.66" style="stroke:#F0F0F0;stroke-width:9.72"/>
	<line x1="1431.84" y1="2766.66" x2="1496.64" y2="2766.66" style="stroke:#F0F0F0;stroke-width:9.72"/>
	<line x1="1529.04" y1="2766.66" x2="1593.84" y2="2766.66" style="stroke:#F0F0F0;stroke-width:9.72"/>
	<line x1="1626.24" y1="2766.66" x2="1691.04" y2="2766.66" style="stroke:#F0F0F0;stroke-width:9.72"/>
	<line x1="1723.44" y1="2766.66" x2="1788.24" y2="2766.66" style="stroke:#F0F0F0;stroke-width:9.72"/>
	<line x1="1820.64" y1="2766.66" x2="1885.44" y2="2766.66" style="stroke:#F0F0F0;stroke-width:9.72"/>
	<line x1="1917.84" y1="2766.66" x2="1982.64" y2="2766.66" style="stroke:#F0F0F0;stroke-width:9.72"/>
	<line x1="2015.04" y1="2766.66" x2="2079.84" y2="2766.66" style="stroke:#F0F0F0;stroke-width:9.72"/>
	<line x1="2112.24" y1="2766.66" x2="2177.04" y2="2766.66" style="stroke:#F0F0F0;stroke-width:9.72"/>
	<line x1="2209.44" y1="2766.66" x2="2274.24" y2="2766.66" style="stroke:#F0F0F0;stroke-width:9.72"/>
	<line x1="2306.64" y1="2766.66" x2="2371.44" y2="2766.66" style="stroke:#F0F0F0;stroke-width:9.72"/>
	<line x1="2403.84" y1="2766.66" x2="2468.64" y2="2766.66" style="stroke:#F0F0F0;stroke-width:9.72"/>
	<line x1="2501.04" y1="2766.66" x2="2565.84" y2="2766.66" style="stroke:#F0F0F0;stroke-width:9.72"/>
	<line x1="2598.24" y1="2766.66" x2="2663.04" y2="2766.66" style="stroke:#F0F0F0;stroke-width:9.72"/>
	<line x1="2695.44" y1="2766.66" x2="2760.24" y2="2766.66" style="stroke:#F0F0F0;stroke-width:9.72"/>
	<line x1="2792.64" y1="2766.66" x2="2857.44" y2="2766.66" style="stroke:#F0F0F0;stroke-width:9.72"/>
	<line x1="2889.84" y1="2766.66" x2="2954.64" y2="2766.66" style="stroke:#F0F0F0;stroke-width:9.72"/>
	<line x1="2987.04" y1="2766.66" x2="3051.84" y2="2766.66" style="stroke:#F0F0F0;stroke-width:9.72"/>
	<line x1="3084.24" y1="2766.66" x2="3149.04" y2="2766.66" style="stroke:#F0F0F0;stroke-width:9.72"/>
	<line x1="3181.44" y1="2766.66" x2="3246.24" y2="2766.66" style="stroke:#F0F0F0;stroke-width:9.72"/>
	<line x1="3278.64" y1="2766.66" x2="3343.44" y2="2766.66" style="stroke:#F0F0F0;stroke-width:9.72"/>
	<line x1="3375.84" y1="2766.66" x2="3440.64" y2="2766.66" style="stroke:#F0F0F0;stroke-width:9.72"/>
	<line x1="3473.04" y1="2766.66" x2="3537.84" y2="2766.66" style="stroke:#F0F0F0;stroke-width:9.72"/>
	<line x1="3570.24" y1="2766.66" x2="3635.04" y2="2766.66" style="stroke:#F0F0F0;stroke-width:9.72"/>
	<line x1="3667.44" y1="2766.66" x2="3732.24" y2="2766.66" style="stroke:#F0F0F0;stroke-width:9.72"/>
	<line x1="3764.64" y1="2766.66" x2="3829.44" y2="2766.66" style="stroke:#F0F0F0;stroke-width:9.72"/>
	<line x1="3861.84" y1="2766.66" x2="3926.64" y2="2766.66" style="stroke:#F0F0F0;stroke-width:9.72"/>
	<line x1="3959.04" y1="2766.66" x2="4023.84" y2="2766.66" style="stroke:#F0F0F0;stroke-width:9.72"/>
	<line x1="4056.24" y1="2766.66" x2="4121.04" y2="2766.66" style="stroke:#F0F0F0;stroke-width:9.72"/>
	<line x1="4153.44" y1="2766.66" x2="4218.24" y2="2766.66" style="stroke:#F0F0F0;stroke-width:9.72"/>
	<line x1="4250.64" y1="2766.66" x2="4315.44" y2="2766.66" style="stroke:#F0F0F0;stroke-width:9.72"/>
	<line x1="4347.84" y1="2766.66" x2="4412.64" y2="2766.66" style="stroke:#F0F0F0;stroke-width:9.72"/>
	<line x1="4445.04" y1="2766.66" x2="4509.84" y2="2766.66" style="stroke:#F0F0F0;stroke-width:9.72"/>
	<line x1="4542.24" y1="2766.66" x2="4607.04" y2="2766.66" style="stroke:#F0F0F0;stroke-width:9.72"/>
	<line x1="4639.44" y1="2766.66" x2="4704.24" y2="2766.66" style="stroke:#F0F0F0;stroke-width:9.72"/>
	<line x1="4736.64" y1="2766.66" x2="4801.44" y2="2766.66" style="stroke:#F0F0F0;stroke-width:9.72"/>
	<line x1="4833.84" y1="2766.66" x2="4898.64" y2="2766.66" style="stroke:#F0F0F0;stroke-width:9.72"/>
	<line x1="4931.04" y1="2766.66" x2="4995.84" y2="2766.66" style="stroke:#F0F0F0;stroke-width:9.72"/>
	<line x1="5028.24" y1="2766.66" x2="5093.04" y2="2766.66" style="stroke:#F0F0F0;stroke-width:9.72"/>
	<line x1="5125.44" y1="2766.66" x2="5190.24" y2="2766.66" style="stroke:#F0F0F0;stroke-width:9.72"/>
	<line x1="5222.64" y1="2766.66" x2="5286.60" y2="2766.66" style="stroke:#F0F0F0;stroke-width:9.72"/>
	<line x1="557.04" y1="2121.19" x2="621.84" y2="2121.19" style="stroke:#F0F0F0;stroke-width:9.72"/>
	<line x1="654.24" y1="2121.19" x2="719.04" y2="2121.19" style="stroke:#F0F0F0;stroke-width:9.72"/>
	<line x1="751.44" y1="2121.19" x2="816.24" y2="2121.19" style="stroke:#F0F0F0;stroke-width:9.72"/>
	<line x1="848.64" y1="2121.19" x2="913.44" y2="2121.19" style="stroke:#F0F0F0;stroke-width:9.72"/>
	<line x1="945.84" y1="2121.19" x2="1010.64" y2="2121.19" style="stroke:#F0F0F0;stroke-width:9.72"/>
	<line x1="1043.04" y1="2121.19" x2="1107.84" y2="2121.19" style="stroke:#F0F0F0;stroke-width:9.72"/>
	<line x1="1140.24" y1="2121.19" x2="1205.04" y2="2121.19" style="stroke:#F0F0F0;stroke-width:9.72"/>
	<line x1="1237.44" y1="2121.19" x2="1302.24" y2="2121.19" style="stroke:#F0F0F0;stroke-width:9.72"/>
	<line x1="1334.64" y1="2121.19" x2="1399.44" y2="2121.19" style="stroke:#F0F0F0;stroke-width:9.72"/>
	<line x1="1431.84" y1="2121.19" x2="1496.64" y2="2121.19" style="stroke:#F0F0F0;stroke-width:9.72"/>
	<line x1="1529.04" y1="2121.19" x2="1593.84" y2="2121.19" style="stroke:#F0F0F0;stroke-width:9.72"/>
	<line x1="1626.24" y1="2121.19" x2="1691.04" y2="2121.19" style="stroke:#F0F0F0;stroke-width:9.72"/>
	<line x1="1723.44" y1="2121.19" x2="1788.24" y2="2121.19" style="stroke:#F0F0F0;stroke-width:9.72"/>
	<line x1="1820.64" y1="2121.19" x2="1885.44" y2="2121.19" style="stroke:#F0F0F0;stroke-width:9.72"/>
	<line x1="1917.84" y1="2121.19" x2="1982.64" y2="2121.19" style="stroke:#F0F0F0;stroke-width:9.72"/>
	<line x1="2015.04" y1="2121.19" x2="2079.84" y2="2121.19" style="stroke:#F0F0F0;stroke-width:9.72"/>
	<line x1="2112.24" y1="2121.19" x2="2177.04" y2="2121.19" style="stroke:#F0F0F0;stroke-width:9.72"/>
	<line x1="2209.44" y1="2121.19" x2="2274.24" y2="2121.19" style="stroke:#F0F0F0;stroke-width:9.72"/>
	<line x1="2306.64" y1="2121.19" x2="2371.44" y2="2121.19" style="stroke:#F0F0F0;stroke-width:9.72"/>
	<line x1="2403.84" y1="2121.19" x2="2468.64" y2="2121.19" style="stroke:#F0F0F0;stroke-width:9.72"/>
	<line x1="2501.04" y1="2121.19" x2="2565.84" y2="2121.19" style="stroke:#F0F0F0;stroke-width:9.72"/>
	<line x1="2598.24" y1="2121.19" x2="2663.04" y2="2121.19" style="stroke:#F0F0F0;stroke-width:9.72"/>
	<line x1="2695.44" y1="2121.19" x2="2760.24" y2="2121.19" style="stroke:#F0F0F0;stroke-width:9.72"/>
	<line x1="2792.64" y1="2121.19" x2="2857.44" y2="2121.19" style="stroke:#F0F0F0;stroke-width:9.72"/>
	<line x1="2889.84" y1="2121.19" x2="2954.64" y2="2121.19" style="stroke:#F0F0F0;stroke-width:9.72"/>
	<line x1="2987.04" y1="2121.19" x2="3051.84" y2="2121.19" style="stroke:#F0F0F0;stroke-width:9.72"/>
	<line x1="3084.24" y1="2121.19" x2="3149.04" y2="2121.19" style="stroke:#F0F0F0;stroke-width:9.72"/>
	<line x1="3181.44" y1="2121.19" x2="3246.24" y2="2121.19" style="stroke:#F0F0F0;stroke-width:9.72"/>
	<line x1="3278.64" y1="2121.19" x2="3343.44" y2="2121.19" style="stroke:#F0F0F0;stroke-width:9.72"/>
	<line x1="3375.84" y1="2121.19" x2="3440.64" y2="2121.19" style="stroke:#F0F0F0;stroke-width:9.72"/>
	<line x1="3473.04" y1="2121.19" x2="3537.84" y2="2121.19" style="stroke:#F0F0F0;stroke-width:9.72"/>
	<line x1="3570.24" y1="2121.19" x2="3635.04" y2="2121.19" style="stroke:#F0F0F0;stroke-width:9.72"/>
	<line x1="3667.44" y1="2121.19" x2="3732.24" y2="2121.19" style="stroke:#F0F0F0;stroke-width:9.72"/>
	<line x1="3764.64" y1="2121.19" x2="3829.44" y2="2121.19" style="stroke:#F0F0F0;stroke-width:9.72"/>
	<line x1="3861.84" y1="2121.19" x2="3926.64" y2="2121.19" style="stroke:#F0F0F0;stroke-width:9.72"/>
	<line x1="3959.04" y1="2121.19" x2="4023.84" y2="2121.19" style="stroke:#F0F0F0;stroke-width:9.72"/>
	<line x1="4056.24" y1="2121.19" x2="4121.04" y2="2121.19" style="stroke:#F0F0F0;stroke-width:9.72"/>
	<line x1="4153.44" y1="2121.19" x2="4218.24" y2="2121.19" style="stroke:#F0F0F0;stroke-width:9.72"/>
	<line x1="4250.64" y1="2121.19" x2="4315.44" y2="2121.19" style="stroke:#F0F0F0;stroke-width:9.72"/>
	<line x1="4347.84" y1="2121.19" x2="4412.64" y2="2121.19" style="stroke:#F0F0F0;stroke-width:9.72"/>
	<line x1="4445.04" y1="2121.19" x2="4509.84" y2="2121.19" style="stroke:#F0F0F0;stroke-width:9.72"/>
	<line x1="4542.24" y1="2121.19" x2="4607.04" y2="2121.19" style="stroke:#F0F0F0;stroke-width:9.72"/>
	<line x1="4639.44" y1="2121.19" x2="4704.24" y2="2121.19" style="stroke:#F0F0F0;stroke-width:9.72"/>
	<line x1="4736.64" y1="2121.19" x2="4801.44" y2="2121.19" style="stroke:#F0F0F0;stroke-width:9.72"/>
	<line x1="4833.84" y1="2121.19" x2="4898.64" y2="2121.19" style="stroke:#F0F0F0;stroke-width:9.72"/>
	<line x1="4931.04" y1="2121.19" x2="4995.84" y2="2121.19" style="stroke:#F0F0F0;stroke-width:9.72"/>
	<line x1="5028.24" y1="2121.19" x2="5093.04" y2="2121.19" style="stroke:#F0F0F0;stroke-width:9.72"/>
	<line x1="5125.44" y1="2121.19" x2="5190.24" y2="2121.19" style="stroke:#F0F0F0;stroke-width:9.72"/>
	<line x1="5222.64" y1="2121.19" x2="5286.60" y2="2121.19" style="stroke:#F0F0F0;stroke-width:9.72"/>
	<line x1="557.04" y1="1475.72" x2="621.84" y2="1475.72" style="stroke:#F0F0F0;stroke-width:9.72"/>
	<line x1="654.24" y1="1475.72" x2="719.04" y2="1475.72" style="stroke:#F0F0F0;stroke-width:9.72"/>
	<line x1="751.44" y1="1475.72" x2="816.24" y2="1475.72" style="stroke:#F0F0F0;stroke-width:9.72"/>
	<line x1="848.64" y1="1475.72" x2="913.44" y2="1475.72" style="stroke:#F0F0F0;stroke-width:9.72"/>
	<line x1="945.84" y1="1475.72" x2="1010.64" y2="1475.72" style="stroke:#F0F0F0;stroke-width:9.72"/>
	<line x1="1043.04" y1="1475.72" x2="1107.84" y2="1475.72" style="stroke:#F0F0F0;stroke-width:9.72"/>
	<line x1="1140.24" y1="1475.72" x2="1205.04" y2="1475.72" style="stroke:#F0F0F0;stroke-width:9.72"/>
	<line x1="1237.44" y1="1475.72" x2="1302.24" y2="1475.72" style="stroke:#F0F0F0;stroke-width:9.72"/>
	<line x1="1334.64" y1="1475.72" x2="1399.44" y2="1475.72" style="stroke:#F0F0F0;stroke-width:9.72"/>
	<line x1="1431.84" y1="1475.72" x2="1496.64" y2="1475.72" style="stroke:#F0F0F0;stroke-width:9.72"/>
	<line x1="1529.04" y1="1475.72" x2="1593.84" y2="1475.72" style="stroke:#F0F0F0;stroke-width:9.72"/>
	<line x1="1626.24" y1="1475.72" x2="1691.04" y2="1475.72" style="stroke:#F0F0F0;stroke-width:9.72"/>
	<line x1="1723.44" y1="1475.72" x2="1788.24" y2="1475.72" style="stroke:#F0F0F0;stroke-width:9.72"/>
	<line x1="1820.64" y1="1475.72" x2="1885.44" y2="1475.72" style="stroke:#F0F0F0;stroke-width:9.72"/>
	<line x1="1917.84" y1="1475.72" x2="1982.64" y2="1475.72" style="stroke:#F0F0F0;stroke-width:9.72"/>
	<line x1="2015.04" y1="1475.72" x2="2079.84" y2="1475.72" style="stroke:#F0F0F0;stroke-width:9.72"/>
	<line x1="2112.24" y1="1475.72" x2="2177.04" y2="1475.72" style="stroke:#F0F0F0;stroke-width:9.72"/>
	<line x1="2209.44" y1="1475.72" x2="2274.24" y2="1475.72" style="stroke:#F0F0F0;stroke-width:9.72"/>
	<line x1="2306.64" y1="1475.72" x2="2371.44" y2="1475.72" style="stroke:#F0F0F0;stroke-width:9.72"/>
	<line x1="2403.84" y1="1475.72" x2="2468.64" y2="1475.72" style="stroke:#F0F0F0;stroke-width:9.72"/>
	<line x1="2501.04" y1="1475.72" x2="2565.84" y2="1475.72" style="stroke:#F0F0F0;stroke-width:9.72"/>
	<line x1="2598.24" y1="1475.72" x2="2663.04" y2="1475.72" style="stroke:#F0F0F0;stroke-width:9.72"/>
	<line x1="2695.44" y1="1475.72" x2="2760.24" y2="1475.72" style="stroke:#F0F0F0;stroke-width:9.72"/>
	<line x1="2792.64" y1="1475.72" x2="2857.44" y2="1475.72" style="stroke:#F0F0F0;stroke-width:9.72"/>
	<line x1="2889.84" y1="1475.72" x2="2954.64" y2="1475.72" style="stroke:#F0F0F0;stroke-width:9.72"/>
	<line x1="2987.04" y1="1475.72" x2="3051.84" y2="1475.72" style="stroke:#F0F0F0;stroke-width:9.72"/>
	<line x1="3084.24" y1="1475.72" x2="3149.04" y2="1475.72" style="stroke:#F0F0F0;stroke-width:9.72"/>
	<line x1="3181.44" y1="1475.72" x2="3246.24" y2="1475.72" style="stroke:#F0F0F0;stroke-width:9.72"/>
	<line x1="3278.64" y1="1475.72" x2="3343.44" y2="1475.72" style="stroke:#F0F0F0;stroke-width:9.72"/>
	<line x1="3375.84" y1="1475.72" x2="3440.64" y2="1475.72" style="stroke:#F0F0F0;stroke-width:9.72"/>
	<line x1="3473.04" y1="1475.72" x2="3537.84" y2="1475.72" style="stroke:#F0F0F0;stroke-width:9.72"/>
	<line x1="3570.24" y1="1475.72" x2="3635.04" y2="1475.72" style="stroke:#F0F0F0;stroke-width:9.72"/>
	<line x1="3667.44" y1="1475.72" x2="3732.24" y2="1475.72" style="stroke:#F0F0F0;stroke-width:9.72"/>
	<line x1="3764.64" y1="1475.72" x2="3829.44" y2="1475.72" style="stroke:#F0F0F0;stroke-width:9.72"/>
	<line x1="3861.84" y1="1475.72" x2="3926.64" y2="1475.72" style="stroke:#F0F0F0;stroke-width:9.72"/>
	<line x1="3959.04" y1="1475.72" x2="4023.84" y2="1475.72" style="stroke:#F0F0F0;stroke-width:9.72"/>
	<line x1="4056.24" y1="1475.72" x2="4121.04" y2="1475.72" style="stroke:#F0F0F0;stroke-width:9.72"/>
	<line x1="4153.44" y1="1475.72" x2="4218.24" y2="1475.72" style="stroke:#F0F0F0;stroke-width:9.72"/>
	<line x1="4250.64" y1="1475.72" x2="4315.44" y2="1475.72" style="stroke:#F0F0F0;stroke-width:9.72"/>
	<line x1="4347.84" y1="1475.72" x2="4412.64" y2="1475.72" style="stroke:#F0F0F0;stroke-width:9.72"/>
	<line x1="4445.04" y1="1475.72" x2="4509.84" y2="1475.72" style="stroke:#F0F0F0;stroke-width:9.72"/>
	<line x1="4542.24" y1="1475.72" x2="4607.04" y2="1475.72" style="stroke:#F0F0F0;stroke-width:9.72"/>
	<line x1="4639.44" y1="1475.72" x2="4704.24" y2="1475.72" style="stroke:#F0F0F0;stroke-width:9.72"/>
	<line x1="4736.64" y1="1475.72" x2="4801.44" y2="1475.72" style="stroke:#F0F0F0;stroke-width:9.72"/>
	<line x1="4833.84" y1="1475.72" x2="4898.64" y2="1475.72" style="stroke:#F0F0F0;stroke-width:9.72"/>
	<line x1="4931.04" y1="1475.72" x2="4995.84" y2="1475.72" style="stroke:#F0F0F0;stroke-width:9.72"/>
	<line x1="5028.24" y1="1475.72" x2="5093.04" y2="1475.72" style="stroke:#F0F0F0;stroke-width:9.72"/>
	<line x1="5125.44" y1="1475.72" x2="5190.24" y2="1475.72" style="stroke:#F0F0F0;stroke-width:9.72"/>
	<line x1="5222.64" y1="1475.72" x2="5286.60" y2="1475.72" style="stroke:#F0F0F0;stroke-width:9.72"/>
	<line x1="557.04" y1="830.08" x2="621.84" y2="830.08" style="stroke:#F0F0F0;stroke-width:9.72"/>
	<line x1="654.24" y1="830.08" x2="719.04" y2="830.08" style="stroke:#F0F0F0;stroke-width:9.72"/>
	<line x1="751.44" y1="830.08" x2="816.24" y2="830.08" style="stroke:#F0F0F0;stroke-width:9.72"/>
	<line x1="848.64" y1="830.08" x2="913.44" y2="830.08" style="stroke:#F0F0F0;stroke-width:9.72"/>
	<line x1="945.84" y1="830.08" x2="1010.64" y2="830.08" style="stroke:#F0F0F0;stroke-width:9.72"/>
	<line x1="1043.04" y1="830.08" x2="1107.84" y2="830.08" style="stroke:#F0F0F0;stroke-width:9.72"/>
	<line x1="1140.24" y1="830.08" x2="1205.04" y2="830.08" style="stroke:#F0F0F0;stroke-width:9.72"/>
	<line x1="1237.44" y1="830.08" x2="1302.24" y2="830.08" style="stroke:#F0F0F0;stroke-width:9.72"/>
	<line x1="1334.64" y1="830.08" x2="1399.44" y2="830.08" style="stroke:#F0F0F0;stroke-width:9.72"/>
	<line x1="1431.84" y1="830.08" x2="1496.64" y2="830.08" style="stroke:#F0F0F0;stroke-width:9.72"/>
	<line x1="1529.04" y1="830.08" x2="1593.84" y2="830.08" style="stroke:#F0F0F0;stroke-width:9.72"/>
	<line x1="1626.24" y1="830.08" x2="1691.04" y2="830.08" style="stroke:#F0F0F0;stroke-width:9.72"/>
	<line x1="1723.44" y1="830.08" x2="1788.24" y2="830.08" style="stroke:#F0F0F0;stroke-width:9.72"/>
	<line x1="1820.64" y1="830.08" x2="1885.44" y2="830.08" style="stroke:#F0F0F0;stroke-width:9.72"/>
	<line x1="1917.84" y1="830.08" x2="1982.64" y2="830.08" style="stroke:#F0F0F0;stroke-width:9.72"/>
	<line x1="2015.04" y1="830.08" x2="2079.84" y2="830.08" style="stroke:#F0F0F0;stroke-width:9.72"/>
	<line x1="2112.24" y1="830.08" x2="2177.04" y2="830.08" style="stroke:#F0F0F0;stroke-width:9.72"/>
	<line x1="2209.44" y1="830.08" x2="2274.24" y2="830.08" style="stroke:#F0F0F0;stroke-width:9.72"/>
	<line x1="2306.64" y1="830.08" x2="2371.44" y2="830.08" style="stroke:#F0F0F0;stroke-width:9.72"/>
	<line x1="2403.84" y1="830.08" x2="2468.64" y2="830.08" style="stroke:#F0F0F0;stroke-width:9.72"/>
	<line x1="2501.04" y1="830.08" x2="2565.84" y2="830.08" style="stroke:#F0F0F0;stroke-width:9.72"/>
	<line x1="2598.24" y1="830.08" x2="2663.04" y2="830.08" style="stroke:#F0F0F0;stroke-width:9.72"/>
	<line x1="2695.44" y1="830.08" x2="2760.24" y2="830.08" style="stroke:#F0F0F0;stroke-width:9.72"/>
	<line x1="2792.64" y1="830.08" x2="2857.44" y2="830.08" style="stroke:#F0F0F0;stroke-width:9.72"/>
	<line x1="2889.84" y1="830.08" x2="2954.64" y2="830.08" style="stroke:#F0F0F0;stroke-width:9.72"/>
	<line x1="2987.04" y1="830.08" x2="3051.84" y2="830.08" style="stroke:#F0F0F0;stroke-width:9.72"/>
	<line x1="3084.24" y1="830.08" x2="3149.04" y2="830.08" style="stroke:#F0F0F0;stroke-width:9.72"/>
	<line x1="3181.44" y1="830.08" x2="3246.24" y2="830.08" style="stroke:#F0F0F0;stroke-width:9.72"/>
	<line x1="3278.64" y1="830.08" x2="3343.44" y2="830.08" style="stroke:#F0F0F0;stroke-width:9.72"/>
	<line x1="3375.84" y1="830.08" x2="3440.64" y2="830.08" style="stroke:#F0F0F0;stroke-width:9.72"/>
	<line x1="3473.04" y1="830.08" x2="3537.84" y2="830.08" style="stroke:#F0F0F0;stroke-width:9.72"/>
	<line x1="3570.24" y1="830.08" x2="3635.04" y2="830.08" style="stroke:#F0F0F0;stroke-width:9.72"/>
	<line x1="3667.44" y1="830.08" x2="3732.24" y2="830.08" style="stroke:#F0F0F0;stroke-width:9.72"/>
	<line x1="3764.64" y1="830.08" x2="3829.44" y2="830.08" style="stroke:#F0F0F0;stroke-width:9.72"/>
	<line x1="3861.84" y1="830.08" x2="3926.64" y2="830.08" style="stroke:#F0F0F0;stroke-width:9.72"/>
	<line x1="3959.04" y1="830.08" x2="4023.84" y2="830.08" style="stroke:#F0F0F0;stroke-width:9.72"/>
	<line x1="4056.24" y1="830.08" x2="4121.04" y2="830.08" style="stroke:#F0F0F0;stroke-width:9.72"/>
	<line x1="4153.44" y1="830.08" x2="4218.24" y2="830.08" style="stroke:#F0F0F0;stroke-width:9.72"/>
	<line x1="4250.64" y1="830.08" x2="4315.44" y2="830.08" style="stroke:#F0F0F0;stroke-width:9.72"/>
	<line x1="4347.84" y1="830.08" x2="4412.64" y2="830.08" style="stroke:#F0F0F0;stroke-width:9.72"/>
	<line x1="4445.04" y1="830.08" x2="4509.84" y2="830.08" style="stroke:#F0F0F0;stroke-width:9.72"/>
	<line x1="4542.24" y1="830.08" x2="4607.04" y2="830.08" style="stroke:#F0F0F0;stroke-width:9.72"/>
	<line x1="4639.44" y1="830.08" x2="4704.24" y2="830.08" style="stroke:#F0F0F0;stroke-width:9.72"/>
	<line x1="4736.64" y1="830.08" x2="4801.44" y2="830.08" style="stroke:#F0F0F0;stroke-width:9.72"/>
	<line x1="4833.84" y1="830.08" x2="4898.64" y2="830.08" style="stroke:#F0F0F0;stroke-width:9.72"/>
	<line x1="4931.04" y1="830.08" x2="4995.84" y2="830.08" style="stroke:#F0F0F0;stroke-width:9.72"/>
	<line x1="5028.24" y1="830.08" x2="5093.04" y2="830.08" style="stroke:#F0F0F0;stroke-width:9.72"/>
	<line x1="5125.44" y1="830.08" x2="5190.24" y2="830.08" style="stroke:#F0F0F0;stroke-width:9.72"/>
	<line x1="5222.64" y1="830.08" x2="5286.60" y2="830.08" style="stroke:#F0F0F0;stroke-width:9.72"/>
	<line x1="557.04" y1="184.61" x2="621.84" y2="184.61" style="stroke:#F0F0F0;stroke-width:9.72"/>
	<line x1="654.24" y1="184.61" x2="719.04" y2="184.61" style="stroke:#F0F0F0;stroke-width:9.72"/>
	<line x1="751.44" y1="184.61" x2="816.24" y2="184.61" style="stroke:#F0F0F0;stroke-width:9.72"/>
	<line x1="848.64" y1="184.61" x2="913.44" y2="184.61" style="stroke:#F0F0F0;stroke-width:9.72"/>
	<line x1="945.84" y1="184.61" x2="1010.64" y2="184.61" style="stroke:#F0F0F0;stroke-width:9.72"/>
	<line x1="1043.04" y1="184.61" x2="1107.84" y2="184.61" style="stroke:#F0F0F0;stroke-width:9.72"/>
	<line x1="1140.24" y1="184.61" x2="1205.04" y2="184.61" style="stroke:#F0F0F0;stroke-width:9.72"/>
	<line x1="1237.44" y1="184.61" x2="1302.24" y2="184.61" style="stroke:#F0F0F0;stroke-width:9.72"/>
	<line x1="1334.64" y1="184.61" x2="1399.44" y2="184.61" style="stroke:#F0F0F0;stroke-width:9.72"/>
	<line x1="1431.84" y1="184.61" x2="1496.64" y2="184.61" style="stroke:#F0F0F0;stroke-width:9.72"/>
	<line x1="1529.04" y1="184.61" x2="1593.84" y2="184.61" style="stroke:#F0F0F0;stroke-width:9.72"/>
	<line x1="1626.24" y1="184.61" x2="1691.04" y2="184.61" style="stroke:#F0F0F0;stroke-width:9.72"/>
	<line x1="1723.44" y1="184.61" x2="1788.24" y2="184.61" style="stroke:#F0F0F0;stroke-width:9.72"/>
	<line x1="1820.64" y1="184.61" x2="1885.44" y2="184.61" style="stroke:#F0F0F0;stroke-width:9.72"/>
	<line x1="1917.84" y1="184.61" x2="1982.64" y2="184.61" style="stroke:#F0F0F0;stroke-width:9.72"/>
	<line x1="2015.04" y1="184.61" x2="2079.84" y2="184.61" style="stroke:#F0F0F0;stroke-width:9.72"/>
	<line x1="2112.24" y1="184.61" x2="2177.04" y2="184.61" style="stroke:#F0F0F0;stroke-width:9.72"/>
	<line x1="2209.44" y1="184.61" x2="2274.24" y2="184.61" style="stroke:#F0F0F0;stroke-width:9.72"/>
	<line x1="2306.64" y1="184.61" x2="2371.44" y2="184.61" style="stroke:#F0F0F0;stroke-width:9.72"/>
	<line x1="2403.84" y1="184.61" x2="2468.64" y2="184.61" style="stroke:#F0F0F0;stroke-width:9.72"/>
	<line x1="2501.04" y1="184.61" x2="2565.84" y2="184.61" style="stroke:#F0F0F0;stroke-width:9.72"/>
	<line x1="2598.24" y1="184.61" x2="2663.04" y2="184.61" style="stroke:#F0F0F0;stroke-width:9.72"/>
	<line x1="2695.44" y1="184.61" x2="2760.24" y2="184.61" style="stroke:#F0F0F0;stroke-width:9.72"/>
	<line x1="2792.64" y1="184.61" x2="2857.44" y2="184.61" style="stroke:#F0F0F0;stroke-width:9.72"/>
	<line x1="2889.84" y1="184.61" x2="2954.64" y2="184.61" style="stroke:#F0F0F0;stroke-width:9.72"/>
	<line x1="2987.04" y1="184.61" x2="3051.84" y2="184.61" style="stroke:#F0F0F0;stroke-width:9.72"/>
	<line x1="3084.24" y1="184.61" x2="3149.04" y2="184.61" style="stroke:#F0F0F0;stroke-width:9.72"/>
	<line x1="3181.44" y1="184.61" x2="3246.24" y2="184.61" style="stroke:#F0F0F0;stroke-width:9.72"/>
	<line x1="3278.64" y1="184.61" x2="3343.44" y2="184.61" style="stroke:#F0F0F0;stroke-width:9.72"/>
	<line x1="3375.84" y1="184.61" x2="3440.64" y2="184.61" style="stroke:#F0F0F0;stroke-width:9.72"/>
	<line x1="3473.04" y1="184.61" x2="3537.84" y2="184.61" style="stroke:#F0F0F0;stroke-width:9.72"/>
	<line x1="3570.24" y1="184.61" x2="3635.04" y2="184.61" style="stroke:#F0F0F0;stroke-width:9.72"/>
	<line x1="3667.44" y1="184.61" x2="3732.24" y2="184.61" style="stroke:#F0F0F0;stroke-width:9.72"/>
	<line x1="3764.64" y1="184.61" x2="3829.44" y2="184.61" style="stroke:#F0F0F0;stroke-width:9.72"/>
	<line x1="3861.84" y1="184.61" x2="3926.64" y2="184.61" style="stroke:#F0F0F0;stroke-width:9.72"/>
	<line x1="3959.04" y1="184.61" x2="4023.84" y2="184.61" style="stroke:#F0F0F0;stroke-width:9.72"/>
	<line x1="4056.24" y1="184.61" x2="4121.04" y2="184.61" style="stroke:#F0F0F0;stroke-width:9.72"/>
	<line x1="4153.44" y1="184.61" x2="4218.24" y2="184.61" style="stroke:#F0F0F0;stroke-width:9.72"/>
	<line x1="4250.64" y1="184.61" x2="4315.44" y2="184.61" style="stroke:#F0F0F0;stroke-width:9.72"/>
	<line x1="4347.84" y1="184.61" x2="4412.64" y2="184.61" style="stroke:#F0F0F0;stroke-width:9.72"/>
	<line x1="4445.04" y1="184.61" x2="4509.84" y2="184.61" style="stroke:#F0F0F0;stroke-width:9.72"/>
	<line x1="4542.24" y1="184.61" x2="4607.04" y2="184.61" style="stroke:#F0F0F0;stroke-width:9.72"/>
	<line x1="4639.44" y1="184.61" x2="4704.24" y2="184.61" style="stroke:#F0F0F0;stroke-width:9.72"/>
	<line x1="4736.64" y1="184.61" x2="4801.44" y2="184.61" style="stroke:#F0F0F0;stroke-width:9.72"/>
	<line x1="4833.84" y1="184.61" x2="4898.64" y2="184.61" style="stroke:#F0F0F0;stroke-width:9.72"/>
	<line x1="4931.04" y1="184.61" x2="4995.84" y2="184.61" style="stroke:#F0F0F0;stroke-width:9.72"/>
	<line x1="5028.24" y1="184.61" x2="5093.04" y2="184.61" style="stroke:#F0F0F0;stroke-width:9.72"/>
	<line x1="5125.44" y1="184.61" x2="5190.24" y2="184.61" style="stroke:#F0F0F0;stroke-width:9.72"/>
	<line x1="5222.64" y1="184.61" x2="5286.60" y2="184.61" style="stroke:#F0F0F0;stroke-width:9.72"/>
	<line x1="628.26" y1="2766.66" x2="628.26" y2="2701.86" style="stroke:#F0F0F0;stroke-width:9.72"/>
	<line x1="628.26" y1="2669.46" x2="628.26" y2="2604.66" style="stroke:#F0F0F0;stroke-width:9.72"/>
	<line x1="628.26" y1="2572.26" x2="628.26" y2="2507.46" style="stroke:#F0F0F0;stroke-width:9.72"/>
	<line x1="628.26" y1="2475.06" x2="628.26" y2="2410.26" style="stroke:#F0F0F0;stroke-width:9.72"/>
	<line x1="628.26" y1="2377.86" x2="628.26" y2="2313.06" style="stroke:#F0F0F0;stroke-width:9.72"/>
	<line x1="628.26" y1="2280.66" x2="628.26" y2="2215.86" style="stroke:#F0F0F0;stroke-width:9.72"/>
	<line x1="628.26" y1="2183.46" x2="628.26" y2="2118.66" style="stroke:#F0F0F0;stroke-width:9.72"/>
	<line x1="628.26" y1="2086.26" x2="628.26" y2="2021.46" style="stroke:#F0F0F0;stroke-width:9.72"/>
	<line x1="628.26" y1="1989.06" x2="628.26" y2="1924.26" style="stroke:#F0F0F0;stroke-width:9.72"/>
	<line x1="628.26" y1="1891.86" x2="628.26" y2="1827.06" style="stroke:#F0F0F0;stroke-width:9.72"/>
	<line x1="628.26" y1="1794.66" x2="628.26" y2="1729.86" style="stroke:#F0F0F0;stroke-width:9.72"/>
	<line x1="628.26" y1="1697.46" x2="628.26" y2="1632.66" style="stroke:#F0F0F0;stroke-width:9.72"/>
	<line x1="628.26" y1="1600.26" x2="628.26" y2="1535.46" style="stroke:#F0F0F0;stroke-width:9.72"/>
	<line x1="628.26" y1="1503.06" x2="628.26" y2="1438.26" style="stroke:#F0F0F0;stroke-width:9.72"/>
	<line x1="628.26" y1="1405.86" x2="628.26" y2="1341.06" style="stroke:#F0F0F0;stroke-width:9.72"/>
	<line x1="628.26" y1="1308.66" x2="628.26" y2="1243.86" style="stroke:#F0F0F0;stroke-width:9.72"/>
	<line x1="628.26" y1="1211.46" x2="628.26" y2="1146.66" style="stroke:#F0F0F0;stroke-width:9.72"/>
	<line x1="628.26" y1="1114.26" x2="628.26" y2="1049.46" style="stroke:#F0F0F0;stroke-width:9.72"/>
	<line x1="628.26" y1="1017.06" x2="628.26" y2="952.26" style="stroke:#F0F0F0;stroke-width:9.72"/>
	<line x1="628.26" y1="919.86" x2="628.26" y2="855.06" style="stroke:#F0F0F0;stroke-width:9.72"/>
	<line x1="628.26" y1="822.66" x2="628.26" y2="757.86" style="stroke:#F0F0F0;stroke-width:9.72"/>
	<line x1="628.26" y1="725.46" x2="628.26" y2="660.66" style="stroke:#F0F0F0;stroke-width:9.72"/>
	<line x1="628.26" y1="628.26" x2="628.26" y2="563.46" style="stroke:#F0F0F0;stroke-width:9.72"/>
	<line x1="628.26" y1="531.06" x2="628.26" y2="466.26" style="stroke:#F0F0F0;stroke-width:9.72"/>
	<line x1="628.26" y1="433.86" x2="628.26" y2="369.06" style="stroke:#F0F0F0;stroke-width:9.72"/>
	<line x1="628.26" y1="336.66" x2="628.26" y2="271.86" style="stroke:#F0F0F0;stroke-width:9.72"/>
	<line x1="628.26" y1="239.46" x2="628.26" y2="174.66" style="stroke:#F0F0F0;stroke-width:9.72"/>
	<line x1="628.26" y1="142.26" x2="628.26" y2="113.40" style="stroke:#F0F0F0;stroke-width:9.72"/>
	<line x1="1775.08" y1="2766.66" x2="1775.08" y2="2701.86" style="stroke:#F0F0F0;stroke-width:9.72"/>
	<line x1="1775.08" y1="2669.46" x2="1775.08" y2="2604.66" style="stroke:#F0F0F0;stroke-width:9.72"/>
	<line x1="1775.08" y1="2572.26" x2="1775.08" y2="2507.46" style="stroke:#F0F0F0;stroke-width:9.72"/>
	<line x1="1775.08" y1="2475.06" x2="1775.08" y2="2410.26" style="stroke:#F0F0F0;stroke-width:9.72"/>
	<line x1="1775.08" y1="2377.86" x2="1775.08" y2="2313.06" style="stroke:#F0F0F0;stroke-width:9.72"/>
	<line x1="1775.08" y1="2280.66" x2="1775.08" y2="2215.86" style="stroke:#F0F0F0;stroke-width:9.72"/>
	<line x1="1775.08" y1="2183.46" x2="1775.08" y2="2118.66" style="stroke:#F0F0F0;stroke-width:9.72"/>
	<line x1="1775.08" y1="2086.26" x2="1775.08" y2="2021.46" style="stroke:#F0F0F0;stroke-width:9.72"/>
	<line x1="1775.08" y1="1989.06" x2="1775.08" y2="1924.26" style="stroke:#F0F0F0;stroke-width:9.72"/>
	<line x1="1775.08" y1="1891.86" x2="1775.08" y2="1827.06" style="stroke:#F0F0F0;stroke-width:9.72"/>
	<line x1="1775.08" y1="1794.66" x2="1775.08" y2="1729.86" style="stroke:#F0F0F0;stroke-width:9.72"/>
	<line x1="1775.08" y1="1697.46" x2="1775.08" y2="1632.66" style="stroke:#F0F0F0;stroke-width:9.72"/>
	<line x1="1775.08" y1="1600.26" x2="1775.08" y2="1535.46" style="stroke:#F0F0F0;stroke-width:9.72"/>
	<line x1="1775.08" y1="1503.06" x2="1775.08" y2="1438.26" style="stroke:#F0F0F0;stroke-width:9.72"/>
	<line x1="1775.08" y1="1405.86" x2="1775.08" y2="1341.06" style="stroke:#F0F0F0;stroke-width:9.72"/>
	<line x1="1775.08" y1="1308.66" x2="1775.08" y2="1243.86" style="stroke:#F0F0F0;stroke-width:9.72"/>
	<line x1="1775.08" y1="1211.46" x2="1775.08" y2="1146.66" style="stroke:#F0F0F0;stroke-width:9.72"/>
	<line x1="1775.08" y1="1114.26" x2="1775.08" y2="1049.46" style="stroke:#F0F0F0;stroke-width:9.72"/>
	<line x1="1775.08" y1="1017.06" x2="1775.08" y2="952.26" style="stroke:#F0F0F0;stroke-width:9.72"/>
	<line x1="1775.08" y1="919.86" x2="1775.08" y2="855.06" style="stroke:#F0F0F0;stroke-width:9.72"/>
	<line x1="1775.08" y1="822.66" x2="1775.08" y2="757.86" style="stroke:#F0F0F0;stroke-width:9.72"/>
	<line x1="1775.08" y1="725.46" x2="1775.08" y2="660.66" style="stroke:#F0F0F0;stroke-width:9.72"/>
	<line x1="1775.08" y1="628.26" x2="1775.08" y2="563.46" style="stroke:#F0F0F0;stroke-width:9.72"/>
	<line x1="1775.08" y1="531.06" x2="1775.08" y2="466.26" style="stroke:#F0F0F0;stroke-width:9.72"/>
	<line x1="1775.08" y1="433.86" x2="1775.08" y2="369.06" style="stroke:#F0F0F0;stroke-width:9.72"/>
	<line x1="1775.08" y1="336.66" x2="1775.08" y2="271.86" style="stroke:#F0F0F0;stroke-width:9.72"/>
	<line x1="1775.08" y1="239.46" x2="1775.08" y2="174.66" style="stroke:#F0F0F0;stroke-width:9.72"/>
	<line x1="1775.08" y1="142.26" x2="1775.08" y2="113.40" style="stroke:#F0F0F0;stroke-width:9.72"/>
	<line x1="2921.74" y1="2766.66" x2="2921.74" y2="2701.86" style="stroke:#F0F0F0;stroke-width:9.72"/>
	<line x1="2921.74" y1="2669.46" x2="2921.74" y2="2604.66" style="stroke:#F0F0F0;stroke-width:9.72"/>
	<line x1="2921.74" y1="2572.26" x2="2921.74" y2="2507.46" style="stroke:#F0F0F0;stroke-width:9.72"/>
	<line x1="2921.74" y1="2475.06" x2="2921.74" y2="2410.26" style="stroke:#F0F0F0;stroke-width:9.72"/>
	<line x1="2921.74" y1="2377.86" x2="2921.74" y2="2313.06" style="stroke:#F0F0F0;stroke-width:9.72"/>
	<line x1="2921.74" y1="2280.66" x2="2921.74" y2="2215.86" style="stroke:#F0F0F0;stroke-width:9.72"/>
	<line x1="2921.74" y1="2183.46" x2="2921.74" y2="2118.66" style="stroke:#F0F0F0;stroke-width:9.72"/>
	<line x1="2921.74" y1="2086.26" x2="2921.74" y2="2021.46" style="stroke:#F0F0F0;stroke-width:9.72"/>
	<line x1="2921.74" y1="1989.06" x2="2921.74" y2="1924.26" style="stroke:#F0F0F0;stroke-width:9.72"/>
	<line x1="2921.74" y1="1891.86" x2="2921.74" y2="1827.06" style="stroke:#F0F0F0;stroke-width:9.72"/>
	<line x1="2921.74" y1="1794.66" x2="2921.74" y2="1729.86" style="stroke:#F0F0F0;stroke-width:9.72"/>
	<line x1="2921.74" y1="1697.46" x2="2921.74" y2="1632.66" style="stroke:#F0F0F0;stroke-width:9.72"/>
	<line x1="2921.74" y1="1600.26" x2="2921.74" y2="1535.46" style="stroke:#F0F0F0;stroke-width:9.72"/>
	<line x1="2921.74" y1="1503.06" x2="2921.74" y2="1438.26" style="stroke:#F0F0F0;stroke-width:9.72"/>
	<line x1="2921.74" y1="1405.86" x2="2921.74" y2="1341.06" style="stroke:#F0F0F0;stroke-width:9.72"/>
	<line x1="2921.74" y1="1308.66" x2="2921.74" y2="1243.86" style="stroke:#F0F0F0;stroke-width:9.72"/>
	<line x1="2921.74" y1="1211.46" x2="2921.74" y2="1146.66" style="stroke:#F0F0F0;stroke-width:9.72"/>
	<line x1="2921.74" y1="1114.26" x2="2921.74" y2="1049.46" style="stroke:#F0F0F0;stroke-width:9.72"/>
	<line x1="2921.74" y1="1017.06" x2="2921.74" y2="952.26" style="stroke:#F0F0F0;stroke-width:9.72"/>
	<line x1="2921.74" y1="919.86" x2="2921.74" y2="855.06" style="stroke:#F0F0F0;stroke-width:9.72"/>
	<line x1="2921.74" y1="822.66" x2="2921.74" y2="757.86" style="stroke:#F0F0F0;stroke-width:9.72"/>
	<line x1="2921.74" y1="725.46" x2="2921.74" y2="660.66" style="stroke:#F0F0F0;stroke-width:9.72"/>
	<line x1="2921.74" y1="628.26" x2="2921.74" y2="563.46" style="stroke:#F0F0F0;stroke-width:9.72"/>
	<line x1="2921.74" y1="531.06" x2="2921.74" y2="466.26" style="stroke:#F0F0F0;stroke-width:9.72"/>
	<line x1="2921.74" y1="433.86" x2="2921.74" y2="369.06" style="stroke:#F0F0F0;stroke-width:9.72"/>
	<line x1="2921.74" y1="336.66" x2="2921.74" y2="271.86" style="stroke:#F0F0F0;stroke-width:9.72"/>
	<line x1="2921.74" y1="239.46" x2="2921.74" y2="174.66" style="stroke:#F0F0F0;stroke-width:9.72"/>
	<line x1="2921.74" y1="142.26" x2="2921.74" y2="113.40" style="stroke:#F0F0F0;stroke-width:9.72"/>
	<line x1="4068.56" y1="2766.66" x2="4068.56" y2="2701.86" style="stroke:#F0F0F0;stroke-width:9.72"/>
	<line x1="4068.56" y1="2669.46" x2="4068.56" y2="2604.66" style="stroke:#F0F0F0;stroke-width:9.72"/>
	<line x1="4068.56" y1="2572.26" x2="4068.56" y2="2507.46" style="stroke:#F0F0F0;stroke-width:9.72"/>
	<line x1="4068.56" y1="2475.06" x2="4068.56" y2="2410.26" style="stroke:#F0F0F0;stroke-width:9.72"/>
	<line x1="4068.56" y1="2377.86" x2="4068.56" y2="2313.06" style="stroke:#F0F0F0;stroke-width:9.72"/>
	<line x1="4068.56" y1="2280.66" x2="4068.56" y2="2215.86" style="stroke:#F0F0F0;stroke-width:9.72"/>
	<line x1="4068.56" y1="2183.46" x2="4068.56" y2="2118.66" style="stroke:#F0F0F0;stroke-width:9.72"/>
	<line x1="4068.56" y1="2086.26" x2="4068.56" y2="2021.46" style="stroke:#F0F0F0;stroke-width:9.72"/>
	<line x1="4068.56" y1="1989.06" x2="4068.56" y2="1924.26" style="stroke:#F0F0F0;stroke-width:9.72"/>
	<line x1="4068.56" y1="1891.86" x2="4068.56" y2="1827.06" style="stroke:#F0F0F0;stroke-width:9.72"/>
	<line x1="4068.56" y1="1794.66" x2="4068.56" y2="1729.86" style="stroke:#F0F0F0;stroke-width:9.72"/>
	<line x1="4068.56" y1="1697.46" x2="4068.56" y2="1632.66" style="stroke:#F0F0F0;stroke-width:9.72"/>
	<line x1="4068.56" y1="1600.26" x2="4068.56" y2="1535.46" style="stroke:#F0F0F0;stroke-width:9.72"/>
	<line x1="4068.56" y1="1503.06" x2="4068.56" y2="1438.26" style="stroke:#F0F0F0;stroke-width:9.72"/>
	<line x1="4068.56" y1="1405.86" x2="4068.56" y2="1341.06" style="stroke:#F0F0F0;stroke-width:9.72"/>
	<line x1="4068.56" y1="1308.66" x2="4068.56" y2="1243.86" style="stroke:#F0F0F0;stroke-width:9.72"/>
	<line x1="4068.56" y1="1211.46" x2="4068.56" y2="1146.66" style="stroke:#F0F0F0;stroke-width:9.72"/>
	<line x1="4068.56" y1="1114.26" x2="4068.56" y2="1049.46" style="stroke:#F0F0F0;stroke-width:9.72"/>
	<line x1="4068.56" y1="1017.06" x2="4068.56" y2="952.26" style="stroke:#F0F0F0;stroke-width:9.72"/>
	<line x1="4068.56" y1="919.86" x2="4068.56" y2="855.06" style="stroke:#F0F0F0;stroke-width:9.72"/>
	<line x1="4068.56" y1="822.66" x2="4068.56" y2="757.86" style="stroke:#F0F0F0;stroke-width:9.72"/>
	<line x1="4068.56" y1="725.46" x2="4068.56" y2="660.66" style="stroke:#F0F0F0;stroke-width:9.72"/>
	<line x1="4068.56" y1="628.26" x2="4068.56" y2="563.46" style="stroke:#F0F0F0;stroke-width:9.72"/>
	<line x1="4068.56" y1="531.06" x2="4068.56" y2="466.26" style="stroke:#F0F0F0;stroke-width:9.72"/>
	<line x1="4068.56" y1="433.86" x2="4068.56" y2="369.06" style="stroke:#F0F0F0;stroke-width:9.72"/>
	<line x1="4068.56" y1="336.66" x2="4068.56" y2="271.86" style="stroke:#F0F0F0;stroke-width:9.72"/>
	<line x1="4068.56" y1="239.46" x2="4068.56" y2="174.66" style="stroke:#F0F0F0;stroke-width:9.72"/>
	<line x1="4068.56" y1="142.26" x2="4068.56" y2="113.40" style="stroke:#F0F0F0;stroke-width:9.72"/>
	<line x1="5215.39" y1="2766.66" x2="5215.39" y2="2701.86" style="stroke:#F0F0F0;stroke-width:9.72"/>
	<line x1="5215.39" y1="2669.46" x2="5215.39" y2="2604.66" style="stroke:#F0F0F0;stroke-width:9.72"/>
	<line x1="5215.39" y1="2572.26" x2="5215.39" y2="2507.46" style="stroke:#F0F0F0;stroke-width:9.72"/>
	<line x1="5215.39" y1="2475.06" x2="5215.39" y2="2410.26" style="stroke:#F0F0F0;stroke-width:9.72"/>
	<line x1="5215.39" y1="2377.86" x2="5215.39" y2="2313.06" style="stroke:#F0F0F0;stroke-width:9.72"/>
	<line x1="5215.39" y1="2280.66" x2="5215.39" y2="2215.86" style="stroke:#F0F0F0;stroke-width:9.72"/>
	<line x1="5215.39" y1="2183.46" x2="5215.39" y2="2118.66" style="stroke:#F0F0F0;stroke-width:9.72"/>
	<line x1="5215.39" y1="2086.26" x2="5215.39" y2="2021.46" style="stroke:#F0F0F0;stroke-width:9.72"/>
	<line x1="5215.39" y1="1989.06" x2="5215.39" y2="1924.26" style="stroke:#F0F0F0;stroke-width:9.72"/>
	<line x1="5215.39" y1="1891.86" x2="5215.39" y2="1827.06" style="stroke:#F0F0F0;stroke-width:9.72"/>
	<line x1="5215.39" y1="1794.66" x2="5215.39" y2="1729.86" style="stroke:#F0F0F0;stroke-width:9.72"/>
	<line x1="5215.39" y1="1697.46" x2="5215.39" y2="1632.66" style="stroke:#F0F0F0;stroke-width:9.72"/>
	<line x1="5215.39" y1="1600.26" x2="5215.39" y2="1535.46" style="stroke:#F0F0F0;stroke-width:9.72"/>
	<line x1="5215.39" y1="1503.06" x2="5215.39" y2="1438.26" style="stroke:#F0F0F0;stroke-width:9.72"/>
	<line x1="5215.39" y1="1405.86" x2="5215.39" y2="1341.06" style="stroke:#F0F0F0;stroke-width:9.72"/>
	<line x1="5215.39" y1="1308.66" x2="5215.39" y2="1243.86" style="stroke:#F0F0F0;stroke-width:9.72"/>
	<line x1="5215.39" y1="1211.46" x2="5215.39" y2="1146.66" style="stroke:#F0F0F0;stroke-width:9.72"/>
	<line x1="5215.39" y1="1114.26" x2="5215.39" y2="1049.46" style="stroke:#F0F0F0;stroke-width:9.72"/>
	<line x1="5215.39" y1="1017.06" x2="5215.39" y2="952.26" style="stroke:#F0F0F0;stroke-width:9.72"/>
	<line x1="5215.39" y1="919.86" x2="5215.39" y2="855.06" style="stroke:#F0F0F0;stroke-width:9.72"/>
	<line x1="5215.39" y1="822.66" x2="5215.39" y2="757.86" style="stroke:#F0F0F0;stroke-width:9.72"/>
	<line x1="5215.39" y1="725.46" x2="5215.39" y2="660.66" style="stroke:#F0F0F0;stroke-width:9.72"/>
	<line x1="5215.39" y1="628.26" x2="5215.39" y2="563.46" style="stroke:#F0F0F0;stroke-width:9.72"/>
	<line x1="5215.39" y1="531.06" x2="5215.39" y2="466.26" style="stroke:#F0F0F0;stroke-width:9.72"/>
	<line x1="5215.39" y1="433.86" x2="5215.39" y2="369.06" style="stroke:#F0F0F0;stroke-width:9.72"/>
	<line x1="5215.39" y1="336.66" x2="5215.39" y2="271.86" style="stroke:#F0F0F0;stroke-width:9.72"/>
	<line x1="5215.39" y1="239.46" x2="5215.39" y2="174.66" style="stroke:#F0F0F0;stroke-width:9.72"/>
	<line x1="5215.39" y1="142.26" x2="5215.39" y2="113.40" style="stroke:#F0F0F0;stroke-width:9.72"/>
	<rect x="743.01" y="2658.15" width="124.20" height="108.51" style="fill:#3191FF"/>
	<rect x="745.44" y="2660.58" width="119.34" height="103.65" style="fill:none;stroke:#5FAAFF;stroke-width:4.86"/>
	<rect x="867.21" y="2194.59" width="124.20" height="572.06" style="fill:#3191FF"/>
	<rect x="869.64" y="2197.02" width="119.34" height="567.20" style="fill:none;stroke:#5FAAFF;stroke-width:4.86"/>
	<rect x="991.41" y="1438.93" width="124.20" height="1327.73" style="fill:#3191FF"/>
	<rect x="993.84" y="1441.36" width="119.34" height="1322.87" style="fill:none;stroke:#5FAAFF;stroke-width:4.86"/>
	<rect x="1115.61" y="668.25" width="124.20" height="2098.41" style="fill:#3191FF"/>
	<rect x="1118.04" y="670.68" width="119.34" height="2093.55" style="fill:none;stroke:#5FAAFF;stroke-width:4.86"/>
	<rect x="1239.81" y="261.90" width="124.37" height="2504.76" style="fill:#3191FF"/>
	<rect x="1242.24" y="264.33" width="119.51" height="2499.90" style="fill:none;stroke:#5FAAFF;stroke-width:4.86"/>
	<rect x="1364.18" y="529.88" width="124.20" height="2236.78" style="fill:#3191FF"/>
	<rect x="1366.61" y="532.30" width="119.34" height="2231.92" style="fill:none;stroke:#5FAAFF;stroke-width:4.86"/>
	<rect x="1488.38" y="282.99" width="124.20" height="2483.66" style="fill:#3191FF"/>
	<rect x="1490.81" y="285.42" width="119.34" height="2478.80" style="fill:none;stroke:#5FAAFF;stroke-width:4.86"/>
	<rect x="1612.58" y="1694.93" width="124.20" height="1071.73" style="fill:#3191FF"/>
	<rect x="1615.01" y="1697.36" width="119.34" height="1066.87" style="fill:none;stroke:#5FAAFF;stroke-width:4.86"/>
	<rect x="1736.78" y="1896.58" width="124.20" height="870.08" style="fill:#3191FF"/>
	<rect x="1739.21" y="1899.01" width="119.34" height="865.22" style="fill:none;stroke:#5FAAFF;stroke-width:4.86"/>
	<rect x="1860.98" y="2218.73" width="124.37" height="547.93" style="fill:#3191FF"/>
	<rect x="1863.41" y="2221.15" width="119.51" height="543.07" style="fill:none;stroke:#5FAAFF;stroke-width:4.86"/>
	<rect x="1985.34" y="2426.46" width="124.20" height="340.20" style="fill:#3191FF"/>
	<rect x="1987.77" y="2428.89" width="119.34" height="335.34" style="fill:none;stroke:#5FAAFF;stroke-width:4.86"/>
	<rect x="2109.54" y="2519.78" width="124.20" height="246.88" style="fill:#3191FF"/>
	<rect x="2111.97" y="2522.21" width="119.34" height="242.02" style="fill:none;stroke:#5FAAFF;stroke-width:4.86"/>
	<rect x="2233.74" y="2549.81" width="124.20" height="216.84" style="fill:#3191FF"/>
	<rect x="2236.17" y="2552.24" width="119.34" height="211.98" style="fill:none;stroke:#5FAAFF;stroke-width:4.86"/>
	<rect x="2357.94" y="2685.32" width="124.20" height="81.34" style="fill:#3191FF"/>
	<rect x="2360.37" y="2687.75" width="119.34" height="76.48" style="fill:none;stroke:#5FAAFF;stroke-width:4.86"/>
	<rect x="2482.14" y="2700.34" width="124.37" height="66.32" style="fill:#3191FF"/>
	<rect x="2484.57" y="2702.77" width="119.51" height="61.46" style="fill:none;stroke:#5FAAFF;stroke-width:4.86"/>
	<rect x="2606.51" y="2736.45" width="124.20" height="30.21" style="fill:#3191FF"/>
	<rect x="2608.94" y="2738.88" width="119.34" height="25.35" style="fill:none;stroke:#5FAAFF;stroke-width:4.86"/>
	<rect x="2730.71" y="2739.49" width="124.20" height="27.17" style="fill:#3191FF"/>
	<rect x="2733.14" y="2741.92" width="119.34" height="22.31" style="fill:none;stroke:#5FAAFF;stroke-width:4.86"/>
	<rect x="2854.91" y="2757.54" width="124.20" height="9.11" style="fill:#3191FF"/>
	<rect x="2857.34" y="2759.97" width="119.34" height="4.25" style="fill:none;stroke:#5FAAFF;stroke-width:4.86"/>
	<rect x="2979.11" y="2751.64" width="124.20" height="15.02" style="fill:#3191FF"/>
	<rect x="2981.54" y="2754.07" width="119.34" height="10.16" style="fill:none;stroke:#5FAAFF;stroke-width:4.86"/>
	<rect x="3103.31" y="2763.62" width="124.20" height="3.04" style="fill:#3191FF"/>
	<rect x="3105.74" y="2764.23" width="119.34" height="1.82" style="fill:none;stroke:#5FAAFF;stroke-width:4.86"/>
	<rect x="3227.51" y="2760.58" width="124.37" height="6.07" style="fill:#3191FF"/>
	<rect x="3229.94" y="2763.01" width="119.51" height="1.21" style="fill:none;stroke:#5FAAFF;stroke-width:4.86"/>
	<rect x="3351.88" y="2763.62" width="124.20" height="3.04" style="fill:#3191FF"/>
	<rect x="3354.31" y="2764.23" width="119.34" height="1.82" style="fill:none;stroke:#5FAAFF;stroke-width:4.86"/>
	<rect x="3476.08" y="2757.54" width="124.20" height="9.11" style="fill:#3191FF"/>
	<rect x="3478.51" y="2759.97" width="119.34" height="4.25" style="fill:none;stroke:#5FAAFF;stroke-width:4.86"/>
	<rect x="3600.28" y="2760.58" width="124.20" height="6.07" style="fill:#3191FF"/>
	<rect x="3602.71" y="2763.01" width="119.34" height="1.21" style="fill:none;stroke:#5FAAFF;stroke-width:4.86"/>
	<rect x="3724.48" y="2763.62" width="124.20" height="3.04" style="fill:#3191FF"/>
	<rect x="3726.91" y="2764.23" width="119.34" height="1.82" style="fill:none;stroke:#5FAAFF;stroke-width:4.86"/>
	<rect x="4097.25" y="2763.62" width="124.20" height="3.04" style="fill:#3191FF"/>
	<rect x="4099.68" y="2764.23" width="119.34" height="1.82" style="fill:none;stroke:#5FAAFF;stroke-width:4.86"/>
	<rect x="4221.45" y="2763.62" width="124.20" height="3.04" style="fill:#3191FF"/>
	<rect x="4223.88" y="2764.23" width="119.34" height="1.82" style="fill:none;stroke:#5FAAFF;stroke-width:4.86"/>
	<rect x="4345.65" y="2763.62" width="124.20" height="3.04" style="fill:#3191FF"/>
	<rect x="4348.08" y="2764.23" width="119.34" height="1.82" style="fill:none;stroke:#5FAAFF;stroke-width:4.86"/>
	<rect x="5091.02" y="2763.62" width="124.37" height="3.04" style="fill:#3191FF"/>
	<rect x="5093.45" y="2764.23" width="119.51" height="1.82" style="fill:none;stroke:#5FAAFF;stroke-width:4.86"/>
	<line x1="557.04" y1="2766.66" x2="557.04" y2="113.40" style="stroke:#000000;stroke-width:6.48"/>
	<line x1="557.04" y1="2766.66" x2="511.99" y2="2766.66" style="stroke:#000000;stroke-width:6.48"/>
	<text x="489.54" y="2806.09" style="font-family:'Helvetica';font-size:112.56px;fill:#000000" text-anchor="end">0</text>
	<line x1="557.04" y1="2121.19" x2="511.99" y2="2121.19" style="stroke:#000000;stroke-width:6.48"/>
	<text x="489.54" y="2160.62" style="font-family:'Helvetica';font-size:112.56px;fill:#000000" text-anchor="end">.02</text>
	<line x1="557.04" y1="1475.72" x2="511.99" y2="1475.72" style="stroke:#000000;stroke-width:6.48"/>
	<text x="489.54" y="1515.16" style="font-family:'Helvetica';font-size:112.56px;fill:#000000" text-anchor="end">.04</text>
	<line x1="557.04" y1="830.08" x2="511.99" y2="830.08" style="stroke:#000000;stroke-width:6.48"/>
	<text x="489.54" y="869.52" style="font-family:'Helvetica';font-size:112.56px;fill:#000000" text-anchor="end">.06</text>
	<line x1="557.04" y1="184.61" x2="511.99" y2="184.61" style="stroke:#000000;stroke-width:6.48"/>
	<text x="489.54" y="224.05" style="font-family:'Helvetica';font-size:112.56px;fill:#000000" text-anchor="end">.08</text>
	<text x="214.55" y="1439.94" style="font-family:'Helvetica';font-size:112.56px;fill:#000000" transform="rotate(-90 214.55,1439.94)" text-anchor="middle">Density</text>
	<line x1="557.04" y1="2766.66" x2="5286.60" y2="2766.66" style="stroke:#000000;stroke-width:6.48"/>
	<line x1="628.26" y1="2766.66" x2="628.26" y2="2811.54" style="stroke:#000000;stroke-width:6.48"/>
	<text x="628.26" y="2912.86" style="font-family:'Helvetica';font-size:112.56px;fill:#000000" text-anchor="middle">0</text>
	<line x1="1775.08" y1="2766.66" x2="1775.08" y2="2811.54" style="stroke:#000000;stroke-width:6.48"/>
	<text x="1775.08" y="2912.86" style="font-family:'Helvetica';font-size:112.56px;fill:#000000" text-anchor="middle">20</text>
	<line x1="2921.74" y1="2766.66" x2="2921.74" y2="2811.54" style="stroke:#000000;stroke-width:6.48"/>
	<text x="2921.74" y="2912.86" style="font-family:'Helvetica';font-size:112.56px;fill:#000000" text-anchor="middle">40</text>
	<line x1="4068.56" y1="2766.66" x2="4068.56" y2="2811.54" style="stroke:#000000;stroke-width:6.48"/>
	<text x="4068.56" y="2912.86" style="font-family:'Helvetica';font-size:112.56px;fill:#000000" text-anchor="middle">60</text>
	<line x1="5215.39" y1="2766.66" x2="5215.39" y2="2811.54" style="stroke:#000000;stroke-width:6.48"/>
	<text x="5215.39" y="2912.86" style="font-family:'Helvetica';font-size:112.56px;fill:#000000" text-anchor="middle">80</text>
	<text x="2921.74" y="3070.31" style="font-family:'Helvetica';font-size:112.56px;fill:#000000" text-anchor="middle">Lead (mcg/dL)</text>
</svg>
