<?xml version="1.0" encoding="UTF-8" standalone="no"?>
<!-- This is a Stata 18.0 generated SVG file (http://www.stata.com) -->

<svg version="1.1" width="7.500in" height="4.500in" viewBox="0 0 5400 3240" xmlns="http://www.w3.org/2000/svg" xmlns:xlink="http://www.w3.org/1999/xlink">
	<desc>Stata Graph - Graph</desc>
	<rect x="0" y="0" width="5400" height="3240" style="fill:#FFFFFF;stroke:none"/>
	<rect x="0.00" y="0.00" width="5400.00" height="3240.00" style="fill:#FFFFFF"/>
	<rect x="3.24" y="3.24" width="5393.52" height="3233.52" style="fill:none;stroke:#FFFFFF;stroke-width:6.48"/>
	<rect x="557.04" y="113.40" width="4729.56" height="2653.26" style="fill:#FFFFFF"/>
	<rect x="560.28" y="116.64" width="4723.08" height="2646.78" style="fill:none;stroke:#FFFFFF;stroke-width:6.48"/>
	<line x1="557.04" y1="2766.66" x2="621.84" y2="2766.66" style="stroke:#F0F0F0;stroke-width:9.72"/>
	<line x1="654.24" y1="2766.66" x2="719.04" y2="2766.66" style="stroke:#F0F0F0;stroke-width:9.72"/>
	<line x1="751.44" y1="2766.66" x2="816.24" y2="2766.66" style="stroke:#F0F0F0;stroke-width:9.72"/>
	<line x1="848.64" y1="2766.66" x2="913.44" y2="2766.66" style="stroke:#F0F0F0;stroke-width:9.72"/>
	<line x1="945.84" y1="2766.66" x2="1010.64" y2="2766.66" style="stroke:#F0F0F0;stroke-width:9.72"/>
	<line x1="1043.04" y1="2766.66" x2="1107.84" y2="2766.66" style="stroke:#F0F0F0;stroke-width:9.72"/>
	<line x1="1140.24" y1="2766.66" x2="1205.04" y2="2766.66" style="stroke:#F0F0F0;stroke-width:9.72"/>
	<line x1="1237.44" y1="2766.66" x2="1302.24" y2="2766.66" style="stroke:#F0F0F0;stroke-width:9.72"/>
	<line x1="1334.64" y1="2766.66" x2="1399.44" y2="2766.66" style="stroke:#F0F0F0;stroke-width:9.72"/>
	<line x1="1431.84" y1="2766.66" x2="1496.64" y2="2766.66" style="stroke:#F0F0F0;stroke-width:9.72"/>
	<line x1="1529.04" y1="2766.66" x2="1593.84" y2="2766.66" style="stroke:#F0F0F0;stroke-width:9.72"/>
	<line x1="1626.24" y1="2766.66" x2="1691.04" y2="2766.66" style="stroke:#F0F0F0;stroke-width:9.72"/>
	<line x1="1723.44" y1="2766.66" x2="1788.24" y2="2766.66" style="stroke:#F0F0F0;stroke-width:9.72"/>
	<line x1="1820.64" y1="2766.66" x2="1885.44" y2="2766.66" style="stroke:#F0F0F0;stroke-width:9.72"/>
	<line x1="1917.84" y1="2766.66" x2="1982.64" y2="2766.66" style="stroke:#F0F0F0;stroke-width:9.72"/>
	<line x1="2015.04" y1="2766.66" x2="2079.84" y2="2766.66" style="stroke:#F0F0F0;stroke-width:9.72"/>
	<line x1="2112.24" y1="2766.66" x2="2177.04" y2="2766.66" style="stroke:#F0F0F0;stroke-width:9.72"/>
	<line x1="2209.44" y1="2766.66" x2="2274.24" y2="2766.66" style="stroke:#F0F0F0;stroke-width:9.72"/>
	<line x1="2306.64" y1="2766.66" x2="2371.44" y2="2766.66" style="stroke:#F0F0F0;stroke-width:9.72"/>
	<line x1="2403.84" y1="2766.66" x2="2468.64" y2="2766.66" style="stroke:#F0F0F0;stroke-width:9.72"/>
	<line x1="2501.04" y1="2766.66" x2="2565.84" y2="2766.66" style="stroke:#F0F0F0;stroke-width:9.72"/>
	<line x1="2598.24" y1="2766.66" x2="2663.04" y2="2766.66" style="stroke:#F0F0F0;stroke-width:9.72"/>
	<line x1="2695.44" y1="2766.66" x2="2760.24" y2="2766.66" style="stroke:#F0F0F0;stroke-width:9.72"/>
	<line x1="2792.64" y1="2766.66" x2="2857.44" y2="2766.66" style="stroke:#F0F0F0;stroke-width:9.72"/>
	<line x1="2889.84" y1="2766.66" x2="2954.64" y2="2766.66" style="stroke:#F0F0F0;stroke-width:9.72"/>
	<line x1="2987.04" y1="2766.66" x2="3051.84" y2="2766.66" style="stroke:#F0F0F0;stroke-width:9.72"/>
	<line x1="3084.24" y1="2766.66" x2="3149.04" y2="2766.66" style="stroke:#F0F0F0;stroke-width:9.72"/>
	<line x1="3181.44" y1="2766.66" x2="3246.24" y2="2766.66" style="stroke:#F0F0F0;stroke-width:9.72"/>
	<line x1="3278.64" y1="2766.66" x2="3343.44" y2="2766.66" style="stroke:#F0F0F0;stroke-width:9.72"/>
	<line x1="3375.84" y1="2766.66" x2="3440.64" y2="2766.66" style="stroke:#F0F0F0;stroke-width:9.72"/>
	<line x1="3473.04" y1="2766.66" x2="3537.84" y2="2766.66" style="stroke:#F0F0F0;stroke-width:9.72"/>
	<line x1="3570.24" y1="2766.66" x2="3635.04" y2="2766.66" style="stroke:#F0F0F0;stroke-width:9.72"/>
	<line x1="3667.44" y1="2766.66" x2="3732.24" y2="2766.66" style="stroke:#F0F0F0;stroke-width:9.72"/>
	<line x1="3764.64" y1="2766.66" x2="3829.44" y2="2766.66" style="stroke:#F0F0F0;stroke-width:9.72"/>
	<line x1="3861.84" y1="2766.66" x2="3926.64" y2="2766.66" style="stroke:#F0F0F0;stroke-width:9.72"/>
	<line x1="3959.04" y1="2766.66" x2="4023.84" y2="2766.66" style="stroke:#F0F0F0;stroke-width:9.72"/>
	<line x1="4056.24" y1="2766.66" x2="4121.04" y2="2766.66" style="stroke:#F0F0F0;stroke-width:9.72"/>
	<line x1="4153.44" y1="2766.66" x2="4218.24" y2="2766.66" style="stroke:#F0F0F0;stroke-width:9.72"/>
	<line x1="4250.64" y1="2766.66" x2="4315.44" y2="2766.66" style="stroke:#F0F0F0;stroke-width:9.72"/>
	<line x1="4347.84" y1="2766.66" x2="4412.64" y2="2766.66" style="stroke:#F0F0F0;stroke-width:9.72"/>
	<line x1="4445.04" y1="2766.66" x2="4509.84" y2="2766.66" style="stroke:#F0F0F0;stroke-width:9.72"/>
	<line x1="4542.24" y1="2766.66" x2="4607.04" y2="2766.66" style="stroke:#F0F0F0;stroke-width:9.72"/>
	<line x1="4639.44" y1="2766.66" x2="4704.24" y2="2766.66" style="stroke:#F0F0F0;stroke-width:9.72"/>
	<line x1="4736.64" y1="2766.66" x2="4801.44" y2="2766.66" style="stroke:#F0F0F0;stroke-width:9.72"/>
	<line x1="4833.84" y1="2766.66" x2="4898.64" y2="2766.66" style="stroke:#F0F0F0;stroke-width:9.72"/>
	<line x1="4931.04" y1="2766.66" x2="4995.84" y2="2766.66" style="stroke:#F0F0F0;stroke-width:9.72"/>
	<line x1="5028.24" y1="2766.66" x2="5093.04" y2="2766.66" style="stroke:#F0F0F0;stroke-width:9.72"/>
	<line x1="5125.44" y1="2766.66" x2="5190.24" y2="2766.66" style="stroke:#F0F0F0;stroke-width:9.72"/>
	<line x1="5222.64" y1="2766.66" x2="5286.60" y2="2766.66" style="stroke:#F0F0F0;stroke-width:9.72"/>
	<line x1="557.04" y1="2250.28" x2="621.84" y2="2250.28" style="stroke:#F0F0F0;stroke-width:9.72"/>
	<line x1="654.24" y1="2250.28" x2="719.04" y2="2250.28" style="stroke:#F0F0F0;stroke-width:9.72"/>
	<line x1="751.44" y1="2250.28" x2="816.24" y2="2250.28" style="stroke:#F0F0F0;stroke-width:9.72"/>
	<line x1="848.64" y1="2250.28" x2="913.44" y2="2250.28" style="stroke:#F0F0F0;stroke-width:9.72"/>
	<line x1="945.84" y1="2250.28" x2="1010.64" y2="2250.28" style="stroke:#F0F0F0;stroke-width:9.72"/>
	<line x1="1043.04" y1="2250.28" x2="1107.84" y2="2250.28" style="stroke:#F0F0F0;stroke-width:9.72"/>
	<line x1="1140.24" y1="2250.28" x2="1205.04" y2="2250.28" style="stroke:#F0F0F0;stroke-width:9.72"/>
	<line x1="1237.44" y1="2250.28" x2="1302.24" y2="2250.28" style="stroke:#F0F0F0;stroke-width:9.72"/>
	<line x1="1334.64" y1="2250.28" x2="1399.44" y2="2250.28" style="stroke:#F0F0F0;stroke-width:9.72"/>
	<line x1="1431.84" y1="2250.28" x2="1496.64" y2="2250.28" style="stroke:#F0F0F0;stroke-width:9.72"/>
	<line x1="1529.04" y1="2250.28" x2="1593.84" y2="2250.28" style="stroke:#F0F0F0;stroke-width:9.72"/>
	<line x1="1626.24" y1="2250.28" x2="1691.04" y2="2250.28" style="stroke:#F0F0F0;stroke-width:9.72"/>
	<line x1="1723.44" y1="2250.28" x2="1788.24" y2="2250.28" style="stroke:#F0F0F0;stroke-width:9.72"/>
	<line x1="1820.64" y1="2250.28" x2="1885.44" y2="2250.28" style="stroke:#F0F0F0;stroke-width:9.72"/>
	<line x1="1917.84" y1="2250.28" x2="1982.64" y2="2250.28" style="stroke:#F0F0F0;stroke-width:9.72"/>
	<line x1="2015.04" y1="2250.28" x2="2079.84" y2="2250.28" style="stroke:#F0F0F0;stroke-width:9.72"/>
	<line x1="2112.24" y1="2250.28" x2="2177.04" y2="2250.28" style="stroke:#F0F0F0;stroke-width:9.72"/>
	<line x1="2209.44" y1="2250.28" x2="2274.24" y2="2250.28" style="stroke:#F0F0F0;stroke-width:9.72"/>
	<line x1="2306.64" y1="2250.28" x2="2371.44" y2="2250.28" style="stroke:#F0F0F0;stroke-width:9.72"/>
	<line x1="2403.84" y1="2250.28" x2="2468.64" y2="2250.28" style="stroke:#F0F0F0;stroke-width:9.72"/>
	<line x1="2501.04" y1="2250.28" x2="2565.84" y2="2250.28" style="stroke:#F0F0F0;stroke-width:9.72"/>
	<line x1="2598.24" y1="2250.28" x2="2663.04" y2="2250.28" style="stroke:#F0F0F0;stroke-width:9.72"/>
	<line x1="2695.44" y1="2250.28" x2="2760.24" y2="2250.28" style="stroke:#F0F0F0;stroke-width:9.72"/>
	<line x1="2792.64" y1="2250.28" x2="2857.44" y2="2250.28" style="stroke:#F0F0F0;stroke-width:9.72"/>
	<line x1="2889.84" y1="2250.28" x2="2954.64" y2="2250.28" style="stroke:#F0F0F0;stroke-width:9.72"/>
	<line x1="2987.04" y1="2250.28" x2="3051.84" y2="2250.28" style="stroke:#F0F0F0;stroke-width:9.72"/>
	<line x1="3084.24" y1="2250.28" x2="3149.04" y2="2250.28" style="stroke:#F0F0F0;stroke-width:9.72"/>
	<line x1="3181.44" y1="2250.28" x2="3246.24" y2="2250.28" style="stroke:#F0F0F0;stroke-width:9.72"/>
	<line x1="3278.64" y1="2250.28" x2="3343.44" y2="2250.28" style="stroke:#F0F0F0;stroke-width:9.72"/>
	<line x1="3375.84" y1="2250.28" x2="3440.64" y2="2250.28" style="stroke:#F0F0F0;stroke-width:9.72"/>
	<line x1="3473.04" y1="2250.28" x2="3537.84" y2="2250.28" style="stroke:#F0F0F0;stroke-width:9.72"/>
	<line x1="3570.24" y1="2250.28" x2="3635.04" y2="2250.28" style="stroke:#F0F0F0;stroke-width:9.72"/>
	<line x1="3667.44" y1="2250.28" x2="3732.24" y2="2250.28" style="stroke:#F0F0F0;stroke-width:9.72"/>
	<line x1="3764.64" y1="2250.28" x2="3829.44" y2="2250.28" style="stroke:#F0F0F0;stroke-width:9.72"/>
	<line x1="3861.84" y1="2250.28" x2="3926.64" y2="2250.28" style="stroke:#F0F0F0;stroke-width:9.72"/>
	<line x1="3959.04" y1="2250.28" x2="4023.84" y2="2250.28" style="stroke:#F0F0F0;stroke-width:9.72"/>
	<line x1="4056.24" y1="2250.28" x2="4121.04" y2="2250.28" style="stroke:#F0F0F0;stroke-width:9.72"/>
	<line x1="4153.44" y1="2250.28" x2="4218.24" y2="2250.28" style="stroke:#F0F0F0;stroke-width:9.72"/>
	<line x1="4250.64" y1="2250.28" x2="4315.44" y2="2250.28" style="stroke:#F0F0F0;stroke-width:9.72"/>
	<line x1="4347.84" y1="2250.28" x2="4412.64" y2="2250.28" style="stroke:#F0F0F0;stroke-width:9.72"/>
	<line x1="4445.04" y1="2250.28" x2="4509.84" y2="2250.28" style="stroke:#F0F0F0;stroke-width:9.72"/>
	<line x1="4542.24" y1="2250.28" x2="4607.04" y2="2250.28" style="stroke:#F0F0F0;stroke-width:9.72"/>
	<line x1="4639.44" y1="2250.28" x2="4704.24" y2="2250.28" style="stroke:#F0F0F0;stroke-width:9.72"/>
	<line x1="4736.64" y1="2250.28" x2="4801.44" y2="2250.28" style="stroke:#F0F0F0;stroke-width:9.72"/>
	<line x1="4833.84" y1="2250.28" x2="4898.64" y2="2250.28" style="stroke:#F0F0F0;stroke-width:9.72"/>
	<line x1="4931.04" y1="2250.28" x2="4995.84" y2="2250.28" style="stroke:#F0F0F0;stroke-width:9.72"/>
	<line x1="5028.24" y1="2250.28" x2="5093.04" y2="2250.28" style="stroke:#F0F0F0;stroke-width:9.72"/>
	<line x1="5125.44" y1="2250.28" x2="5190.24" y2="2250.28" style="stroke:#F0F0F0;stroke-width:9.72"/>
	<line x1="5222.64" y1="2250.28" x2="5286.60" y2="2250.28" style="stroke:#F0F0F0;stroke-width:9.72"/>
	<line x1="557.04" y1="1733.91" x2="621.84" y2="1733.91" style="stroke:#F0F0F0;stroke-width:9.72"/>
	<line x1="654.24" y1="1733.91" x2="719.04" y2="1733.91" style="stroke:#F0F0F0;stroke-width:9.72"/>
	<line x1="751.44" y1="1733.91" x2="816.24" y2="1733.91" style="stroke:#F0F0F0;stroke-width:9.72"/>
	<line x1="848.64" y1="1733.91" x2="913.44" y2="1733.91" style="stroke:#F0F0F0;stroke-width:9.72"/>
	<line x1="945.84" y1="1733.91" x2="1010.64" y2="1733.91" style="stroke:#F0F0F0;stroke-width:9.72"/>
	<line x1="1043.04" y1="1733.91" x2="1107.84" y2="1733.91" style="stroke:#F0F0F0;stroke-width:9.72"/>
	<line x1="1140.24" y1="1733.91" x2="1205.04" y2="1733.91" style="stroke:#F0F0F0;stroke-width:9.72"/>
	<line x1="1237.44" y1="1733.91" x2="1302.24" y2="1733.91" style="stroke:#F0F0F0;stroke-width:9.72"/>
	<line x1="1334.64" y1="1733.91" x2="1399.44" y2="1733.91" style="stroke:#F0F0F0;stroke-width:9.72"/>
	<line x1="1431.84" y1="1733.91" x2="1496.64" y2="1733.91" style="stroke:#F0F0F0;stroke-width:9.72"/>
	<line x1="1529.04" y1="1733.91" x2="1593.84" y2="1733.91" style="stroke:#F0F0F0;stroke-width:9.72"/>
	<line x1="1626.24" y1="1733.91" x2="1691.04" y2="1733.91" style="stroke:#F0F0F0;stroke-width:9.72"/>
	<line x1="1723.44" y1="1733.91" x2="1788.24" y2="1733.91" style="stroke:#F0F0F0;stroke-width:9.72"/>
	<line x1="1820.64" y1="1733.91" x2="1885.44" y2="1733.91" style="stroke:#F0F0F0;stroke-width:9.72"/>
	<line x1="1917.84" y1="1733.91" x2="1982.64" y2="1733.91" style="stroke:#F0F0F0;stroke-width:9.72"/>
	<line x1="2015.04" y1="1733.91" x2="2079.84" y2="1733.91" style="stroke:#F0F0F0;stroke-width:9.72"/>
	<line x1="2112.24" y1="1733.91" x2="2177.04" y2="1733.91" style="stroke:#F0F0F0;stroke-width:9.72"/>
	<line x1="2209.44" y1="1733.91" x2="2274.24" y2="1733.91" style="stroke:#F0F0F0;stroke-width:9.72"/>
	<line x1="2306.64" y1="1733.91" x2="2371.44" y2="1733.91" style="stroke:#F0F0F0;stroke-width:9.72"/>
	<line x1="2403.84" y1="1733.91" x2="2468.64" y2="1733.91" style="stroke:#F0F0F0;stroke-width:9.72"/>
	<line x1="2501.04" y1="1733.91" x2="2565.84" y2="1733.91" style="stroke:#F0F0F0;stroke-width:9.72"/>
	<line x1="2598.24" y1="1733.91" x2="2663.04" y2="1733.91" style="stroke:#F0F0F0;stroke-width:9.72"/>
	<line x1="2695.44" y1="1733.91" x2="2760.24" y2="1733.91" style="stroke:#F0F0F0;stroke-width:9.72"/>
	<line x1="2792.64" y1="1733.91" x2="2857.44" y2="1733.91" style="stroke:#F0F0F0;stroke-width:9.72"/>
	<line x1="2889.84" y1="1733.91" x2="2954.64" y2="1733.91" style="stroke:#F0F0F0;stroke-width:9.72"/>
	<line x1="2987.04" y1="1733.91" x2="3051.84" y2="1733.91" style="stroke:#F0F0F0;stroke-width:9.72"/>
	<line x1="3084.24" y1="1733.91" x2="3149.04" y2="1733.91" style="stroke:#F0F0F0;stroke-width:9.72"/>
	<line x1="3181.44" y1="1733.91" x2="3246.24" y2="1733.91" style="stroke:#F0F0F0;stroke-width:9.72"/>
	<line x1="3278.64" y1="1733.91" x2="3343.44" y2="1733.91" style="stroke:#F0F0F0;stroke-width:9.72"/>
	<line x1="3375.84" y1="1733.91" x2="3440.64" y2="1733.91" style="stroke:#F0F0F0;stroke-width:9.72"/>
	<line x1="3473.04" y1="1733.91" x2="3537.84" y2="1733.91" style="stroke:#F0F0F0;stroke-width:9.72"/>
	<line x1="3570.24" y1="1733.91" x2="3635.04" y2="1733.91" style="stroke:#F0F0F0;stroke-width:9.72"/>
	<line x1="3667.44" y1="1733.91" x2="3732.24" y2="1733.91" style="stroke:#F0F0F0;stroke-width:9.72"/>
	<line x1="3764.64" y1="1733.91" x2="3829.44" y2="1733.91" style="stroke:#F0F0F0;stroke-width:9.72"/>
	<line x1="3861.84" y1="1733.91" x2="3926.64" y2="1733.91" style="stroke:#F0F0F0;stroke-width:9.72"/>
	<line x1="3959.04" y1="1733.91" x2="4023.84" y2="1733.91" style="stroke:#F0F0F0;stroke-width:9.72"/>
	<line x1="4056.24" y1="1733.91" x2="4121.04" y2="1733.91" style="stroke:#F0F0F0;stroke-width:9.72"/>
	<line x1="4153.44" y1="1733.91" x2="4218.24" y2="1733.91" style="stroke:#F0F0F0;stroke-width:9.72"/>
	<line x1="4250.64" y1="1733.91" x2="4315.44" y2="1733.91" style="stroke:#F0F0F0;stroke-width:9.72"/>
	<line x1="4347.84" y1="1733.91" x2="4412.64" y2="1733.91" style="stroke:#F0F0F0;stroke-width:9.72"/>
	<line x1="4445.04" y1="1733.91" x2="4509.84" y2="1733.91" style="stroke:#F0F0F0;stroke-width:9.72"/>
	<line x1="4542.24" y1="1733.91" x2="4607.04" y2="1733.91" style="stroke:#F0F0F0;stroke-width:9.72"/>
	<line x1="4639.44" y1="1733.91" x2="4704.24" y2="1733.91" style="stroke:#F0F0F0;stroke-width:9.72"/>
	<line x1="4736.64" y1="1733.91" x2="4801.44" y2="1733.91" style="stroke:#F0F0F0;stroke-width:9.72"/>
	<line x1="4833.84" y1="1733.91" x2="4898.64" y2="1733.91" style="stroke:#F0F0F0;stroke-width:9.72"/>
	<line x1="4931.04" y1="1733.91" x2="4995.84" y2="1733.91" style="stroke:#F0F0F0;stroke-width:9.72"/>
	<line x1="5028.24" y1="1733.91" x2="5093.04" y2="1733.91" style="stroke:#F0F0F0;stroke-width:9.72"/>
	<line x1="5125.44" y1="1733.91" x2="5190.24" y2="1733.91" style="stroke:#F0F0F0;stroke-width:9.72"/>
	<line x1="5222.64" y1="1733.91" x2="5286.60" y2="1733.91" style="stroke:#F0F0F0;stroke-width:9.72"/>
	<line x1="557.04" y1="1217.53" x2="621.84" y2="1217.53" style="stroke:#F0F0F0;stroke-width:9.72"/>
	<line x1="654.24" y1="1217.53" x2="719.04" y2="1217.53" style="stroke:#F0F0F0;stroke-width:9.72"/>
	<line x1="751.44" y1="1217.53" x2="816.24" y2="1217.53" style="stroke:#F0F0F0;stroke-width:9.72"/>
	<line x1="848.64" y1="1217.53" x2="913.44" y2="1217.53" style="stroke:#F0F0F0;stroke-width:9.72"/>
	<line x1="945.84" y1="1217.53" x2="1010.64" y2="1217.53" style="stroke:#F0F0F0;stroke-width:9.72"/>
	<line x1="1043.04" y1="1217.53" x2="1107.84" y2="1217.53" style="stroke:#F0F0F0;stroke-width:9.72"/>
	<line x1="1140.24" y1="1217.53" x2="1205.04" y2="1217.53" style="stroke:#F0F0F0;stroke-width:9.72"/>
	<line x1="1237.44" y1="1217.53" x2="1302.24" y2="1217.53" style="stroke:#F0F0F0;stroke-width:9.72"/>
	<line x1="1334.64" y1="1217.53" x2="1399.44" y2="1217.53" style="stroke:#F0F0F0;stroke-width:9.72"/>
	<line x1="1431.84" y1="1217.53" x2="1496.64" y2="1217.53" style="stroke:#F0F0F0;stroke-width:9.72"/>
	<line x1="1529.04" y1="1217.53" x2="1593.84" y2="1217.53" style="stroke:#F0F0F0;stroke-width:9.72"/>
	<line x1="1626.24" y1="1217.53" x2="1691.04" y2="1217.53" style="stroke:#F0F0F0;stroke-width:9.72"/>
	<line x1="1723.44" y1="1217.53" x2="1788.24" y2="1217.53" style="stroke:#F0F0F0;stroke-width:9.72"/>
	<line x1="1820.64" y1="1217.53" x2="1885.44" y2="1217.53" style="stroke:#F0F0F0;stroke-width:9.72"/>
	<line x1="1917.84" y1="1217.53" x2="1982.64" y2="1217.53" style="stroke:#F0F0F0;stroke-width:9.72"/>
	<line x1="2015.04" y1="1217.53" x2="2079.84" y2="1217.53" style="stroke:#F0F0F0;stroke-width:9.72"/>
	<line x1="2112.24" y1="1217.53" x2="2177.04" y2="1217.53" style="stroke:#F0F0F0;stroke-width:9.72"/>
	<line x1="2209.44" y1="1217.53" x2="2274.24" y2="1217.53" style="stroke:#F0F0F0;stroke-width:9.72"/>
	<line x1="2306.64" y1="1217.53" x2="2371.44" y2="1217.53" style="stroke:#F0F0F0;stroke-width:9.72"/>
	<line x1="2403.84" y1="1217.53" x2="2468.64" y2="1217.53" style="stroke:#F0F0F0;stroke-width:9.72"/>
	<line x1="2501.04" y1="1217.53" x2="2565.84" y2="1217.53" style="stroke:#F0F0F0;stroke-width:9.72"/>
	<line x1="2598.24" y1="1217.53" x2="2663.04" y2="1217.53" style="stroke:#F0F0F0;stroke-width:9.72"/>
	<line x1="2695.44" y1="1217.53" x2="2760.24" y2="1217.53" style="stroke:#F0F0F0;stroke-width:9.72"/>
	<line x1="2792.64" y1="1217.53" x2="2857.44" y2="1217.53" style="stroke:#F0F0F0;stroke-width:9.72"/>
	<line x1="2889.84" y1="1217.53" x2="2954.64" y2="1217.53" style="stroke:#F0F0F0;stroke-width:9.72"/>
	<line x1="2987.04" y1="1217.53" x2="3051.84" y2="1217.53" style="stroke:#F0F0F0;stroke-width:9.72"/>
	<line x1="3084.24" y1="1217.53" x2="3149.04" y2="1217.53" style="stroke:#F0F0F0;stroke-width:9.72"/>
	<line x1="3181.44" y1="1217.53" x2="3246.24" y2="1217.53" style="stroke:#F0F0F0;stroke-width:9.72"/>
	<line x1="3278.64" y1="1217.53" x2="3343.44" y2="1217.53" style="stroke:#F0F0F0;stroke-width:9.72"/>
	<line x1="3375.84" y1="1217.53" x2="3440.64" y2="1217.53" style="stroke:#F0F0F0;stroke-width:9.72"/>
	<line x1="3473.04" y1="1217.53" x2="3537.84" y2="1217.53" style="stroke:#F0F0F0;stroke-width:9.72"/>
	<line x1="3570.24" y1="1217.53" x2="3635.04" y2="1217.53" style="stroke:#F0F0F0;stroke-width:9.72"/>
	<line x1="3667.44" y1="1217.53" x2="3732.24" y2="1217.53" style="stroke:#F0F0F0;stroke-width:9.72"/>
	<line x1="3764.64" y1="1217.53" x2="3829.44" y2="1217.53" style="stroke:#F0F0F0;stroke-width:9.72"/>
	<line x1="3861.84" y1="1217.53" x2="3926.64" y2="1217.53" style="stroke:#F0F0F0;stroke-width:9.72"/>
	<line x1="3959.04" y1="1217.53" x2="4023.84" y2="1217.53" style="stroke:#F0F0F0;stroke-width:9.72"/>
	<line x1="4056.24" y1="1217.53" x2="4121.04" y2="1217.53" style="stroke:#F0F0F0;stroke-width:9.72"/>
	<line x1="4153.44" y1="1217.53" x2="4218.24" y2="1217.53" style="stroke:#F0F0F0;stroke-width:9.72"/>
	<line x1="4250.64" y1="1217.53" x2="4315.44" y2="1217.53" style="stroke:#F0F0F0;stroke-width:9.72"/>
	<line x1="4347.84" y1="1217.53" x2="4412.64" y2="1217.53" style="stroke:#F0F0F0;stroke-width:9.72"/>
	<line x1="4445.04" y1="1217.53" x2="4509.84" y2="1217.53" style="stroke:#F0F0F0;stroke-width:9.72"/>
	<line x1="4542.24" y1="1217.53" x2="4607.04" y2="1217.53" style="stroke:#F0F0F0;stroke-width:9.72"/>
	<line x1="4639.44" y1="1217.53" x2="4704.24" y2="1217.53" style="stroke:#F0F0F0;stroke-width:9.72"/>
	<line x1="4736.64" y1="1217.53" x2="4801.44" y2="1217.53" style="stroke:#F0F0F0;stroke-width:9.72"/>
	<line x1="4833.84" y1="1217.53" x2="4898.64" y2="1217.53" style="stroke:#F0F0F0;stroke-width:9.72"/>
	<line x1="4931.04" y1="1217.53" x2="4995.84" y2="1217.53" style="stroke:#F0F0F0;stroke-width:9.72"/>
	<line x1="5028.24" y1="1217.53" x2="5093.04" y2="1217.53" style="stroke:#F0F0F0;stroke-width:9.72"/>
	<line x1="5125.44" y1="1217.53" x2="5190.24" y2="1217.53" style="stroke:#F0F0F0;stroke-width:9.72"/>
	<line x1="5222.64" y1="1217.53" x2="5286.60" y2="1217.53" style="stroke:#F0F0F0;stroke-width:9.72"/>
	<line x1="557.04" y1="700.99" x2="621.84" y2="700.99" style="stroke:#F0F0F0;stroke-width:9.72"/>
	<line x1="654.24" y1="700.99" x2="719.04" y2="700.99" style="stroke:#F0F0F0;stroke-width:9.72"/>
	<line x1="751.44" y1="700.99" x2="816.24" y2="700.99" style="stroke:#F0F0F0;stroke-width:9.72"/>
	<line x1="848.64" y1="700.99" x2="913.44" y2="700.99" style="stroke:#F0F0F0;stroke-width:9.72"/>
	<line x1="945.84" y1="700.99" x2="1010.64" y2="700.99" style="stroke:#F0F0F0;stroke-width:9.72"/>
	<line x1="1043.04" y1="700.99" x2="1107.84" y2="700.99" style="stroke:#F0F0F0;stroke-width:9.72"/>
	<line x1="1140.24" y1="700.99" x2="1205.04" y2="700.99" style="stroke:#F0F0F0;stroke-width:9.72"/>
	<line x1="1237.44" y1="700.99" x2="1302.24" y2="700.99" style="stroke:#F0F0F0;stroke-width:9.72"/>
	<line x1="1334.64" y1="700.99" x2="1399.44" y2="700.99" style="stroke:#F0F0F0;stroke-width:9.72"/>
	<line x1="1431.84" y1="700.99" x2="1496.64" y2="700.99" style="stroke:#F0F0F0;stroke-width:9.72"/>
	<line x1="1529.04" y1="700.99" x2="1593.84" y2="700.99" style="stroke:#F0F0F0;stroke-width:9.72"/>
	<line x1="1626.24" y1="700.99" x2="1691.04" y2="700.99" style="stroke:#F0F0F0;stroke-width:9.72"/>
	<line x1="1723.44" y1="700.99" x2="1788.24" y2="700.99" style="stroke:#F0F0F0;stroke-width:9.72"/>
	<line x1="1820.64" y1="700.99" x2="1885.44" y2="700.99" style="stroke:#F0F0F0;stroke-width:9.72"/>
	<line x1="1917.84" y1="700.99" x2="1982.64" y2="700.99" style="stroke:#F0F0F0;stroke-width:9.72"/>
	<line x1="2015.04" y1="700.99" x2="2079.84" y2="700.99" style="stroke:#F0F0F0;stroke-width:9.72"/>
	<line x1="2112.24" y1="700.99" x2="2177.04" y2="700.99" style="stroke:#F0F0F0;stroke-width:9.72"/>
	<line x1="2209.44" y1="700.99" x2="2274.24" y2="700.99" style="stroke:#F0F0F0;stroke-width:9.72"/>
	<line x1="2306.64" y1="700.99" x2="2371.44" y2="700.99" style="stroke:#F0F0F0;stroke-width:9.72"/>
	<line x1="2403.84" y1="700.99" x2="2468.64" y2="700.99" style="stroke:#F0F0F0;stroke-width:9.72"/>
	<line x1="2501.04" y1="700.99" x2="2565.84" y2="700.99" style="stroke:#F0F0F0;stroke-width:9.72"/>
	<line x1="2598.24" y1="700.99" x2="2663.04" y2="700.99" style="stroke:#F0F0F0;stroke-width:9.72"/>
	<line x1="2695.44" y1="700.99" x2="2760.24" y2="700.99" style="stroke:#F0F0F0;stroke-width:9.72"/>
	<line x1="2792.64" y1="700.99" x2="2857.44" y2="700.99" style="stroke:#F0F0F0;stroke-width:9.72"/>
	<line x1="2889.84" y1="700.99" x2="2954.64" y2="700.99" style="stroke:#F0F0F0;stroke-width:9.72"/>
	<line x1="2987.04" y1="700.99" x2="3051.84" y2="700.99" style="stroke:#F0F0F0;stroke-width:9.72"/>
	<line x1="3084.24" y1="700.99" x2="3149.04" y2="700.99" style="stroke:#F0F0F0;stroke-width:9.72"/>
	<line x1="3181.44" y1="700.99" x2="3246.24" y2="700.99" style="stroke:#F0F0F0;stroke-width:9.72"/>
	<line x1="3278.64" y1="700.99" x2="3343.44" y2="700.99" style="stroke:#F0F0F0;stroke-width:9.72"/>
	<line x1="3375.84" y1="700.99" x2="3440.64" y2="700.99" style="stroke:#F0F0F0;stroke-width:9.72"/>
	<line x1="3473.04" y1="700.99" x2="3537.84" y2="700.99" style="stroke:#F0F0F0;stroke-width:9.72"/>
	<line x1="3570.24" y1="700.99" x2="3635.04" y2="700.99" style="stroke:#F0F0F0;stroke-width:9.72"/>
	<line x1="3667.44" y1="700.99" x2="3732.24" y2="700.99" style="stroke:#F0F0F0;stroke-width:9.72"/>
	<line x1="3764.64" y1="700.99" x2="3829.44" y2="700.99" style="stroke:#F0F0F0;stroke-width:9.72"/>
	<line x1="3861.84" y1="700.99" x2="3926.64" y2="700.99" style="stroke:#F0F0F0;stroke-width:9.72"/>
	<line x1="3959.04" y1="700.99" x2="4023.84" y2="700.99" style="stroke:#F0F0F0;stroke-width:9.72"/>
	<line x1="4056.24" y1="700.99" x2="4121.04" y2="700.99" style="stroke:#F0F0F0;stroke-width:9.72"/>
	<line x1="4153.44" y1="700.99" x2="4218.24" y2="700.99" style="stroke:#F0F0F0;stroke-width:9.72"/>
	<line x1="4250.64" y1="700.99" x2="4315.44" y2="700.99" style="stroke:#F0F0F0;stroke-width:9.72"/>
	<line x1="4347.84" y1="700.99" x2="4412.64" y2="700.99" style="stroke:#F0F0F0;stroke-width:9.72"/>
	<line x1="4445.04" y1="700.99" x2="4509.84" y2="700.99" style="stroke:#F0F0F0;stroke-width:9.72"/>
	<line x1="4542.24" y1="700.99" x2="4607.04" y2="700.99" style="stroke:#F0F0F0;stroke-width:9.72"/>
	<line x1="4639.44" y1="700.99" x2="4704.24" y2="700.99" style="stroke:#F0F0F0;stroke-width:9.72"/>
	<line x1="4736.64" y1="700.99" x2="4801.44" y2="700.99" style="stroke:#F0F0F0;stroke-width:9.72"/>
	<line x1="4833.84" y1="700.99" x2="4898.64" y2="700.99" style="stroke:#F0F0F0;stroke-width:9.72"/>
	<line x1="4931.04" y1="700.99" x2="4995.84" y2="700.99" style="stroke:#F0F0F0;stroke-width:9.72"/>
	<line x1="5028.24" y1="700.99" x2="5093.04" y2="700.99" style="stroke:#F0F0F0;stroke-width:9.72"/>
	<line x1="5125.44" y1="700.99" x2="5190.24" y2="700.99" style="stroke:#F0F0F0;stroke-width:9.72"/>
	<line x1="5222.64" y1="700.99" x2="5286.60" y2="700.99" style="stroke:#F0F0F0;stroke-width:9.72"/>
	<line x1="557.04" y1="184.61" x2="621.84" y2="184.61" style="stroke:#F0F0F0;stroke-width:9.72"/>
	<line x1="654.24" y1="184.61" x2="719.04" y2="184.61" style="stroke:#F0F0F0;stroke-width:9.72"/>
	<line x1="751.44" y1="184.61" x2="816.24" y2="184.61" style="stroke:#F0F0F0;stroke-width:9.72"/>
	<line x1="848.64" y1="184.61" x2="913.44" y2="184.61" style="stroke:#F0F0F0;stroke-width:9.72"/>
	<line x1="945.84" y1="184.61" x2="1010.64" y2="184.61" style="stroke:#F0F0F0;stroke-width:9.72"/>
	<line x1="1043.04" y1="184.61" x2="1107.84" y2="184.61" style="stroke:#F0F0F0;stroke-width:9.72"/>
	<line x1="1140.24" y1="184.61" x2="1205.04" y2="184.61" style="stroke:#F0F0F0;stroke-width:9.72"/>
	<line x1="1237.44" y1="184.61" x2="1302.24" y2="184.61" style="stroke:#F0F0F0;stroke-width:9.72"/>
	<line x1="1334.64" y1="184.61" x2="1399.44" y2="184.61" style="stroke:#F0F0F0;stroke-width:9.72"/>
	<line x1="1431.84" y1="184.61" x2="1496.64" y2="184.61" style="stroke:#F0F0F0;stroke-width:9.72"/>
	<line x1="1529.04" y1="184.61" x2="1593.84" y2="184.61" style="stroke:#F0F0F0;stroke-width:9.72"/>
	<line x1="1626.24" y1="184.61" x2="1691.04" y2="184.61" style="stroke:#F0F0F0;stroke-width:9.72"/>
	<line x1="1723.44" y1="184.61" x2="1788.24" y2="184.61" style="stroke:#F0F0F0;stroke-width:9.72"/>
	<line x1="1820.64" y1="184.61" x2="1885.44" y2="184.61" style="stroke:#F0F0F0;stroke-width:9.72"/>
	<line x1="1917.84" y1="184.61" x2="1982.64" y2="184.61" style="stroke:#F0F0F0;stroke-width:9.72"/>
	<line x1="2015.04" y1="184.61" x2="2079.84" y2="184.61" style="stroke:#F0F0F0;stroke-width:9.72"/>
	<line x1="2112.24" y1="184.61" x2="2177.04" y2="184.61" style="stroke:#F0F0F0;stroke-width:9.72"/>
	<line x1="2209.44" y1="184.61" x2="2274.24" y2="184.61" style="stroke:#F0F0F0;stroke-width:9.72"/>
	<line x1="2306.64" y1="184.61" x2="2371.44" y2="184.61" style="stroke:#F0F0F0;stroke-width:9.72"/>
	<line x1="2403.84" y1="184.61" x2="2468.64" y2="184.61" style="stroke:#F0F0F0;stroke-width:9.72"/>
	<line x1="2501.04" y1="184.61" x2="2565.84" y2="184.61" style="stroke:#F0F0F0;stroke-width:9.72"/>
	<line x1="2598.24" y1="184.61" x2="2663.04" y2="184.61" style="stroke:#F0F0F0;stroke-width:9.72"/>
	<line x1="2695.44" y1="184.61" x2="2760.24" y2="184.61" style="stroke:#F0F0F0;stroke-width:9.72"/>
	<line x1="2792.64" y1="184.61" x2="2857.44" y2="184.61" style="stroke:#F0F0F0;stroke-width:9.72"/>
	<line x1="2889.84" y1="184.61" x2="2954.64" y2="184.61" style="stroke:#F0F0F0;stroke-width:9.72"/>
	<line x1="2987.04" y1="184.61" x2="3051.84" y2="184.61" style="stroke:#F0F0F0;stroke-width:9.72"/>
	<line x1="3084.24" y1="184.61" x2="3149.04" y2="184.61" style="stroke:#F0F0F0;stroke-width:9.72"/>
	<line x1="3181.44" y1="184.61" x2="3246.24" y2="184.61" style="stroke:#F0F0F0;stroke-width:9.72"/>
	<line x1="3278.64" y1="184.61" x2="3343.44" y2="184.61" style="stroke:#F0F0F0;stroke-width:9.72"/>
	<line x1="3375.84" y1="184.61" x2="3440.64" y2="184.61" style="stroke:#F0F0F0;stroke-width:9.72"/>
	<line x1="3473.04" y1="184.61" x2="3537.84" y2="184.61" style="stroke:#F0F0F0;stroke-width:9.72"/>
	<line x1="3570.24" y1="184.61" x2="3635.04" y2="184.61" style="stroke:#F0F0F0;stroke-width:9.72"/>
	<line x1="3667.44" y1="184.61" x2="3732.24" y2="184.61" style="stroke:#F0F0F0;stroke-width:9.72"/>
	<line x1="3764.64" y1="184.61" x2="3829.44" y2="184.61" style="stroke:#F0F0F0;stroke-width:9.72"/>
	<line x1="3861.84" y1="184.61" x2="3926.64" y2="184.61" style="stroke:#F0F0F0;stroke-width:9.72"/>
	<line x1="3959.04" y1="184.61" x2="4023.84" y2="184.61" style="stroke:#F0F0F0;stroke-width:9.72"/>
	<line x1="4056.24" y1="184.61" x2="4121.04" y2="184.61" style="stroke:#F0F0F0;stroke-width:9.72"/>
	<line x1="4153.44" y1="184.61" x2="4218.24" y2="184.61" style="stroke:#F0F0F0;stroke-width:9.72"/>
	<line x1="4250.64" y1="184.61" x2="4315.44" y2="184.61" style="stroke:#F0F0F0;stroke-width:9.72"/>
	<line x1="4347.84" y1="184.61" x2="4412.64" y2="184.61" style="stroke:#F0F0F0;stroke-width:9.72"/>
	<line x1="4445.04" y1="184.61" x2="4509.84" y2="184.61" style="stroke:#F0F0F0;stroke-width:9.72"/>
	<line x1="4542.24" y1="184.61" x2="4607.04" y2="184.61" style="stroke:#F0F0F0;stroke-width:9.72"/>
	<line x1="4639.44" y1="184.61" x2="4704.24" y2="184.61" style="stroke:#F0F0F0;stroke-width:9.72"/>
	<line x1="4736.64" y1="184.61" x2="4801.44" y2="184.61" style="stroke:#F0F0F0;stroke-width:9.72"/>
	<line x1="4833.84" y1="184.61" x2="4898.64" y2="184.61" style="stroke:#F0F0F0;stroke-width:9.72"/>
	<line x1="4931.04" y1="184.61" x2="4995.84" y2="184.61" style="stroke:#F0F0F0;stroke-width:9.72"/>
	<line x1="5028.24" y1="184.61" x2="5093.04" y2="184.61" style="stroke:#F0F0F0;stroke-width:9.72"/>
	<line x1="5125.44" y1="184.61" x2="5190.24" y2="184.61" style="stroke:#F0F0F0;stroke-width:9.72"/>
	<line x1="5222.64" y1="184.61" x2="5286.60" y2="184.61" style="stroke:#F0F0F0;stroke-width:9.72"/>
	<line x1="628.26" y1="2766.66" x2="628.26" y2="2701.86" style="stroke:#F0F0F0;stroke-width:9.72"/>
	<line x1="628.26" y1="2669.46" x2="628.26" y2="2604.66" style="stroke:#F0F0F0;stroke-width:9.72"/>
	<line x1="628.26" y1="2572.26" x2="628.26" y2="2507.46" style="stroke:#F0F0F0;stroke-width:9.72"/>
	<line x1="628.26" y1="2475.06" x2="628.26" y2="2410.26" style="stroke:#F0F0F0;stroke-width:9.72"/>
	<line x1="628.26" y1="2377.86" x2="628.26" y2="2313.06" style="stroke:#F0F0F0;stroke-width:9.72"/>
	<line x1="628.26" y1="2280.66" x2="628.26" y2="2215.86" style="stroke:#F0F0F0;stroke-width:9.72"/>
	<line x1="628.26" y1="2183.46" x2="628.26" y2="2118.66" style="stroke:#F0F0F0;stroke-width:9.72"/>
	<line x1="628.26" y1="2086.26" x2="628.26" y2="2021.46" style="stroke:#F0F0F0;stroke-width:9.72"/>
	<line x1="628.26" y1="1989.06" x2="628.26" y2="1924.26" style="stroke:#F0F0F0;stroke-width:9.72"/>
	<line x1="628.26" y1="1891.86" x2="628.26" y2="1827.06" style="stroke:#F0F0F0;stroke-width:9.72"/>
	<line x1="628.26" y1="1794.66" x2="628.26" y2="1729.86" style="stroke:#F0F0F0;stroke-width:9.72"/>
	<line x1="628.26" y1="1697.46" x2="628.26" y2="1632.66" style="stroke:#F0F0F0;stroke-width:9.72"/>
	<line x1="628.26" y1="1600.26" x2="628.26" y2="1535.46" style="stroke:#F0F0F0;stroke-width:9.72"/>
	<line x1="628.26" y1="1503.06" x2="628.26" y2="1438.26" style="stroke:#F0F0F0;stroke-width:9.72"/>
	<line x1="628.26" y1="1405.86" x2="628.26" y2="1341.06" style="stroke:#F0F0F0;stroke-width:9.72"/>
	<line x1="628.26" y1="1308.66" x2="628.26" y2="1243.86" style="stroke:#F0F0F0;stroke-width:9.72"/>
	<line x1="628.26" y1="1211.46" x2="628.26" y2="1146.66" style="stroke:#F0F0F0;stroke-width:9.72"/>
	<line x1="628.26" y1="1114.26" x2="628.26" y2="1049.46" style="stroke:#F0F0F0;stroke-width:9.72"/>
	<line x1="628.26" y1="1017.06" x2="628.26" y2="952.26" style="stroke:#F0F0F0;stroke-width:9.72"/>
	<line x1="628.26" y1="919.86" x2="628.26" y2="855.06" style="stroke:#F0F0F0;stroke-width:9.72"/>
	<line x1="628.26" y1="822.66" x2="628.26" y2="757.86" style="stroke:#F0F0F0;stroke-width:9.72"/>
	<line x1="628.26" y1="725.46" x2="628.26" y2="660.66" style="stroke:#F0F0F0;stroke-width:9.72"/>
	<line x1="628.26" y1="628.26" x2="628.26" y2="563.46" style="stroke:#F0F0F0;stroke-width:9.72"/>
	<line x1="628.26" y1="531.06" x2="628.26" y2="466.26" style="stroke:#F0F0F0;stroke-width:9.72"/>
	<line x1="628.26" y1="433.86" x2="628.26" y2="369.06" style="stroke:#F0F0F0;stroke-width:9.72"/>
	<line x1="628.26" y1="336.66" x2="628.26" y2="271.86" style="stroke:#F0F0F0;stroke-width:9.72"/>
	<line x1="628.26" y1="239.46" x2="628.26" y2="174.66" style="stroke:#F0F0F0;stroke-width:9.72"/>
	<line x1="628.26" y1="142.26" x2="628.26" y2="113.40" style="stroke:#F0F0F0;stroke-width:9.72"/>
	<line x1="2108.03" y1="2766.66" x2="2108.03" y2="2701.86" style="stroke:#F0F0F0;stroke-width:9.72"/>
	<line x1="2108.03" y1="2669.46" x2="2108.03" y2="2604.66" style="stroke:#F0F0F0;stroke-width:9.72"/>
	<line x1="2108.03" y1="2572.26" x2="2108.03" y2="2507.46" style="stroke:#F0F0F0;stroke-width:9.72"/>
	<line x1="2108.03" y1="2475.06" x2="2108.03" y2="2410.26" style="stroke:#F0F0F0;stroke-width:9.72"/>
	<line x1="2108.03" y1="2377.86" x2="2108.03" y2="2313.06" style="stroke:#F0F0F0;stroke-width:9.72"/>
	<line x1="2108.03" y1="2280.66" x2="2108.03" y2="2215.86" style="stroke:#F0F0F0;stroke-width:9.72"/>
	<line x1="2108.03" y1="2183.46" x2="2108.03" y2="2118.66" style="stroke:#F0F0F0;stroke-width:9.72"/>
	<line x1="2108.03" y1="2086.26" x2="2108.03" y2="2021.46" style="stroke:#F0F0F0;stroke-width:9.72"/>
	<line x1="2108.03" y1="1989.06" x2="2108.03" y2="1924.26" style="stroke:#F0F0F0;stroke-width:9.72"/>
	<line x1="2108.03" y1="1891.86" x2="2108.03" y2="1827.06" style="stroke:#F0F0F0;stroke-width:9.72"/>
	<line x1="2108.03" y1="1794.66" x2="2108.03" y2="1729.86" style="stroke:#F0F0F0;stroke-width:9.72"/>
	<line x1="2108.03" y1="1697.46" x2="2108.03" y2="1632.66" style="stroke:#F0F0F0;stroke-width:9.72"/>
	<line x1="2108.03" y1="1600.26" x2="2108.03" y2="1535.46" style="stroke:#F0F0F0;stroke-width:9.72"/>
	<line x1="2108.03" y1="1503.06" x2="2108.03" y2="1438.26" style="stroke:#F0F0F0;stroke-width:9.72"/>
	<line x1="2108.03" y1="1405.86" x2="2108.03" y2="1341.06" style="stroke:#F0F0F0;stroke-width:9.72"/>
	<line x1="2108.03" y1="1308.66" x2="2108.03" y2="1243.86" style="stroke:#F0F0F0;stroke-width:9.72"/>
	<line x1="2108.03" y1="1211.46" x2="2108.03" y2="1146.66" style="stroke:#F0F0F0;stroke-width:9.72"/>
	<line x1="2108.03" y1="1114.26" x2="2108.03" y2="1049.46" style="stroke:#F0F0F0;stroke-width:9.72"/>
	<line x1="2108.03" y1="1017.06" x2="2108.03" y2="952.26" style="stroke:#F0F0F0;stroke-width:9.72"/>
	<line x1="2108.03" y1="919.86" x2="2108.03" y2="855.06" style="stroke:#F0F0F0;stroke-width:9.72"/>
	<line x1="2108.03" y1="822.66" x2="2108.03" y2="757.86" style="stroke:#F0F0F0;stroke-width:9.72"/>
	<line x1="2108.03" y1="725.46" x2="2108.03" y2="660.66" style="stroke:#F0F0F0;stroke-width:9.72"/>
	<line x1="2108.03" y1="628.26" x2="2108.03" y2="563.46" style="stroke:#F0F0F0;stroke-width:9.72"/>
	<line x1="2108.03" y1="531.06" x2="2108.03" y2="466.26" style="stroke:#F0F0F0;stroke-width:9.72"/>
	<line x1="2108.03" y1="433.86" x2="2108.03" y2="369.06" style="stroke:#F0F0F0;stroke-width:9.72"/>
	<line x1="2108.03" y1="336.66" x2="2108.03" y2="271.86" style="stroke:#F0F0F0;stroke-width:9.72"/>
	<line x1="2108.03" y1="239.46" x2="2108.03" y2="174.66" style="stroke:#F0F0F0;stroke-width:9.72"/>
	<line x1="2108.03" y1="142.26" x2="2108.03" y2="113.40" style="stroke:#F0F0F0;stroke-width:9.72"/>
	<line x1="3587.63" y1="2766.66" x2="3587.63" y2="2701.86" style="stroke:#F0F0F0;stroke-width:9.72"/>
	<line x1="3587.63" y1="2669.46" x2="3587.63" y2="2604.66" style="stroke:#F0F0F0;stroke-width:9.72"/>
	<line x1="3587.63" y1="2572.26" x2="3587.63" y2="2507.46" style="stroke:#F0F0F0;stroke-width:9.72"/>
	<line x1="3587.63" y1="2475.06" x2="3587.63" y2="2410.26" style="stroke:#F0F0F0;stroke-width:9.72"/>
	<line x1="3587.63" y1="2377.86" x2="3587.63" y2="2313.06" style="stroke:#F0F0F0;stroke-width:9.72"/>
	<line x1="3587.63" y1="2280.66" x2="3587.63" y2="2215.86" style="stroke:#F0F0F0;stroke-width:9.72"/>
	<line x1="3587.63" y1="2183.46" x2="3587.63" y2="2118.66" style="stroke:#F0F0F0;stroke-width:9.72"/>
	<line x1="3587.63" y1="2086.26" x2="3587.63" y2="2021.46" style="stroke:#F0F0F0;stroke-width:9.72"/>
	<line x1="3587.63" y1="1989.06" x2="3587.63" y2="1924.26" style="stroke:#F0F0F0;stroke-width:9.72"/>
	<line x1="3587.63" y1="1891.86" x2="3587.63" y2="1827.06" style="stroke:#F0F0F0;stroke-width:9.72"/>
	<line x1="3587.63" y1="1794.66" x2="3587.63" y2="1729.86" style="stroke:#F0F0F0;stroke-width:9.72"/>
	<line x1="3587.63" y1="1697.46" x2="3587.63" y2="1632.66" style="stroke:#F0F0F0;stroke-width:9.72"/>
	<line x1="3587.63" y1="1600.26" x2="3587.63" y2="1535.46" style="stroke:#F0F0F0;stroke-width:9.72"/>
	<line x1="3587.63" y1="1503.06" x2="3587.63" y2="1438.26" style="stroke:#F0F0F0;stroke-width:9.72"/>
	<line x1="3587.63" y1="1405.86" x2="3587.63" y2="1341.06" style="stroke:#F0F0F0;stroke-width:9.72"/>
	<line x1="3587.63" y1="1308.66" x2="3587.63" y2="1243.86" style="stroke:#F0F0F0;stroke-width:9.72"/>
	<line x1="3587.63" y1="1211.46" x2="3587.63" y2="1146.66" style="stroke:#F0F0F0;stroke-width:9.72"/>
	<line x1="3587.63" y1="1114.26" x2="3587.63" y2="1049.46" style="stroke:#F0F0F0;stroke-width:9.72"/>
	<line x1="3587.63" y1="1017.06" x2="3587.63" y2="952.26" style="stroke:#F0F0F0;stroke-width:9.72"/>
	<line x1="3587.63" y1="919.86" x2="3587.63" y2="855.06" style="stroke:#F0F0F0;stroke-width:9.72"/>
	<line x1="3587.63" y1="822.66" x2="3587.63" y2="757.86" style="stroke:#F0F0F0;stroke-width:9.72"/>
	<line x1="3587.63" y1="725.46" x2="3587.63" y2="660.66" style="stroke:#F0F0F0;stroke-width:9.72"/>
	<line x1="3587.63" y1="628.26" x2="3587.63" y2="563.46" style="stroke:#F0F0F0;stroke-width:9.72"/>
	<line x1="3587.63" y1="531.06" x2="3587.63" y2="466.26" style="stroke:#F0F0F0;stroke-width:9.72"/>
	<line x1="3587.63" y1="433.86" x2="3587.63" y2="369.06" style="stroke:#F0F0F0;stroke-width:9.72"/>
	<line x1="3587.63" y1="336.66" x2="3587.63" y2="271.86" style="stroke:#F0F0F0;stroke-width:9.72"/>
	<line x1="3587.63" y1="239.46" x2="3587.63" y2="174.66" style="stroke:#F0F0F0;stroke-width:9.72"/>
	<line x1="3587.63" y1="142.26" x2="3587.63" y2="113.40" style="stroke:#F0F0F0;stroke-width:9.72"/>
	<line x1="5067.39" y1="2766.66" x2="5067.39" y2="2701.86" style="stroke:#F0F0F0;stroke-width:9.72"/>
	<line x1="5067.39" y1="2669.46" x2="5067.39" y2="2604.66" style="stroke:#F0F0F0;stroke-width:9.72"/>
	<line x1="5067.39" y1="2572.26" x2="5067.39" y2="2507.46" style="stroke:#F0F0F0;stroke-width:9.72"/>
	<line x1="5067.39" y1="2475.06" x2="5067.39" y2="2410.26" style="stroke:#F0F0F0;stroke-width:9.72"/>
	<line x1="5067.39" y1="2377.86" x2="5067.39" y2="2313.06" style="stroke:#F0F0F0;stroke-width:9.72"/>
	<line x1="5067.39" y1="2280.66" x2="5067.39" y2="2215.86" style="stroke:#F0F0F0;stroke-width:9.72"/>
	<line x1="5067.39" y1="2183.46" x2="5067.39" y2="2118.66" style="stroke:#F0F0F0;stroke-width:9.72"/>
	<line x1="5067.39" y1="2086.26" x2="5067.39" y2="2021.46" style="stroke:#F0F0F0;stroke-width:9.72"/>
	<line x1="5067.39" y1="1989.06" x2="5067.39" y2="1924.26" style="stroke:#F0F0F0;stroke-width:9.72"/>
	<line x1="5067.39" y1="1891.86" x2="5067.39" y2="1827.06" style="stroke:#F0F0F0;stroke-width:9.72"/>
	<line x1="5067.39" y1="1794.66" x2="5067.39" y2="1729.86" style="stroke:#F0F0F0;stroke-width:9.72"/>
	<line x1="5067.39" y1="1697.46" x2="5067.39" y2="1632.66" style="stroke:#F0F0F0;stroke-width:9.72"/>
	<line x1="5067.39" y1="1600.26" x2="5067.39" y2="1535.46" style="stroke:#F0F0F0;stroke-width:9.72"/>
	<line x1="5067.39" y1="1503.06" x2="5067.39" y2="1438.26" style="stroke:#F0F0F0;stroke-width:9.72"/>
	<line x1="5067.39" y1="1405.86" x2="5067.39" y2="1341.06" style="stroke:#F0F0F0;stroke-width:9.72"/>
	<line x1="5067.39" y1="1308.66" x2="5067.39" y2="1243.86" style="stroke:#F0F0F0;stroke-width:9.72"/>
	<line x1="5067.39" y1="1211.46" x2="5067.39" y2="1146.66" style="stroke:#F0F0F0;stroke-width:9.72"/>
	<line x1="5067.39" y1="1114.26" x2="5067.39" y2="1049.46" style="stroke:#F0F0F0;stroke-width:9.72"/>
	<line x1="5067.39" y1="1017.06" x2="5067.39" y2="952.26" style="stroke:#F0F0F0;stroke-width:9.72"/>
	<line x1="5067.39" y1="919.86" x2="5067.39" y2="855.06" style="stroke:#F0F0F0;stroke-width:9.72"/>
	<line x1="5067.39" y1="822.66" x2="5067.39" y2="757.86" style="stroke:#F0F0F0;stroke-width:9.72"/>
	<line x1="5067.39" y1="725.46" x2="5067.39" y2="660.66" style="stroke:#F0F0F0;stroke-width:9.72"/>
	<line x1="5067.39" y1="628.26" x2="5067.39" y2="563.46" style="stroke:#F0F0F0;stroke-width:9.72"/>
	<line x1="5067.39" y1="531.06" x2="5067.39" y2="466.26" style="stroke:#F0F0F0;stroke-width:9.72"/>
	<line x1="5067.39" y1="433.86" x2="5067.39" y2="369.06" style="stroke:#F0F0F0;stroke-width:9.72"/>
	<line x1="5067.39" y1="336.66" x2="5067.39" y2="271.86" style="stroke:#F0F0F0;stroke-width:9.72"/>
	<line x1="5067.39" y1="239.46" x2="5067.39" y2="174.66" style="stroke:#F0F0F0;stroke-width:9.72"/>
	<line x1="5067.39" y1="142.26" x2="5067.39" y2="113.40" style="stroke:#F0F0F0;stroke-width:9.72"/>
	<rect x="924.24" y="1804.11" width="536.29" height="962.55" style="fill:#3191FF"/>
	<rect x="926.67" y="1806.54" width="531.43" height="957.69" style="fill:none;stroke:#5FAAFF;stroke-width:4.86"/>
	<rect x="1460.53" y="360.28" width="536.46" height="2406.38" style="fill:#3191FF"/>
	<rect x="1462.96" y="362.71" width="531.60" height="2401.52" style="fill:none;stroke:#5FAAFF;stroke-width:4.86"/>
	<rect x="1996.99" y="1515.38" width="536.46" height="1251.28" style="fill:#3191FF"/>
	<rect x="1999.42" y="1517.81" width="531.60" height="1246.42" style="fill:none;stroke:#5FAAFF;stroke-width:4.86"/>
	<rect x="2533.44" y="1322.83" width="536.29" height="1443.83" style="fill:#3191FF"/>
	<rect x="2535.87" y="1325.26" width="531.43" height="1438.97" style="fill:none;stroke:#5FAAFF;stroke-width:4.86"/>
	<rect x="3069.73" y="2189.03" width="536.46" height="577.63" style="fill:#3191FF"/>
	<rect x="3072.16" y="2191.46" width="531.60" height="572.77" style="fill:none;stroke:#5FAAFF;stroke-width:4.86"/>
	<rect x="3606.19" y="2670.30" width="536.29" height="96.36" style="fill:#3191FF"/>
	<rect x="3608.62" y="2672.73" width="531.43" height="91.50" style="fill:none;stroke:#5FAAFF;stroke-width:4.86"/>
	<rect x="4142.48" y="2477.93" width="536.46" height="288.73" style="fill:#3191FF"/>
	<rect x="4144.91" y="2480.36" width="531.60" height="283.87" style="fill:none;stroke:#5FAAFF;stroke-width:4.86"/>
	<rect x="4678.93" y="2670.30" width="536.46" height="96.36" style="fill:#3191FF"/>
	<rect x="4681.36" y="2672.73" width="531.60" height="91.50" style="fill:none;stroke:#5FAAFF;stroke-width:4.86"/>
	<line x1="557.04" y1="2766.66" x2="557.04" y2="113.40" style="stroke:#000000;stroke-width:6.48"/>
	<line x1="557.04" y1="2766.66" x2="511.99" y2="2766.66" style="stroke:#000000;stroke-width:6.48"/>
	<text x="489.54" y="2806.09" style="font-family:'Helvetica';font-size:112.56px;fill:#000000" text-anchor="end">0</text>
	<line x1="557.04" y1="2250.28" x2="511.99" y2="2250.28" style="stroke:#000000;stroke-width:6.48"/>
	<text x="489.54" y="2289.72" style="font-family:'Helvetica';font-size:112.56px;fill:#000000" text-anchor="end">.02</text>
	<line x1="557.04" y1="1733.91" x2="511.99" y2="1733.91" style="stroke:#000000;stroke-width:6.48"/>
	<text x="489.54" y="1773.34" style="font-family:'Helvetica';font-size:112.56px;fill:#000000" text-anchor="end">.04</text>
	<line x1="557.04" y1="1217.53" x2="511.99" y2="1217.53" style="stroke:#000000;stroke-width:6.48"/>
	<text x="489.54" y="1256.97" style="font-family:'Helvetica';font-size:112.56px;fill:#000000" text-anchor="end">.06</text>
	<line x1="557.04" y1="700.99" x2="511.99" y2="700.99" style="stroke:#000000;stroke-width:6.48"/>
	<text x="489.54" y="740.42" style="font-family:'Helvetica';font-size:112.56px;fill:#000000" text-anchor="end">.08</text>
	<line x1="557.04" y1="184.61" x2="511.99" y2="184.61" style="stroke:#000000;stroke-width:6.48"/>
	<text x="489.54" y="224.05" style="font-family:'Helvetica';font-size:112.56px;fill:#000000" text-anchor="end">.1</text>
	<text x="214.55" y="1439.94" style="font-family:'Helvetica';font-size:112.56px;fill:#000000" transform="rotate(-90 214.55,1439.94)" text-anchor="middle">Density</text>
	<line x1="557.04" y1="2766.66" x2="5286.60" y2="2766.66" style="stroke:#000000;stroke-width:6.48"/>
	<line x1="628.26" y1="2766.66" x2="628.26" y2="2811.54" style="stroke:#000000;stroke-width:6.48"/>
	<text x="628.26" y="2912.86" style="font-family:'Helvetica';font-size:112.56px;fill:#000000" text-anchor="middle">10</text>
	<line x1="2108.03" y1="2766.66" x2="2108.03" y2="2811.54" style="stroke:#000000;stroke-width:6.48"/>
	<text x="2108.03" y="2912.86" style="font-family:'Helvetica';font-size:112.56px;fill:#000000" text-anchor="middle">20</text>
	<line x1="3587.63" y1="2766.66" x2="3587.63" y2="2811.54" style="stroke:#000000;stroke-width:6.48"/>
	<text x="3587.63" y="2912.86" style="font-family:'Helvetica';font-size:112.56px;fill:#000000" text-anchor="middle">30</text>
	<line x1="5067.39" y1="2766.66" x2="5067.39" y2="2811.54" style="stroke:#000000;stroke-width:6.48"/>
	<text x="5067.39" y="2912.86" style="font-family:'Helvetica';font-size:112.56px;fill:#000000" text-anchor="middle">40</text>
	<text x="2921.74" y="3070.31" style="font-family:'Helvetica';font-size:112.56px;fill:#000000" text-anchor="middle">Mileage (mpg)</text>
</svg>
