<?xml version="1.0" encoding="UTF-8" standalone="no"?>
<!-- This is a Stata 18.0 generated SVG file (http://www.stata.com) -->

<svg version="1.1" width="7.500in" height="4.500in" viewBox="0 0 5400 3240" xmlns="http://www.w3.org/2000/svg" xmlns:xlink="http://www.w3.org/1999/xlink">
	<desc>Stata Graph - Graph</desc>
	<rect x="0" y="0" width="5400" height="3240" style="fill:#FFFFFF;stroke:none"/>
	<rect x="0.00" y="0.00" width="5400.00" height="3240.00" style="fill:#FFFFFF"/>
	<rect x="3.24" y="3.24" width="5393.52" height="3233.52" style="fill:none;stroke:#FFFFFF;stroke-width:6.48"/>
	<rect x="659.81" y="293.96" width="4626.79" height="2472.69" style="fill:#FFFFFF"/>
	<rect x="663.05" y="297.20" width="4620.31" height="2466.21" style="fill:none;stroke:#FFFFFF;stroke-width:6.48"/>
	<line x1="659.81" y1="2695.28" x2="724.61" y2="2695.28" style="stroke:#F0F0F0;stroke-width:9.72"/>
	<line x1="757.01" y1="2695.28" x2="821.81" y2="2695.28" style="stroke:#F0F0F0;stroke-width:9.72"/>
	<line x1="854.21" y1="2695.28" x2="919.01" y2="2695.28" style="stroke:#F0F0F0;stroke-width:9.72"/>
	<line x1="951.41" y1="2695.28" x2="1016.21" y2="2695.28" style="stroke:#F0F0F0;stroke-width:9.72"/>
	<line x1="1048.61" y1="2695.28" x2="1113.41" y2="2695.28" style="stroke:#F0F0F0;stroke-width:9.72"/>
	<line x1="1145.81" y1="2695.28" x2="1210.61" y2="2695.28" style="stroke:#F0F0F0;stroke-width:9.72"/>
	<line x1="1243.01" y1="2695.28" x2="1307.81" y2="2695.28" style="stroke:#F0F0F0;stroke-width:9.72"/>
	<line x1="1340.21" y1="2695.28" x2="1405.01" y2="2695.28" style="stroke:#F0F0F0;stroke-width:9.72"/>
	<line x1="1437.41" y1="2695.28" x2="1502.21" y2="2695.28" style="stroke:#F0F0F0;stroke-width:9.72"/>
	<line x1="1534.61" y1="2695.28" x2="1599.41" y2="2695.28" style="stroke:#F0F0F0;stroke-width:9.72"/>
	<line x1="1631.81" y1="2695.28" x2="1696.61" y2="2695.28" style="stroke:#F0F0F0;stroke-width:9.72"/>
	<line x1="1729.01" y1="2695.28" x2="1793.81" y2="2695.28" style="stroke:#F0F0F0;stroke-width:9.72"/>
	<line x1="1826.21" y1="2695.28" x2="1891.01" y2="2695.28" style="stroke:#F0F0F0;stroke-width:9.72"/>
	<line x1="1923.41" y1="2695.28" x2="1988.21" y2="2695.28" style="stroke:#F0F0F0;stroke-width:9.72"/>
	<line x1="2020.61" y1="2695.28" x2="2085.41" y2="2695.28" style="stroke:#F0F0F0;stroke-width:9.72"/>
	<line x1="2117.81" y1="2695.28" x2="2182.61" y2="2695.28" style="stroke:#F0F0F0;stroke-width:9.72"/>
	<line x1="2215.01" y1="2695.28" x2="2279.81" y2="2695.28" style="stroke:#F0F0F0;stroke-width:9.72"/>
	<line x1="2312.21" y1="2695.28" x2="2377.01" y2="2695.28" style="stroke:#F0F0F0;stroke-width:9.72"/>
	<line x1="2409.41" y1="2695.28" x2="2474.21" y2="2695.28" style="stroke:#F0F0F0;stroke-width:9.72"/>
	<line x1="2506.61" y1="2695.28" x2="2571.41" y2="2695.28" style="stroke:#F0F0F0;stroke-width:9.72"/>
	<line x1="2603.81" y1="2695.28" x2="2668.61" y2="2695.28" style="stroke:#F0F0F0;stroke-width:9.72"/>
	<line x1="2701.01" y1="2695.28" x2="2765.81" y2="2695.28" style="stroke:#F0F0F0;stroke-width:9.72"/>
	<line x1="2798.21" y1="2695.28" x2="2863.01" y2="2695.28" style="stroke:#F0F0F0;stroke-width:9.72"/>
	<line x1="2895.41" y1="2695.28" x2="2960.21" y2="2695.28" style="stroke:#F0F0F0;stroke-width:9.72"/>
	<line x1="2992.61" y1="2695.28" x2="3057.41" y2="2695.28" style="stroke:#F0F0F0;stroke-width:9.72"/>
	<line x1="3089.81" y1="2695.28" x2="3154.61" y2="2695.28" style="stroke:#F0F0F0;stroke-width:9.72"/>
	<line x1="3187.01" y1="2695.28" x2="3251.81" y2="2695.28" style="stroke:#F0F0F0;stroke-width:9.72"/>
	<line x1="3284.21" y1="2695.28" x2="3349.01" y2="2695.28" style="stroke:#F0F0F0;stroke-width:9.72"/>
	<line x1="3381.41" y1="2695.28" x2="3446.21" y2="2695.28" style="stroke:#F0F0F0;stroke-width:9.72"/>
	<line x1="3478.61" y1="2695.28" x2="3543.41" y2="2695.28" style="stroke:#F0F0F0;stroke-width:9.72"/>
	<line x1="3575.81" y1="2695.28" x2="3640.61" y2="2695.28" style="stroke:#F0F0F0;stroke-width:9.72"/>
	<line x1="3673.01" y1="2695.28" x2="3737.81" y2="2695.28" style="stroke:#F0F0F0;stroke-width:9.72"/>
	<line x1="3770.21" y1="2695.28" x2="3835.01" y2="2695.28" style="stroke:#F0F0F0;stroke-width:9.72"/>
	<line x1="3867.41" y1="2695.28" x2="3932.21" y2="2695.28" style="stroke:#F0F0F0;stroke-width:9.72"/>
	<line x1="3964.61" y1="2695.28" x2="4029.41" y2="2695.28" style="stroke:#F0F0F0;stroke-width:9.72"/>
	<line x1="4061.81" y1="2695.28" x2="4126.61" y2="2695.28" style="stroke:#F0F0F0;stroke-width:9.72"/>
	<line x1="4159.01" y1="2695.28" x2="4223.81" y2="2695.28" style="stroke:#F0F0F0;stroke-width:9.72"/>
	<line x1="4256.21" y1="2695.28" x2="4321.01" y2="2695.28" style="stroke:#F0F0F0;stroke-width:9.72"/>
	<line x1="4353.41" y1="2695.28" x2="4418.21" y2="2695.28" style="stroke:#F0F0F0;stroke-width:9.72"/>
	<line x1="4450.61" y1="2695.28" x2="4515.41" y2="2695.28" style="stroke:#F0F0F0;stroke-width:9.72"/>
	<line x1="4547.81" y1="2695.28" x2="4612.61" y2="2695.28" style="stroke:#F0F0F0;stroke-width:9.72"/>
	<line x1="4645.01" y1="2695.28" x2="4709.81" y2="2695.28" style="stroke:#F0F0F0;stroke-width:9.72"/>
	<line x1="4742.21" y1="2695.28" x2="4807.01" y2="2695.28" style="stroke:#F0F0F0;stroke-width:9.72"/>
	<line x1="4839.41" y1="2695.28" x2="4904.21" y2="2695.28" style="stroke:#F0F0F0;stroke-width:9.72"/>
	<line x1="4936.61" y1="2695.28" x2="5001.41" y2="2695.28" style="stroke:#F0F0F0;stroke-width:9.72"/>
	<line x1="5033.81" y1="2695.28" x2="5098.61" y2="2695.28" style="stroke:#F0F0F0;stroke-width:9.72"/>
	<line x1="5131.01" y1="2695.28" x2="5195.81" y2="2695.28" style="stroke:#F0F0F0;stroke-width:9.72"/>
	<line x1="5228.21" y1="2695.28" x2="5286.60" y2="2695.28" style="stroke:#F0F0F0;stroke-width:9.72"/>
	<line x1="659.81" y1="2112.75" x2="724.61" y2="2112.75" style="stroke:#F0F0F0;stroke-width:9.72"/>
	<line x1="757.01" y1="2112.75" x2="821.81" y2="2112.75" style="stroke:#F0F0F0;stroke-width:9.72"/>
	<line x1="854.21" y1="2112.75" x2="919.01" y2="2112.75" style="stroke:#F0F0F0;stroke-width:9.72"/>
	<line x1="951.41" y1="2112.75" x2="1016.21" y2="2112.75" style="stroke:#F0F0F0;stroke-width:9.72"/>
	<line x1="1048.61" y1="2112.75" x2="1113.41" y2="2112.75" style="stroke:#F0F0F0;stroke-width:9.72"/>
	<line x1="1145.81" y1="2112.75" x2="1210.61" y2="2112.75" style="stroke:#F0F0F0;stroke-width:9.72"/>
	<line x1="1243.01" y1="2112.75" x2="1307.81" y2="2112.75" style="stroke:#F0F0F0;stroke-width:9.72"/>
	<line x1="1340.21" y1="2112.75" x2="1405.01" y2="2112.75" style="stroke:#F0F0F0;stroke-width:9.72"/>
	<line x1="1437.41" y1="2112.75" x2="1502.21" y2="2112.75" style="stroke:#F0F0F0;stroke-width:9.72"/>
	<line x1="1534.61" y1="2112.75" x2="1599.41" y2="2112.75" style="stroke:#F0F0F0;stroke-width:9.72"/>
	<line x1="1631.81" y1="2112.75" x2="1696.61" y2="2112.75" style="stroke:#F0F0F0;stroke-width:9.72"/>
	<line x1="1729.01" y1="2112.75" x2="1793.81" y2="2112.75" style="stroke:#F0F0F0;stroke-width:9.72"/>
	<line x1="1826.21" y1="2112.75" x2="1891.01" y2="2112.75" style="stroke:#F0F0F0;stroke-width:9.72"/>
	<line x1="1923.41" y1="2112.75" x2="1988.21" y2="2112.75" style="stroke:#F0F0F0;stroke-width:9.72"/>
	<line x1="2020.61" y1="2112.75" x2="2085.41" y2="2112.75" style="stroke:#F0F0F0;stroke-width:9.72"/>
	<line x1="2117.81" y1="2112.75" x2="2182.61" y2="2112.75" style="stroke:#F0F0F0;stroke-width:9.72"/>
	<line x1="2215.01" y1="2112.75" x2="2279.81" y2="2112.75" style="stroke:#F0F0F0;stroke-width:9.72"/>
	<line x1="2312.21" y1="2112.75" x2="2377.01" y2="2112.75" style="stroke:#F0F0F0;stroke-width:9.72"/>
	<line x1="2409.41" y1="2112.75" x2="2474.21" y2="2112.75" style="stroke:#F0F0F0;stroke-width:9.72"/>
	<line x1="2506.61" y1="2112.75" x2="2571.41" y2="2112.75" style="stroke:#F0F0F0;stroke-width:9.72"/>
	<line x1="2603.81" y1="2112.75" x2="2668.61" y2="2112.75" style="stroke:#F0F0F0;stroke-width:9.72"/>
	<line x1="2701.01" y1="2112.75" x2="2765.81" y2="2112.75" style="stroke:#F0F0F0;stroke-width:9.72"/>
	<line x1="2798.21" y1="2112.75" x2="2863.01" y2="2112.75" style="stroke:#F0F0F0;stroke-width:9.72"/>
	<line x1="2895.41" y1="2112.75" x2="2960.21" y2="2112.75" style="stroke:#F0F0F0;stroke-width:9.72"/>
	<line x1="2992.61" y1="2112.75" x2="3057.41" y2="2112.75" style="stroke:#F0F0F0;stroke-width:9.72"/>
	<line x1="3089.81" y1="2112.75" x2="3154.61" y2="2112.75" style="stroke:#F0F0F0;stroke-width:9.72"/>
	<line x1="3187.01" y1="2112.75" x2="3251.81" y2="2112.75" style="stroke:#F0F0F0;stroke-width:9.72"/>
	<line x1="3284.21" y1="2112.75" x2="3349.01" y2="2112.75" style="stroke:#F0F0F0;stroke-width:9.72"/>
	<line x1="3381.41" y1="2112.75" x2="3446.21" y2="2112.75" style="stroke:#F0F0F0;stroke-width:9.72"/>
	<line x1="3478.61" y1="2112.75" x2="3543.41" y2="2112.75" style="stroke:#F0F0F0;stroke-width:9.72"/>
	<line x1="3575.81" y1="2112.75" x2="3640.61" y2="2112.75" style="stroke:#F0F0F0;stroke-width:9.72"/>
	<line x1="3673.01" y1="2112.75" x2="3737.81" y2="2112.75" style="stroke:#F0F0F0;stroke-width:9.72"/>
	<line x1="3770.21" y1="2112.75" x2="3835.01" y2="2112.75" style="stroke:#F0F0F0;stroke-width:9.72"/>
	<line x1="3867.41" y1="2112.75" x2="3932.21" y2="2112.75" style="stroke:#F0F0F0;stroke-width:9.72"/>
	<line x1="3964.61" y1="2112.75" x2="4029.41" y2="2112.75" style="stroke:#F0F0F0;stroke-width:9.72"/>
	<line x1="4061.81" y1="2112.75" x2="4126.61" y2="2112.75" style="stroke:#F0F0F0;stroke-width:9.72"/>
	<line x1="4159.01" y1="2112.75" x2="4223.81" y2="2112.75" style="stroke:#F0F0F0;stroke-width:9.72"/>
	<line x1="4256.21" y1="2112.75" x2="4321.01" y2="2112.75" style="stroke:#F0F0F0;stroke-width:9.72"/>
	<line x1="4353.41" y1="2112.75" x2="4418.21" y2="2112.75" style="stroke:#F0F0F0;stroke-width:9.72"/>
	<line x1="4450.61" y1="2112.75" x2="4515.41" y2="2112.75" style="stroke:#F0F0F0;stroke-width:9.72"/>
	<line x1="4547.81" y1="2112.75" x2="4612.61" y2="2112.75" style="stroke:#F0F0F0;stroke-width:9.72"/>
	<line x1="4645.01" y1="2112.75" x2="4709.81" y2="2112.75" style="stroke:#F0F0F0;stroke-width:9.72"/>
	<line x1="4742.21" y1="2112.75" x2="4807.01" y2="2112.75" style="stroke:#F0F0F0;stroke-width:9.72"/>
	<line x1="4839.41" y1="2112.75" x2="4904.21" y2="2112.75" style="stroke:#F0F0F0;stroke-width:9.72"/>
	<line x1="4936.61" y1="2112.75" x2="5001.41" y2="2112.75" style="stroke:#F0F0F0;stroke-width:9.72"/>
	<line x1="5033.81" y1="2112.75" x2="5098.61" y2="2112.75" style="stroke:#F0F0F0;stroke-width:9.72"/>
	<line x1="5131.01" y1="2112.75" x2="5195.81" y2="2112.75" style="stroke:#F0F0F0;stroke-width:9.72"/>
	<line x1="5228.21" y1="2112.75" x2="5286.60" y2="2112.75" style="stroke:#F0F0F0;stroke-width:9.72"/>
	<line x1="659.81" y1="1530.39" x2="724.61" y2="1530.39" style="stroke:#F0F0F0;stroke-width:9.72"/>
	<line x1="757.01" y1="1530.39" x2="821.81" y2="1530.39" style="stroke:#F0F0F0;stroke-width:9.72"/>
	<line x1="854.21" y1="1530.39" x2="919.01" y2="1530.39" style="stroke:#F0F0F0;stroke-width:9.72"/>
	<line x1="951.41" y1="1530.39" x2="1016.21" y2="1530.39" style="stroke:#F0F0F0;stroke-width:9.72"/>
	<line x1="1048.61" y1="1530.39" x2="1113.41" y2="1530.39" style="stroke:#F0F0F0;stroke-width:9.72"/>
	<line x1="1145.81" y1="1530.39" x2="1210.61" y2="1530.39" style="stroke:#F0F0F0;stroke-width:9.72"/>
	<line x1="1243.01" y1="1530.39" x2="1307.81" y2="1530.39" style="stroke:#F0F0F0;stroke-width:9.72"/>
	<line x1="1340.21" y1="1530.39" x2="1405.01" y2="1530.39" style="stroke:#F0F0F0;stroke-width:9.72"/>
	<line x1="1437.41" y1="1530.39" x2="1502.21" y2="1530.39" style="stroke:#F0F0F0;stroke-width:9.72"/>
	<line x1="1534.61" y1="1530.39" x2="1599.41" y2="1530.39" style="stroke:#F0F0F0;stroke-width:9.72"/>
	<line x1="1631.81" y1="1530.39" x2="1696.61" y2="1530.39" style="stroke:#F0F0F0;stroke-width:9.72"/>
	<line x1="1729.01" y1="1530.39" x2="1793.81" y2="1530.39" style="stroke:#F0F0F0;stroke-width:9.72"/>
	<line x1="1826.21" y1="1530.39" x2="1891.01" y2="1530.39" style="stroke:#F0F0F0;stroke-width:9.72"/>
	<line x1="1923.41" y1="1530.39" x2="1988.21" y2="1530.39" style="stroke:#F0F0F0;stroke-width:9.72"/>
	<line x1="2020.61" y1="1530.39" x2="2085.41" y2="1530.39" style="stroke:#F0F0F0;stroke-width:9.72"/>
	<line x1="2117.81" y1="1530.39" x2="2182.61" y2="1530.39" style="stroke:#F0F0F0;stroke-width:9.72"/>
	<line x1="2215.01" y1="1530.39" x2="2279.81" y2="1530.39" style="stroke:#F0F0F0;stroke-width:9.72"/>
	<line x1="2312.21" y1="1530.39" x2="2377.01" y2="1530.39" style="stroke:#F0F0F0;stroke-width:9.72"/>
	<line x1="2409.41" y1="1530.39" x2="2474.21" y2="1530.39" style="stroke:#F0F0F0;stroke-width:9.72"/>
	<line x1="2506.61" y1="1530.39" x2="2571.41" y2="1530.39" style="stroke:#F0F0F0;stroke-width:9.72"/>
	<line x1="2603.81" y1="1530.39" x2="2668.61" y2="1530.39" style="stroke:#F0F0F0;stroke-width:9.72"/>
	<line x1="2701.01" y1="1530.39" x2="2765.81" y2="1530.39" style="stroke:#F0F0F0;stroke-width:9.72"/>
	<line x1="2798.21" y1="1530.39" x2="2863.01" y2="1530.39" style="stroke:#F0F0F0;stroke-width:9.72"/>
	<line x1="2895.41" y1="1530.39" x2="2960.21" y2="1530.39" style="stroke:#F0F0F0;stroke-width:9.72"/>
	<line x1="2992.61" y1="1530.39" x2="3057.41" y2="1530.39" style="stroke:#F0F0F0;stroke-width:9.72"/>
	<line x1="3089.81" y1="1530.39" x2="3154.61" y2="1530.39" style="stroke:#F0F0F0;stroke-width:9.72"/>
	<line x1="3187.01" y1="1530.39" x2="3251.81" y2="1530.39" style="stroke:#F0F0F0;stroke-width:9.72"/>
	<line x1="3284.21" y1="1530.39" x2="3349.01" y2="1530.39" style="stroke:#F0F0F0;stroke-width:9.72"/>
	<line x1="3381.41" y1="1530.39" x2="3446.21" y2="1530.39" style="stroke:#F0F0F0;stroke-width:9.72"/>
	<line x1="3478.61" y1="1530.39" x2="3543.41" y2="1530.39" style="stroke:#F0F0F0;stroke-width:9.72"/>
	<line x1="3575.81" y1="1530.39" x2="3640.61" y2="1530.39" style="stroke:#F0F0F0;stroke-width:9.72"/>
	<line x1="3673.01" y1="1530.39" x2="3737.81" y2="1530.39" style="stroke:#F0F0F0;stroke-width:9.72"/>
	<line x1="3770.21" y1="1530.39" x2="3835.01" y2="1530.39" style="stroke:#F0F0F0;stroke-width:9.72"/>
	<line x1="3867.41" y1="1530.39" x2="3932.21" y2="1530.39" style="stroke:#F0F0F0;stroke-width:9.72"/>
	<line x1="3964.61" y1="1530.39" x2="4029.41" y2="1530.39" style="stroke:#F0F0F0;stroke-width:9.72"/>
	<line x1="4061.81" y1="1530.39" x2="4126.61" y2="1530.39" style="stroke:#F0F0F0;stroke-width:9.72"/>
	<line x1="4159.01" y1="1530.39" x2="4223.81" y2="1530.39" style="stroke:#F0F0F0;stroke-width:9.72"/>
	<line x1="4256.21" y1="1530.39" x2="4321.01" y2="1530.39" style="stroke:#F0F0F0;stroke-width:9.72"/>
	<line x1="4353.41" y1="1530.39" x2="4418.21" y2="1530.39" style="stroke:#F0F0F0;stroke-width:9.72"/>
	<line x1="4450.61" y1="1530.39" x2="4515.41" y2="1530.39" style="stroke:#F0F0F0;stroke-width:9.72"/>
	<line x1="4547.81" y1="1530.39" x2="4612.61" y2="1530.39" style="stroke:#F0F0F0;stroke-width:9.72"/>
	<line x1="4645.01" y1="1530.39" x2="4709.81" y2="1530.39" style="stroke:#F0F0F0;stroke-width:9.72"/>
	<line x1="4742.21" y1="1530.39" x2="4807.01" y2="1530.39" style="stroke:#F0F0F0;stroke-width:9.72"/>
	<line x1="4839.41" y1="1530.39" x2="4904.21" y2="1530.39" style="stroke:#F0F0F0;stroke-width:9.72"/>
	<line x1="4936.61" y1="1530.39" x2="5001.41" y2="1530.39" style="stroke:#F0F0F0;stroke-width:9.72"/>
	<line x1="5033.81" y1="1530.39" x2="5098.61" y2="1530.39" style="stroke:#F0F0F0;stroke-width:9.72"/>
	<line x1="5131.01" y1="1530.39" x2="5195.81" y2="1530.39" style="stroke:#F0F0F0;stroke-width:9.72"/>
	<line x1="5228.21" y1="1530.39" x2="5286.60" y2="1530.39" style="stroke:#F0F0F0;stroke-width:9.72"/>
	<line x1="659.81" y1="947.87" x2="724.61" y2="947.87" style="stroke:#F0F0F0;stroke-width:9.72"/>
	<line x1="757.01" y1="947.87" x2="821.81" y2="947.87" style="stroke:#F0F0F0;stroke-width:9.72"/>
	<line x1="854.21" y1="947.87" x2="919.01" y2="947.87" style="stroke:#F0F0F0;stroke-width:9.72"/>
	<line x1="951.41" y1="947.87" x2="1016.21" y2="947.87" style="stroke:#F0F0F0;stroke-width:9.72"/>
	<line x1="1048.61" y1="947.87" x2="1113.41" y2="947.87" style="stroke:#F0F0F0;stroke-width:9.72"/>
	<line x1="1145.81" y1="947.87" x2="1210.61" y2="947.87" style="stroke:#F0F0F0;stroke-width:9.72"/>
	<line x1="1243.01" y1="947.87" x2="1307.81" y2="947.87" style="stroke:#F0F0F0;stroke-width:9.72"/>
	<line x1="1340.21" y1="947.87" x2="1405.01" y2="947.87" style="stroke:#F0F0F0;stroke-width:9.72"/>
	<line x1="1437.41" y1="947.87" x2="1502.21" y2="947.87" style="stroke:#F0F0F0;stroke-width:9.72"/>
	<line x1="1534.61" y1="947.87" x2="1599.41" y2="947.87" style="stroke:#F0F0F0;stroke-width:9.72"/>
	<line x1="1631.81" y1="947.87" x2="1696.61" y2="947.87" style="stroke:#F0F0F0;stroke-width:9.72"/>
	<line x1="1729.01" y1="947.87" x2="1793.81" y2="947.87" style="stroke:#F0F0F0;stroke-width:9.72"/>
	<line x1="1826.21" y1="947.87" x2="1891.01" y2="947.87" style="stroke:#F0F0F0;stroke-width:9.72"/>
	<line x1="1923.41" y1="947.87" x2="1988.21" y2="947.87" style="stroke:#F0F0F0;stroke-width:9.72"/>
	<line x1="2020.61" y1="947.87" x2="2085.41" y2="947.87" style="stroke:#F0F0F0;stroke-width:9.72"/>
	<line x1="2117.81" y1="947.87" x2="2182.61" y2="947.87" style="stroke:#F0F0F0;stroke-width:9.72"/>
	<line x1="2215.01" y1="947.87" x2="2279.81" y2="947.87" style="stroke:#F0F0F0;stroke-width:9.72"/>
	<line x1="2312.21" y1="947.87" x2="2377.01" y2="947.87" style="stroke:#F0F0F0;stroke-width:9.72"/>
	<line x1="2409.41" y1="947.87" x2="2474.21" y2="947.87" style="stroke:#F0F0F0;stroke-width:9.72"/>
	<line x1="2506.61" y1="947.87" x2="2571.41" y2="947.87" style="stroke:#F0F0F0;stroke-width:9.72"/>
	<line x1="2603.81" y1="947.87" x2="2668.61" y2="947.87" style="stroke:#F0F0F0;stroke-width:9.72"/>
	<line x1="2701.01" y1="947.87" x2="2765.81" y2="947.87" style="stroke:#F0F0F0;stroke-width:9.72"/>
	<line x1="2798.21" y1="947.87" x2="2863.01" y2="947.87" style="stroke:#F0F0F0;stroke-width:9.72"/>
	<line x1="2895.41" y1="947.87" x2="2960.21" y2="947.87" style="stroke:#F0F0F0;stroke-width:9.72"/>
	<line x1="2992.61" y1="947.87" x2="3057.41" y2="947.87" style="stroke:#F0F0F0;stroke-width:9.72"/>
	<line x1="3089.81" y1="947.87" x2="3154.61" y2="947.87" style="stroke:#F0F0F0;stroke-width:9.72"/>
	<line x1="3187.01" y1="947.87" x2="3251.81" y2="947.87" style="stroke:#F0F0F0;stroke-width:9.72"/>
	<line x1="3284.21" y1="947.87" x2="3349.01" y2="947.87" style="stroke:#F0F0F0;stroke-width:9.72"/>
	<line x1="3381.41" y1="947.87" x2="3446.21" y2="947.87" style="stroke:#F0F0F0;stroke-width:9.72"/>
	<line x1="3478.61" y1="947.87" x2="3543.41" y2="947.87" style="stroke:#F0F0F0;stroke-width:9.72"/>
	<line x1="3575.81" y1="947.87" x2="3640.61" y2="947.87" style="stroke:#F0F0F0;stroke-width:9.72"/>
	<line x1="3673.01" y1="947.87" x2="3737.81" y2="947.87" style="stroke:#F0F0F0;stroke-width:9.72"/>
	<line x1="3770.21" y1="947.87" x2="3835.01" y2="947.87" style="stroke:#F0F0F0;stroke-width:9.72"/>
	<line x1="3867.41" y1="947.87" x2="3932.21" y2="947.87" style="stroke:#F0F0F0;stroke-width:9.72"/>
	<line x1="3964.61" y1="947.87" x2="4029.41" y2="947.87" style="stroke:#F0F0F0;stroke-width:9.72"/>
	<line x1="4061.81" y1="947.87" x2="4126.61" y2="947.87" style="stroke:#F0F0F0;stroke-width:9.72"/>
	<line x1="4159.01" y1="947.87" x2="4223.81" y2="947.87" style="stroke:#F0F0F0;stroke-width:9.72"/>
	<line x1="4256.21" y1="947.87" x2="4321.01" y2="947.87" style="stroke:#F0F0F0;stroke-width:9.72"/>
	<line x1="4353.41" y1="947.87" x2="4418.21" y2="947.87" style="stroke:#F0F0F0;stroke-width:9.72"/>
	<line x1="4450.61" y1="947.87" x2="4515.41" y2="947.87" style="stroke:#F0F0F0;stroke-width:9.72"/>
	<line x1="4547.81" y1="947.87" x2="4612.61" y2="947.87" style="stroke:#F0F0F0;stroke-width:9.72"/>
	<line x1="4645.01" y1="947.87" x2="4709.81" y2="947.87" style="stroke:#F0F0F0;stroke-width:9.72"/>
	<line x1="4742.21" y1="947.87" x2="4807.01" y2="947.87" style="stroke:#F0F0F0;stroke-width:9.72"/>
	<line x1="4839.41" y1="947.87" x2="4904.21" y2="947.87" style="stroke:#F0F0F0;stroke-width:9.72"/>
	<line x1="4936.61" y1="947.87" x2="5001.41" y2="947.87" style="stroke:#F0F0F0;stroke-width:9.72"/>
	<line x1="5033.81" y1="947.87" x2="5098.61" y2="947.87" style="stroke:#F0F0F0;stroke-width:9.72"/>
	<line x1="5131.01" y1="947.87" x2="5195.81" y2="947.87" style="stroke:#F0F0F0;stroke-width:9.72"/>
	<line x1="5228.21" y1="947.87" x2="5286.60" y2="947.87" style="stroke:#F0F0F0;stroke-width:9.72"/>
	<line x1="659.81" y1="365.34" x2="724.61" y2="365.34" style="stroke:#F0F0F0;stroke-width:9.72"/>
	<line x1="757.01" y1="365.34" x2="821.81" y2="365.34" style="stroke:#F0F0F0;stroke-width:9.72"/>
	<line x1="854.21" y1="365.34" x2="919.01" y2="365.34" style="stroke:#F0F0F0;stroke-width:9.72"/>
	<line x1="951.41" y1="365.34" x2="1016.21" y2="365.34" style="stroke:#F0F0F0;stroke-width:9.72"/>
	<line x1="1048.61" y1="365.34" x2="1113.41" y2="365.34" style="stroke:#F0F0F0;stroke-width:9.72"/>
	<line x1="1145.81" y1="365.34" x2="1210.61" y2="365.34" style="stroke:#F0F0F0;stroke-width:9.72"/>
	<line x1="1243.01" y1="365.34" x2="1307.81" y2="365.34" style="stroke:#F0F0F0;stroke-width:9.72"/>
	<line x1="1340.21" y1="365.34" x2="1405.01" y2="365.34" style="stroke:#F0F0F0;stroke-width:9.72"/>
	<line x1="1437.41" y1="365.34" x2="1502.21" y2="365.34" style="stroke:#F0F0F0;stroke-width:9.72"/>
	<line x1="1534.61" y1="365.34" x2="1599.41" y2="365.34" style="stroke:#F0F0F0;stroke-width:9.72"/>
	<line x1="1631.81" y1="365.34" x2="1696.61" y2="365.34" style="stroke:#F0F0F0;stroke-width:9.72"/>
	<line x1="1729.01" y1="365.34" x2="1793.81" y2="365.34" style="stroke:#F0F0F0;stroke-width:9.72"/>
	<line x1="1826.21" y1="365.34" x2="1891.01" y2="365.34" style="stroke:#F0F0F0;stroke-width:9.72"/>
	<line x1="1923.41" y1="365.34" x2="1988.21" y2="365.34" style="stroke:#F0F0F0;stroke-width:9.72"/>
	<line x1="2020.61" y1="365.34" x2="2085.41" y2="365.34" style="stroke:#F0F0F0;stroke-width:9.72"/>
	<line x1="2117.81" y1="365.34" x2="2182.61" y2="365.34" style="stroke:#F0F0F0;stroke-width:9.72"/>
	<line x1="2215.01" y1="365.34" x2="2279.81" y2="365.34" style="stroke:#F0F0F0;stroke-width:9.72"/>
	<line x1="2312.21" y1="365.34" x2="2377.01" y2="365.34" style="stroke:#F0F0F0;stroke-width:9.72"/>
	<line x1="2409.41" y1="365.34" x2="2474.21" y2="365.34" style="stroke:#F0F0F0;stroke-width:9.72"/>
	<line x1="2506.61" y1="365.34" x2="2571.41" y2="365.34" style="stroke:#F0F0F0;stroke-width:9.72"/>
	<line x1="2603.81" y1="365.34" x2="2668.61" y2="365.34" style="stroke:#F0F0F0;stroke-width:9.72"/>
	<line x1="2701.01" y1="365.34" x2="2765.81" y2="365.34" style="stroke:#F0F0F0;stroke-width:9.72"/>
	<line x1="2798.21" y1="365.34" x2="2863.01" y2="365.34" style="stroke:#F0F0F0;stroke-width:9.72"/>
	<line x1="2895.41" y1="365.34" x2="2960.21" y2="365.34" style="stroke:#F0F0F0;stroke-width:9.72"/>
	<line x1="2992.61" y1="365.34" x2="3057.41" y2="365.34" style="stroke:#F0F0F0;stroke-width:9.72"/>
	<line x1="3089.81" y1="365.34" x2="3154.61" y2="365.34" style="stroke:#F0F0F0;stroke-width:9.72"/>
	<line x1="3187.01" y1="365.34" x2="3251.81" y2="365.34" style="stroke:#F0F0F0;stroke-width:9.72"/>
	<line x1="3284.21" y1="365.34" x2="3349.01" y2="365.34" style="stroke:#F0F0F0;stroke-width:9.72"/>
	<line x1="3381.41" y1="365.34" x2="3446.21" y2="365.34" style="stroke:#F0F0F0;stroke-width:9.72"/>
	<line x1="3478.61" y1="365.34" x2="3543.41" y2="365.34" style="stroke:#F0F0F0;stroke-width:9.72"/>
	<line x1="3575.81" y1="365.34" x2="3640.61" y2="365.34" style="stroke:#F0F0F0;stroke-width:9.72"/>
	<line x1="3673.01" y1="365.34" x2="3737.81" y2="365.34" style="stroke:#F0F0F0;stroke-width:9.72"/>
	<line x1="3770.21" y1="365.34" x2="3835.01" y2="365.34" style="stroke:#F0F0F0;stroke-width:9.72"/>
	<line x1="3867.41" y1="365.34" x2="3932.21" y2="365.34" style="stroke:#F0F0F0;stroke-width:9.72"/>
	<line x1="3964.61" y1="365.34" x2="4029.41" y2="365.34" style="stroke:#F0F0F0;stroke-width:9.72"/>
	<line x1="4061.81" y1="365.34" x2="4126.61" y2="365.34" style="stroke:#F0F0F0;stroke-width:9.72"/>
	<line x1="4159.01" y1="365.34" x2="4223.81" y2="365.34" style="stroke:#F0F0F0;stroke-width:9.72"/>
	<line x1="4256.21" y1="365.34" x2="4321.01" y2="365.34" style="stroke:#F0F0F0;stroke-width:9.72"/>
	<line x1="4353.41" y1="365.34" x2="4418.21" y2="365.34" style="stroke:#F0F0F0;stroke-width:9.72"/>
	<line x1="4450.61" y1="365.34" x2="4515.41" y2="365.34" style="stroke:#F0F0F0;stroke-width:9.72"/>
	<line x1="4547.81" y1="365.34" x2="4612.61" y2="365.34" style="stroke:#F0F0F0;stroke-width:9.72"/>
	<line x1="4645.01" y1="365.34" x2="4709.81" y2="365.34" style="stroke:#F0F0F0;stroke-width:9.72"/>
	<line x1="4742.21" y1="365.34" x2="4807.01" y2="365.34" style="stroke:#F0F0F0;stroke-width:9.72"/>
	<line x1="4839.41" y1="365.34" x2="4904.21" y2="365.34" style="stroke:#F0F0F0;stroke-width:9.72"/>
	<line x1="4936.61" y1="365.34" x2="5001.41" y2="365.34" style="stroke:#F0F0F0;stroke-width:9.72"/>
	<line x1="5033.81" y1="365.34" x2="5098.61" y2="365.34" style="stroke:#F0F0F0;stroke-width:9.72"/>
	<line x1="5131.01" y1="365.34" x2="5195.81" y2="365.34" style="stroke:#F0F0F0;stroke-width:9.72"/>
	<line x1="5228.21" y1="365.34" x2="5286.60" y2="365.34" style="stroke:#F0F0F0;stroke-width:9.72"/>
	<line x1="731.03" y1="2766.66" x2="731.03" y2="2701.86" style="stroke:#F0F0F0;stroke-width:9.72"/>
	<line x1="731.03" y1="2669.46" x2="731.03" y2="2604.66" style="stroke:#F0F0F0;stroke-width:9.72"/>
	<line x1="731.03" y1="2572.26" x2="731.03" y2="2507.46" style="stroke:#F0F0F0;stroke-width:9.72"/>
	<line x1="731.03" y1="2475.06" x2="731.03" y2="2410.26" style="stroke:#F0F0F0;stroke-width:9.72"/>
	<line x1="731.03" y1="2377.86" x2="731.03" y2="2313.06" style="stroke:#F0F0F0;stroke-width:9.72"/>
	<line x1="731.03" y1="2280.66" x2="731.03" y2="2215.86" style="stroke:#F0F0F0;stroke-width:9.72"/>
	<line x1="731.03" y1="2183.46" x2="731.03" y2="2118.66" style="stroke:#F0F0F0;stroke-width:9.72"/>
	<line x1="731.03" y1="2086.26" x2="731.03" y2="2021.46" style="stroke:#F0F0F0;stroke-width:9.72"/>
	<line x1="731.03" y1="1989.06" x2="731.03" y2="1924.26" style="stroke:#F0F0F0;stroke-width:9.72"/>
	<line x1="731.03" y1="1891.86" x2="731.03" y2="1827.06" style="stroke:#F0F0F0;stroke-width:9.72"/>
	<line x1="731.03" y1="1794.66" x2="731.03" y2="1729.86" style="stroke:#F0F0F0;stroke-width:9.72"/>
	<line x1="731.03" y1="1697.46" x2="731.03" y2="1632.66" style="stroke:#F0F0F0;stroke-width:9.72"/>
	<line x1="731.03" y1="1600.26" x2="731.03" y2="1535.46" style="stroke:#F0F0F0;stroke-width:9.72"/>
	<line x1="731.03" y1="1503.06" x2="731.03" y2="1438.26" style="stroke:#F0F0F0;stroke-width:9.72"/>
	<line x1="731.03" y1="1405.86" x2="731.03" y2="1341.06" style="stroke:#F0F0F0;stroke-width:9.72"/>
	<line x1="731.03" y1="1308.66" x2="731.03" y2="1243.86" style="stroke:#F0F0F0;stroke-width:9.72"/>
	<line x1="731.03" y1="1211.46" x2="731.03" y2="1146.66" style="stroke:#F0F0F0;stroke-width:9.72"/>
	<line x1="731.03" y1="1114.26" x2="731.03" y2="1049.46" style="stroke:#F0F0F0;stroke-width:9.72"/>
	<line x1="731.03" y1="1017.06" x2="731.03" y2="952.26" style="stroke:#F0F0F0;stroke-width:9.72"/>
	<line x1="731.03" y1="919.86" x2="731.03" y2="855.06" style="stroke:#F0F0F0;stroke-width:9.72"/>
	<line x1="731.03" y1="822.66" x2="731.03" y2="757.86" style="stroke:#F0F0F0;stroke-width:9.72"/>
	<line x1="731.03" y1="725.46" x2="731.03" y2="660.66" style="stroke:#F0F0F0;stroke-width:9.72"/>
	<line x1="731.03" y1="628.26" x2="731.03" y2="563.46" style="stroke:#F0F0F0;stroke-width:9.72"/>
	<line x1="731.03" y1="531.06" x2="731.03" y2="466.26" style="stroke:#F0F0F0;stroke-width:9.72"/>
	<line x1="731.03" y1="433.86" x2="731.03" y2="369.06" style="stroke:#F0F0F0;stroke-width:9.72"/>
	<line x1="731.03" y1="336.66" x2="731.03" y2="293.96" style="stroke:#F0F0F0;stroke-width:9.72"/>
	<line x1="2225.81" y1="2766.66" x2="2225.81" y2="2701.86" style="stroke:#F0F0F0;stroke-width:9.72"/>
	<line x1="2225.81" y1="2669.46" x2="2225.81" y2="2604.66" style="stroke:#F0F0F0;stroke-width:9.72"/>
	<line x1="2225.81" y1="2572.26" x2="2225.81" y2="2507.46" style="stroke:#F0F0F0;stroke-width:9.72"/>
	<line x1="2225.81" y1="2475.06" x2="2225.81" y2="2410.26" style="stroke:#F0F0F0;stroke-width:9.72"/>
	<line x1="2225.81" y1="2377.86" x2="2225.81" y2="2313.06" style="stroke:#F0F0F0;stroke-width:9.72"/>
	<line x1="2225.81" y1="2280.66" x2="2225.81" y2="2215.86" style="stroke:#F0F0F0;stroke-width:9.72"/>
	<line x1="2225.81" y1="2183.46" x2="2225.81" y2="2118.66" style="stroke:#F0F0F0;stroke-width:9.72"/>
	<line x1="2225.81" y1="2086.26" x2="2225.81" y2="2021.46" style="stroke:#F0F0F0;stroke-width:9.72"/>
	<line x1="2225.81" y1="1989.06" x2="2225.81" y2="1924.26" style="stroke:#F0F0F0;stroke-width:9.72"/>
	<line x1="2225.81" y1="1891.86" x2="2225.81" y2="1827.06" style="stroke:#F0F0F0;stroke-width:9.72"/>
	<line x1="2225.81" y1="1794.66" x2="2225.81" y2="1729.86" style="stroke:#F0F0F0;stroke-width:9.72"/>
	<line x1="2225.81" y1="1697.46" x2="2225.81" y2="1632.66" style="stroke:#F0F0F0;stroke-width:9.72"/>
	<line x1="2225.81" y1="1600.26" x2="2225.81" y2="1535.46" style="stroke:#F0F0F0;stroke-width:9.72"/>
	<line x1="2225.81" y1="1503.06" x2="2225.81" y2="1438.26" style="stroke:#F0F0F0;stroke-width:9.72"/>
	<line x1="2225.81" y1="1405.86" x2="2225.81" y2="1341.06" style="stroke:#F0F0F0;stroke-width:9.72"/>
	<line x1="2225.81" y1="1308.66" x2="2225.81" y2="1243.86" style="stroke:#F0F0F0;stroke-width:9.72"/>
	<line x1="2225.81" y1="1211.46" x2="2225.81" y2="1146.66" style="stroke:#F0F0F0;stroke-width:9.72"/>
	<line x1="2225.81" y1="1114.26" x2="2225.81" y2="1049.46" style="stroke:#F0F0F0;stroke-width:9.72"/>
	<line x1="2225.81" y1="1017.06" x2="2225.81" y2="952.26" style="stroke:#F0F0F0;stroke-width:9.72"/>
	<line x1="2225.81" y1="919.86" x2="2225.81" y2="855.06" style="stroke:#F0F0F0;stroke-width:9.72"/>
	<line x1="2225.81" y1="822.66" x2="2225.81" y2="757.86" style="stroke:#F0F0F0;stroke-width:9.72"/>
	<line x1="2225.81" y1="725.46" x2="2225.81" y2="660.66" style="stroke:#F0F0F0;stroke-width:9.72"/>
	<line x1="2225.81" y1="628.26" x2="2225.81" y2="563.46" style="stroke:#F0F0F0;stroke-width:9.72"/>
	<line x1="2225.81" y1="531.06" x2="2225.81" y2="466.26" style="stroke:#F0F0F0;stroke-width:9.72"/>
	<line x1="2225.81" y1="433.86" x2="2225.81" y2="369.06" style="stroke:#F0F0F0;stroke-width:9.72"/>
	<line x1="2225.81" y1="336.66" x2="2225.81" y2="293.96" style="stroke:#F0F0F0;stroke-width:9.72"/>
	<line x1="3720.60" y1="2766.66" x2="3720.60" y2="2701.86" style="stroke:#F0F0F0;stroke-width:9.72"/>
	<line x1="3720.60" y1="2669.46" x2="3720.60" y2="2604.66" style="stroke:#F0F0F0;stroke-width:9.72"/>
	<line x1="3720.60" y1="2572.26" x2="3720.60" y2="2507.46" style="stroke:#F0F0F0;stroke-width:9.72"/>
	<line x1="3720.60" y1="2475.06" x2="3720.60" y2="2410.26" style="stroke:#F0F0F0;stroke-width:9.72"/>
	<line x1="3720.60" y1="2377.86" x2="3720.60" y2="2313.06" style="stroke:#F0F0F0;stroke-width:9.72"/>
	<line x1="3720.60" y1="2280.66" x2="3720.60" y2="2215.86" style="stroke:#F0F0F0;stroke-width:9.72"/>
	<line x1="3720.60" y1="2183.46" x2="3720.60" y2="2118.66" style="stroke:#F0F0F0;stroke-width:9.72"/>
	<line x1="3720.60" y1="2086.26" x2="3720.60" y2="2021.46" style="stroke:#F0F0F0;stroke-width:9.72"/>
	<line x1="3720.60" y1="1989.06" x2="3720.60" y2="1924.26" style="stroke:#F0F0F0;stroke-width:9.72"/>
	<line x1="3720.60" y1="1891.86" x2="3720.60" y2="1827.06" style="stroke:#F0F0F0;stroke-width:9.72"/>
	<line x1="3720.60" y1="1794.66" x2="3720.60" y2="1729.86" style="stroke:#F0F0F0;stroke-width:9.72"/>
	<line x1="3720.60" y1="1697.46" x2="3720.60" y2="1632.66" style="stroke:#F0F0F0;stroke-width:9.72"/>
	<line x1="3720.60" y1="1600.26" x2="3720.60" y2="1535.46" style="stroke:#F0F0F0;stroke-width:9.72"/>
	<line x1="3720.60" y1="1503.06" x2="3720.60" y2="1438.26" style="stroke:#F0F0F0;stroke-width:9.72"/>
	<line x1="3720.60" y1="1405.86" x2="3720.60" y2="1341.06" style="stroke:#F0F0F0;stroke-width:9.72"/>
	<line x1="3720.60" y1="1308.66" x2="3720.60" y2="1243.86" style="stroke:#F0F0F0;stroke-width:9.72"/>
	<line x1="3720.60" y1="1211.46" x2="3720.60" y2="1146.66" style="stroke:#F0F0F0;stroke-width:9.72"/>
	<line x1="3720.60" y1="1114.26" x2="3720.60" y2="1049.46" style="stroke:#F0F0F0;stroke-width:9.72"/>
	<line x1="3720.60" y1="1017.06" x2="3720.60" y2="952.26" style="stroke:#F0F0F0;stroke-width:9.72"/>
	<line x1="3720.60" y1="919.86" x2="3720.60" y2="855.06" style="stroke:#F0F0F0;stroke-width:9.72"/>
	<line x1="3720.60" y1="822.66" x2="3720.60" y2="757.86" style="stroke:#F0F0F0;stroke-width:9.72"/>
	<line x1="3720.60" y1="725.46" x2="3720.60" y2="660.66" style="stroke:#F0F0F0;stroke-width:9.72"/>
	<line x1="3720.60" y1="628.26" x2="3720.60" y2="563.46" style="stroke:#F0F0F0;stroke-width:9.72"/>
	<line x1="3720.60" y1="531.06" x2="3720.60" y2="466.26" style="stroke:#F0F0F0;stroke-width:9.72"/>
	<line x1="3720.60" y1="433.86" x2="3720.60" y2="369.06" style="stroke:#F0F0F0;stroke-width:9.72"/>
	<line x1="3720.60" y1="336.66" x2="3720.60" y2="293.96" style="stroke:#F0F0F0;stroke-width:9.72"/>
	<line x1="5215.39" y1="2766.66" x2="5215.39" y2="2701.86" style="stroke:#F0F0F0;stroke-width:9.72"/>
	<line x1="5215.39" y1="2669.46" x2="5215.39" y2="2604.66" style="stroke:#F0F0F0;stroke-width:9.72"/>
	<line x1="5215.39" y1="2572.26" x2="5215.39" y2="2507.46" style="stroke:#F0F0F0;stroke-width:9.72"/>
	<line x1="5215.39" y1="2475.06" x2="5215.39" y2="2410.26" style="stroke:#F0F0F0;stroke-width:9.72"/>
	<line x1="5215.39" y1="2377.86" x2="5215.39" y2="2313.06" style="stroke:#F0F0F0;stroke-width:9.72"/>
	<line x1="5215.39" y1="2280.66" x2="5215.39" y2="2215.86" style="stroke:#F0F0F0;stroke-width:9.72"/>
	<line x1="5215.39" y1="2183.46" x2="5215.39" y2="2118.66" style="stroke:#F0F0F0;stroke-width:9.72"/>
	<line x1="5215.39" y1="2086.26" x2="5215.39" y2="2021.46" style="stroke:#F0F0F0;stroke-width:9.72"/>
	<line x1="5215.39" y1="1989.06" x2="5215.39" y2="1924.26" style="stroke:#F0F0F0;stroke-width:9.72"/>
	<line x1="5215.39" y1="1891.86" x2="5215.39" y2="1827.06" style="stroke:#F0F0F0;stroke-width:9.72"/>
	<line x1="5215.39" y1="1794.66" x2="5215.39" y2="1729.86" style="stroke:#F0F0F0;stroke-width:9.72"/>
	<line x1="5215.39" y1="1697.46" x2="5215.39" y2="1632.66" style="stroke:#F0F0F0;stroke-width:9.72"/>
	<line x1="5215.39" y1="1600.26" x2="5215.39" y2="1535.46" style="stroke:#F0F0F0;stroke-width:9.72"/>
	<line x1="5215.39" y1="1503.06" x2="5215.39" y2="1438.26" style="stroke:#F0F0F0;stroke-width:9.72"/>
	<line x1="5215.39" y1="1405.86" x2="5215.39" y2="1341.06" style="stroke:#F0F0F0;stroke-width:9.72"/>
	<line x1="5215.39" y1="1308.66" x2="5215.39" y2="1243.86" style="stroke:#F0F0F0;stroke-width:9.72"/>
	<line x1="5215.39" y1="1211.46" x2="5215.39" y2="1146.66" style="stroke:#F0F0F0;stroke-width:9.72"/>
	<line x1="5215.39" y1="1114.26" x2="5215.39" y2="1049.46" style="stroke:#F0F0F0;stroke-width:9.72"/>
	<line x1="5215.39" y1="1017.06" x2="5215.39" y2="952.26" style="stroke:#F0F0F0;stroke-width:9.72"/>
	<line x1="5215.39" y1="919.86" x2="5215.39" y2="855.06" style="stroke:#F0F0F0;stroke-width:9.72"/>
	<line x1="5215.39" y1="822.66" x2="5215.39" y2="757.86" style="stroke:#F0F0F0;stroke-width:9.72"/>
	<line x1="5215.39" y1="725.46" x2="5215.39" y2="660.66" style="stroke:#F0F0F0;stroke-width:9.72"/>
	<line x1="5215.39" y1="628.26" x2="5215.39" y2="563.46" style="stroke:#F0F0F0;stroke-width:9.72"/>
	<line x1="5215.39" y1="531.06" x2="5215.39" y2="466.26" style="stroke:#F0F0F0;stroke-width:9.72"/>
	<line x1="5215.39" y1="433.86" x2="5215.39" y2="369.06" style="stroke:#F0F0F0;stroke-width:9.72"/>
	<line x1="5215.39" y1="336.66" x2="5215.39" y2="293.96" style="stroke:#F0F0F0;stroke-width:9.72"/>
	<line x1="731.03" y1="1246.22" x2="731.03" y2="696.26" style="stroke:#1A85FF;stroke-width:9.72"/>
	<line x1="714.15" y1="696.26" x2="747.90" y2="696.26" stroke-linecap="round" style="stroke:#1A85FF;stroke-width:9.72"/>
	<line x1="714.15" y1="1246.22" x2="747.90" y2="1246.22" stroke-linecap="round" style="stroke:#1A85FF;stroke-width:9.72"/>
	<line x1="2225.81" y1="1499.85" x2="2225.81" y2="1109.70" style="stroke:#1A85FF;stroke-width:9.72"/>
	<line x1="2208.94" y1="1109.70" x2="2242.69" y2="1109.70" stroke-linecap="round" style="stroke:#1A85FF;stroke-width:9.72"/>
	<line x1="2208.94" y1="1499.85" x2="2242.69" y2="1499.85" stroke-linecap="round" style="stroke:#1A85FF;stroke-width:9.72"/>
	<line x1="3720.60" y1="1920.04" x2="3720.60" y2="1356.41" style="stroke:#1A85FF;stroke-width:9.72"/>
	<line x1="3703.73" y1="1356.41" x2="3737.48" y2="1356.41" stroke-linecap="round" style="stroke:#1A85FF;stroke-width:9.72"/>
	<line x1="3703.73" y1="1920.04" x2="3737.48" y2="1920.04" stroke-linecap="round" style="stroke:#1A85FF;stroke-width:9.72"/>
	<line x1="5215.39" y1="2418.69" x2="5215.39" y2="1524.83" style="stroke:#1A85FF;stroke-width:9.72"/>
	<line x1="5198.51" y1="1524.83" x2="5232.26" y2="1524.83" stroke-linecap="round" style="stroke:#1A85FF;stroke-width:9.72"/>
	<line x1="5198.51" y1="2418.69" x2="5232.26" y2="2418.69" stroke-linecap="round" style="stroke:#1A85FF;stroke-width:9.72"/>
	<path d=" M730.86 971.32 L2225.64 1304.78 L3720.43 1638.39 L5215.22 1971.84" stroke-linejoin="round" style="fill:none;stroke:#1A85FF;stroke-width:9.72"/>
	<circle cx="730.86" cy="971.32" r="21.74" style="fill:#1A85FF"/>
	<circle cx="730.86" cy="971.32" r="16.88" style="fill:none;stroke:#1A85FF;stroke-width:9.72"/>
	<circle cx="2225.64" cy="1304.78" r="21.74" style="fill:#1A85FF"/>
	<circle cx="2225.64" cy="1304.78" r="16.88" style="fill:none;stroke:#1A85FF;stroke-width:9.72"/>
	<circle cx="3720.43" cy="1638.39" r="21.74" style="fill:#1A85FF"/>
	<circle cx="3720.43" cy="1638.39" r="16.88" style="fill:none;stroke:#1A85FF;stroke-width:9.72"/>
	<circle cx="5215.22" cy="1971.84" r="21.74" style="fill:#1A85FF"/>
	<circle cx="5215.22" cy="1971.84" r="16.88" style="fill:none;stroke:#1A85FF;stroke-width:9.72"/>
	<line x1="659.81" y1="2766.66" x2="659.81" y2="293.96" style="stroke:#000000;stroke-width:6.48"/>
	<line x1="659.81" y1="2695.28" x2="614.76" y2="2695.28" style="stroke:#000000;stroke-width:6.48"/>
	<text x="592.31" y="2734.71" style="font-family:'Helvetica';font-size:112.56px;fill:#000000" text-anchor="end">-.003</text>
	<line x1="659.81" y1="2112.75" x2="614.76" y2="2112.75" style="stroke:#000000;stroke-width:6.48"/>
	<text x="592.31" y="2152.19" style="font-family:'Helvetica';font-size:112.56px;fill:#000000" text-anchor="end">-.002</text>
	<line x1="659.81" y1="1530.39" x2="614.76" y2="1530.39" style="stroke:#000000;stroke-width:6.48"/>
	<text x="592.31" y="1569.83" style="font-family:'Helvetica';font-size:112.56px;fill:#000000" text-anchor="end">-.001</text>
	<line x1="659.81" y1="947.87" x2="614.76" y2="947.87" style="stroke:#000000;stroke-width:6.48"/>
	<text x="592.31" y="987.31" style="font-family:'Helvetica';font-size:112.56px;fill:#000000" text-anchor="end">0</text>
	<line x1="659.81" y1="365.34" x2="614.76" y2="365.34" style="stroke:#000000;stroke-width:6.48"/>
	<text x="592.31" y="404.78" style="font-family:'Helvetica';font-size:112.56px;fill:#000000" text-anchor="end">.001</text>
	<text x="214.55" y="1530.39" style="font-family:'Helvetica';font-size:112.56px;fill:#000000" transform="rotate(-90 214.55,1530.39)" text-anchor="middle">Effects on linear prediction</text>
	<line x1="659.81" y1="2766.66" x2="5286.60" y2="2766.66" style="stroke:#000000;stroke-width:6.48"/>
	<line x1="731.03" y1="2766.66" x2="731.03" y2="2811.54" style="stroke:#000000;stroke-width:6.48"/>
	<text x="731.03" y="2912.86" style="font-family:'Helvetica';font-size:112.56px;fill:#000000" text-anchor="middle">2.25</text>
	<line x1="2225.81" y1="2766.66" x2="2225.81" y2="2811.54" style="stroke:#000000;stroke-width:6.48"/>
	<text x="2225.81" y="2912.86" style="font-family:'Helvetica';font-size:112.56px;fill:#000000" text-anchor="middle">2.75</text>
	<line x1="3720.60" y1="2766.66" x2="3720.60" y2="2811.54" style="stroke:#000000;stroke-width:6.48"/>
	<text x="3720.60" y="2912.86" style="font-family:'Helvetica';font-size:112.56px;fill:#000000" text-anchor="middle">3.25</text>
	<line x1="5215.39" y1="2766.66" x2="5215.39" y2="2811.54" style="stroke:#000000;stroke-width:6.48"/>
	<text x="5215.39" y="2912.86" style="font-family:'Helvetica';font-size:112.56px;fill:#000000" text-anchor="middle">3.75</text>
	<text x="2973.21" y="3070.31" style="font-family:'Helvetica';font-size:112.56px;fill:#000000" text-anchor="middle">Gear ratio</text>
	<text x="2700.00" y="231.95" style="font-family:'Helvetica';font-size:141.75px;fill:#000000" text-anchor="middle">Average marginal effects of price with 95% CIs</text>
</svg>
