<?xml version="1.0" encoding="UTF-8" standalone="no"?>
<!-- This is a Stata 18.0 generated SVG file (http://www.stata.com) -->

<svg version="1.1" width="7.500in" height="4.500in" viewBox="0 0 5400 3240" xmlns="http://www.w3.org/2000/svg" xmlns:xlink="http://www.w3.org/1999/xlink">
	<desc>Stata Graph - Graph</desc>
	<rect x="0" y="0" width="5400" height="3240" style="fill:#FFFFFF;stroke:none"/>
	<rect x="0.00" y="0.00" width="5400.00" height="3240.00" style="fill:#FFFFFF"/>
	<rect x="3.24" y="3.24" width="5393.52" height="3233.52" style="fill:none;stroke:#FFFFFF;stroke-width:6.48"/>
	<rect x="748.41" y="113.40" width="4538.19" height="2833.14" style="fill:#FFFFFF"/>
	<rect x="751.65" y="116.64" width="4531.71" height="2826.66" style="fill:none;stroke:#FFFFFF;stroke-width:6.48"/>
	<line x1="748.41" y1="2013.86" x2="813.21" y2="2013.86" style="stroke:#F0F0F0;stroke-width:9.72"/>
	<line x1="845.61" y1="2013.86" x2="910.41" y2="2013.86" style="stroke:#F0F0F0;stroke-width:9.72"/>
	<line x1="942.81" y1="2013.86" x2="1007.61" y2="2013.86" style="stroke:#F0F0F0;stroke-width:9.72"/>
	<line x1="1040.01" y1="2013.86" x2="1104.81" y2="2013.86" style="stroke:#F0F0F0;stroke-width:9.72"/>
	<line x1="1137.21" y1="2013.86" x2="1202.01" y2="2013.86" style="stroke:#F0F0F0;stroke-width:9.72"/>
	<line x1="1234.41" y1="2013.86" x2="1299.21" y2="2013.86" style="stroke:#F0F0F0;stroke-width:9.72"/>
	<line x1="1331.61" y1="2013.86" x2="1396.41" y2="2013.86" style="stroke:#F0F0F0;stroke-width:9.72"/>
	<line x1="1428.81" y1="2013.86" x2="1493.61" y2="2013.86" style="stroke:#F0F0F0;stroke-width:9.72"/>
	<line x1="1526.01" y1="2013.86" x2="1590.81" y2="2013.86" style="stroke:#F0F0F0;stroke-width:9.72"/>
	<line x1="1623.21" y1="2013.86" x2="1688.01" y2="2013.86" style="stroke:#F0F0F0;stroke-width:9.72"/>
	<line x1="1720.41" y1="2013.86" x2="1785.21" y2="2013.86" style="stroke:#F0F0F0;stroke-width:9.72"/>
	<line x1="1817.61" y1="2013.86" x2="1882.41" y2="2013.86" style="stroke:#F0F0F0;stroke-width:9.72"/>
	<line x1="1914.81" y1="2013.86" x2="1979.61" y2="2013.86" style="stroke:#F0F0F0;stroke-width:9.72"/>
	<line x1="2012.01" y1="2013.86" x2="2076.81" y2="2013.86" style="stroke:#F0F0F0;stroke-width:9.72"/>
	<line x1="2109.21" y1="2013.86" x2="2174.01" y2="2013.86" style="stroke:#F0F0F0;stroke-width:9.72"/>
	<line x1="2206.41" y1="2013.86" x2="2271.21" y2="2013.86" style="stroke:#F0F0F0;stroke-width:9.72"/>
	<line x1="2303.61" y1="2013.86" x2="2368.41" y2="2013.86" style="stroke:#F0F0F0;stroke-width:9.72"/>
	<line x1="2400.81" y1="2013.86" x2="2465.61" y2="2013.86" style="stroke:#F0F0F0;stroke-width:9.72"/>
	<line x1="2498.01" y1="2013.86" x2="2562.81" y2="2013.86" style="stroke:#F0F0F0;stroke-width:9.72"/>
	<line x1="2595.21" y1="2013.86" x2="2660.01" y2="2013.86" style="stroke:#F0F0F0;stroke-width:9.72"/>
	<line x1="2692.41" y1="2013.86" x2="2757.21" y2="2013.86" style="stroke:#F0F0F0;stroke-width:9.72"/>
	<line x1="2789.61" y1="2013.86" x2="2854.41" y2="2013.86" style="stroke:#F0F0F0;stroke-width:9.72"/>
	<line x1="2886.81" y1="2013.86" x2="2951.61" y2="2013.86" style="stroke:#F0F0F0;stroke-width:9.72"/>
	<line x1="2984.01" y1="2013.86" x2="3048.81" y2="2013.86" style="stroke:#F0F0F0;stroke-width:9.72"/>
	<line x1="3081.21" y1="2013.86" x2="3146.01" y2="2013.86" style="stroke:#F0F0F0;stroke-width:9.72"/>
	<line x1="3178.41" y1="2013.86" x2="3243.21" y2="2013.86" style="stroke:#F0F0F0;stroke-width:9.72"/>
	<line x1="3275.61" y1="2013.86" x2="3340.41" y2="2013.86" style="stroke:#F0F0F0;stroke-width:9.72"/>
	<line x1="3372.81" y1="2013.86" x2="3437.61" y2="2013.86" style="stroke:#F0F0F0;stroke-width:9.72"/>
	<line x1="3470.01" y1="2013.86" x2="3534.81" y2="2013.86" style="stroke:#F0F0F0;stroke-width:9.72"/>
	<line x1="3567.21" y1="2013.86" x2="3632.01" y2="2013.86" style="stroke:#F0F0F0;stroke-width:9.72"/>
	<line x1="3664.41" y1="2013.86" x2="3729.21" y2="2013.86" style="stroke:#F0F0F0;stroke-width:9.72"/>
	<line x1="3761.61" y1="2013.86" x2="3826.41" y2="2013.86" style="stroke:#F0F0F0;stroke-width:9.72"/>
	<line x1="3858.81" y1="2013.86" x2="3923.61" y2="2013.86" style="stroke:#F0F0F0;stroke-width:9.72"/>
	<line x1="3956.01" y1="2013.86" x2="4020.81" y2="2013.86" style="stroke:#F0F0F0;stroke-width:9.72"/>
	<line x1="4053.21" y1="2013.86" x2="4118.01" y2="2013.86" style="stroke:#F0F0F0;stroke-width:9.72"/>
	<line x1="4150.41" y1="2013.86" x2="4215.21" y2="2013.86" style="stroke:#F0F0F0;stroke-width:9.72"/>
	<line x1="4247.61" y1="2013.86" x2="4312.41" y2="2013.86" style="stroke:#F0F0F0;stroke-width:9.72"/>
	<line x1="4344.81" y1="2013.86" x2="4409.61" y2="2013.86" style="stroke:#F0F0F0;stroke-width:9.72"/>
	<line x1="4442.01" y1="2013.86" x2="4506.81" y2="2013.86" style="stroke:#F0F0F0;stroke-width:9.72"/>
	<line x1="4539.21" y1="2013.86" x2="4604.01" y2="2013.86" style="stroke:#F0F0F0;stroke-width:9.72"/>
	<line x1="4636.41" y1="2013.86" x2="4701.21" y2="2013.86" style="stroke:#F0F0F0;stroke-width:9.72"/>
	<line x1="4733.61" y1="2013.86" x2="4798.41" y2="2013.86" style="stroke:#F0F0F0;stroke-width:9.72"/>
	<line x1="4830.81" y1="2013.86" x2="4895.61" y2="2013.86" style="stroke:#F0F0F0;stroke-width:9.72"/>
	<line x1="4928.01" y1="2013.86" x2="4992.81" y2="2013.86" style="stroke:#F0F0F0;stroke-width:9.72"/>
	<line x1="5025.21" y1="2013.86" x2="5090.01" y2="2013.86" style="stroke:#F0F0F0;stroke-width:9.72"/>
	<line x1="5122.41" y1="2013.86" x2="5187.21" y2="2013.86" style="stroke:#F0F0F0;stroke-width:9.72"/>
	<line x1="5219.61" y1="2013.86" x2="5284.41" y2="2013.86" style="stroke:#F0F0F0;stroke-width:9.72"/>
	<line x1="748.41" y1="1194.58" x2="813.21" y2="1194.58" style="stroke:#F0F0F0;stroke-width:9.72"/>
	<line x1="845.61" y1="1194.58" x2="910.41" y2="1194.58" style="stroke:#F0F0F0;stroke-width:9.72"/>
	<line x1="942.81" y1="1194.58" x2="1007.61" y2="1194.58" style="stroke:#F0F0F0;stroke-width:9.72"/>
	<line x1="1040.01" y1="1194.58" x2="1104.81" y2="1194.58" style="stroke:#F0F0F0;stroke-width:9.72"/>
	<line x1="1137.21" y1="1194.58" x2="1202.01" y2="1194.58" style="stroke:#F0F0F0;stroke-width:9.72"/>
	<line x1="1234.41" y1="1194.58" x2="1299.21" y2="1194.58" style="stroke:#F0F0F0;stroke-width:9.72"/>
	<line x1="1331.61" y1="1194.58" x2="1396.41" y2="1194.58" style="stroke:#F0F0F0;stroke-width:9.72"/>
	<line x1="1428.81" y1="1194.58" x2="1493.61" y2="1194.58" style="stroke:#F0F0F0;stroke-width:9.72"/>
	<line x1="1526.01" y1="1194.58" x2="1590.81" y2="1194.58" style="stroke:#F0F0F0;stroke-width:9.72"/>
	<line x1="1623.21" y1="1194.58" x2="1688.01" y2="1194.58" style="stroke:#F0F0F0;stroke-width:9.72"/>
	<line x1="1720.41" y1="1194.58" x2="1785.21" y2="1194.58" style="stroke:#F0F0F0;stroke-width:9.72"/>
	<line x1="1817.61" y1="1194.58" x2="1882.41" y2="1194.58" style="stroke:#F0F0F0;stroke-width:9.72"/>
	<line x1="1914.81" y1="1194.58" x2="1979.61" y2="1194.58" style="stroke:#F0F0F0;stroke-width:9.72"/>
	<line x1="2012.01" y1="1194.58" x2="2076.81" y2="1194.58" style="stroke:#F0F0F0;stroke-width:9.72"/>
	<line x1="2109.21" y1="1194.58" x2="2174.01" y2="1194.58" style="stroke:#F0F0F0;stroke-width:9.72"/>
	<line x1="2206.41" y1="1194.58" x2="2271.21" y2="1194.58" style="stroke:#F0F0F0;stroke-width:9.72"/>
	<line x1="2303.61" y1="1194.58" x2="2368.41" y2="1194.58" style="stroke:#F0F0F0;stroke-width:9.72"/>
	<line x1="2400.81" y1="1194.58" x2="2465.61" y2="1194.58" style="stroke:#F0F0F0;stroke-width:9.72"/>
	<line x1="2498.01" y1="1194.58" x2="2562.81" y2="1194.58" style="stroke:#F0F0F0;stroke-width:9.72"/>
	<line x1="2595.21" y1="1194.58" x2="2660.01" y2="1194.58" style="stroke:#F0F0F0;stroke-width:9.72"/>
	<line x1="2692.41" y1="1194.58" x2="2757.21" y2="1194.58" style="stroke:#F0F0F0;stroke-width:9.72"/>
	<line x1="2789.61" y1="1194.58" x2="2854.41" y2="1194.58" style="stroke:#F0F0F0;stroke-width:9.72"/>
	<line x1="2886.81" y1="1194.58" x2="2951.61" y2="1194.58" style="stroke:#F0F0F0;stroke-width:9.72"/>
	<line x1="2984.01" y1="1194.58" x2="3048.81" y2="1194.58" style="stroke:#F0F0F0;stroke-width:9.72"/>
	<line x1="3081.21" y1="1194.58" x2="3146.01" y2="1194.58" style="stroke:#F0F0F0;stroke-width:9.72"/>
	<line x1="3178.41" y1="1194.58" x2="3243.21" y2="1194.58" style="stroke:#F0F0F0;stroke-width:9.72"/>
	<line x1="3275.61" y1="1194.58" x2="3340.41" y2="1194.58" style="stroke:#F0F0F0;stroke-width:9.72"/>
	<line x1="3372.81" y1="1194.58" x2="3437.61" y2="1194.58" style="stroke:#F0F0F0;stroke-width:9.72"/>
	<line x1="3470.01" y1="1194.58" x2="3534.81" y2="1194.58" style="stroke:#F0F0F0;stroke-width:9.72"/>
	<line x1="3567.21" y1="1194.58" x2="3632.01" y2="1194.58" style="stroke:#F0F0F0;stroke-width:9.72"/>
	<line x1="3664.41" y1="1194.58" x2="3729.21" y2="1194.58" style="stroke:#F0F0F0;stroke-width:9.72"/>
	<line x1="3761.61" y1="1194.58" x2="3826.41" y2="1194.58" style="stroke:#F0F0F0;stroke-width:9.72"/>
	<line x1="3858.81" y1="1194.58" x2="3923.61" y2="1194.58" style="stroke:#F0F0F0;stroke-width:9.72"/>
	<line x1="3956.01" y1="1194.58" x2="4020.81" y2="1194.58" style="stroke:#F0F0F0;stroke-width:9.72"/>
	<line x1="4053.21" y1="1194.58" x2="4118.01" y2="1194.58" style="stroke:#F0F0F0;stroke-width:9.72"/>
	<line x1="4150.41" y1="1194.58" x2="4215.21" y2="1194.58" style="stroke:#F0F0F0;stroke-width:9.72"/>
	<line x1="4247.61" y1="1194.58" x2="4312.41" y2="1194.58" style="stroke:#F0F0F0;stroke-width:9.72"/>
	<line x1="4344.81" y1="1194.58" x2="4409.61" y2="1194.58" style="stroke:#F0F0F0;stroke-width:9.72"/>
	<line x1="4442.01" y1="1194.58" x2="4506.81" y2="1194.58" style="stroke:#F0F0F0;stroke-width:9.72"/>
	<line x1="4539.21" y1="1194.58" x2="4604.01" y2="1194.58" style="stroke:#F0F0F0;stroke-width:9.72"/>
	<line x1="4636.41" y1="1194.58" x2="4701.21" y2="1194.58" style="stroke:#F0F0F0;stroke-width:9.72"/>
	<line x1="4733.61" y1="1194.58" x2="4798.41" y2="1194.58" style="stroke:#F0F0F0;stroke-width:9.72"/>
	<line x1="4830.81" y1="1194.58" x2="4895.61" y2="1194.58" style="stroke:#F0F0F0;stroke-width:9.72"/>
	<line x1="4928.01" y1="1194.58" x2="4992.81" y2="1194.58" style="stroke:#F0F0F0;stroke-width:9.72"/>
	<line x1="5025.21" y1="1194.58" x2="5090.01" y2="1194.58" style="stroke:#F0F0F0;stroke-width:9.72"/>
	<line x1="5122.41" y1="1194.58" x2="5187.21" y2="1194.58" style="stroke:#F0F0F0;stroke-width:9.72"/>
	<line x1="5219.61" y1="1194.58" x2="5284.41" y2="1194.58" style="stroke:#F0F0F0;stroke-width:9.72"/>
	<line x1="748.41" y1="375.30" x2="813.21" y2="375.30" style="stroke:#F0F0F0;stroke-width:9.72"/>
	<line x1="845.61" y1="375.30" x2="910.41" y2="375.30" style="stroke:#F0F0F0;stroke-width:9.72"/>
	<line x1="942.81" y1="375.30" x2="1007.61" y2="375.30" style="stroke:#F0F0F0;stroke-width:9.72"/>
	<line x1="1040.01" y1="375.30" x2="1104.81" y2="375.30" style="stroke:#F0F0F0;stroke-width:9.72"/>
	<line x1="1137.21" y1="375.30" x2="1202.01" y2="375.30" style="stroke:#F0F0F0;stroke-width:9.72"/>
	<line x1="1234.41" y1="375.30" x2="1299.21" y2="375.30" style="stroke:#F0F0F0;stroke-width:9.72"/>
	<line x1="1331.61" y1="375.30" x2="1396.41" y2="375.30" style="stroke:#F0F0F0;stroke-width:9.72"/>
	<line x1="1428.81" y1="375.30" x2="1493.61" y2="375.30" style="stroke:#F0F0F0;stroke-width:9.72"/>
	<line x1="1526.01" y1="375.30" x2="1590.81" y2="375.30" style="stroke:#F0F0F0;stroke-width:9.72"/>
	<line x1="1623.21" y1="375.30" x2="1688.01" y2="375.30" style="stroke:#F0F0F0;stroke-width:9.72"/>
	<line x1="1720.41" y1="375.30" x2="1785.21" y2="375.30" style="stroke:#F0F0F0;stroke-width:9.72"/>
	<line x1="1817.61" y1="375.30" x2="1882.41" y2="375.30" style="stroke:#F0F0F0;stroke-width:9.72"/>
	<line x1="1914.81" y1="375.30" x2="1979.61" y2="375.30" style="stroke:#F0F0F0;stroke-width:9.72"/>
	<line x1="2012.01" y1="375.30" x2="2076.81" y2="375.30" style="stroke:#F0F0F0;stroke-width:9.72"/>
	<line x1="2109.21" y1="375.30" x2="2174.01" y2="375.30" style="stroke:#F0F0F0;stroke-width:9.72"/>
	<line x1="2206.41" y1="375.30" x2="2271.21" y2="375.30" style="stroke:#F0F0F0;stroke-width:9.72"/>
	<line x1="2303.61" y1="375.30" x2="2368.41" y2="375.30" style="stroke:#F0F0F0;stroke-width:9.72"/>
	<line x1="2400.81" y1="375.30" x2="2465.61" y2="375.30" style="stroke:#F0F0F0;stroke-width:9.72"/>
	<line x1="2498.01" y1="375.30" x2="2562.81" y2="375.30" style="stroke:#F0F0F0;stroke-width:9.72"/>
	<line x1="2595.21" y1="375.30" x2="2660.01" y2="375.30" style="stroke:#F0F0F0;stroke-width:9.72"/>
	<line x1="2692.41" y1="375.30" x2="2757.21" y2="375.30" style="stroke:#F0F0F0;stroke-width:9.72"/>
	<line x1="2789.61" y1="375.30" x2="2854.41" y2="375.30" style="stroke:#F0F0F0;stroke-width:9.72"/>
	<line x1="2886.81" y1="375.30" x2="2951.61" y2="375.30" style="stroke:#F0F0F0;stroke-width:9.72"/>
	<line x1="2984.01" y1="375.30" x2="3048.81" y2="375.30" style="stroke:#F0F0F0;stroke-width:9.72"/>
	<line x1="3081.21" y1="375.30" x2="3146.01" y2="375.30" style="stroke:#F0F0F0;stroke-width:9.72"/>
	<line x1="3178.41" y1="375.30" x2="3243.21" y2="375.30" style="stroke:#F0F0F0;stroke-width:9.72"/>
	<line x1="3275.61" y1="375.30" x2="3340.41" y2="375.30" style="stroke:#F0F0F0;stroke-width:9.72"/>
	<line x1="3372.81" y1="375.30" x2="3437.61" y2="375.30" style="stroke:#F0F0F0;stroke-width:9.72"/>
	<line x1="3470.01" y1="375.30" x2="3534.81" y2="375.30" style="stroke:#F0F0F0;stroke-width:9.72"/>
	<line x1="3567.21" y1="375.30" x2="3632.01" y2="375.30" style="stroke:#F0F0F0;stroke-width:9.72"/>
	<line x1="3664.41" y1="375.30" x2="3729.21" y2="375.30" style="stroke:#F0F0F0;stroke-width:9.72"/>
	<line x1="3761.61" y1="375.30" x2="3826.41" y2="375.30" style="stroke:#F0F0F0;stroke-width:9.72"/>
	<line x1="3858.81" y1="375.30" x2="3923.61" y2="375.30" style="stroke:#F0F0F0;stroke-width:9.72"/>
	<line x1="3956.01" y1="375.30" x2="4020.81" y2="375.30" style="stroke:#F0F0F0;stroke-width:9.72"/>
	<line x1="4053.21" y1="375.30" x2="4118.01" y2="375.30" style="stroke:#F0F0F0;stroke-width:9.72"/>
	<line x1="4150.41" y1="375.30" x2="4215.21" y2="375.30" style="stroke:#F0F0F0;stroke-width:9.72"/>
	<line x1="4247.61" y1="375.30" x2="4312.41" y2="375.30" style="stroke:#F0F0F0;stroke-width:9.72"/>
	<line x1="4344.81" y1="375.30" x2="4409.61" y2="375.30" style="stroke:#F0F0F0;stroke-width:9.72"/>
	<line x1="4442.01" y1="375.30" x2="4506.81" y2="375.30" style="stroke:#F0F0F0;stroke-width:9.72"/>
	<line x1="4539.21" y1="375.30" x2="4604.01" y2="375.30" style="stroke:#F0F0F0;stroke-width:9.72"/>
	<line x1="4636.41" y1="375.30" x2="4701.21" y2="375.30" style="stroke:#F0F0F0;stroke-width:9.72"/>
	<line x1="4733.61" y1="375.30" x2="4798.41" y2="375.30" style="stroke:#F0F0F0;stroke-width:9.72"/>
	<line x1="4830.81" y1="375.30" x2="4895.61" y2="375.30" style="stroke:#F0F0F0;stroke-width:9.72"/>
	<line x1="4928.01" y1="375.30" x2="4992.81" y2="375.30" style="stroke:#F0F0F0;stroke-width:9.72"/>
	<line x1="5025.21" y1="375.30" x2="5090.01" y2="375.30" style="stroke:#F0F0F0;stroke-width:9.72"/>
	<line x1="5122.41" y1="375.30" x2="5187.21" y2="375.30" style="stroke:#F0F0F0;stroke-width:9.72"/>
	<line x1="5219.61" y1="375.30" x2="5284.41" y2="375.30" style="stroke:#F0F0F0;stroke-width:9.72"/>
	<rect x="953.44" y="2024.66" width="458.66" height="121.16" style="fill:#8DC2FF"/>
	<rect x="958.30" y="2029.52" width="448.94" height="111.44" style="fill:none;stroke:#1A85FF;stroke-width:9.72"/>
	<line x1="953.44" y1="2085.24" x2="1412.10" y2="2085.24" style="stroke:#1A85FF;stroke-width:9.72"/>
	<rect x="1870.76" y="1831.28" width="458.66" height="340.71" style="fill:#8DC2FF"/>
	<rect x="1875.62" y="1836.14" width="448.94" height="330.99" style="fill:none;stroke:#1A85FF;stroke-width:9.72"/>
	<line x1="1870.76" y1="2073.26" x2="2329.43" y2="2073.26" style="stroke:#1A85FF;stroke-width:9.72"/>
	<line x1="2100.09" y1="2171.98" x2="2100.09" y2="2232.39" style="stroke:#1A85FF;stroke-width:9.72"/>
	<line x1="2100.09" y1="1831.28" x2="2100.09" y2="1793.98" style="stroke:#1A85FF;stroke-width:9.72"/>
	<line x1="1946.53" y1="2232.39" x2="2253.82" y2="2232.39" style="stroke:#1A85FF;stroke-width:9.72"/>
	<line x1="1946.53" y1="1793.98" x2="2253.82" y2="1793.98" style="stroke:#1A85FF;stroke-width:9.72"/>
	<rect x="2788.09" y="1801.74" width="458.66" height="345.43" style="fill:#8DC2FF"/>
	<rect x="2792.95" y="1806.60" width="448.94" height="335.71" style="fill:none;stroke:#1A85FF;stroke-width:9.72"/>
	<line x1="2788.09" y1="2056.39" x2="3246.75" y2="2056.39" style="stroke:#1A85FF;stroke-width:9.72"/>
	<line x1="3017.42" y1="2147.18" x2="3017.42" y2="2293.99" style="stroke:#1A85FF;stroke-width:9.72"/>
	<line x1="2863.86" y1="2293.99" x2="3171.15" y2="2293.99" style="stroke:#1A85FF;stroke-width:9.72"/>
	<rect x="3705.41" y="1663.20" width="458.66" height="400.27" style="fill:#8DC2FF"/>
	<rect x="3710.27" y="1668.06" width="448.94" height="390.55" style="fill:none;stroke:#1A85FF;stroke-width:9.72"/>
	<line x1="3705.41" y1="1890.68" x2="4164.08" y2="1890.68" style="stroke:#1A85FF;stroke-width:9.72"/>
	<line x1="3934.74" y1="2063.48" x2="3934.74" y2="2205.73" style="stroke:#1A85FF;stroke-width:9.72"/>
	<line x1="3934.74" y1="1663.20" x2="3934.74" y2="1237.95" style="stroke:#1A85FF;stroke-width:9.72"/>
	<line x1="3781.18" y1="2205.73" x2="4088.48" y2="2205.73" style="stroke:#1A85FF;stroke-width:9.72"/>
	<line x1="3781.18" y1="1237.95" x2="4088.48" y2="1237.95" style="stroke:#1A85FF;stroke-width:9.72"/>
	<rect x="4622.74" y="1866.54" width="458.66" height="313.87" style="fill:#8DC2FF"/>
	<rect x="4627.60" y="1871.40" width="448.94" height="304.15" style="fill:none;stroke:#1A85FF;stroke-width:9.72"/>
	<line x1="4622.74" y1="1948.89" x2="5081.40" y2="1948.89" style="stroke:#1A85FF;stroke-width:9.72"/>
	<line x1="4852.07" y1="2180.42" x2="4852.07" y2="2219.06" style="stroke:#1A85FF;stroke-width:9.72"/>
	<line x1="4698.51" y1="2219.06" x2="5005.80" y2="2219.06" style="stroke:#1A85FF;stroke-width:9.72"/>
	<circle cx="2100.09" cy="457.14" r="21.74" style="fill:#1A85FF"/>
	<circle cx="2100.09" cy="457.14" r="16.88" style="fill:none;stroke:#1A85FF;stroke-width:9.72"/>
	<circle cx="3017.42" cy="1133.83" r="21.74" style="fill:#1A85FF"/>
	<circle cx="3017.42" cy="1133.83" r="16.88" style="fill:none;stroke:#1A85FF;stroke-width:9.72"/>
	<circle cx="3017.42" cy="1133.66" r="21.74" style="fill:#1A85FF"/>
	<circle cx="3017.42" cy="1133.66" r="16.88" style="fill:none;stroke:#1A85FF;stroke-width:9.72"/>
	<circle cx="3017.42" cy="967.61" r="21.74" style="fill:#1A85FF"/>
	<circle cx="3017.42" cy="967.61" r="16.88" style="fill:none;stroke:#1A85FF;stroke-width:9.72"/>
	<circle cx="3017.42" cy="949.22" r="21.74" style="fill:#1A85FF"/>
	<circle cx="3017.42" cy="949.22" r="16.88" style="fill:none;stroke:#1A85FF;stroke-width:9.72"/>
	<circle cx="3017.42" cy="626.57" r="21.74" style="fill:#1A85FF"/>
	<circle cx="3017.42" cy="626.57" r="16.88" style="fill:none;stroke:#1A85FF;stroke-width:9.72"/>
	<circle cx="3017.42" cy="605.64" r="21.74" style="fill:#1A85FF"/>
	<circle cx="3017.42" cy="605.64" r="16.88" style="fill:none;stroke:#1A85FF;stroke-width:9.72"/>
	<circle cx="3017.42" cy="226.80" r="21.74" style="fill:#1A85FF"/>
	<circle cx="3017.42" cy="226.80" r="16.88" style="fill:none;stroke:#1A85FF;stroke-width:9.72"/>
	<circle cx="4852.07" cy="1245.38" r="21.74" style="fill:#1A85FF"/>
	<circle cx="4852.07" cy="1245.38" r="16.88" style="fill:none;stroke:#1A85FF;stroke-width:9.72"/>
	<circle cx="4852.07" cy="867.71" r="21.74" style="fill:#1A85FF"/>
	<circle cx="4852.07" cy="867.71" r="16.88" style="fill:none;stroke:#1A85FF;stroke-width:9.72"/>
	<line x1="748.41" y1="2946.54" x2="748.41" y2="113.40" style="stroke:#000000;stroke-width:6.48"/>
	<line x1="748.41" y1="2833.14" x2="703.35" y2="2833.14" style="stroke:#000000;stroke-width:6.48"/>
	<text x="680.91" y="2872.58" style="font-family:'Helvetica';font-size:112.56px;fill:#000000" text-anchor="end">0</text>
	<line x1="748.41" y1="2013.86" x2="703.35" y2="2013.86" style="stroke:#000000;stroke-width:6.48"/>
	<text x="680.91" y="2053.30" style="font-family:'Helvetica';font-size:112.56px;fill:#000000" text-anchor="end">5,000</text>
	<line x1="748.41" y1="1194.58" x2="703.35" y2="1194.58" style="stroke:#000000;stroke-width:6.48"/>
	<text x="680.91" y="1234.02" style="font-family:'Helvetica';font-size:112.56px;fill:#000000" text-anchor="end">10,000</text>
	<line x1="748.41" y1="375.30" x2="703.35" y2="375.30" style="stroke:#000000;stroke-width:6.48"/>
	<text x="680.91" y="414.74" style="font-family:'Helvetica';font-size:112.56px;fill:#000000" text-anchor="end">15,000</text>
	<text x="214.55" y="1530.06" style="font-family:'Helvetica';font-size:112.56px;fill:#000000" transform="rotate(-90 214.55,1530.06)" text-anchor="middle">Price</text>
	<line x1="748.41" y1="2946.54" x2="5286.60" y2="2946.54" style="stroke:#000000;stroke-width:6.48"/>
	<text x="1182.77" y="3070.31" style="font-family:'Helvetica';font-size:112.56px;fill:#000000" text-anchor="middle">1</text>
	<text x="2100.09" y="3070.31" style="font-family:'Helvetica';font-size:112.56px;fill:#000000" text-anchor="middle">2</text>
	<text x="3017.42" y="3070.31" style="font-family:'Helvetica';font-size:112.56px;fill:#000000" text-anchor="middle">3</text>
	<text x="3934.74" y="3070.31" style="font-family:'Helvetica';font-size:112.56px;fill:#000000" text-anchor="middle">4</text>
	<text x="4852.07" y="3070.31" style="font-family:'Helvetica';font-size:112.56px;fill:#000000" text-anchor="middle">5</text>
</svg>
