<?xml version="1.0" encoding="UTF-8" standalone="no"?>
<!-- This is a Stata 18.0 generated SVG file (http://www.stata.com) -->

<svg version="1.1" width="7.500in" height="4.500in" viewBox="0 0 5400 3240" xmlns="http://www.w3.org/2000/svg" xmlns:xlink="http://www.w3.org/1999/xlink">
	<desc>Stata Graph - Graph</desc>
	<rect x="0" y="0" width="5400" height="3240" style="fill:#FFFFFF;stroke:none"/>
	<rect x="0.00" y="0.00" width="5400.00" height="3240.00" style="fill:#FFFFFF"/>
	<rect x="3.24" y="3.24" width="5393.52" height="3233.52" style="fill:none;stroke:#FFFFFF;stroke-width:6.48"/>
	<rect x="522.79" y="309.82" width="4763.81" height="2456.83" style="fill:#FFFFFF"/>
	<rect x="526.03" y="313.06" width="4757.33" height="2450.35" style="fill:none;stroke:#FFFFFF;stroke-width:6.48"/>
	<line x1="522.79" y1="2455.99" x2="587.59" y2="2455.99" style="stroke:#F0F0F0;stroke-width:9.72"/>
	<line x1="619.99" y1="2455.99" x2="684.79" y2="2455.99" style="stroke:#F0F0F0;stroke-width:9.72"/>
	<line x1="717.19" y1="2455.99" x2="781.99" y2="2455.99" style="stroke:#F0F0F0;stroke-width:9.72"/>
	<line x1="814.39" y1="2455.99" x2="879.19" y2="2455.99" style="stroke:#F0F0F0;stroke-width:9.72"/>
	<line x1="911.59" y1="2455.99" x2="976.39" y2="2455.99" style="stroke:#F0F0F0;stroke-width:9.72"/>
	<line x1="1008.79" y1="2455.99" x2="1073.59" y2="2455.99" style="stroke:#F0F0F0;stroke-width:9.72"/>
	<line x1="1105.99" y1="2455.99" x2="1170.79" y2="2455.99" style="stroke:#F0F0F0;stroke-width:9.72"/>
	<line x1="1203.19" y1="2455.99" x2="1267.99" y2="2455.99" style="stroke:#F0F0F0;stroke-width:9.72"/>
	<line x1="1300.39" y1="2455.99" x2="1365.19" y2="2455.99" style="stroke:#F0F0F0;stroke-width:9.72"/>
	<line x1="1397.59" y1="2455.99" x2="1462.39" y2="2455.99" style="stroke:#F0F0F0;stroke-width:9.72"/>
	<line x1="1494.79" y1="2455.99" x2="1559.59" y2="2455.99" style="stroke:#F0F0F0;stroke-width:9.72"/>
	<line x1="1591.99" y1="2455.99" x2="1656.79" y2="2455.99" style="stroke:#F0F0F0;stroke-width:9.72"/>
	<line x1="1689.19" y1="2455.99" x2="1753.99" y2="2455.99" style="stroke:#F0F0F0;stroke-width:9.72"/>
	<line x1="1786.39" y1="2455.99" x2="1851.19" y2="2455.99" style="stroke:#F0F0F0;stroke-width:9.72"/>
	<line x1="1883.59" y1="2455.99" x2="1948.39" y2="2455.99" style="stroke:#F0F0F0;stroke-width:9.72"/>
	<line x1="1980.79" y1="2455.99" x2="2045.59" y2="2455.99" style="stroke:#F0F0F0;stroke-width:9.72"/>
	<line x1="2077.99" y1="2455.99" x2="2142.79" y2="2455.99" style="stroke:#F0F0F0;stroke-width:9.72"/>
	<line x1="2175.19" y1="2455.99" x2="2239.99" y2="2455.99" style="stroke:#F0F0F0;stroke-width:9.72"/>
	<line x1="2272.39" y1="2455.99" x2="2337.19" y2="2455.99" style="stroke:#F0F0F0;stroke-width:9.72"/>
	<line x1="2369.59" y1="2455.99" x2="2434.39" y2="2455.99" style="stroke:#F0F0F0;stroke-width:9.72"/>
	<line x1="2466.79" y1="2455.99" x2="2531.59" y2="2455.99" style="stroke:#F0F0F0;stroke-width:9.72"/>
	<line x1="2563.99" y1="2455.99" x2="2628.79" y2="2455.99" style="stroke:#F0F0F0;stroke-width:9.72"/>
	<line x1="2661.19" y1="2455.99" x2="2725.99" y2="2455.99" style="stroke:#F0F0F0;stroke-width:9.72"/>
	<line x1="2758.39" y1="2455.99" x2="2823.19" y2="2455.99" style="stroke:#F0F0F0;stroke-width:9.72"/>
	<line x1="2855.59" y1="2455.99" x2="2920.39" y2="2455.99" style="stroke:#F0F0F0;stroke-width:9.72"/>
	<line x1="2952.79" y1="2455.99" x2="3017.59" y2="2455.99" style="stroke:#F0F0F0;stroke-width:9.72"/>
	<line x1="3049.99" y1="2455.99" x2="3114.79" y2="2455.99" style="stroke:#F0F0F0;stroke-width:9.72"/>
	<line x1="3147.19" y1="2455.99" x2="3211.99" y2="2455.99" style="stroke:#F0F0F0;stroke-width:9.72"/>
	<line x1="3244.39" y1="2455.99" x2="3309.19" y2="2455.99" style="stroke:#F0F0F0;stroke-width:9.72"/>
	<line x1="3341.59" y1="2455.99" x2="3406.39" y2="2455.99" style="stroke:#F0F0F0;stroke-width:9.72"/>
	<line x1="3438.79" y1="2455.99" x2="3503.59" y2="2455.99" style="stroke:#F0F0F0;stroke-width:9.72"/>
	<line x1="3535.99" y1="2455.99" x2="3600.79" y2="2455.99" style="stroke:#F0F0F0;stroke-width:9.72"/>
	<line x1="3633.19" y1="2455.99" x2="3697.99" y2="2455.99" style="stroke:#F0F0F0;stroke-width:9.72"/>
	<line x1="3730.39" y1="2455.99" x2="3795.19" y2="2455.99" style="stroke:#F0F0F0;stroke-width:9.72"/>
	<line x1="3827.59" y1="2455.99" x2="3892.39" y2="2455.99" style="stroke:#F0F0F0;stroke-width:9.72"/>
	<line x1="3924.79" y1="2455.99" x2="3989.59" y2="2455.99" style="stroke:#F0F0F0;stroke-width:9.72"/>
	<line x1="4021.99" y1="2455.99" x2="4086.79" y2="2455.99" style="stroke:#F0F0F0;stroke-width:9.72"/>
	<line x1="4119.19" y1="2455.99" x2="4183.99" y2="2455.99" style="stroke:#F0F0F0;stroke-width:9.72"/>
	<line x1="4216.39" y1="2455.99" x2="4281.19" y2="2455.99" style="stroke:#F0F0F0;stroke-width:9.72"/>
	<line x1="4313.59" y1="2455.99" x2="4378.39" y2="2455.99" style="stroke:#F0F0F0;stroke-width:9.72"/>
	<line x1="4410.79" y1="2455.99" x2="4475.59" y2="2455.99" style="stroke:#F0F0F0;stroke-width:9.72"/>
	<line x1="4507.99" y1="2455.99" x2="4572.79" y2="2455.99" style="stroke:#F0F0F0;stroke-width:9.72"/>
	<line x1="4605.19" y1="2455.99" x2="4669.99" y2="2455.99" style="stroke:#F0F0F0;stroke-width:9.72"/>
	<line x1="4702.39" y1="2455.99" x2="4767.19" y2="2455.99" style="stroke:#F0F0F0;stroke-width:9.72"/>
	<line x1="4799.59" y1="2455.99" x2="4864.39" y2="2455.99" style="stroke:#F0F0F0;stroke-width:9.72"/>
	<line x1="4896.79" y1="2455.99" x2="4961.59" y2="2455.99" style="stroke:#F0F0F0;stroke-width:9.72"/>
	<line x1="4993.99" y1="2455.99" x2="5058.79" y2="2455.99" style="stroke:#F0F0F0;stroke-width:9.72"/>
	<line x1="5091.19" y1="2455.99" x2="5155.99" y2="2455.99" style="stroke:#F0F0F0;stroke-width:9.72"/>
	<line x1="5188.39" y1="2455.99" x2="5253.19" y2="2455.99" style="stroke:#F0F0F0;stroke-width:9.72"/>
	<line x1="5285.59" y1="2455.99" x2="5286.60" y2="2455.99" style="stroke:#F0F0F0;stroke-width:9.72"/>
	<line x1="522.79" y1="1657.97" x2="587.59" y2="1657.97" style="stroke:#F0F0F0;stroke-width:9.72"/>
	<line x1="619.99" y1="1657.97" x2="684.79" y2="1657.97" style="stroke:#F0F0F0;stroke-width:9.72"/>
	<line x1="717.19" y1="1657.97" x2="781.99" y2="1657.97" style="stroke:#F0F0F0;stroke-width:9.72"/>
	<line x1="814.39" y1="1657.97" x2="879.19" y2="1657.97" style="stroke:#F0F0F0;stroke-width:9.72"/>
	<line x1="911.59" y1="1657.97" x2="976.39" y2="1657.97" style="stroke:#F0F0F0;stroke-width:9.72"/>
	<line x1="1008.79" y1="1657.97" x2="1073.59" y2="1657.97" style="stroke:#F0F0F0;stroke-width:9.72"/>
	<line x1="1105.99" y1="1657.97" x2="1170.79" y2="1657.97" style="stroke:#F0F0F0;stroke-width:9.72"/>
	<line x1="1203.19" y1="1657.97" x2="1267.99" y2="1657.97" style="stroke:#F0F0F0;stroke-width:9.72"/>
	<line x1="1300.39" y1="1657.97" x2="1365.19" y2="1657.97" style="stroke:#F0F0F0;stroke-width:9.72"/>
	<line x1="1397.59" y1="1657.97" x2="1462.39" y2="1657.97" style="stroke:#F0F0F0;stroke-width:9.72"/>
	<line x1="1494.79" y1="1657.97" x2="1559.59" y2="1657.97" style="stroke:#F0F0F0;stroke-width:9.72"/>
	<line x1="1591.99" y1="1657.97" x2="1656.79" y2="1657.97" style="stroke:#F0F0F0;stroke-width:9.72"/>
	<line x1="1689.19" y1="1657.97" x2="1753.99" y2="1657.97" style="stroke:#F0F0F0;stroke-width:9.72"/>
	<line x1="1786.39" y1="1657.97" x2="1851.19" y2="1657.97" style="stroke:#F0F0F0;stroke-width:9.72"/>
	<line x1="1883.59" y1="1657.97" x2="1948.39" y2="1657.97" style="stroke:#F0F0F0;stroke-width:9.72"/>
	<line x1="1980.79" y1="1657.97" x2="2045.59" y2="1657.97" style="stroke:#F0F0F0;stroke-width:9.72"/>
	<line x1="2077.99" y1="1657.97" x2="2142.79" y2="1657.97" style="stroke:#F0F0F0;stroke-width:9.72"/>
	<line x1="2175.19" y1="1657.97" x2="2239.99" y2="1657.97" style="stroke:#F0F0F0;stroke-width:9.72"/>
	<line x1="2272.39" y1="1657.97" x2="2337.19" y2="1657.97" style="stroke:#F0F0F0;stroke-width:9.72"/>
	<line x1="2369.59" y1="1657.97" x2="2434.39" y2="1657.97" style="stroke:#F0F0F0;stroke-width:9.72"/>
	<line x1="2466.79" y1="1657.97" x2="2531.59" y2="1657.97" style="stroke:#F0F0F0;stroke-width:9.72"/>
	<line x1="2563.99" y1="1657.97" x2="2628.79" y2="1657.97" style="stroke:#F0F0F0;stroke-width:9.72"/>
	<line x1="2661.19" y1="1657.97" x2="2725.99" y2="1657.97" style="stroke:#F0F0F0;stroke-width:9.72"/>
	<line x1="2758.39" y1="1657.97" x2="2823.19" y2="1657.97" style="stroke:#F0F0F0;stroke-width:9.72"/>
	<line x1="2855.59" y1="1657.97" x2="2920.39" y2="1657.97" style="stroke:#F0F0F0;stroke-width:9.72"/>
	<line x1="2952.79" y1="1657.97" x2="3017.59" y2="1657.97" style="stroke:#F0F0F0;stroke-width:9.72"/>
	<line x1="3049.99" y1="1657.97" x2="3114.79" y2="1657.97" style="stroke:#F0F0F0;stroke-width:9.72"/>
	<line x1="3147.19" y1="1657.97" x2="3211.99" y2="1657.97" style="stroke:#F0F0F0;stroke-width:9.72"/>
	<line x1="3244.39" y1="1657.97" x2="3309.19" y2="1657.97" style="stroke:#F0F0F0;stroke-width:9.72"/>
	<line x1="3341.59" y1="1657.97" x2="3406.39" y2="1657.97" style="stroke:#F0F0F0;stroke-width:9.72"/>
	<line x1="3438.79" y1="1657.97" x2="3503.59" y2="1657.97" style="stroke:#F0F0F0;stroke-width:9.72"/>
	<line x1="3535.99" y1="1657.97" x2="3600.79" y2="1657.97" style="stroke:#F0F0F0;stroke-width:9.72"/>
	<line x1="3633.19" y1="1657.97" x2="3697.99" y2="1657.97" style="stroke:#F0F0F0;stroke-width:9.72"/>
	<line x1="3730.39" y1="1657.97" x2="3795.19" y2="1657.97" style="stroke:#F0F0F0;stroke-width:9.72"/>
	<line x1="3827.59" y1="1657.97" x2="3892.39" y2="1657.97" style="stroke:#F0F0F0;stroke-width:9.72"/>
	<line x1="3924.79" y1="1657.97" x2="3989.59" y2="1657.97" style="stroke:#F0F0F0;stroke-width:9.72"/>
	<line x1="4021.99" y1="1657.97" x2="4086.79" y2="1657.97" style="stroke:#F0F0F0;stroke-width:9.72"/>
	<line x1="4119.19" y1="1657.97" x2="4183.99" y2="1657.97" style="stroke:#F0F0F0;stroke-width:9.72"/>
	<line x1="4216.39" y1="1657.97" x2="4281.19" y2="1657.97" style="stroke:#F0F0F0;stroke-width:9.72"/>
	<line x1="4313.59" y1="1657.97" x2="4378.39" y2="1657.97" style="stroke:#F0F0F0;stroke-width:9.72"/>
	<line x1="4410.79" y1="1657.97" x2="4475.59" y2="1657.97" style="stroke:#F0F0F0;stroke-width:9.72"/>
	<line x1="4507.99" y1="1657.97" x2="4572.79" y2="1657.97" style="stroke:#F0F0F0;stroke-width:9.72"/>
	<line x1="4605.19" y1="1657.97" x2="4669.99" y2="1657.97" style="stroke:#F0F0F0;stroke-width:9.72"/>
	<line x1="4702.39" y1="1657.97" x2="4767.19" y2="1657.97" style="stroke:#F0F0F0;stroke-width:9.72"/>
	<line x1="4799.59" y1="1657.97" x2="4864.39" y2="1657.97" style="stroke:#F0F0F0;stroke-width:9.72"/>
	<line x1="4896.79" y1="1657.97" x2="4961.59" y2="1657.97" style="stroke:#F0F0F0;stroke-width:9.72"/>
	<line x1="4993.99" y1="1657.97" x2="5058.79" y2="1657.97" style="stroke:#F0F0F0;stroke-width:9.72"/>
	<line x1="5091.19" y1="1657.97" x2="5155.99" y2="1657.97" style="stroke:#F0F0F0;stroke-width:9.72"/>
	<line x1="5188.39" y1="1657.97" x2="5253.19" y2="1657.97" style="stroke:#F0F0F0;stroke-width:9.72"/>
	<line x1="5285.59" y1="1657.97" x2="5286.60" y2="1657.97" style="stroke:#F0F0F0;stroke-width:9.72"/>
	<line x1="522.79" y1="859.95" x2="587.59" y2="859.95" style="stroke:#F0F0F0;stroke-width:9.72"/>
	<line x1="619.99" y1="859.95" x2="684.79" y2="859.95" style="stroke:#F0F0F0;stroke-width:9.72"/>
	<line x1="717.19" y1="859.95" x2="781.99" y2="859.95" style="stroke:#F0F0F0;stroke-width:9.72"/>
	<line x1="814.39" y1="859.95" x2="879.19" y2="859.95" style="stroke:#F0F0F0;stroke-width:9.72"/>
	<line x1="911.59" y1="859.95" x2="976.39" y2="859.95" style="stroke:#F0F0F0;stroke-width:9.72"/>
	<line x1="1008.79" y1="859.95" x2="1073.59" y2="859.95" style="stroke:#F0F0F0;stroke-width:9.72"/>
	<line x1="1105.99" y1="859.95" x2="1170.79" y2="859.95" style="stroke:#F0F0F0;stroke-width:9.72"/>
	<line x1="1203.19" y1="859.95" x2="1267.99" y2="859.95" style="stroke:#F0F0F0;stroke-width:9.72"/>
	<line x1="1300.39" y1="859.95" x2="1365.19" y2="859.95" style="stroke:#F0F0F0;stroke-width:9.72"/>
	<line x1="1397.59" y1="859.95" x2="1462.39" y2="859.95" style="stroke:#F0F0F0;stroke-width:9.72"/>
	<line x1="1494.79" y1="859.95" x2="1559.59" y2="859.95" style="stroke:#F0F0F0;stroke-width:9.72"/>
	<line x1="1591.99" y1="859.95" x2="1656.79" y2="859.95" style="stroke:#F0F0F0;stroke-width:9.72"/>
	<line x1="1689.19" y1="859.95" x2="1753.99" y2="859.95" style="stroke:#F0F0F0;stroke-width:9.72"/>
	<line x1="1786.39" y1="859.95" x2="1851.19" y2="859.95" style="stroke:#F0F0F0;stroke-width:9.72"/>
	<line x1="1883.59" y1="859.95" x2="1948.39" y2="859.95" style="stroke:#F0F0F0;stroke-width:9.72"/>
	<line x1="1980.79" y1="859.95" x2="2045.59" y2="859.95" style="stroke:#F0F0F0;stroke-width:9.72"/>
	<line x1="2077.99" y1="859.95" x2="2142.79" y2="859.95" style="stroke:#F0F0F0;stroke-width:9.72"/>
	<line x1="2175.19" y1="859.95" x2="2239.99" y2="859.95" style="stroke:#F0F0F0;stroke-width:9.72"/>
	<line x1="2272.39" y1="859.95" x2="2337.19" y2="859.95" style="stroke:#F0F0F0;stroke-width:9.72"/>
	<line x1="2369.59" y1="859.95" x2="2434.39" y2="859.95" style="stroke:#F0F0F0;stroke-width:9.72"/>
	<line x1="2466.79" y1="859.95" x2="2531.59" y2="859.95" style="stroke:#F0F0F0;stroke-width:9.72"/>
	<line x1="2563.99" y1="859.95" x2="2628.79" y2="859.95" style="stroke:#F0F0F0;stroke-width:9.72"/>
	<line x1="2661.19" y1="859.95" x2="2725.99" y2="859.95" style="stroke:#F0F0F0;stroke-width:9.72"/>
	<line x1="2758.39" y1="859.95" x2="2823.19" y2="859.95" style="stroke:#F0F0F0;stroke-width:9.72"/>
	<line x1="2855.59" y1="859.95" x2="2920.39" y2="859.95" style="stroke:#F0F0F0;stroke-width:9.72"/>
	<line x1="2952.79" y1="859.95" x2="3017.59" y2="859.95" style="stroke:#F0F0F0;stroke-width:9.72"/>
	<line x1="3049.99" y1="859.95" x2="3114.79" y2="859.95" style="stroke:#F0F0F0;stroke-width:9.72"/>
	<line x1="3147.19" y1="859.95" x2="3211.99" y2="859.95" style="stroke:#F0F0F0;stroke-width:9.72"/>
	<line x1="3244.39" y1="859.95" x2="3309.19" y2="859.95" style="stroke:#F0F0F0;stroke-width:9.72"/>
	<line x1="3341.59" y1="859.95" x2="3406.39" y2="859.95" style="stroke:#F0F0F0;stroke-width:9.72"/>
	<line x1="3438.79" y1="859.95" x2="3503.59" y2="859.95" style="stroke:#F0F0F0;stroke-width:9.72"/>
	<line x1="3535.99" y1="859.95" x2="3600.79" y2="859.95" style="stroke:#F0F0F0;stroke-width:9.72"/>
	<line x1="3633.19" y1="859.95" x2="3697.99" y2="859.95" style="stroke:#F0F0F0;stroke-width:9.72"/>
	<line x1="3730.39" y1="859.95" x2="3795.19" y2="859.95" style="stroke:#F0F0F0;stroke-width:9.72"/>
	<line x1="3827.59" y1="859.95" x2="3892.39" y2="859.95" style="stroke:#F0F0F0;stroke-width:9.72"/>
	<line x1="3924.79" y1="859.95" x2="3989.59" y2="859.95" style="stroke:#F0F0F0;stroke-width:9.72"/>
	<line x1="4021.99" y1="859.95" x2="4086.79" y2="859.95" style="stroke:#F0F0F0;stroke-width:9.72"/>
	<line x1="4119.19" y1="859.95" x2="4183.99" y2="859.95" style="stroke:#F0F0F0;stroke-width:9.72"/>
	<line x1="4216.39" y1="859.95" x2="4281.19" y2="859.95" style="stroke:#F0F0F0;stroke-width:9.72"/>
	<line x1="4313.59" y1="859.95" x2="4378.39" y2="859.95" style="stroke:#F0F0F0;stroke-width:9.72"/>
	<line x1="4410.79" y1="859.95" x2="4475.59" y2="859.95" style="stroke:#F0F0F0;stroke-width:9.72"/>
	<line x1="4507.99" y1="859.95" x2="4572.79" y2="859.95" style="stroke:#F0F0F0;stroke-width:9.72"/>
	<line x1="4605.19" y1="859.95" x2="4669.99" y2="859.95" style="stroke:#F0F0F0;stroke-width:9.72"/>
	<line x1="4702.39" y1="859.95" x2="4767.19" y2="859.95" style="stroke:#F0F0F0;stroke-width:9.72"/>
	<line x1="4799.59" y1="859.95" x2="4864.39" y2="859.95" style="stroke:#F0F0F0;stroke-width:9.72"/>
	<line x1="4896.79" y1="859.95" x2="4961.59" y2="859.95" style="stroke:#F0F0F0;stroke-width:9.72"/>
	<line x1="4993.99" y1="859.95" x2="5058.79" y2="859.95" style="stroke:#F0F0F0;stroke-width:9.72"/>
	<line x1="5091.19" y1="859.95" x2="5155.99" y2="859.95" style="stroke:#F0F0F0;stroke-width:9.72"/>
	<line x1="5188.39" y1="859.95" x2="5253.19" y2="859.95" style="stroke:#F0F0F0;stroke-width:9.72"/>
	<line x1="5285.59" y1="859.95" x2="5286.60" y2="859.95" style="stroke:#F0F0F0;stroke-width:9.72"/>
	<line x1="936.39" y1="2766.66" x2="936.39" y2="2701.86" style="stroke:#F0F0F0;stroke-width:9.72"/>
	<line x1="936.39" y1="2669.46" x2="936.39" y2="2604.66" style="stroke:#F0F0F0;stroke-width:9.72"/>
	<line x1="936.39" y1="2572.26" x2="936.39" y2="2507.46" style="stroke:#F0F0F0;stroke-width:9.72"/>
	<line x1="936.39" y1="2475.06" x2="936.39" y2="2410.26" style="stroke:#F0F0F0;stroke-width:9.72"/>
	<line x1="936.39" y1="2377.86" x2="936.39" y2="2313.06" style="stroke:#F0F0F0;stroke-width:9.72"/>
	<line x1="936.39" y1="2280.66" x2="936.39" y2="2215.86" style="stroke:#F0F0F0;stroke-width:9.72"/>
	<line x1="936.39" y1="2183.46" x2="936.39" y2="2118.66" style="stroke:#F0F0F0;stroke-width:9.72"/>
	<line x1="936.39" y1="2086.26" x2="936.39" y2="2021.46" style="stroke:#F0F0F0;stroke-width:9.72"/>
	<line x1="936.39" y1="1989.06" x2="936.39" y2="1924.26" style="stroke:#F0F0F0;stroke-width:9.72"/>
	<line x1="936.39" y1="1891.86" x2="936.39" y2="1827.06" style="stroke:#F0F0F0;stroke-width:9.72"/>
	<line x1="936.39" y1="1794.66" x2="936.39" y2="1729.86" style="stroke:#F0F0F0;stroke-width:9.72"/>
	<line x1="936.39" y1="1697.46" x2="936.39" y2="1632.66" style="stroke:#F0F0F0;stroke-width:9.72"/>
	<line x1="936.39" y1="1600.26" x2="936.39" y2="1535.46" style="stroke:#F0F0F0;stroke-width:9.72"/>
	<line x1="936.39" y1="1503.06" x2="936.39" y2="1438.26" style="stroke:#F0F0F0;stroke-width:9.72"/>
	<line x1="936.39" y1="1405.86" x2="936.39" y2="1341.06" style="stroke:#F0F0F0;stroke-width:9.72"/>
	<line x1="936.39" y1="1308.66" x2="936.39" y2="1243.86" style="stroke:#F0F0F0;stroke-width:9.72"/>
	<line x1="936.39" y1="1211.46" x2="936.39" y2="1146.66" style="stroke:#F0F0F0;stroke-width:9.72"/>
	<line x1="936.39" y1="1114.26" x2="936.39" y2="1049.46" style="stroke:#F0F0F0;stroke-width:9.72"/>
	<line x1="936.39" y1="1017.06" x2="936.39" y2="952.26" style="stroke:#F0F0F0;stroke-width:9.72"/>
	<line x1="936.39" y1="919.86" x2="936.39" y2="855.06" style="stroke:#F0F0F0;stroke-width:9.72"/>
	<line x1="936.39" y1="822.66" x2="936.39" y2="757.86" style="stroke:#F0F0F0;stroke-width:9.72"/>
	<line x1="936.39" y1="725.46" x2="936.39" y2="660.66" style="stroke:#F0F0F0;stroke-width:9.72"/>
	<line x1="936.39" y1="628.26" x2="936.39" y2="563.46" style="stroke:#F0F0F0;stroke-width:9.72"/>
	<line x1="936.39" y1="531.06" x2="936.39" y2="466.26" style="stroke:#F0F0F0;stroke-width:9.72"/>
	<line x1="936.39" y1="433.86" x2="936.39" y2="369.06" style="stroke:#F0F0F0;stroke-width:9.72"/>
	<line x1="936.39" y1="336.66" x2="936.39" y2="309.82" style="stroke:#F0F0F0;stroke-width:9.72"/>
	<line x1="2362.67" y1="2766.66" x2="2362.67" y2="2701.86" style="stroke:#F0F0F0;stroke-width:9.72"/>
	<line x1="2362.67" y1="2669.46" x2="2362.67" y2="2604.66" style="stroke:#F0F0F0;stroke-width:9.72"/>
	<line x1="2362.67" y1="2572.26" x2="2362.67" y2="2507.46" style="stroke:#F0F0F0;stroke-width:9.72"/>
	<line x1="2362.67" y1="2475.06" x2="2362.67" y2="2410.26" style="stroke:#F0F0F0;stroke-width:9.72"/>
	<line x1="2362.67" y1="2377.86" x2="2362.67" y2="2313.06" style="stroke:#F0F0F0;stroke-width:9.72"/>
	<line x1="2362.67" y1="2280.66" x2="2362.67" y2="2215.86" style="stroke:#F0F0F0;stroke-width:9.72"/>
	<line x1="2362.67" y1="2183.46" x2="2362.67" y2="2118.66" style="stroke:#F0F0F0;stroke-width:9.72"/>
	<line x1="2362.67" y1="2086.26" x2="2362.67" y2="2021.46" style="stroke:#F0F0F0;stroke-width:9.72"/>
	<line x1="2362.67" y1="1989.06" x2="2362.67" y2="1924.26" style="stroke:#F0F0F0;stroke-width:9.72"/>
	<line x1="2362.67" y1="1891.86" x2="2362.67" y2="1827.06" style="stroke:#F0F0F0;stroke-width:9.72"/>
	<line x1="2362.67" y1="1794.66" x2="2362.67" y2="1729.86" style="stroke:#F0F0F0;stroke-width:9.72"/>
	<line x1="2362.67" y1="1697.46" x2="2362.67" y2="1632.66" style="stroke:#F0F0F0;stroke-width:9.72"/>
	<line x1="2362.67" y1="1600.26" x2="2362.67" y2="1535.46" style="stroke:#F0F0F0;stroke-width:9.72"/>
	<line x1="2362.67" y1="1503.06" x2="2362.67" y2="1438.26" style="stroke:#F0F0F0;stroke-width:9.72"/>
	<line x1="2362.67" y1="1405.86" x2="2362.67" y2="1341.06" style="stroke:#F0F0F0;stroke-width:9.72"/>
	<line x1="2362.67" y1="1308.66" x2="2362.67" y2="1243.86" style="stroke:#F0F0F0;stroke-width:9.72"/>
	<line x1="2362.67" y1="1211.46" x2="2362.67" y2="1146.66" style="stroke:#F0F0F0;stroke-width:9.72"/>
	<line x1="2362.67" y1="1114.26" x2="2362.67" y2="1049.46" style="stroke:#F0F0F0;stroke-width:9.72"/>
	<line x1="2362.67" y1="1017.06" x2="2362.67" y2="952.26" style="stroke:#F0F0F0;stroke-width:9.72"/>
	<line x1="2362.67" y1="919.86" x2="2362.67" y2="855.06" style="stroke:#F0F0F0;stroke-width:9.72"/>
	<line x1="2362.67" y1="822.66" x2="2362.67" y2="757.86" style="stroke:#F0F0F0;stroke-width:9.72"/>
	<line x1="2362.67" y1="725.46" x2="2362.67" y2="660.66" style="stroke:#F0F0F0;stroke-width:9.72"/>
	<line x1="2362.67" y1="628.26" x2="2362.67" y2="563.46" style="stroke:#F0F0F0;stroke-width:9.72"/>
	<line x1="2362.67" y1="531.06" x2="2362.67" y2="466.26" style="stroke:#F0F0F0;stroke-width:9.72"/>
	<line x1="2362.67" y1="433.86" x2="2362.67" y2="369.06" style="stroke:#F0F0F0;stroke-width:9.72"/>
	<line x1="2362.67" y1="336.66" x2="2362.67" y2="309.82" style="stroke:#F0F0F0;stroke-width:9.72"/>
	<line x1="3788.94" y1="2766.66" x2="3788.94" y2="2701.86" style="stroke:#F0F0F0;stroke-width:9.72"/>
	<line x1="3788.94" y1="2669.46" x2="3788.94" y2="2604.66" style="stroke:#F0F0F0;stroke-width:9.72"/>
	<line x1="3788.94" y1="2572.26" x2="3788.94" y2="2507.46" style="stroke:#F0F0F0;stroke-width:9.72"/>
	<line x1="3788.94" y1="2475.06" x2="3788.94" y2="2410.26" style="stroke:#F0F0F0;stroke-width:9.72"/>
	<line x1="3788.94" y1="2377.86" x2="3788.94" y2="2313.06" style="stroke:#F0F0F0;stroke-width:9.72"/>
	<line x1="3788.94" y1="2280.66" x2="3788.94" y2="2215.86" style="stroke:#F0F0F0;stroke-width:9.72"/>
	<line x1="3788.94" y1="2183.46" x2="3788.94" y2="2118.66" style="stroke:#F0F0F0;stroke-width:9.72"/>
	<line x1="3788.94" y1="2086.26" x2="3788.94" y2="2021.46" style="stroke:#F0F0F0;stroke-width:9.72"/>
	<line x1="3788.94" y1="1989.06" x2="3788.94" y2="1924.26" style="stroke:#F0F0F0;stroke-width:9.72"/>
	<line x1="3788.94" y1="1891.86" x2="3788.94" y2="1827.06" style="stroke:#F0F0F0;stroke-width:9.72"/>
	<line x1="3788.94" y1="1794.66" x2="3788.94" y2="1729.86" style="stroke:#F0F0F0;stroke-width:9.72"/>
	<line x1="3788.94" y1="1697.46" x2="3788.94" y2="1632.66" style="stroke:#F0F0F0;stroke-width:9.72"/>
	<line x1="3788.94" y1="1600.26" x2="3788.94" y2="1535.46" style="stroke:#F0F0F0;stroke-width:9.72"/>
	<line x1="3788.94" y1="1503.06" x2="3788.94" y2="1438.26" style="stroke:#F0F0F0;stroke-width:9.72"/>
	<line x1="3788.94" y1="1405.86" x2="3788.94" y2="1341.06" style="stroke:#F0F0F0;stroke-width:9.72"/>
	<line x1="3788.94" y1="1308.66" x2="3788.94" y2="1243.86" style="stroke:#F0F0F0;stroke-width:9.72"/>
	<line x1="3788.94" y1="1211.46" x2="3788.94" y2="1146.66" style="stroke:#F0F0F0;stroke-width:9.72"/>
	<line x1="3788.94" y1="1114.26" x2="3788.94" y2="1049.46" style="stroke:#F0F0F0;stroke-width:9.72"/>
	<line x1="3788.94" y1="1017.06" x2="3788.94" y2="952.26" style="stroke:#F0F0F0;stroke-width:9.72"/>
	<line x1="3788.94" y1="919.86" x2="3788.94" y2="855.06" style="stroke:#F0F0F0;stroke-width:9.72"/>
	<line x1="3788.94" y1="822.66" x2="3788.94" y2="757.86" style="stroke:#F0F0F0;stroke-width:9.72"/>
	<line x1="3788.94" y1="725.46" x2="3788.94" y2="660.66" style="stroke:#F0F0F0;stroke-width:9.72"/>
	<line x1="3788.94" y1="628.26" x2="3788.94" y2="563.46" style="stroke:#F0F0F0;stroke-width:9.72"/>
	<line x1="3788.94" y1="531.06" x2="3788.94" y2="466.26" style="stroke:#F0F0F0;stroke-width:9.72"/>
	<line x1="3788.94" y1="433.86" x2="3788.94" y2="369.06" style="stroke:#F0F0F0;stroke-width:9.72"/>
	<line x1="3788.94" y1="336.66" x2="3788.94" y2="309.82" style="stroke:#F0F0F0;stroke-width:9.72"/>
	<line x1="5215.39" y1="2766.66" x2="5215.39" y2="2701.86" style="stroke:#F0F0F0;stroke-width:9.72"/>
	<line x1="5215.39" y1="2669.46" x2="5215.39" y2="2604.66" style="stroke:#F0F0F0;stroke-width:9.72"/>
	<line x1="5215.39" y1="2572.26" x2="5215.39" y2="2507.46" style="stroke:#F0F0F0;stroke-width:9.72"/>
	<line x1="5215.39" y1="2475.06" x2="5215.39" y2="2410.26" style="stroke:#F0F0F0;stroke-width:9.72"/>
	<line x1="5215.39" y1="2377.86" x2="5215.39" y2="2313.06" style="stroke:#F0F0F0;stroke-width:9.72"/>
	<line x1="5215.39" y1="2280.66" x2="5215.39" y2="2215.86" style="stroke:#F0F0F0;stroke-width:9.72"/>
	<line x1="5215.39" y1="2183.46" x2="5215.39" y2="2118.66" style="stroke:#F0F0F0;stroke-width:9.72"/>
	<line x1="5215.39" y1="2086.26" x2="5215.39" y2="2021.46" style="stroke:#F0F0F0;stroke-width:9.72"/>
	<line x1="5215.39" y1="1989.06" x2="5215.39" y2="1924.26" style="stroke:#F0F0F0;stroke-width:9.72"/>
	<line x1="5215.39" y1="1891.86" x2="5215.39" y2="1827.06" style="stroke:#F0F0F0;stroke-width:9.72"/>
	<line x1="5215.39" y1="1794.66" x2="5215.39" y2="1729.86" style="stroke:#F0F0F0;stroke-width:9.72"/>
	<line x1="5215.39" y1="1697.46" x2="5215.39" y2="1632.66" style="stroke:#F0F0F0;stroke-width:9.72"/>
	<line x1="5215.39" y1="1600.26" x2="5215.39" y2="1535.46" style="stroke:#F0F0F0;stroke-width:9.72"/>
	<line x1="5215.39" y1="1503.06" x2="5215.39" y2="1438.26" style="stroke:#F0F0F0;stroke-width:9.72"/>
	<line x1="5215.39" y1="1405.86" x2="5215.39" y2="1341.06" style="stroke:#F0F0F0;stroke-width:9.72"/>
	<line x1="5215.39" y1="1308.66" x2="5215.39" y2="1243.86" style="stroke:#F0F0F0;stroke-width:9.72"/>
	<line x1="5215.39" y1="1211.46" x2="5215.39" y2="1146.66" style="stroke:#F0F0F0;stroke-width:9.72"/>
	<line x1="5215.39" y1="1114.26" x2="5215.39" y2="1049.46" style="stroke:#F0F0F0;stroke-width:9.72"/>
	<line x1="5215.39" y1="1017.06" x2="5215.39" y2="952.26" style="stroke:#F0F0F0;stroke-width:9.72"/>
	<line x1="5215.39" y1="919.86" x2="5215.39" y2="855.06" style="stroke:#F0F0F0;stroke-width:9.72"/>
	<line x1="5215.39" y1="822.66" x2="5215.39" y2="757.86" style="stroke:#F0F0F0;stroke-width:9.72"/>
	<line x1="5215.39" y1="725.46" x2="5215.39" y2="660.66" style="stroke:#F0F0F0;stroke-width:9.72"/>
	<line x1="5215.39" y1="628.26" x2="5215.39" y2="563.46" style="stroke:#F0F0F0;stroke-width:9.72"/>
	<line x1="5215.39" y1="531.06" x2="5215.39" y2="466.26" style="stroke:#F0F0F0;stroke-width:9.72"/>
	<line x1="5215.39" y1="433.86" x2="5215.39" y2="369.06" style="stroke:#F0F0F0;stroke-width:9.72"/>
	<line x1="5215.39" y1="336.66" x2="5215.39" y2="309.82" style="stroke:#F0F0F0;stroke-width:9.72"/>
	<rect x="2223.48" y="1858.14" width="78.57" height="78.57" style="fill:#FFFF00"/>
	<rect x="2228.34" y="1863.00" width="68.85" height="68.85" style="fill:none;stroke:#0000FF;stroke-width:9.72"/>
	<rect x="2822.55" y="2257.07" width="78.57" height="78.57" style="fill:#FFFF00"/>
	<rect x="2827.41" y="2261.93" width="68.85" height="68.85" style="fill:none;stroke:#0000FF;stroke-width:9.72"/>
	<rect x="1809.88" y="1858.14" width="78.57" height="78.57" style="fill:#FFFF00"/>
	<rect x="1814.74" y="1863.00" width="68.85" height="68.85" style="fill:none;stroke:#0000FF;stroke-width:9.72"/>
	<rect x="2679.78" y="2017.78" width="78.57" height="78.57" style="fill:#FFFF00"/>
	<rect x="2684.64" y="2022.64" width="68.85" height="68.85" style="fill:none;stroke:#0000FF;stroke-width:9.72"/>
	<rect x="3863.73" y="2416.70" width="78.57" height="78.57" style="fill:#FFFF00"/>
	<rect x="3868.59" y="2421.56" width="68.85" height="68.85" style="fill:none;stroke:#0000FF;stroke-width:9.72"/>
	<rect x="3278.85" y="2177.25" width="78.57" height="78.57" style="fill:#FFFF00"/>
	<rect x="3283.71" y="2182.11" width="68.85" height="68.85" style="fill:none;stroke:#0000FF;stroke-width:9.72"/>
	<rect x="1224.99" y="1538.87" width="78.57" height="78.57" style="fill:#FFFF00"/>
	<rect x="1229.85" y="1543.73" width="68.85" height="68.85" style="fill:none;stroke:#0000FF;stroke-width:9.72"/>
	<rect x="2722.65" y="2017.78" width="78.57" height="78.57" style="fill:#FFFF00"/>
	<rect x="2727.51" y="2022.64" width="68.85" height="68.85" style="fill:none;stroke:#0000FF;stroke-width:9.72"/>
	<rect x="3578.38" y="2336.88" width="78.57" height="78.57" style="fill:#FFFF00"/>
	<rect x="3583.24" y="2341.74" width="68.85" height="68.85" style="fill:none;stroke:#0000FF;stroke-width:9.72"/>
	<rect x="2893.76" y="2097.60" width="78.57" height="78.57" style="fill:#FFFF00"/>
	<rect x="2898.62" y="2102.46" width="68.85" height="68.85" style="fill:none;stroke:#0000FF;stroke-width:9.72"/>
	<rect x="4220.30" y="2496.52" width="78.57" height="78.57" style="fill:#FFFF00"/>
	<rect x="4225.16" y="2501.38" width="68.85" height="68.85" style="fill:none;stroke:#0000FF;stroke-width:9.72"/>
	<rect x="3607.07" y="2496.52" width="78.57" height="78.57" style="fill:#FFFF00"/>
	<rect x="3611.93" y="2501.38" width="68.85" height="68.85" style="fill:none;stroke:#0000FF;stroke-width:9.72"/>
	<rect x="4163.27" y="1937.96" width="78.57" height="78.57" style="fill:#FFFF00"/>
	<rect x="4168.13" y="1942.82" width="68.85" height="68.85" style="fill:none;stroke:#0000FF;stroke-width:9.72"/>
	<rect x="1053.88" y="1299.41" width="78.57" height="78.57" style="fill:#FFFF00"/>
	<rect x="1058.74" y="1304.27" width="68.85" height="68.85" style="fill:none;stroke:#0000FF;stroke-width:9.72"/>
	<rect x="3307.53" y="2336.88" width="78.57" height="78.57" style="fill:#FFFF00"/>
	<rect x="3312.39" y="2341.74" width="68.85" height="68.85" style="fill:none;stroke:#0000FF;stroke-width:9.72"/>
	<rect x="2580.05" y="1858.14" width="78.57" height="78.57" style="fill:#FFFF00"/>
	<rect x="2584.91" y="1863.00" width="68.85" height="68.85" style="fill:none;stroke:#0000FF;stroke-width:9.72"/>
	<rect x="2637.09" y="1858.14" width="78.57" height="78.57" style="fill:#FFFF00"/>
	<rect x="2641.95" y="1863.00" width="68.85" height="68.85" style="fill:none;stroke:#0000FF;stroke-width:9.72"/>
	<rect x="1966.65" y="1698.50" width="78.57" height="78.57" style="fill:#FFFF00"/>
	<rect x="1971.51" y="1703.36" width="68.85" height="68.85" style="fill:none;stroke:#0000FF;stroke-width:9.72"/>
	<rect x="2936.62" y="2097.60" width="78.57" height="78.57" style="fill:#FFFF00"/>
	<rect x="2941.48" y="2102.46" width="68.85" height="68.85" style="fill:none;stroke:#0000FF;stroke-width:9.72"/>
	<rect x="1068.05" y="1219.76" width="78.57" height="78.57" style="fill:#FFFF00"/>
	<rect x="1072.91" y="1224.62" width="68.85" height="68.85" style="fill:none;stroke:#0000FF;stroke-width:9.72"/>
	<rect x="3179.12" y="2177.25" width="78.57" height="78.57" style="fill:#FFFF00"/>
	<rect x="3183.98" y="2182.11" width="68.85" height="68.85" style="fill:none;stroke:#0000FF;stroke-width:9.72"/>
	<rect x="3179.12" y="2336.88" width="78.57" height="78.57" style="fill:#FFFF00"/>
	<rect x="3183.98" y="2341.74" width="68.85" height="68.85" style="fill:none;stroke:#0000FF;stroke-width:9.72"/>
	<rect x="3378.75" y="2257.07" width="78.57" height="78.57" style="fill:#FFFF00"/>
	<rect x="3383.61" y="2261.93" width="68.85" height="68.85" style="fill:none;stroke:#0000FF;stroke-width:9.72"/>
	<rect x="611.75" y="1379.23" width="78.57" height="78.57" style="fill:#FFFF00"/>
	<rect x="616.61" y="1384.09" width="68.85" height="68.85" style="fill:none;stroke:#0000FF;stroke-width:9.72"/>
	<rect x="1824.05" y="1937.96" width="78.57" height="78.57" style="fill:#FFFF00"/>
	<rect x="1828.91" y="1942.82" width="68.85" height="68.85" style="fill:none;stroke:#0000FF;stroke-width:9.72"/>
	<rect x="4947.78" y="2656.16" width="78.57" height="78.57" style="fill:#FFFF00"/>
	<rect x="4952.64" y="2661.02" width="68.85" height="68.85" style="fill:none;stroke:#0000FF;stroke-width:9.72"/>
	<rect x="4776.50" y="2656.16" width="78.57" height="78.57" style="fill:#FFFF00"/>
	<rect x="4781.36" y="2661.02" width="68.85" height="68.85" style="fill:none;stroke:#0000FF;stroke-width:9.72"/>
	<rect x="3507.17" y="2496.52" width="78.57" height="78.57" style="fill:#FFFF00"/>
	<rect x="3512.03" y="2501.38" width="68.85" height="68.85" style="fill:none;stroke:#0000FF;stroke-width:9.72"/>
	<rect x="1724.15" y="1858.14" width="78.57" height="78.57" style="fill:#FFFF00"/>
	<rect x="1729.01" y="1863.00" width="68.85" height="68.85" style="fill:none;stroke:#0000FF;stroke-width:9.72"/>
	<rect x="3835.21" y="2496.52" width="78.57" height="78.57" style="fill:#FFFF00"/>
	<rect x="3840.08" y="2501.38" width="68.85" height="68.85" style="fill:none;stroke:#0000FF;stroke-width:9.72"/>
	<rect x="3350.23" y="2416.70" width="78.57" height="78.57" style="fill:#FFFF00"/>
	<rect x="3355.09" y="2421.56" width="68.85" height="68.85" style="fill:none;stroke:#0000FF;stroke-width:9.72"/>
	<rect x="2851.07" y="2177.25" width="78.57" height="78.57" style="fill:#FFFF00"/>
	<rect x="2855.93" y="2182.11" width="68.85" height="68.85" style="fill:none;stroke:#0000FF;stroke-width:9.72"/>
	<rect x="3935.12" y="2496.52" width="78.57" height="78.57" style="fill:#FFFF00"/>
	<rect x="3939.98" y="2501.38" width="68.85" height="68.85" style="fill:none;stroke:#0000FF;stroke-width:9.72"/>
	<rect x="2080.89" y="2017.78" width="78.57" height="78.57" style="fill:#FFFF00"/>
	<rect x="2085.75" y="2022.64" width="68.85" height="68.85" style="fill:none;stroke:#0000FF;stroke-width:9.72"/>
	<rect x="3835.21" y="1937.96" width="78.57" height="78.57" style="fill:#FFFF00"/>
	<rect x="3840.08" y="1942.82" width="68.85" height="68.85" style="fill:none;stroke:#0000FF;stroke-width:9.72"/>
	<rect x="2765.51" y="2097.60" width="78.57" height="78.57" style="fill:#FFFF00"/>
	<rect x="2770.37" y="2102.46" width="68.85" height="68.85" style="fill:none;stroke:#0000FF;stroke-width:9.72"/>
	<rect x="2751.17" y="2097.60" width="78.57" height="78.57" style="fill:#FFFF00"/>
	<rect x="2756.03" y="2102.46" width="68.85" height="68.85" style="fill:none;stroke:#0000FF;stroke-width:9.72"/>
	<rect x="3307.53" y="2177.25" width="78.57" height="78.57" style="fill:#FFFF00"/>
	<rect x="3312.39" y="2182.11" width="68.85" height="68.85" style="fill:none;stroke:#0000FF;stroke-width:9.72"/>
	<rect x="2851.07" y="2097.60" width="78.57" height="78.57" style="fill:#FFFF00"/>
	<rect x="2855.93" y="2102.46" width="68.85" height="68.85" style="fill:none;stroke:#0000FF;stroke-width:9.72"/>
	<rect x="1938.13" y="1698.50" width="78.57" height="78.57" style="fill:#FFFF00"/>
	<rect x="1942.99" y="1703.36" width="68.85" height="68.85" style="fill:none;stroke:#0000FF;stroke-width:9.72"/>
	<rect x="3792.35" y="2336.88" width="78.57" height="78.57" style="fill:#FFFF00"/>
	<rect x="3797.21" y="2341.74" width="68.85" height="68.85" style="fill:none;stroke:#0000FF;stroke-width:9.72"/>
	<rect x="2694.13" y="1379.23" width="78.57" height="78.57" style="fill:#FFFF00"/>
	<rect x="2698.99" y="1384.09" width="68.85" height="68.85" style="fill:none;stroke:#0000FF;stroke-width:9.72"/>
	<rect x="611.75" y="900.48" width="78.57" height="78.57" style="fill:#FFFF00"/>
	<rect x="616.61" y="905.34" width="68.85" height="68.85" style="fill:none;stroke:#0000FF;stroke-width:9.72"/>
	<rect x="1182.30" y="1618.68" width="78.57" height="78.57" style="fill:#FFFF00"/>
	<rect x="1187.16" y="1623.54" width="68.85" height="68.85" style="fill:none;stroke:#0000FF;stroke-width:9.72"/>
	<rect x="1638.60" y="1538.87" width="78.57" height="78.57" style="fill:#FFFF00"/>
	<rect x="1643.46" y="1543.73" width="68.85" height="68.85" style="fill:none;stroke:#0000FF;stroke-width:9.72"/>
	<rect x="2794.03" y="2177.25" width="78.57" height="78.57" style="fill:#FFFF00"/>
	<rect x="2798.89" y="2182.11" width="68.85" height="68.85" style="fill:none;stroke:#0000FF;stroke-width:9.72"/>
	<rect x="3321.71" y="2177.25" width="78.57" height="78.57" style="fill:#FFFF00"/>
	<rect x="3326.57" y="2182.11" width="68.85" height="68.85" style="fill:none;stroke:#0000FF;stroke-width:9.72"/>
	<rect x="2993.66" y="2177.25" width="78.57" height="78.57" style="fill:#FFFF00"/>
	<rect x="2998.52" y="2182.11" width="68.85" height="68.85" style="fill:none;stroke:#0000FF;stroke-width:9.72"/>
	<rect x="2622.75" y="2097.60" width="78.57" height="78.57" style="fill:#FFFF00"/>
	<rect x="2627.61" y="2102.46" width="68.85" height="68.85" style="fill:none;stroke:#0000FF;stroke-width:9.72"/>
	<rect x="2608.57" y="2097.60" width="78.57" height="78.57" style="fill:#FFFF00"/>
	<rect x="2613.43" y="2102.46" width="68.85" height="68.85" style="fill:none;stroke:#0000FF;stroke-width:9.72"/>
	<rect x="2922.28" y="2097.60" width="78.57" height="78.57" style="fill:#FFFF00"/>
	<rect x="2927.14" y="2102.46" width="68.85" height="68.85" style="fill:none;stroke:#0000FF;stroke-width:9.72"/>
	<rect x="1881.09" y="1698.50" width="78.57" height="78.57" style="fill:#FFFF00"/>
	<rect x="1885.95" y="1703.36" width="68.85" height="68.85" style="fill:none;stroke:#0000FF;stroke-width:9.72"/>
	<rect x="2080.89" y="2257.07" width="78.57" height="78.57" style="fill:#FFFF00"/>
	<rect x="2085.75" y="2261.93" width="68.85" height="68.85" style="fill:none;stroke:#0000FF;stroke-width:9.72"/>
	<rect x="996.84" y="1778.32" width="78.57" height="78.57" style="fill:#FFFF00"/>
	<rect x="1001.70" y="1783.18" width="68.85" height="68.85" style="fill:none;stroke:#0000FF;stroke-width:9.72"/>
	<rect x="1824.05" y="1618.68" width="78.57" height="78.57" style="fill:#FFFF00"/>
	<rect x="1828.91" y="1623.54" width="68.85" height="68.85" style="fill:none;stroke:#0000FF;stroke-width:9.72"/>
	<rect x="1424.62" y="1778.32" width="78.57" height="78.57" style="fill:#FFFF00"/>
	<rect x="1429.48" y="1783.18" width="68.85" height="68.85" style="fill:none;stroke:#0000FF;stroke-width:9.72"/>
	<rect x="925.46" y="820.67" width="78.57" height="78.57" style="fill:#FFFF00"/>
	<rect x="930.32" y="825.53" width="68.85" height="68.85" style="fill:none;stroke:#0000FF;stroke-width:9.72"/>
	<rect x="1296.37" y="1698.50" width="78.57" height="78.57" style="fill:#FFFF00"/>
	<rect x="1301.23" y="1703.36" width="68.85" height="68.85" style="fill:none;stroke:#0000FF;stroke-width:9.72"/>
	<rect x="1966.65" y="1937.96" width="78.57" height="78.57" style="fill:#FFFF00"/>
	<rect x="1971.51" y="1942.82" width="68.85" height="68.85" style="fill:none;stroke:#0000FF;stroke-width:9.72"/>
	<rect x="1082.40" y="1937.96" width="78.57" height="78.57" style="fill:#FFFF00"/>
	<rect x="1087.26" y="1942.82" width="68.85" height="68.85" style="fill:none;stroke:#0000FF;stroke-width:9.72"/>
	<rect x="1239.33" y="1618.68" width="78.57" height="78.57" style="fill:#FFFF00"/>
	<rect x="1244.19" y="1623.54" width="68.85" height="68.85" style="fill:none;stroke:#0000FF;stroke-width:9.72"/>
	<rect x="554.72" y="1379.23" width="78.57" height="78.57" style="fill:#FFFF00"/>
	<rect x="559.58" y="1384.09" width="68.85" height="68.85" style="fill:none;stroke:#0000FF;stroke-width:9.72"/>
	<rect x="868.42" y="1219.76" width="78.57" height="78.57" style="fill:#FFFF00"/>
	<rect x="873.28" y="1224.62" width="68.85" height="68.85" style="fill:none;stroke:#0000FF;stroke-width:9.72"/>
	<rect x="2922.28" y="2496.52" width="78.57" height="78.57" style="fill:#FFFF00"/>
	<rect x="2927.14" y="2501.38" width="68.85" height="68.85" style="fill:none;stroke:#0000FF;stroke-width:9.72"/>
	<rect x="654.45" y="1538.87" width="78.57" height="78.57" style="fill:#FFFF00"/>
	<rect x="659.31" y="1543.73" width="68.85" height="68.85" style="fill:none;stroke:#0000FF;stroke-width:9.72"/>
	<rect x="968.32" y="820.67" width="78.57" height="78.57" style="fill:#FFFF00"/>
	<rect x="973.18" y="825.53" width="68.85" height="68.85" style="fill:none;stroke:#0000FF;stroke-width:9.72"/>
	<rect x="1481.83" y="2177.25" width="78.57" height="78.57" style="fill:#FFFF00"/>
	<rect x="1486.69" y="2182.11" width="68.85" height="68.85" style="fill:none;stroke:#0000FF;stroke-width:9.72"/>
	<rect x="1182.30" y="1139.94" width="78.57" height="78.57" style="fill:#FFFF00"/>
	<rect x="1187.16" y="1144.80" width="68.85" height="68.85" style="fill:none;stroke:#0000FF;stroke-width:9.72"/>
	<rect x="1852.57" y="2177.25" width="78.57" height="78.57" style="fill:#FFFF00"/>
	<rect x="1857.43" y="2182.11" width="68.85" height="68.85" style="fill:none;stroke:#0000FF;stroke-width:9.72"/>
	<rect x="1125.09" y="1778.32" width="78.57" height="78.57" style="fill:#FFFF00"/>
	<rect x="1129.95" y="1783.18" width="68.85" height="68.85" style="fill:none;stroke:#0000FF;stroke-width:9.72"/>
	<rect x="953.98" y="341.92" width="78.57" height="78.57" style="fill:#FFFF00"/>
	<rect x="958.84" y="346.78" width="68.85" height="68.85" style="fill:none;stroke:#0000FF;stroke-width:9.72"/>
	<rect x="797.04" y="1618.68" width="78.57" height="78.57" style="fill:#FFFF00"/>
	<rect x="801.90" y="1623.54" width="68.85" height="68.85" style="fill:none;stroke:#0000FF;stroke-width:9.72"/>
	<rect x="882.77" y="1618.68" width="78.57" height="78.57" style="fill:#FFFF00"/>
	<rect x="887.63" y="1623.54" width="68.85" height="68.85" style="fill:none;stroke:#0000FF;stroke-width:9.72"/>
	<rect x="2565.71" y="2257.07" width="78.57" height="78.57" style="fill:#FFFF00"/>
	<rect x="2570.57" y="2261.93" width="68.85" height="68.85" style="fill:none;stroke:#0000FF;stroke-width:9.72"/>
	<line x1="522.79" y1="2766.66" x2="522.79" y2="309.82" style="stroke:#000000;stroke-width:6.48"/>
	<line x1="522.79" y1="2455.99" x2="477.73" y2="2455.99" style="stroke:#000000;stroke-width:6.48"/>
	<text x="455.29" y="2495.42" style="font-family:'Helvetica';font-size:112.56px;fill:#000000" text-anchor="end">15</text>
	<line x1="522.79" y1="1657.97" x2="477.73" y2="1657.97" style="stroke:#000000;stroke-width:6.48"/>
	<text x="455.29" y="1697.41" style="font-family:'Helvetica';font-size:112.56px;fill:#000000" text-anchor="end">25</text>
	<line x1="522.79" y1="859.95" x2="477.73" y2="859.95" style="stroke:#000000;stroke-width:6.48"/>
	<text x="455.29" y="899.39" style="font-family:'Helvetica';font-size:112.56px;fill:#000000" text-anchor="end">35</text>
	<text x="214.55" y="1538.16" style="font-family:'Helvetica';font-size:112.56px;fill:#000000" transform="rotate(-90 214.55,1538.16)" text-anchor="middle">Mileage</text>
	<line x1="522.79" y1="2766.66" x2="5286.60" y2="2766.66" style="stroke:#000000;stroke-width:6.48"/>
	<line x1="936.39" y1="2766.66" x2="936.39" y2="2811.54" style="stroke:#000000;stroke-width:6.48"/>
	<text x="936.39" y="2912.86" style="font-family:'Helvetica';font-size:112.56px;fill:#000000" text-anchor="middle">2,000</text>
	<line x1="2362.67" y1="2766.66" x2="2362.67" y2="2811.54" style="stroke:#000000;stroke-width:6.48"/>
	<text x="2362.67" y="2912.86" style="font-family:'Helvetica';font-size:112.56px;fill:#000000" text-anchor="middle">3,000</text>
	<line x1="3788.94" y1="2766.66" x2="3788.94" y2="2811.54" style="stroke:#000000;stroke-width:6.48"/>
	<text x="3788.94" y="2912.86" style="font-family:'Helvetica';font-size:112.56px;fill:#000000" text-anchor="middle">4,000</text>
	<line x1="5215.39" y1="2766.66" x2="5215.39" y2="2811.54" style="stroke:#000000;stroke-width:6.48"/>
	<text x="5215.39" y="2912.86" style="font-family:'Helvetica';font-size:112.56px;fill:#000000" text-anchor="middle">5,000</text>
	<text x="2904.69" y="3070.31" style="font-family:'Helvetica';font-size:112.56px;fill:#000000" text-anchor="middle">Weight (in lbs)</text>
	<text x="2904.69" y="243.10" style="font-family:'Helvetica';font-size:157.44px;fill:#000000" text-anchor="middle">Mileage vs Weight</text>
</svg>
