<?xml version="1.0" encoding="UTF-8" standalone="no"?>
<!-- This is a Stata 18.0 generated SVG file (http://www.stata.com) -->

<svg version="1.1" width="7.500in" height="4.500in" viewBox="0 0 5400 3240" xmlns="http://www.w3.org/2000/svg" xmlns:xlink="http://www.w3.org/1999/xlink">
	<desc>Stata Graph - Graph</desc>
	<rect x="0" y="0" width="5400" height="3240" style="fill:#FFFFFF;stroke:none"/>
	<rect x="0.00" y="0.00" width="5400.00" height="3240.00" style="fill:#FFFFFF"/>
	<rect x="3.24" y="3.24" width="5393.52" height="3233.52" style="fill:none;stroke:#FFFFFF;stroke-width:6.48"/>
	<rect x="410.23" y="113.40" width="3641.12" height="2653.26" style="fill:#FFFFFF"/>
	<rect x="413.47" y="116.64" width="3634.64" height="2646.78" style="fill:none;stroke:#FFFFFF;stroke-width:6.48"/>
	<line x1="410.23" y1="2695.28" x2="475.03" y2="2695.28" style="stroke:#F0F0F0;stroke-width:9.72"/>
	<line x1="507.43" y1="2695.28" x2="572.23" y2="2695.28" style="stroke:#F0F0F0;stroke-width:9.72"/>
	<line x1="604.63" y1="2695.28" x2="669.43" y2="2695.28" style="stroke:#F0F0F0;stroke-width:9.72"/>
	<line x1="701.83" y1="2695.28" x2="766.63" y2="2695.28" style="stroke:#F0F0F0;stroke-width:9.72"/>
	<line x1="799.03" y1="2695.28" x2="863.83" y2="2695.28" style="stroke:#F0F0F0;stroke-width:9.72"/>
	<line x1="896.23" y1="2695.28" x2="961.03" y2="2695.28" style="stroke:#F0F0F0;stroke-width:9.72"/>
	<line x1="993.43" y1="2695.28" x2="1058.23" y2="2695.28" style="stroke:#F0F0F0;stroke-width:9.72"/>
	<line x1="1090.63" y1="2695.28" x2="1155.43" y2="2695.28" style="stroke:#F0F0F0;stroke-width:9.72"/>
	<line x1="1187.83" y1="2695.28" x2="1252.63" y2="2695.28" style="stroke:#F0F0F0;stroke-width:9.72"/>
	<line x1="1285.03" y1="2695.28" x2="1349.83" y2="2695.28" style="stroke:#F0F0F0;stroke-width:9.72"/>
	<line x1="1382.23" y1="2695.28" x2="1447.03" y2="2695.28" style="stroke:#F0F0F0;stroke-width:9.72"/>
	<line x1="1479.43" y1="2695.28" x2="1544.23" y2="2695.28" style="stroke:#F0F0F0;stroke-width:9.72"/>
	<line x1="1576.63" y1="2695.28" x2="1641.43" y2="2695.28" style="stroke:#F0F0F0;stroke-width:9.72"/>
	<line x1="1673.83" y1="2695.28" x2="1738.63" y2="2695.28" style="stroke:#F0F0F0;stroke-width:9.72"/>
	<line x1="1771.03" y1="2695.28" x2="1835.83" y2="2695.28" style="stroke:#F0F0F0;stroke-width:9.72"/>
	<line x1="1868.23" y1="2695.28" x2="1933.03" y2="2695.28" style="stroke:#F0F0F0;stroke-width:9.72"/>
	<line x1="1965.43" y1="2695.28" x2="2030.23" y2="2695.28" style="stroke:#F0F0F0;stroke-width:9.72"/>
	<line x1="2062.63" y1="2695.28" x2="2127.43" y2="2695.28" style="stroke:#F0F0F0;stroke-width:9.72"/>
	<line x1="2159.83" y1="2695.28" x2="2224.63" y2="2695.28" style="stroke:#F0F0F0;stroke-width:9.72"/>
	<line x1="2257.03" y1="2695.28" x2="2321.83" y2="2695.28" style="stroke:#F0F0F0;stroke-width:9.72"/>
	<line x1="2354.23" y1="2695.28" x2="2419.03" y2="2695.28" style="stroke:#F0F0F0;stroke-width:9.72"/>
	<line x1="2451.43" y1="2695.28" x2="2516.23" y2="2695.28" style="stroke:#F0F0F0;stroke-width:9.72"/>
	<line x1="2548.63" y1="2695.28" x2="2613.43" y2="2695.28" style="stroke:#F0F0F0;stroke-width:9.72"/>
	<line x1="2645.83" y1="2695.28" x2="2710.63" y2="2695.28" style="stroke:#F0F0F0;stroke-width:9.72"/>
	<line x1="2743.03" y1="2695.28" x2="2807.83" y2="2695.28" style="stroke:#F0F0F0;stroke-width:9.72"/>
	<line x1="2840.23" y1="2695.28" x2="2905.03" y2="2695.28" style="stroke:#F0F0F0;stroke-width:9.72"/>
	<line x1="2937.43" y1="2695.28" x2="3002.23" y2="2695.28" style="stroke:#F0F0F0;stroke-width:9.72"/>
	<line x1="3034.63" y1="2695.28" x2="3099.43" y2="2695.28" style="stroke:#F0F0F0;stroke-width:9.72"/>
	<line x1="3131.83" y1="2695.28" x2="3196.63" y2="2695.28" style="stroke:#F0F0F0;stroke-width:9.72"/>
	<line x1="3229.03" y1="2695.28" x2="3293.83" y2="2695.28" style="stroke:#F0F0F0;stroke-width:9.72"/>
	<line x1="3326.23" y1="2695.28" x2="3391.03" y2="2695.28" style="stroke:#F0F0F0;stroke-width:9.72"/>
	<line x1="3423.43" y1="2695.28" x2="3488.23" y2="2695.28" style="stroke:#F0F0F0;stroke-width:9.72"/>
	<line x1="3520.63" y1="2695.28" x2="3585.43" y2="2695.28" style="stroke:#F0F0F0;stroke-width:9.72"/>
	<line x1="3617.83" y1="2695.28" x2="3682.63" y2="2695.28" style="stroke:#F0F0F0;stroke-width:9.72"/>
	<line x1="3715.03" y1="2695.28" x2="3779.83" y2="2695.28" style="stroke:#F0F0F0;stroke-width:9.72"/>
	<line x1="3812.23" y1="2695.28" x2="3877.03" y2="2695.28" style="stroke:#F0F0F0;stroke-width:9.72"/>
	<line x1="3909.43" y1="2695.28" x2="3974.23" y2="2695.28" style="stroke:#F0F0F0;stroke-width:9.72"/>
	<line x1="4006.63" y1="2695.28" x2="4051.35" y2="2695.28" style="stroke:#F0F0F0;stroke-width:9.72"/>
	<line x1="410.23" y1="1885.44" x2="475.03" y2="1885.44" style="stroke:#F0F0F0;stroke-width:9.72"/>
	<line x1="507.43" y1="1885.44" x2="572.23" y2="1885.44" style="stroke:#F0F0F0;stroke-width:9.72"/>
	<line x1="604.63" y1="1885.44" x2="669.43" y2="1885.44" style="stroke:#F0F0F0;stroke-width:9.72"/>
	<line x1="701.83" y1="1885.44" x2="766.63" y2="1885.44" style="stroke:#F0F0F0;stroke-width:9.72"/>
	<line x1="799.03" y1="1885.44" x2="863.83" y2="1885.44" style="stroke:#F0F0F0;stroke-width:9.72"/>
	<line x1="896.23" y1="1885.44" x2="961.03" y2="1885.44" style="stroke:#F0F0F0;stroke-width:9.72"/>
	<line x1="993.43" y1="1885.44" x2="1058.23" y2="1885.44" style="stroke:#F0F0F0;stroke-width:9.72"/>
	<line x1="1090.63" y1="1885.44" x2="1155.43" y2="1885.44" style="stroke:#F0F0F0;stroke-width:9.72"/>
	<line x1="1187.83" y1="1885.44" x2="1252.63" y2="1885.44" style="stroke:#F0F0F0;stroke-width:9.72"/>
	<line x1="1285.03" y1="1885.44" x2="1349.83" y2="1885.44" style="stroke:#F0F0F0;stroke-width:9.72"/>
	<line x1="1382.23" y1="1885.44" x2="1447.03" y2="1885.44" style="stroke:#F0F0F0;stroke-width:9.72"/>
	<line x1="1479.43" y1="1885.44" x2="1544.23" y2="1885.44" style="stroke:#F0F0F0;stroke-width:9.72"/>
	<line x1="1576.63" y1="1885.44" x2="1641.43" y2="1885.44" style="stroke:#F0F0F0;stroke-width:9.72"/>
	<line x1="1673.83" y1="1885.44" x2="1738.63" y2="1885.44" style="stroke:#F0F0F0;stroke-width:9.72"/>
	<line x1="1771.03" y1="1885.44" x2="1835.83" y2="1885.44" style="stroke:#F0F0F0;stroke-width:9.72"/>
	<line x1="1868.23" y1="1885.44" x2="1933.03" y2="1885.44" style="stroke:#F0F0F0;stroke-width:9.72"/>
	<line x1="1965.43" y1="1885.44" x2="2030.23" y2="1885.44" style="stroke:#F0F0F0;stroke-width:9.72"/>
	<line x1="2062.63" y1="1885.44" x2="2127.43" y2="1885.44" style="stroke:#F0F0F0;stroke-width:9.72"/>
	<line x1="2159.83" y1="1885.44" x2="2224.63" y2="1885.44" style="stroke:#F0F0F0;stroke-width:9.72"/>
	<line x1="2257.03" y1="1885.44" x2="2321.83" y2="1885.44" style="stroke:#F0F0F0;stroke-width:9.72"/>
	<line x1="2354.23" y1="1885.44" x2="2419.03" y2="1885.44" style="stroke:#F0F0F0;stroke-width:9.72"/>
	<line x1="2451.43" y1="1885.44" x2="2516.23" y2="1885.44" style="stroke:#F0F0F0;stroke-width:9.72"/>
	<line x1="2548.63" y1="1885.44" x2="2613.43" y2="1885.44" style="stroke:#F0F0F0;stroke-width:9.72"/>
	<line x1="2645.83" y1="1885.44" x2="2710.63" y2="1885.44" style="stroke:#F0F0F0;stroke-width:9.72"/>
	<line x1="2743.03" y1="1885.44" x2="2807.83" y2="1885.44" style="stroke:#F0F0F0;stroke-width:9.72"/>
	<line x1="2840.23" y1="1885.44" x2="2905.03" y2="1885.44" style="stroke:#F0F0F0;stroke-width:9.72"/>
	<line x1="2937.43" y1="1885.44" x2="3002.23" y2="1885.44" style="stroke:#F0F0F0;stroke-width:9.72"/>
	<line x1="3034.63" y1="1885.44" x2="3099.43" y2="1885.44" style="stroke:#F0F0F0;stroke-width:9.72"/>
	<line x1="3131.83" y1="1885.44" x2="3196.63" y2="1885.44" style="stroke:#F0F0F0;stroke-width:9.72"/>
	<line x1="3229.03" y1="1885.44" x2="3293.83" y2="1885.44" style="stroke:#F0F0F0;stroke-width:9.72"/>
	<line x1="3326.23" y1="1885.44" x2="3391.03" y2="1885.44" style="stroke:#F0F0F0;stroke-width:9.72"/>
	<line x1="3423.43" y1="1885.44" x2="3488.23" y2="1885.44" style="stroke:#F0F0F0;stroke-width:9.72"/>
	<line x1="3520.63" y1="1885.44" x2="3585.43" y2="1885.44" style="stroke:#F0F0F0;stroke-width:9.72"/>
	<line x1="3617.83" y1="1885.44" x2="3682.63" y2="1885.44" style="stroke:#F0F0F0;stroke-width:9.72"/>
	<line x1="3715.03" y1="1885.44" x2="3779.83" y2="1885.44" style="stroke:#F0F0F0;stroke-width:9.72"/>
	<line x1="3812.23" y1="1885.44" x2="3877.03" y2="1885.44" style="stroke:#F0F0F0;stroke-width:9.72"/>
	<line x1="3909.43" y1="1885.44" x2="3974.23" y2="1885.44" style="stroke:#F0F0F0;stroke-width:9.72"/>
	<line x1="4006.63" y1="1885.44" x2="4051.35" y2="1885.44" style="stroke:#F0F0F0;stroke-width:9.72"/>
	<line x1="410.23" y1="1075.61" x2="475.03" y2="1075.61" style="stroke:#F0F0F0;stroke-width:9.72"/>
	<line x1="507.43" y1="1075.61" x2="572.23" y2="1075.61" style="stroke:#F0F0F0;stroke-width:9.72"/>
	<line x1="604.63" y1="1075.61" x2="669.43" y2="1075.61" style="stroke:#F0F0F0;stroke-width:9.72"/>
	<line x1="701.83" y1="1075.61" x2="766.63" y2="1075.61" style="stroke:#F0F0F0;stroke-width:9.72"/>
	<line x1="799.03" y1="1075.61" x2="863.83" y2="1075.61" style="stroke:#F0F0F0;stroke-width:9.72"/>
	<line x1="896.23" y1="1075.61" x2="961.03" y2="1075.61" style="stroke:#F0F0F0;stroke-width:9.72"/>
	<line x1="993.43" y1="1075.61" x2="1058.23" y2="1075.61" style="stroke:#F0F0F0;stroke-width:9.72"/>
	<line x1="1090.63" y1="1075.61" x2="1155.43" y2="1075.61" style="stroke:#F0F0F0;stroke-width:9.72"/>
	<line x1="1187.83" y1="1075.61" x2="1252.63" y2="1075.61" style="stroke:#F0F0F0;stroke-width:9.72"/>
	<line x1="1285.03" y1="1075.61" x2="1349.83" y2="1075.61" style="stroke:#F0F0F0;stroke-width:9.72"/>
	<line x1="1382.23" y1="1075.61" x2="1447.03" y2="1075.61" style="stroke:#F0F0F0;stroke-width:9.72"/>
	<line x1="1479.43" y1="1075.61" x2="1544.23" y2="1075.61" style="stroke:#F0F0F0;stroke-width:9.72"/>
	<line x1="1576.63" y1="1075.61" x2="1641.43" y2="1075.61" style="stroke:#F0F0F0;stroke-width:9.72"/>
	<line x1="1673.83" y1="1075.61" x2="1738.63" y2="1075.61" style="stroke:#F0F0F0;stroke-width:9.72"/>
	<line x1="1771.03" y1="1075.61" x2="1835.83" y2="1075.61" style="stroke:#F0F0F0;stroke-width:9.72"/>
	<line x1="1868.23" y1="1075.61" x2="1933.03" y2="1075.61" style="stroke:#F0F0F0;stroke-width:9.72"/>
	<line x1="1965.43" y1="1075.61" x2="2030.23" y2="1075.61" style="stroke:#F0F0F0;stroke-width:9.72"/>
	<line x1="2062.63" y1="1075.61" x2="2127.43" y2="1075.61" style="stroke:#F0F0F0;stroke-width:9.72"/>
	<line x1="2159.83" y1="1075.61" x2="2224.63" y2="1075.61" style="stroke:#F0F0F0;stroke-width:9.72"/>
	<line x1="2257.03" y1="1075.61" x2="2321.83" y2="1075.61" style="stroke:#F0F0F0;stroke-width:9.72"/>
	<line x1="2354.23" y1="1075.61" x2="2419.03" y2="1075.61" style="stroke:#F0F0F0;stroke-width:9.72"/>
	<line x1="2451.43" y1="1075.61" x2="2516.23" y2="1075.61" style="stroke:#F0F0F0;stroke-width:9.72"/>
	<line x1="2548.63" y1="1075.61" x2="2613.43" y2="1075.61" style="stroke:#F0F0F0;stroke-width:9.72"/>
	<line x1="2645.83" y1="1075.61" x2="2710.63" y2="1075.61" style="stroke:#F0F0F0;stroke-width:9.72"/>
	<line x1="2743.03" y1="1075.61" x2="2807.83" y2="1075.61" style="stroke:#F0F0F0;stroke-width:9.72"/>
	<line x1="2840.23" y1="1075.61" x2="2905.03" y2="1075.61" style="stroke:#F0F0F0;stroke-width:9.72"/>
	<line x1="2937.43" y1="1075.61" x2="3002.23" y2="1075.61" style="stroke:#F0F0F0;stroke-width:9.72"/>
	<line x1="3034.63" y1="1075.61" x2="3099.43" y2="1075.61" style="stroke:#F0F0F0;stroke-width:9.72"/>
	<line x1="3131.83" y1="1075.61" x2="3196.63" y2="1075.61" style="stroke:#F0F0F0;stroke-width:9.72"/>
	<line x1="3229.03" y1="1075.61" x2="3293.83" y2="1075.61" style="stroke:#F0F0F0;stroke-width:9.72"/>
	<line x1="3326.23" y1="1075.61" x2="3391.03" y2="1075.61" style="stroke:#F0F0F0;stroke-width:9.72"/>
	<line x1="3423.43" y1="1075.61" x2="3488.23" y2="1075.61" style="stroke:#F0F0F0;stroke-width:9.72"/>
	<line x1="3520.63" y1="1075.61" x2="3585.43" y2="1075.61" style="stroke:#F0F0F0;stroke-width:9.72"/>
	<line x1="3617.83" y1="1075.61" x2="3682.63" y2="1075.61" style="stroke:#F0F0F0;stroke-width:9.72"/>
	<line x1="3715.03" y1="1075.61" x2="3779.83" y2="1075.61" style="stroke:#F0F0F0;stroke-width:9.72"/>
	<line x1="3812.23" y1="1075.61" x2="3877.03" y2="1075.61" style="stroke:#F0F0F0;stroke-width:9.72"/>
	<line x1="3909.43" y1="1075.61" x2="3974.23" y2="1075.61" style="stroke:#F0F0F0;stroke-width:9.72"/>
	<line x1="4006.63" y1="1075.61" x2="4051.35" y2="1075.61" style="stroke:#F0F0F0;stroke-width:9.72"/>
	<line x1="410.23" y1="265.61" x2="475.03" y2="265.61" style="stroke:#F0F0F0;stroke-width:9.72"/>
	<line x1="507.43" y1="265.61" x2="572.23" y2="265.61" style="stroke:#F0F0F0;stroke-width:9.72"/>
	<line x1="604.63" y1="265.61" x2="669.43" y2="265.61" style="stroke:#F0F0F0;stroke-width:9.72"/>
	<line x1="701.83" y1="265.61" x2="766.63" y2="265.61" style="stroke:#F0F0F0;stroke-width:9.72"/>
	<line x1="799.03" y1="265.61" x2="863.83" y2="265.61" style="stroke:#F0F0F0;stroke-width:9.72"/>
	<line x1="896.23" y1="265.61" x2="961.03" y2="265.61" style="stroke:#F0F0F0;stroke-width:9.72"/>
	<line x1="993.43" y1="265.61" x2="1058.23" y2="265.61" style="stroke:#F0F0F0;stroke-width:9.72"/>
	<line x1="1090.63" y1="265.61" x2="1155.43" y2="265.61" style="stroke:#F0F0F0;stroke-width:9.72"/>
	<line x1="1187.83" y1="265.61" x2="1252.63" y2="265.61" style="stroke:#F0F0F0;stroke-width:9.72"/>
	<line x1="1285.03" y1="265.61" x2="1349.83" y2="265.61" style="stroke:#F0F0F0;stroke-width:9.72"/>
	<line x1="1382.23" y1="265.61" x2="1447.03" y2="265.61" style="stroke:#F0F0F0;stroke-width:9.72"/>
	<line x1="1479.43" y1="265.61" x2="1544.23" y2="265.61" style="stroke:#F0F0F0;stroke-width:9.72"/>
	<line x1="1576.63" y1="265.61" x2="1641.43" y2="265.61" style="stroke:#F0F0F0;stroke-width:9.72"/>
	<line x1="1673.83" y1="265.61" x2="1738.63" y2="265.61" style="stroke:#F0F0F0;stroke-width:9.72"/>
	<line x1="1771.03" y1="265.61" x2="1835.83" y2="265.61" style="stroke:#F0F0F0;stroke-width:9.72"/>
	<line x1="1868.23" y1="265.61" x2="1933.03" y2="265.61" style="stroke:#F0F0F0;stroke-width:9.72"/>
	<line x1="1965.43" y1="265.61" x2="2030.23" y2="265.61" style="stroke:#F0F0F0;stroke-width:9.72"/>
	<line x1="2062.63" y1="265.61" x2="2127.43" y2="265.61" style="stroke:#F0F0F0;stroke-width:9.72"/>
	<line x1="2159.83" y1="265.61" x2="2224.63" y2="265.61" style="stroke:#F0F0F0;stroke-width:9.72"/>
	<line x1="2257.03" y1="265.61" x2="2321.83" y2="265.61" style="stroke:#F0F0F0;stroke-width:9.72"/>
	<line x1="2354.23" y1="265.61" x2="2419.03" y2="265.61" style="stroke:#F0F0F0;stroke-width:9.72"/>
	<line x1="2451.43" y1="265.61" x2="2516.23" y2="265.61" style="stroke:#F0F0F0;stroke-width:9.72"/>
	<line x1="2548.63" y1="265.61" x2="2613.43" y2="265.61" style="stroke:#F0F0F0;stroke-width:9.72"/>
	<line x1="2645.83" y1="265.61" x2="2710.63" y2="265.61" style="stroke:#F0F0F0;stroke-width:9.72"/>
	<line x1="2743.03" y1="265.61" x2="2807.83" y2="265.61" style="stroke:#F0F0F0;stroke-width:9.72"/>
	<line x1="2840.23" y1="265.61" x2="2905.03" y2="265.61" style="stroke:#F0F0F0;stroke-width:9.72"/>
	<line x1="2937.43" y1="265.61" x2="3002.23" y2="265.61" style="stroke:#F0F0F0;stroke-width:9.72"/>
	<line x1="3034.63" y1="265.61" x2="3099.43" y2="265.61" style="stroke:#F0F0F0;stroke-width:9.72"/>
	<line x1="3131.83" y1="265.61" x2="3196.63" y2="265.61" style="stroke:#F0F0F0;stroke-width:9.72"/>
	<line x1="3229.03" y1="265.61" x2="3293.83" y2="265.61" style="stroke:#F0F0F0;stroke-width:9.72"/>
	<line x1="3326.23" y1="265.61" x2="3391.03" y2="265.61" style="stroke:#F0F0F0;stroke-width:9.72"/>
	<line x1="3423.43" y1="265.61" x2="3488.23" y2="265.61" style="stroke:#F0F0F0;stroke-width:9.72"/>
	<line x1="3520.63" y1="265.61" x2="3585.43" y2="265.61" style="stroke:#F0F0F0;stroke-width:9.72"/>
	<line x1="3617.83" y1="265.61" x2="3682.63" y2="265.61" style="stroke:#F0F0F0;stroke-width:9.72"/>
	<line x1="3715.03" y1="265.61" x2="3779.83" y2="265.61" style="stroke:#F0F0F0;stroke-width:9.72"/>
	<line x1="3812.23" y1="265.61" x2="3877.03" y2="265.61" style="stroke:#F0F0F0;stroke-width:9.72"/>
	<line x1="3909.43" y1="265.61" x2="3974.23" y2="265.61" style="stroke:#F0F0F0;stroke-width:9.72"/>
	<line x1="4006.63" y1="265.61" x2="4051.35" y2="265.61" style="stroke:#F0F0F0;stroke-width:9.72"/>
	<line x1="740.64" y1="2766.66" x2="740.64" y2="2701.86" style="stroke:#F0F0F0;stroke-width:9.72"/>
	<line x1="740.64" y1="2669.46" x2="740.64" y2="2604.66" style="stroke:#F0F0F0;stroke-width:9.72"/>
	<line x1="740.64" y1="2572.26" x2="740.64" y2="2507.46" style="stroke:#F0F0F0;stroke-width:9.72"/>
	<line x1="740.64" y1="2475.06" x2="740.64" y2="2410.26" style="stroke:#F0F0F0;stroke-width:9.72"/>
	<line x1="740.64" y1="2377.86" x2="740.64" y2="2313.06" style="stroke:#F0F0F0;stroke-width:9.72"/>
	<line x1="740.64" y1="2280.66" x2="740.64" y2="2215.86" style="stroke:#F0F0F0;stroke-width:9.72"/>
	<line x1="740.64" y1="2183.46" x2="740.64" y2="2118.66" style="stroke:#F0F0F0;stroke-width:9.72"/>
	<line x1="740.64" y1="2086.26" x2="740.64" y2="2021.46" style="stroke:#F0F0F0;stroke-width:9.72"/>
	<line x1="740.64" y1="1989.06" x2="740.64" y2="1924.26" style="stroke:#F0F0F0;stroke-width:9.72"/>
	<line x1="740.64" y1="1891.86" x2="740.64" y2="1827.06" style="stroke:#F0F0F0;stroke-width:9.72"/>
	<line x1="740.64" y1="1794.66" x2="740.64" y2="1729.86" style="stroke:#F0F0F0;stroke-width:9.72"/>
	<line x1="740.64" y1="1697.46" x2="740.64" y2="1632.66" style="stroke:#F0F0F0;stroke-width:9.72"/>
	<line x1="740.64" y1="1600.26" x2="740.64" y2="1535.46" style="stroke:#F0F0F0;stroke-width:9.72"/>
	<line x1="740.64" y1="1503.06" x2="740.64" y2="1438.26" style="stroke:#F0F0F0;stroke-width:9.72"/>
	<line x1="740.64" y1="1405.86" x2="740.64" y2="1341.06" style="stroke:#F0F0F0;stroke-width:9.72"/>
	<line x1="740.64" y1="1308.66" x2="740.64" y2="1243.86" style="stroke:#F0F0F0;stroke-width:9.72"/>
	<line x1="740.64" y1="1211.46" x2="740.64" y2="1146.66" style="stroke:#F0F0F0;stroke-width:9.72"/>
	<line x1="740.64" y1="1114.26" x2="740.64" y2="1049.46" style="stroke:#F0F0F0;stroke-width:9.72"/>
	<line x1="740.64" y1="1017.06" x2="740.64" y2="952.26" style="stroke:#F0F0F0;stroke-width:9.72"/>
	<line x1="740.64" y1="919.86" x2="740.64" y2="855.06" style="stroke:#F0F0F0;stroke-width:9.72"/>
	<line x1="740.64" y1="822.66" x2="740.64" y2="757.86" style="stroke:#F0F0F0;stroke-width:9.72"/>
	<line x1="740.64" y1="725.46" x2="740.64" y2="660.66" style="stroke:#F0F0F0;stroke-width:9.72"/>
	<line x1="740.64" y1="628.26" x2="740.64" y2="563.46" style="stroke:#F0F0F0;stroke-width:9.72"/>
	<line x1="740.64" y1="531.06" x2="740.64" y2="466.26" style="stroke:#F0F0F0;stroke-width:9.72"/>
	<line x1="740.64" y1="433.86" x2="740.64" y2="369.06" style="stroke:#F0F0F0;stroke-width:9.72"/>
	<line x1="740.64" y1="336.66" x2="740.64" y2="271.86" style="stroke:#F0F0F0;stroke-width:9.72"/>
	<line x1="740.64" y1="239.46" x2="740.64" y2="174.66" style="stroke:#F0F0F0;stroke-width:9.72"/>
	<line x1="740.64" y1="142.26" x2="740.64" y2="113.40" style="stroke:#F0F0F0;stroke-width:9.72"/>
	<line x1="1820.48" y1="2766.66" x2="1820.48" y2="2701.86" style="stroke:#F0F0F0;stroke-width:9.72"/>
	<line x1="1820.48" y1="2669.46" x2="1820.48" y2="2604.66" style="stroke:#F0F0F0;stroke-width:9.72"/>
	<line x1="1820.48" y1="2572.26" x2="1820.48" y2="2507.46" style="stroke:#F0F0F0;stroke-width:9.72"/>
	<line x1="1820.48" y1="2475.06" x2="1820.48" y2="2410.26" style="stroke:#F0F0F0;stroke-width:9.72"/>
	<line x1="1820.48" y1="2377.86" x2="1820.48" y2="2313.06" style="stroke:#F0F0F0;stroke-width:9.72"/>
	<line x1="1820.48" y1="2280.66" x2="1820.48" y2="2215.86" style="stroke:#F0F0F0;stroke-width:9.72"/>
	<line x1="1820.48" y1="2183.46" x2="1820.48" y2="2118.66" style="stroke:#F0F0F0;stroke-width:9.72"/>
	<line x1="1820.48" y1="2086.26" x2="1820.48" y2="2021.46" style="stroke:#F0F0F0;stroke-width:9.72"/>
	<line x1="1820.48" y1="1989.06" x2="1820.48" y2="1924.26" style="stroke:#F0F0F0;stroke-width:9.72"/>
	<line x1="1820.48" y1="1891.86" x2="1820.48" y2="1827.06" style="stroke:#F0F0F0;stroke-width:9.72"/>
	<line x1="1820.48" y1="1794.66" x2="1820.48" y2="1729.86" style="stroke:#F0F0F0;stroke-width:9.72"/>
	<line x1="1820.48" y1="1697.46" x2="1820.48" y2="1632.66" style="stroke:#F0F0F0;stroke-width:9.72"/>
	<line x1="1820.48" y1="1600.26" x2="1820.48" y2="1535.46" style="stroke:#F0F0F0;stroke-width:9.72"/>
	<line x1="1820.48" y1="1503.06" x2="1820.48" y2="1438.26" style="stroke:#F0F0F0;stroke-width:9.72"/>
	<line x1="1820.48" y1="1405.86" x2="1820.48" y2="1341.06" style="stroke:#F0F0F0;stroke-width:9.72"/>
	<line x1="1820.48" y1="1308.66" x2="1820.48" y2="1243.86" style="stroke:#F0F0F0;stroke-width:9.72"/>
	<line x1="1820.48" y1="1211.46" x2="1820.48" y2="1146.66" style="stroke:#F0F0F0;stroke-width:9.72"/>
	<line x1="1820.48" y1="1114.26" x2="1820.48" y2="1049.46" style="stroke:#F0F0F0;stroke-width:9.72"/>
	<line x1="1820.48" y1="1017.06" x2="1820.48" y2="952.26" style="stroke:#F0F0F0;stroke-width:9.72"/>
	<line x1="1820.48" y1="919.86" x2="1820.48" y2="855.06" style="stroke:#F0F0F0;stroke-width:9.72"/>
	<line x1="1820.48" y1="822.66" x2="1820.48" y2="757.86" style="stroke:#F0F0F0;stroke-width:9.72"/>
	<line x1="1820.48" y1="725.46" x2="1820.48" y2="660.66" style="stroke:#F0F0F0;stroke-width:9.72"/>
	<line x1="1820.48" y1="628.26" x2="1820.48" y2="563.46" style="stroke:#F0F0F0;stroke-width:9.72"/>
	<line x1="1820.48" y1="531.06" x2="1820.48" y2="466.26" style="stroke:#F0F0F0;stroke-width:9.72"/>
	<line x1="1820.48" y1="433.86" x2="1820.48" y2="369.06" style="stroke:#F0F0F0;stroke-width:9.72"/>
	<line x1="1820.48" y1="336.66" x2="1820.48" y2="271.86" style="stroke:#F0F0F0;stroke-width:9.72"/>
	<line x1="1820.48" y1="239.46" x2="1820.48" y2="174.66" style="stroke:#F0F0F0;stroke-width:9.72"/>
	<line x1="1820.48" y1="142.26" x2="1820.48" y2="113.40" style="stroke:#F0F0F0;stroke-width:9.72"/>
	<line x1="2900.31" y1="2766.66" x2="2900.31" y2="2701.86" style="stroke:#F0F0F0;stroke-width:9.72"/>
	<line x1="2900.31" y1="2669.46" x2="2900.31" y2="2604.66" style="stroke:#F0F0F0;stroke-width:9.72"/>
	<line x1="2900.31" y1="2572.26" x2="2900.31" y2="2507.46" style="stroke:#F0F0F0;stroke-width:9.72"/>
	<line x1="2900.31" y1="2475.06" x2="2900.31" y2="2410.26" style="stroke:#F0F0F0;stroke-width:9.72"/>
	<line x1="2900.31" y1="2377.86" x2="2900.31" y2="2313.06" style="stroke:#F0F0F0;stroke-width:9.72"/>
	<line x1="2900.31" y1="2280.66" x2="2900.31" y2="2215.86" style="stroke:#F0F0F0;stroke-width:9.72"/>
	<line x1="2900.31" y1="2183.46" x2="2900.31" y2="2118.66" style="stroke:#F0F0F0;stroke-width:9.72"/>
	<line x1="2900.31" y1="2086.26" x2="2900.31" y2="2021.46" style="stroke:#F0F0F0;stroke-width:9.72"/>
	<line x1="2900.31" y1="1989.06" x2="2900.31" y2="1924.26" style="stroke:#F0F0F0;stroke-width:9.72"/>
	<line x1="2900.31" y1="1891.86" x2="2900.31" y2="1827.06" style="stroke:#F0F0F0;stroke-width:9.72"/>
	<line x1="2900.31" y1="1794.66" x2="2900.31" y2="1729.86" style="stroke:#F0F0F0;stroke-width:9.72"/>
	<line x1="2900.31" y1="1697.46" x2="2900.31" y2="1632.66" style="stroke:#F0F0F0;stroke-width:9.72"/>
	<line x1="2900.31" y1="1600.26" x2="2900.31" y2="1535.46" style="stroke:#F0F0F0;stroke-width:9.72"/>
	<line x1="2900.31" y1="1503.06" x2="2900.31" y2="1438.26" style="stroke:#F0F0F0;stroke-width:9.72"/>
	<line x1="2900.31" y1="1405.86" x2="2900.31" y2="1341.06" style="stroke:#F0F0F0;stroke-width:9.72"/>
	<line x1="2900.31" y1="1308.66" x2="2900.31" y2="1243.86" style="stroke:#F0F0F0;stroke-width:9.72"/>
	<line x1="2900.31" y1="1211.46" x2="2900.31" y2="1146.66" style="stroke:#F0F0F0;stroke-width:9.72"/>
	<line x1="2900.31" y1="1114.26" x2="2900.31" y2="1049.46" style="stroke:#F0F0F0;stroke-width:9.72"/>
	<line x1="2900.31" y1="1017.06" x2="2900.31" y2="952.26" style="stroke:#F0F0F0;stroke-width:9.72"/>
	<line x1="2900.31" y1="919.86" x2="2900.31" y2="855.06" style="stroke:#F0F0F0;stroke-width:9.72"/>
	<line x1="2900.31" y1="822.66" x2="2900.31" y2="757.86" style="stroke:#F0F0F0;stroke-width:9.72"/>
	<line x1="2900.31" y1="725.46" x2="2900.31" y2="660.66" style="stroke:#F0F0F0;stroke-width:9.72"/>
	<line x1="2900.31" y1="628.26" x2="2900.31" y2="563.46" style="stroke:#F0F0F0;stroke-width:9.72"/>
	<line x1="2900.31" y1="531.06" x2="2900.31" y2="466.26" style="stroke:#F0F0F0;stroke-width:9.72"/>
	<line x1="2900.31" y1="433.86" x2="2900.31" y2="369.06" style="stroke:#F0F0F0;stroke-width:9.72"/>
	<line x1="2900.31" y1="336.66" x2="2900.31" y2="271.86" style="stroke:#F0F0F0;stroke-width:9.72"/>
	<line x1="2900.31" y1="239.46" x2="2900.31" y2="174.66" style="stroke:#F0F0F0;stroke-width:9.72"/>
	<line x1="2900.31" y1="142.26" x2="2900.31" y2="113.40" style="stroke:#F0F0F0;stroke-width:9.72"/>
	<line x1="3980.14" y1="2766.66" x2="3980.14" y2="2701.86" style="stroke:#F0F0F0;stroke-width:9.72"/>
	<line x1="3980.14" y1="2669.46" x2="3980.14" y2="2604.66" style="stroke:#F0F0F0;stroke-width:9.72"/>
	<line x1="3980.14" y1="2572.26" x2="3980.14" y2="2507.46" style="stroke:#F0F0F0;stroke-width:9.72"/>
	<line x1="3980.14" y1="2475.06" x2="3980.14" y2="2410.26" style="stroke:#F0F0F0;stroke-width:9.72"/>
	<line x1="3980.14" y1="2377.86" x2="3980.14" y2="2313.06" style="stroke:#F0F0F0;stroke-width:9.72"/>
	<line x1="3980.14" y1="2280.66" x2="3980.14" y2="2215.86" style="stroke:#F0F0F0;stroke-width:9.72"/>
	<line x1="3980.14" y1="2183.46" x2="3980.14" y2="2118.66" style="stroke:#F0F0F0;stroke-width:9.72"/>
	<line x1="3980.14" y1="2086.26" x2="3980.14" y2="2021.46" style="stroke:#F0F0F0;stroke-width:9.72"/>
	<line x1="3980.14" y1="1989.06" x2="3980.14" y2="1924.26" style="stroke:#F0F0F0;stroke-width:9.72"/>
	<line x1="3980.14" y1="1891.86" x2="3980.14" y2="1827.06" style="stroke:#F0F0F0;stroke-width:9.72"/>
	<line x1="3980.14" y1="1794.66" x2="3980.14" y2="1729.86" style="stroke:#F0F0F0;stroke-width:9.72"/>
	<line x1="3980.14" y1="1697.46" x2="3980.14" y2="1632.66" style="stroke:#F0F0F0;stroke-width:9.72"/>
	<line x1="3980.14" y1="1600.26" x2="3980.14" y2="1535.46" style="stroke:#F0F0F0;stroke-width:9.72"/>
	<line x1="3980.14" y1="1503.06" x2="3980.14" y2="1438.26" style="stroke:#F0F0F0;stroke-width:9.72"/>
	<line x1="3980.14" y1="1405.86" x2="3980.14" y2="1341.06" style="stroke:#F0F0F0;stroke-width:9.72"/>
	<line x1="3980.14" y1="1308.66" x2="3980.14" y2="1243.86" style="stroke:#F0F0F0;stroke-width:9.72"/>
	<line x1="3980.14" y1="1211.46" x2="3980.14" y2="1146.66" style="stroke:#F0F0F0;stroke-width:9.72"/>
	<line x1="3980.14" y1="1114.26" x2="3980.14" y2="1049.46" style="stroke:#F0F0F0;stroke-width:9.72"/>
	<line x1="3980.14" y1="1017.06" x2="3980.14" y2="952.26" style="stroke:#F0F0F0;stroke-width:9.72"/>
	<line x1="3980.14" y1="919.86" x2="3980.14" y2="855.06" style="stroke:#F0F0F0;stroke-width:9.72"/>
	<line x1="3980.14" y1="822.66" x2="3980.14" y2="757.86" style="stroke:#F0F0F0;stroke-width:9.72"/>
	<line x1="3980.14" y1="725.46" x2="3980.14" y2="660.66" style="stroke:#F0F0F0;stroke-width:9.72"/>
	<line x1="3980.14" y1="628.26" x2="3980.14" y2="563.46" style="stroke:#F0F0F0;stroke-width:9.72"/>
	<line x1="3980.14" y1="531.06" x2="3980.14" y2="466.26" style="stroke:#F0F0F0;stroke-width:9.72"/>
	<line x1="3980.14" y1="433.86" x2="3980.14" y2="369.06" style="stroke:#F0F0F0;stroke-width:9.72"/>
	<line x1="3980.14" y1="336.66" x2="3980.14" y2="271.86" style="stroke:#F0F0F0;stroke-width:9.72"/>
	<line x1="3980.14" y1="239.46" x2="3980.14" y2="174.66" style="stroke:#F0F0F0;stroke-width:9.72"/>
	<line x1="3980.14" y1="142.26" x2="3980.14" y2="113.40" style="stroke:#F0F0F0;stroke-width:9.72"/>
	<polygon points="1744.88,1697.02 1721.84,1736.91 1767.91,1736.91" style="fill:#1A85FF"/>
	<polygon points="1744.88,1706.74 1730.26,1732.05 1759.49,1732.05" style="fill:none;stroke:#1A85FF;stroke-width:9.72"/>
	<polygon points="2198.31,2101.85 2175.27,2141.74 2221.34,2141.74" style="fill:#1A85FF"/>
	<polygon points="2198.31,2111.57 2183.69,2136.88 2212.92,2136.88" style="fill:none;stroke:#1A85FF;stroke-width:9.72"/>
	<polygon points="1431.68,1697.02 1408.64,1736.91 1454.71,1736.91" style="fill:#1A85FF"/>
	<polygon points="1431.68,1706.74 1417.06,1732.05 1446.29,1732.05" style="fill:none;stroke:#1A85FF;stroke-width:9.72"/>
	<polygon points="2090.31,1858.85 2067.27,1898.74 2113.34,1898.74" style="fill:#1A85FF"/>
	<polygon points="2090.31,1868.57 2075.69,1893.88 2104.92,1893.88" style="fill:none;stroke:#1A85FF;stroke-width:9.72"/>
	<polygon points="2986.54,2263.85 2963.51,2303.74 3009.57,2303.74" style="fill:#1A85FF"/>
	<polygon points="2986.54,2273.57 2971.92,2298.88 3001.15,2298.88" style="fill:none;stroke:#1A85FF;stroke-width:9.72"/>
	<polygon points="2543.91,2020.85 2520.87,2060.74 2566.94,2060.74" style="fill:#1A85FF"/>
	<polygon points="2543.91,2030.57 2529.29,2055.88 2558.52,2055.88" style="fill:none;stroke:#1A85FF;stroke-width:9.72"/>
	<polygon points="988.88,1373.02 965.84,1412.91 1011.91,1412.91" style="fill:#1A85FF"/>
	<polygon points="988.88,1382.74 974.26,1408.05 1003.49,1408.05" style="fill:none;stroke:#1A85FF;stroke-width:9.72"/>
	<polygon points="2122.71,1858.85 2099.67,1898.74 2145.74,1898.74" style="fill:#1A85FF"/>
	<polygon points="2122.71,1868.57 2108.09,1893.88 2137.32,1893.88" style="fill:none;stroke:#1A85FF;stroke-width:9.72"/>
	<polygon points="2770.71,2182.85 2747.67,2222.74 2793.74,2222.74" style="fill:#1A85FF"/>
	<polygon points="2770.71,2192.57 2756.09,2217.88 2785.32,2217.88" style="fill:none;stroke:#1A85FF;stroke-width:9.72"/>
	<polygon points="2252.31,1939.85 2229.27,1979.74 2275.34,1979.74" style="fill:#1A85FF"/>
	<polygon points="2252.31,1949.57 2237.69,1974.88 2266.92,1974.88" style="fill:none;stroke:#1A85FF;stroke-width:9.72"/>
	<polygon points="3256.54,2344.85 3233.51,2384.74 3279.57,2384.74" style="fill:#1A85FF"/>
	<polygon points="3256.54,2354.57 3241.92,2379.88 3271.15,2379.88" style="fill:none;stroke:#1A85FF;stroke-width:9.72"/>
	<polygon points="2792.31,2344.85 2769.27,2384.74 2815.34,2384.74" style="fill:#1A85FF"/>
	<polygon points="2792.31,2354.57 2777.69,2379.88 2806.92,2379.88" style="fill:none;stroke:#1A85FF;stroke-width:9.72"/>
	<polygon points="3213.34,1778.02 3190.31,1817.91 3236.37,1817.91" style="fill:#1A85FF"/>
	<polygon points="3213.34,1787.74 3198.72,1813.05 3227.95,1813.05" style="fill:none;stroke:#1A85FF;stroke-width:9.72"/>
	<polygon points="859.28,1130.02 836.24,1169.91 882.31,1169.91" style="fill:#1A85FF"/>
	<polygon points="859.28,1139.74 844.66,1165.05 873.89,1165.05" style="fill:none;stroke:#1A85FF;stroke-width:9.72"/>
	<polygon points="2565.51,2182.85 2542.47,2222.74 2588.54,2222.74" style="fill:#1A85FF"/>
	<polygon points="2565.51,2192.57 2550.89,2217.88 2580.12,2217.88" style="fill:none;stroke:#1A85FF;stroke-width:9.72"/>
	<polygon points="2014.71,1697.02 1991.67,1736.91 2037.74,1736.91" style="fill:#1A85FF"/>
	<polygon points="2014.71,1706.74 2000.09,1732.05 2029.32,1732.05" style="fill:none;stroke:#1A85FF;stroke-width:9.72"/>
	<polygon points="2057.91,1697.02 2034.87,1736.91 2080.94,1736.91" style="fill:#1A85FF"/>
	<polygon points="2057.91,1706.74 2043.29,1732.05 2072.52,1732.05" style="fill:none;stroke:#1A85FF;stroke-width:9.72"/>
	<polygon points="1550.48,1535.02 1527.44,1574.91 1573.51,1574.91" style="fill:#1A85FF"/>
	<polygon points="1550.48,1544.74 1535.86,1570.05 1565.09,1570.05" style="fill:none;stroke:#1A85FF;stroke-width:9.72"/>
	<polygon points="2284.71,1939.85 2261.67,1979.74 2307.74,1979.74" style="fill:#1A85FF"/>
	<polygon points="2284.71,1949.57 2270.09,1974.88 2299.32,1974.88" style="fill:none;stroke:#1A85FF;stroke-width:9.72"/>
	<polygon points="870.08,1049.02 847.04,1088.91 893.11,1088.91" style="fill:#1A85FF"/>
	<polygon points="870.08,1058.74 855.46,1084.05 884.69,1084.05" style="fill:none;stroke:#1A85FF;stroke-width:9.72"/>
	<polygon points="2468.31,2020.85 2445.27,2060.74 2491.34,2060.74" style="fill:#1A85FF"/>
	<polygon points="2468.31,2030.57 2453.69,2055.88 2482.92,2055.88" style="fill:none;stroke:#1A85FF;stroke-width:9.72"/>
	<polygon points="2468.31,2182.85 2445.27,2222.74 2491.34,2222.74" style="fill:#1A85FF"/>
	<polygon points="2468.31,2192.57 2453.69,2217.88 2482.92,2217.88" style="fill:none;stroke:#1A85FF;stroke-width:9.72"/>
	<polygon points="2619.51,2101.85 2596.47,2141.74 2642.54,2141.74" style="fill:#1A85FF"/>
	<polygon points="2619.51,2111.57 2604.89,2136.88 2634.12,2136.88" style="fill:none;stroke:#1A85FF;stroke-width:9.72"/>
	<polygon points="524.64,1211.02 501.61,1250.91 547.68,1250.91" style="fill:#1A85FF"/>
	<polygon points="524.64,1220.74 510.03,1246.05 539.26,1246.05" style="fill:none;stroke:#1A85FF;stroke-width:9.72"/>
	<polygon points="1442.48,1778.02 1419.44,1817.91 1465.51,1817.91" style="fill:#1A85FF"/>
	<polygon points="1442.48,1787.74 1427.86,1813.05 1457.09,1813.05" style="fill:none;stroke:#1A85FF;stroke-width:9.72"/>
	<polygon points="3807.34,2506.85 3784.31,2546.74 3830.37,2546.74" style="fill:#1A85FF"/>
	<polygon points="3807.34,2516.57 3792.72,2541.88 3821.95,2541.88" style="fill:none;stroke:#1A85FF;stroke-width:9.72"/>
	<polygon points="3677.74,2506.85 3654.71,2546.74 3700.77,2546.74" style="fill:#1A85FF"/>
	<polygon points="3677.74,2516.57 3663.12,2541.88 3692.35,2541.88" style="fill:none;stroke:#1A85FF;stroke-width:9.72"/>
	<polygon points="2716.71,2344.85 2693.67,2384.74 2739.74,2384.74" style="fill:#1A85FF"/>
	<polygon points="2716.71,2354.57 2702.09,2379.88 2731.32,2379.88" style="fill:none;stroke:#1A85FF;stroke-width:9.72"/>
	<polygon points="1366.88,1697.02 1343.84,1736.91 1389.91,1736.91" style="fill:#1A85FF"/>
	<polygon points="1366.88,1706.74 1352.26,1732.05 1381.49,1732.05" style="fill:none;stroke:#1A85FF;stroke-width:9.72"/>
	<polygon points="2964.94,2344.85 2941.91,2384.74 2987.97,2384.74" style="fill:#1A85FF"/>
	<polygon points="2964.94,2354.57 2950.32,2379.88 2979.55,2379.88" style="fill:none;stroke:#1A85FF;stroke-width:9.72"/>
	<polygon points="2597.91,2263.85 2574.87,2303.74 2620.94,2303.74" style="fill:#1A85FF"/>
	<polygon points="2597.91,2273.57 2583.29,2298.88 2612.52,2298.88" style="fill:none;stroke:#1A85FF;stroke-width:9.72"/>
	<polygon points="2219.91,2020.85 2196.87,2060.74 2242.94,2060.74" style="fill:#1A85FF"/>
	<polygon points="2219.91,2030.57 2205.29,2055.88 2234.52,2055.88" style="fill:none;stroke:#1A85FF;stroke-width:9.72"/>
	<polygon points="3040.54,2344.85 3017.51,2384.74 3063.57,2384.74" style="fill:#1A85FF"/>
	<polygon points="3040.54,2354.57 3025.92,2379.88 3055.15,2379.88" style="fill:none;stroke:#1A85FF;stroke-width:9.72"/>
	<polygon points="1636.88,1858.85 1613.84,1898.74 1659.91,1898.74" style="fill:#1A85FF"/>
	<polygon points="1636.88,1868.57 1622.26,1893.88 1651.49,1893.88" style="fill:none;stroke:#1A85FF;stroke-width:9.72"/>
	<polygon points="2964.94,1778.02 2941.91,1817.91 2987.97,1817.91" style="fill:#1A85FF"/>
	<polygon points="2964.94,1787.74 2950.32,1813.05 2979.55,1813.05" style="fill:none;stroke:#1A85FF;stroke-width:9.72"/>
	<polygon points="2155.11,1939.85 2132.07,1979.74 2178.14,1979.74" style="fill:#1A85FF"/>
	<polygon points="2155.11,1949.57 2140.49,1974.88 2169.72,1974.88" style="fill:none;stroke:#1A85FF;stroke-width:9.72"/>
	<polygon points="2144.31,1939.85 2121.27,1979.74 2167.34,1979.74" style="fill:#1A85FF"/>
	<polygon points="2144.31,1949.57 2129.69,1974.88 2158.92,1974.88" style="fill:none;stroke:#1A85FF;stroke-width:9.72"/>
	<polygon points="2565.51,2020.85 2542.47,2060.74 2588.54,2060.74" style="fill:#1A85FF"/>
	<polygon points="2565.51,2030.57 2550.89,2055.88 2580.12,2055.88" style="fill:none;stroke:#1A85FF;stroke-width:9.72"/>
	<polygon points="2219.91,1939.85 2196.87,1979.74 2242.94,1979.74" style="fill:#1A85FF"/>
	<polygon points="2219.91,1949.57 2205.29,1974.88 2234.52,1974.88" style="fill:none;stroke:#1A85FF;stroke-width:9.72"/>
	<polygon points="1528.88,1535.02 1505.84,1574.91 1551.91,1574.91" style="fill:#1A85FF"/>
	<polygon points="1528.88,1544.74 1514.26,1570.05 1543.49,1570.05" style="fill:none;stroke:#1A85FF;stroke-width:9.72"/>
	<polygon points="2932.54,2182.85 2909.51,2222.74 2955.57,2222.74" style="fill:#1A85FF"/>
	<polygon points="2932.54,2192.57 2917.92,2217.88 2947.15,2217.88" style="fill:none;stroke:#1A85FF;stroke-width:9.72"/>
	<polygon points="2101.11,1211.02 2078.07,1250.91 2124.14,1250.91" style="fill:#1A85FF"/>
	<polygon points="2101.11,1220.74 2086.49,1246.05 2115.72,1246.05" style="fill:none;stroke:#1A85FF;stroke-width:9.72"/>
	<polygon points="524.64,725.02 501.61,764.91 547.68,764.91" style="fill:#1A85FF"/>
	<polygon points="524.64,734.74 510.03,760.05 539.26,760.05" style="fill:none;stroke:#1A85FF;stroke-width:9.72"/>
	<polygon points="956.48,1454.02 933.44,1493.91 979.51,1493.91" style="fill:#1A85FF"/>
	<polygon points="956.48,1463.74 941.86,1489.05 971.09,1489.05" style="fill:none;stroke:#1A85FF;stroke-width:9.72"/>
	<polygon points="1302.08,1373.02 1279.04,1412.91 1325.11,1412.91" style="fill:#1A85FF"/>
	<polygon points="1302.08,1382.74 1287.46,1408.05 1316.69,1408.05" style="fill:none;stroke:#1A85FF;stroke-width:9.72"/>
	<polygon points="2176.71,2020.85 2153.67,2060.74 2199.74,2060.74" style="fill:#1A85FF"/>
	<polygon points="2176.71,2030.57 2162.09,2055.88 2191.32,2055.88" style="fill:none;stroke:#1A85FF;stroke-width:9.72"/>
	<polygon points="2576.31,2020.85 2553.27,2060.74 2599.34,2060.74" style="fill:#1A85FF"/>
	<polygon points="2576.31,2030.57 2561.69,2055.88 2590.92,2055.88" style="fill:none;stroke:#1A85FF;stroke-width:9.72"/>
	<polygon points="2327.91,2020.85 2304.87,2060.74 2350.94,2060.74" style="fill:#1A85FF"/>
	<polygon points="2327.91,2030.57 2313.29,2055.88 2342.52,2055.88" style="fill:none;stroke:#1A85FF;stroke-width:9.72"/>
	<polygon points="2047.11,1939.85 2024.07,1979.74 2070.14,1979.74" style="fill:#1A85FF"/>
	<polygon points="2047.11,1949.57 2032.49,1974.88 2061.72,1974.88" style="fill:none;stroke:#1A85FF;stroke-width:9.72"/>
	<polygon points="2036.31,1939.85 2013.27,1979.74 2059.34,1979.74" style="fill:#1A85FF"/>
	<polygon points="2036.31,1949.57 2021.69,1974.88 2050.92,1974.88" style="fill:none;stroke:#1A85FF;stroke-width:9.72"/>
	<polygon points="2273.91,1939.85 2250.87,1979.74 2296.94,1979.74" style="fill:#1A85FF"/>
	<polygon points="2273.91,1949.57 2259.29,1974.88 2288.52,1974.88" style="fill:none;stroke:#1A85FF;stroke-width:9.72"/>
	<polygon points="1485.68,1535.02 1462.64,1574.91 1508.71,1574.91" style="fill:#1A85FF"/>
	<polygon points="1485.68,1544.74 1471.06,1570.05 1500.29,1570.05" style="fill:none;stroke:#1A85FF;stroke-width:9.72"/>
	<polygon points="1636.88,2101.85 1613.84,2141.74 1659.91,2141.74" style="fill:#1A85FF"/>
	<polygon points="1636.88,2111.57 1622.26,2136.88 1651.49,2136.88" style="fill:none;stroke:#1A85FF;stroke-width:9.72"/>
	<polygon points="816.24,1616.02 793.21,1655.91 839.28,1655.91" style="fill:#1A85FF"/>
	<polygon points="816.24,1625.74 801.63,1651.05 830.86,1651.05" style="fill:none;stroke:#1A85FF;stroke-width:9.72"/>
	<polygon points="1442.48,1454.02 1419.44,1493.91 1465.51,1493.91" style="fill:#1A85FF"/>
	<polygon points="1442.48,1463.74 1427.86,1489.05 1457.09,1489.05" style="fill:none;stroke:#1A85FF;stroke-width:9.72"/>
	<polygon points="1140.08,1616.02 1117.04,1655.91 1163.11,1655.91" style="fill:#1A85FF"/>
	<polygon points="1140.08,1625.74 1125.46,1651.05 1154.69,1651.05" style="fill:none;stroke:#1A85FF;stroke-width:9.72"/>
	<polygon points="762.24,644.02 739.21,683.91 785.28,683.91" style="fill:#1A85FF"/>
	<polygon points="762.24,653.74 747.63,679.05 776.86,679.05" style="fill:none;stroke:#1A85FF;stroke-width:9.72"/>
	<polygon points="1042.88,1535.02 1019.84,1574.91 1065.91,1574.91" style="fill:#1A85FF"/>
	<polygon points="1042.88,1544.74 1028.26,1570.05 1057.49,1570.05" style="fill:none;stroke:#1A85FF;stroke-width:9.72"/>
	<polygon points="1550.48,1778.02 1527.44,1817.91 1573.51,1817.91" style="fill:#1A85FF"/>
	<polygon points="1550.48,1787.74 1535.86,1813.05 1565.09,1813.05" style="fill:none;stroke:#1A85FF;stroke-width:9.72"/>
	<polygon points="880.88,1778.02 857.84,1817.91 903.91,1817.91" style="fill:#1A85FF"/>
	<polygon points="880.88,1787.74 866.26,1813.05 895.49,1813.05" style="fill:none;stroke:#1A85FF;stroke-width:9.72"/>
	<polygon points="999.68,1454.02 976.64,1493.91 1022.71,1493.91" style="fill:#1A85FF"/>
	<polygon points="999.68,1463.74 985.06,1489.05 1014.29,1489.05" style="fill:none;stroke:#1A85FF;stroke-width:9.72"/>
	<polygon points="481.44,1211.02 458.41,1250.91 504.48,1250.91" style="fill:#1A85FF"/>
	<polygon points="481.44,1220.74 466.83,1246.05 496.06,1246.05" style="fill:none;stroke:#1A85FF;stroke-width:9.72"/>
	<polygon points="719.04,1049.02 696.01,1088.91 742.08,1088.91" style="fill:#1A85FF"/>
	<polygon points="719.04,1058.74 704.43,1084.05 733.66,1084.05" style="fill:none;stroke:#1A85FF;stroke-width:9.72"/>
	<polygon points="2273.91,2344.85 2250.87,2384.74 2296.94,2384.74" style="fill:#1A85FF"/>
	<polygon points="2273.91,2354.57 2259.29,2379.88 2288.52,2379.88" style="fill:none;stroke:#1A85FF;stroke-width:9.72"/>
	<polygon points="557.04,1373.02 534.01,1412.91 580.08,1412.91" style="fill:#1A85FF"/>
	<polygon points="557.04,1382.74 542.43,1408.05 571.66,1408.05" style="fill:none;stroke:#1A85FF;stroke-width:9.72"/>
	<polygon points="794.64,644.02 771.61,683.91 817.68,683.91" style="fill:#1A85FF"/>
	<polygon points="794.64,653.74 780.03,679.05 809.26,679.05" style="fill:none;stroke:#1A85FF;stroke-width:9.72"/>
	<polygon points="1183.28,2020.85 1160.24,2060.74 1206.31,2060.74" style="fill:#1A85FF"/>
	<polygon points="1183.28,2030.57 1168.66,2055.88 1197.89,2055.88" style="fill:none;stroke:#1A85FF;stroke-width:9.72"/>
	<polygon points="956.48,968.02 933.44,1007.91 979.51,1007.91" style="fill:#1A85FF"/>
	<polygon points="956.48,977.74 941.86,1003.05 971.09,1003.05" style="fill:none;stroke:#1A85FF;stroke-width:9.72"/>
	<polygon points="1464.08,2020.85 1441.04,2060.74 1487.11,2060.74" style="fill:#1A85FF"/>
	<polygon points="1464.08,2030.57 1449.46,2055.88 1478.69,2055.88" style="fill:none;stroke:#1A85FF;stroke-width:9.72"/>
	<polygon points="913.28,1616.02 890.24,1655.91 936.31,1655.91" style="fill:#1A85FF"/>
	<polygon points="913.28,1625.74 898.66,1651.05 927.89,1651.05" style="fill:none;stroke:#1A85FF;stroke-width:9.72"/>
	<polygon points="783.84,158.19 760.81,198.08 806.88,198.08" style="fill:#1A85FF"/>
	<polygon points="783.84,167.91 769.23,193.22 798.46,193.22" style="fill:none;stroke:#1A85FF;stroke-width:9.72"/>
	<polygon points="665.04,1454.02 642.01,1493.91 688.08,1493.91" style="fill:#1A85FF"/>
	<polygon points="665.04,1463.74 650.43,1489.05 679.66,1489.05" style="fill:none;stroke:#1A85FF;stroke-width:9.72"/>
	<polygon points="729.84,1454.02 706.81,1493.91 752.88,1493.91" style="fill:#1A85FF"/>
	<polygon points="729.84,1463.74 715.23,1489.05 744.46,1489.05" style="fill:none;stroke:#1A85FF;stroke-width:9.72"/>
	<polygon points="2003.91,2101.85 1980.87,2141.74 2026.94,2141.74" style="fill:#1A85FF"/>
	<polygon points="2003.91,2111.57 1989.29,2136.88 2018.52,2136.88" style="fill:none;stroke:#1A85FF;stroke-width:9.72"/>
	<path d=" M481.44 1167.58 L2144.31 1917.00 L3807.34 2666.42" stroke-linejoin="round" style="fill:none;stroke:#008000;stroke-width:9.72"/>
	<line x1="410.23" y1="2766.66" x2="410.23" y2="113.40" style="stroke:#000000;stroke-width:6.48"/>
	<line x1="410.23" y1="2695.28" x2="365.18" y2="2695.28" style="stroke:#000000;stroke-width:6.48"/>
	<text x="342.73" y="2734.71" style="font-family:'Helvetica';font-size:112.56px;fill:#000000" text-anchor="end">10</text>
	<line x1="410.23" y1="1885.44" x2="365.18" y2="1885.44" style="stroke:#000000;stroke-width:6.48"/>
	<text x="342.73" y="1924.88" style="font-family:'Helvetica';font-size:112.56px;fill:#000000" text-anchor="end">20</text>
	<line x1="410.23" y1="1075.61" x2="365.18" y2="1075.61" style="stroke:#000000;stroke-width:6.48"/>
	<text x="342.73" y="1115.05" style="font-family:'Helvetica';font-size:112.56px;fill:#000000" text-anchor="end">30</text>
	<line x1="410.23" y1="265.61" x2="365.18" y2="265.61" style="stroke:#000000;stroke-width:6.48"/>
	<text x="342.73" y="305.05" style="font-family:'Helvetica';font-size:112.56px;fill:#000000" text-anchor="end">40</text>
	<line x1="410.23" y1="2766.66" x2="4051.35" y2="2766.66" style="stroke:#000000;stroke-width:6.48"/>
	<line x1="740.64" y1="2766.66" x2="740.64" y2="2811.54" style="stroke:#000000;stroke-width:6.48"/>
	<text x="740.64" y="2912.86" style="font-family:'Helvetica';font-size:112.56px;fill:#000000" text-anchor="middle">2,000</text>
	<line x1="1820.48" y1="2766.66" x2="1820.48" y2="2811.54" style="stroke:#000000;stroke-width:6.48"/>
	<text x="1820.48" y="2912.86" style="font-family:'Helvetica';font-size:112.56px;fill:#000000" text-anchor="middle">3,000</text>
	<line x1="2900.31" y1="2766.66" x2="2900.31" y2="2811.54" style="stroke:#000000;stroke-width:6.48"/>
	<text x="2900.31" y="2912.86" style="font-family:'Helvetica';font-size:112.56px;fill:#000000" text-anchor="middle">4,000</text>
	<line x1="3980.14" y1="2766.66" x2="3980.14" y2="2811.54" style="stroke:#000000;stroke-width:6.48"/>
	<text x="3980.14" y="2912.86" style="font-family:'Helvetica';font-size:112.56px;fill:#000000" text-anchor="middle">5,000</text>
	<text x="2230.88" y="3070.31" style="font-family:'Helvetica';font-size:112.56px;fill:#000000" text-anchor="middle">Weight (lbs.)</text>
	<rect x="4090.33" y="1256.34" width="1157.46" height="367.20" style="fill:#FFFFFF"/>
	<rect x="4093.57" y="1259.58" width="1150.98" height="360.72" style="fill:none;stroke:#FFFFFF;stroke-width:6.48"/>
	<polygon points="4268.53,1334.71 4245.50,1374.60 4291.56,1374.60" style="fill:#1A85FF"/>
	<polygon points="4268.53,1344.43 4253.92,1369.74 4283.15,1369.74" style="fill:none;stroke:#1A85FF;stroke-width:9.72"/>
	<line x1="4138.93" y1="1518.75" x2="4398.13" y2="1518.75" style="stroke:#008000;stroke-width:9.72"/>
	<text x="4465.63" y="1400.74" style="font-family:'Helvetica';font-size:112.56px;fill:#000000">Mileage (mpg)</text>
	<text x="4465.63" y="1558.19" style="font-family:'Helvetica';font-size:112.56px;fill:#000000">Fitted values</text>
</svg>
