<?xml version="1.0" encoding="UTF-8" standalone="no"?>
<!-- This is a Stata 18.0 generated SVG file (http://www.stata.com) -->

<svg version="1.1" width="7.500in" height="4.500in" viewBox="0 0 5400 3240" xmlns="http://www.w3.org/2000/svg" xmlns:xlink="http://www.w3.org/1999/xlink">
	<desc>Stata Graph - Graph</desc>
	<rect x="0" y="0" width="5400" height="3240" style="fill:#FFFFFF;stroke:none"/>
	<rect x="0.00" y="0.00" width="5400.00" height="3240.00" style="fill:#FFFFFF"/>
	<rect x="3.24" y="3.24" width="5393.52" height="3233.52" style="fill:none;stroke:#FFFFFF;stroke-width:6.48"/>
	<rect x="522.79" y="293.96" width="3879.39" height="2472.69" style="fill:#FFFFFF"/>
	<rect x="526.03" y="297.20" width="3872.91" height="2466.21" style="fill:none;stroke:#FFFFFF;stroke-width:6.48"/>
	<line x1="522.79" y1="2671.48" x2="587.59" y2="2671.48" style="stroke:#F0F0F0;stroke-width:9.72"/>
	<line x1="619.99" y1="2671.48" x2="684.79" y2="2671.48" style="stroke:#F0F0F0;stroke-width:9.72"/>
	<line x1="717.19" y1="2671.48" x2="781.99" y2="2671.48" style="stroke:#F0F0F0;stroke-width:9.72"/>
	<line x1="814.39" y1="2671.48" x2="879.19" y2="2671.48" style="stroke:#F0F0F0;stroke-width:9.72"/>
	<line x1="911.59" y1="2671.48" x2="976.39" y2="2671.48" style="stroke:#F0F0F0;stroke-width:9.72"/>
	<line x1="1008.79" y1="2671.48" x2="1073.59" y2="2671.48" style="stroke:#F0F0F0;stroke-width:9.72"/>
	<line x1="1105.99" y1="2671.48" x2="1170.79" y2="2671.48" style="stroke:#F0F0F0;stroke-width:9.72"/>
	<line x1="1203.19" y1="2671.48" x2="1267.99" y2="2671.48" style="stroke:#F0F0F0;stroke-width:9.72"/>
	<line x1="1300.39" y1="2671.48" x2="1365.19" y2="2671.48" style="stroke:#F0F0F0;stroke-width:9.72"/>
	<line x1="1397.59" y1="2671.48" x2="1462.39" y2="2671.48" style="stroke:#F0F0F0;stroke-width:9.72"/>
	<line x1="1494.79" y1="2671.48" x2="1559.59" y2="2671.48" style="stroke:#F0F0F0;stroke-width:9.72"/>
	<line x1="1591.99" y1="2671.48" x2="1656.79" y2="2671.48" style="stroke:#F0F0F0;stroke-width:9.72"/>
	<line x1="1689.19" y1="2671.48" x2="1753.99" y2="2671.48" style="stroke:#F0F0F0;stroke-width:9.72"/>
	<line x1="1786.39" y1="2671.48" x2="1851.19" y2="2671.48" style="stroke:#F0F0F0;stroke-width:9.72"/>
	<line x1="1883.59" y1="2671.48" x2="1948.39" y2="2671.48" style="stroke:#F0F0F0;stroke-width:9.72"/>
	<line x1="1980.79" y1="2671.48" x2="2045.59" y2="2671.48" style="stroke:#F0F0F0;stroke-width:9.72"/>
	<line x1="2077.99" y1="2671.48" x2="2142.79" y2="2671.48" style="stroke:#F0F0F0;stroke-width:9.72"/>
	<line x1="2175.19" y1="2671.48" x2="2239.99" y2="2671.48" style="stroke:#F0F0F0;stroke-width:9.72"/>
	<line x1="2272.39" y1="2671.48" x2="2337.19" y2="2671.48" style="stroke:#F0F0F0;stroke-width:9.72"/>
	<line x1="2369.59" y1="2671.48" x2="2434.39" y2="2671.48" style="stroke:#F0F0F0;stroke-width:9.72"/>
	<line x1="2466.79" y1="2671.48" x2="2531.59" y2="2671.48" style="stroke:#F0F0F0;stroke-width:9.72"/>
	<line x1="2563.99" y1="2671.48" x2="2628.79" y2="2671.48" style="stroke:#F0F0F0;stroke-width:9.72"/>
	<line x1="2661.19" y1="2671.48" x2="2725.99" y2="2671.48" style="stroke:#F0F0F0;stroke-width:9.72"/>
	<line x1="2758.39" y1="2671.48" x2="2823.19" y2="2671.48" style="stroke:#F0F0F0;stroke-width:9.72"/>
	<line x1="2855.59" y1="2671.48" x2="2920.39" y2="2671.48" style="stroke:#F0F0F0;stroke-width:9.72"/>
	<line x1="2952.79" y1="2671.48" x2="3017.59" y2="2671.48" style="stroke:#F0F0F0;stroke-width:9.72"/>
	<line x1="3049.99" y1="2671.48" x2="3114.79" y2="2671.48" style="stroke:#F0F0F0;stroke-width:9.72"/>
	<line x1="3147.19" y1="2671.48" x2="3211.99" y2="2671.48" style="stroke:#F0F0F0;stroke-width:9.72"/>
	<line x1="3244.39" y1="2671.48" x2="3309.19" y2="2671.48" style="stroke:#F0F0F0;stroke-width:9.72"/>
	<line x1="3341.59" y1="2671.48" x2="3406.39" y2="2671.48" style="stroke:#F0F0F0;stroke-width:9.72"/>
	<line x1="3438.79" y1="2671.48" x2="3503.59" y2="2671.48" style="stroke:#F0F0F0;stroke-width:9.72"/>
	<line x1="3535.99" y1="2671.48" x2="3600.79" y2="2671.48" style="stroke:#F0F0F0;stroke-width:9.72"/>
	<line x1="3633.19" y1="2671.48" x2="3697.99" y2="2671.48" style="stroke:#F0F0F0;stroke-width:9.72"/>
	<line x1="3730.39" y1="2671.48" x2="3795.19" y2="2671.48" style="stroke:#F0F0F0;stroke-width:9.72"/>
	<line x1="3827.59" y1="2671.48" x2="3892.39" y2="2671.48" style="stroke:#F0F0F0;stroke-width:9.72"/>
	<line x1="3924.79" y1="2671.48" x2="3989.59" y2="2671.48" style="stroke:#F0F0F0;stroke-width:9.72"/>
	<line x1="4021.99" y1="2671.48" x2="4086.79" y2="2671.48" style="stroke:#F0F0F0;stroke-width:9.72"/>
	<line x1="4119.19" y1="2671.48" x2="4183.99" y2="2671.48" style="stroke:#F0F0F0;stroke-width:9.72"/>
	<line x1="4216.39" y1="2671.48" x2="4281.19" y2="2671.48" style="stroke:#F0F0F0;stroke-width:9.72"/>
	<line x1="4313.59" y1="2671.48" x2="4378.39" y2="2671.48" style="stroke:#F0F0F0;stroke-width:9.72"/>
	<line x1="522.79" y1="2094.86" x2="587.59" y2="2094.86" style="stroke:#F0F0F0;stroke-width:9.72"/>
	<line x1="619.99" y1="2094.86" x2="684.79" y2="2094.86" style="stroke:#F0F0F0;stroke-width:9.72"/>
	<line x1="717.19" y1="2094.86" x2="781.99" y2="2094.86" style="stroke:#F0F0F0;stroke-width:9.72"/>
	<line x1="814.39" y1="2094.86" x2="879.19" y2="2094.86" style="stroke:#F0F0F0;stroke-width:9.72"/>
	<line x1="911.59" y1="2094.86" x2="976.39" y2="2094.86" style="stroke:#F0F0F0;stroke-width:9.72"/>
	<line x1="1008.79" y1="2094.86" x2="1073.59" y2="2094.86" style="stroke:#F0F0F0;stroke-width:9.72"/>
	<line x1="1105.99" y1="2094.86" x2="1170.79" y2="2094.86" style="stroke:#F0F0F0;stroke-width:9.72"/>
	<line x1="1203.19" y1="2094.86" x2="1267.99" y2="2094.86" style="stroke:#F0F0F0;stroke-width:9.72"/>
	<line x1="1300.39" y1="2094.86" x2="1365.19" y2="2094.86" style="stroke:#F0F0F0;stroke-width:9.72"/>
	<line x1="1397.59" y1="2094.86" x2="1462.39" y2="2094.86" style="stroke:#F0F0F0;stroke-width:9.72"/>
	<line x1="1494.79" y1="2094.86" x2="1559.59" y2="2094.86" style="stroke:#F0F0F0;stroke-width:9.72"/>
	<line x1="1591.99" y1="2094.86" x2="1656.79" y2="2094.86" style="stroke:#F0F0F0;stroke-width:9.72"/>
	<line x1="1689.19" y1="2094.86" x2="1753.99" y2="2094.86" style="stroke:#F0F0F0;stroke-width:9.72"/>
	<line x1="1786.39" y1="2094.86" x2="1851.19" y2="2094.86" style="stroke:#F0F0F0;stroke-width:9.72"/>
	<line x1="1883.59" y1="2094.86" x2="1948.39" y2="2094.86" style="stroke:#F0F0F0;stroke-width:9.72"/>
	<line x1="1980.79" y1="2094.86" x2="2045.59" y2="2094.86" style="stroke:#F0F0F0;stroke-width:9.72"/>
	<line x1="2077.99" y1="2094.86" x2="2142.79" y2="2094.86" style="stroke:#F0F0F0;stroke-width:9.72"/>
	<line x1="2175.19" y1="2094.86" x2="2239.99" y2="2094.86" style="stroke:#F0F0F0;stroke-width:9.72"/>
	<line x1="2272.39" y1="2094.86" x2="2337.19" y2="2094.86" style="stroke:#F0F0F0;stroke-width:9.72"/>
	<line x1="2369.59" y1="2094.86" x2="2434.39" y2="2094.86" style="stroke:#F0F0F0;stroke-width:9.72"/>
	<line x1="2466.79" y1="2094.86" x2="2531.59" y2="2094.86" style="stroke:#F0F0F0;stroke-width:9.72"/>
	<line x1="2563.99" y1="2094.86" x2="2628.79" y2="2094.86" style="stroke:#F0F0F0;stroke-width:9.72"/>
	<line x1="2661.19" y1="2094.86" x2="2725.99" y2="2094.86" style="stroke:#F0F0F0;stroke-width:9.72"/>
	<line x1="2758.39" y1="2094.86" x2="2823.19" y2="2094.86" style="stroke:#F0F0F0;stroke-width:9.72"/>
	<line x1="2855.59" y1="2094.86" x2="2920.39" y2="2094.86" style="stroke:#F0F0F0;stroke-width:9.72"/>
	<line x1="2952.79" y1="2094.86" x2="3017.59" y2="2094.86" style="stroke:#F0F0F0;stroke-width:9.72"/>
	<line x1="3049.99" y1="2094.86" x2="3114.79" y2="2094.86" style="stroke:#F0F0F0;stroke-width:9.72"/>
	<line x1="3147.19" y1="2094.86" x2="3211.99" y2="2094.86" style="stroke:#F0F0F0;stroke-width:9.72"/>
	<line x1="3244.39" y1="2094.86" x2="3309.19" y2="2094.86" style="stroke:#F0F0F0;stroke-width:9.72"/>
	<line x1="3341.59" y1="2094.86" x2="3406.39" y2="2094.86" style="stroke:#F0F0F0;stroke-width:9.72"/>
	<line x1="3438.79" y1="2094.86" x2="3503.59" y2="2094.86" style="stroke:#F0F0F0;stroke-width:9.72"/>
	<line x1="3535.99" y1="2094.86" x2="3600.79" y2="2094.86" style="stroke:#F0F0F0;stroke-width:9.72"/>
	<line x1="3633.19" y1="2094.86" x2="3697.99" y2="2094.86" style="stroke:#F0F0F0;stroke-width:9.72"/>
	<line x1="3730.39" y1="2094.86" x2="3795.19" y2="2094.86" style="stroke:#F0F0F0;stroke-width:9.72"/>
	<line x1="3827.59" y1="2094.86" x2="3892.39" y2="2094.86" style="stroke:#F0F0F0;stroke-width:9.72"/>
	<line x1="3924.79" y1="2094.86" x2="3989.59" y2="2094.86" style="stroke:#F0F0F0;stroke-width:9.72"/>
	<line x1="4021.99" y1="2094.86" x2="4086.79" y2="2094.86" style="stroke:#F0F0F0;stroke-width:9.72"/>
	<line x1="4119.19" y1="2094.86" x2="4183.99" y2="2094.86" style="stroke:#F0F0F0;stroke-width:9.72"/>
	<line x1="4216.39" y1="2094.86" x2="4281.19" y2="2094.86" style="stroke:#F0F0F0;stroke-width:9.72"/>
	<line x1="4313.59" y1="2094.86" x2="4378.39" y2="2094.86" style="stroke:#F0F0F0;stroke-width:9.72"/>
	<line x1="522.79" y1="1518.41" x2="587.59" y2="1518.41" style="stroke:#F0F0F0;stroke-width:9.72"/>
	<line x1="619.99" y1="1518.41" x2="684.79" y2="1518.41" style="stroke:#F0F0F0;stroke-width:9.72"/>
	<line x1="717.19" y1="1518.41" x2="781.99" y2="1518.41" style="stroke:#F0F0F0;stroke-width:9.72"/>
	<line x1="814.39" y1="1518.41" x2="879.19" y2="1518.41" style="stroke:#F0F0F0;stroke-width:9.72"/>
	<line x1="911.59" y1="1518.41" x2="976.39" y2="1518.41" style="stroke:#F0F0F0;stroke-width:9.72"/>
	<line x1="1008.79" y1="1518.41" x2="1073.59" y2="1518.41" style="stroke:#F0F0F0;stroke-width:9.72"/>
	<line x1="1105.99" y1="1518.41" x2="1170.79" y2="1518.41" style="stroke:#F0F0F0;stroke-width:9.72"/>
	<line x1="1203.19" y1="1518.41" x2="1267.99" y2="1518.41" style="stroke:#F0F0F0;stroke-width:9.72"/>
	<line x1="1300.39" y1="1518.41" x2="1365.19" y2="1518.41" style="stroke:#F0F0F0;stroke-width:9.72"/>
	<line x1="1397.59" y1="1518.41" x2="1462.39" y2="1518.41" style="stroke:#F0F0F0;stroke-width:9.72"/>
	<line x1="1494.79" y1="1518.41" x2="1559.59" y2="1518.41" style="stroke:#F0F0F0;stroke-width:9.72"/>
	<line x1="1591.99" y1="1518.41" x2="1656.79" y2="1518.41" style="stroke:#F0F0F0;stroke-width:9.72"/>
	<line x1="1689.19" y1="1518.41" x2="1753.99" y2="1518.41" style="stroke:#F0F0F0;stroke-width:9.72"/>
	<line x1="1786.39" y1="1518.41" x2="1851.19" y2="1518.41" style="stroke:#F0F0F0;stroke-width:9.72"/>
	<line x1="1883.59" y1="1518.41" x2="1948.39" y2="1518.41" style="stroke:#F0F0F0;stroke-width:9.72"/>
	<line x1="1980.79" y1="1518.41" x2="2045.59" y2="1518.41" style="stroke:#F0F0F0;stroke-width:9.72"/>
	<line x1="2077.99" y1="1518.41" x2="2142.79" y2="1518.41" style="stroke:#F0F0F0;stroke-width:9.72"/>
	<line x1="2175.19" y1="1518.41" x2="2239.99" y2="1518.41" style="stroke:#F0F0F0;stroke-width:9.72"/>
	<line x1="2272.39" y1="1518.41" x2="2337.19" y2="1518.41" style="stroke:#F0F0F0;stroke-width:9.72"/>
	<line x1="2369.59" y1="1518.41" x2="2434.39" y2="1518.41" style="stroke:#F0F0F0;stroke-width:9.72"/>
	<line x1="2466.79" y1="1518.41" x2="2531.59" y2="1518.41" style="stroke:#F0F0F0;stroke-width:9.72"/>
	<line x1="2563.99" y1="1518.41" x2="2628.79" y2="1518.41" style="stroke:#F0F0F0;stroke-width:9.72"/>
	<line x1="2661.19" y1="1518.41" x2="2725.99" y2="1518.41" style="stroke:#F0F0F0;stroke-width:9.72"/>
	<line x1="2758.39" y1="1518.41" x2="2823.19" y2="1518.41" style="stroke:#F0F0F0;stroke-width:9.72"/>
	<line x1="2855.59" y1="1518.41" x2="2920.39" y2="1518.41" style="stroke:#F0F0F0;stroke-width:9.72"/>
	<line x1="2952.79" y1="1518.41" x2="3017.59" y2="1518.41" style="stroke:#F0F0F0;stroke-width:9.72"/>
	<line x1="3049.99" y1="1518.41" x2="3114.79" y2="1518.41" style="stroke:#F0F0F0;stroke-width:9.72"/>
	<line x1="3147.19" y1="1518.41" x2="3211.99" y2="1518.41" style="stroke:#F0F0F0;stroke-width:9.72"/>
	<line x1="3244.39" y1="1518.41" x2="3309.19" y2="1518.41" style="stroke:#F0F0F0;stroke-width:9.72"/>
	<line x1="3341.59" y1="1518.41" x2="3406.39" y2="1518.41" style="stroke:#F0F0F0;stroke-width:9.72"/>
	<line x1="3438.79" y1="1518.41" x2="3503.59" y2="1518.41" style="stroke:#F0F0F0;stroke-width:9.72"/>
	<line x1="3535.99" y1="1518.41" x2="3600.79" y2="1518.41" style="stroke:#F0F0F0;stroke-width:9.72"/>
	<line x1="3633.19" y1="1518.41" x2="3697.99" y2="1518.41" style="stroke:#F0F0F0;stroke-width:9.72"/>
	<line x1="3730.39" y1="1518.41" x2="3795.19" y2="1518.41" style="stroke:#F0F0F0;stroke-width:9.72"/>
	<line x1="3827.59" y1="1518.41" x2="3892.39" y2="1518.41" style="stroke:#F0F0F0;stroke-width:9.72"/>
	<line x1="3924.79" y1="1518.41" x2="3989.59" y2="1518.41" style="stroke:#F0F0F0;stroke-width:9.72"/>
	<line x1="4021.99" y1="1518.41" x2="4086.79" y2="1518.41" style="stroke:#F0F0F0;stroke-width:9.72"/>
	<line x1="4119.19" y1="1518.41" x2="4183.99" y2="1518.41" style="stroke:#F0F0F0;stroke-width:9.72"/>
	<line x1="4216.39" y1="1518.41" x2="4281.19" y2="1518.41" style="stroke:#F0F0F0;stroke-width:9.72"/>
	<line x1="4313.59" y1="1518.41" x2="4378.39" y2="1518.41" style="stroke:#F0F0F0;stroke-width:9.72"/>
	<line x1="522.79" y1="941.79" x2="587.59" y2="941.79" style="stroke:#F0F0F0;stroke-width:9.72"/>
	<line x1="619.99" y1="941.79" x2="684.79" y2="941.79" style="stroke:#F0F0F0;stroke-width:9.72"/>
	<line x1="717.19" y1="941.79" x2="781.99" y2="941.79" style="stroke:#F0F0F0;stroke-width:9.72"/>
	<line x1="814.39" y1="941.79" x2="879.19" y2="941.79" style="stroke:#F0F0F0;stroke-width:9.72"/>
	<line x1="911.59" y1="941.79" x2="976.39" y2="941.79" style="stroke:#F0F0F0;stroke-width:9.72"/>
	<line x1="1008.79" y1="941.79" x2="1073.59" y2="941.79" style="stroke:#F0F0F0;stroke-width:9.72"/>
	<line x1="1105.99" y1="941.79" x2="1170.79" y2="941.79" style="stroke:#F0F0F0;stroke-width:9.72"/>
	<line x1="1203.19" y1="941.79" x2="1267.99" y2="941.79" style="stroke:#F0F0F0;stroke-width:9.72"/>
	<line x1="1300.39" y1="941.79" x2="1365.19" y2="941.79" style="stroke:#F0F0F0;stroke-width:9.72"/>
	<line x1="1397.59" y1="941.79" x2="1462.39" y2="941.79" style="stroke:#F0F0F0;stroke-width:9.72"/>
	<line x1="1494.79" y1="941.79" x2="1559.59" y2="941.79" style="stroke:#F0F0F0;stroke-width:9.72"/>
	<line x1="1591.99" y1="941.79" x2="1656.79" y2="941.79" style="stroke:#F0F0F0;stroke-width:9.72"/>
	<line x1="1689.19" y1="941.79" x2="1753.99" y2="941.79" style="stroke:#F0F0F0;stroke-width:9.72"/>
	<line x1="1786.39" y1="941.79" x2="1851.19" y2="941.79" style="stroke:#F0F0F0;stroke-width:9.72"/>
	<line x1="1883.59" y1="941.79" x2="1948.39" y2="941.79" style="stroke:#F0F0F0;stroke-width:9.72"/>
	<line x1="1980.79" y1="941.79" x2="2045.59" y2="941.79" style="stroke:#F0F0F0;stroke-width:9.72"/>
	<line x1="2077.99" y1="941.79" x2="2142.79" y2="941.79" style="stroke:#F0F0F0;stroke-width:9.72"/>
	<line x1="2175.19" y1="941.79" x2="2239.99" y2="941.79" style="stroke:#F0F0F0;stroke-width:9.72"/>
	<line x1="2272.39" y1="941.79" x2="2337.19" y2="941.79" style="stroke:#F0F0F0;stroke-width:9.72"/>
	<line x1="2369.59" y1="941.79" x2="2434.39" y2="941.79" style="stroke:#F0F0F0;stroke-width:9.72"/>
	<line x1="2466.79" y1="941.79" x2="2531.59" y2="941.79" style="stroke:#F0F0F0;stroke-width:9.72"/>
	<line x1="2563.99" y1="941.79" x2="2628.79" y2="941.79" style="stroke:#F0F0F0;stroke-width:9.72"/>
	<line x1="2661.19" y1="941.79" x2="2725.99" y2="941.79" style="stroke:#F0F0F0;stroke-width:9.72"/>
	<line x1="2758.39" y1="941.79" x2="2823.19" y2="941.79" style="stroke:#F0F0F0;stroke-width:9.72"/>
	<line x1="2855.59" y1="941.79" x2="2920.39" y2="941.79" style="stroke:#F0F0F0;stroke-width:9.72"/>
	<line x1="2952.79" y1="941.79" x2="3017.59" y2="941.79" style="stroke:#F0F0F0;stroke-width:9.72"/>
	<line x1="3049.99" y1="941.79" x2="3114.79" y2="941.79" style="stroke:#F0F0F0;stroke-width:9.72"/>
	<line x1="3147.19" y1="941.79" x2="3211.99" y2="941.79" style="stroke:#F0F0F0;stroke-width:9.72"/>
	<line x1="3244.39" y1="941.79" x2="3309.19" y2="941.79" style="stroke:#F0F0F0;stroke-width:9.72"/>
	<line x1="3341.59" y1="941.79" x2="3406.39" y2="941.79" style="stroke:#F0F0F0;stroke-width:9.72"/>
	<line x1="3438.79" y1="941.79" x2="3503.59" y2="941.79" style="stroke:#F0F0F0;stroke-width:9.72"/>
	<line x1="3535.99" y1="941.79" x2="3600.79" y2="941.79" style="stroke:#F0F0F0;stroke-width:9.72"/>
	<line x1="3633.19" y1="941.79" x2="3697.99" y2="941.79" style="stroke:#F0F0F0;stroke-width:9.72"/>
	<line x1="3730.39" y1="941.79" x2="3795.19" y2="941.79" style="stroke:#F0F0F0;stroke-width:9.72"/>
	<line x1="3827.59" y1="941.79" x2="3892.39" y2="941.79" style="stroke:#F0F0F0;stroke-width:9.72"/>
	<line x1="3924.79" y1="941.79" x2="3989.59" y2="941.79" style="stroke:#F0F0F0;stroke-width:9.72"/>
	<line x1="4021.99" y1="941.79" x2="4086.79" y2="941.79" style="stroke:#F0F0F0;stroke-width:9.72"/>
	<line x1="4119.19" y1="941.79" x2="4183.99" y2="941.79" style="stroke:#F0F0F0;stroke-width:9.72"/>
	<line x1="4216.39" y1="941.79" x2="4281.19" y2="941.79" style="stroke:#F0F0F0;stroke-width:9.72"/>
	<line x1="4313.59" y1="941.79" x2="4378.39" y2="941.79" style="stroke:#F0F0F0;stroke-width:9.72"/>
	<line x1="522.79" y1="365.34" x2="587.59" y2="365.34" style="stroke:#F0F0F0;stroke-width:9.72"/>
	<line x1="619.99" y1="365.34" x2="684.79" y2="365.34" style="stroke:#F0F0F0;stroke-width:9.72"/>
	<line x1="717.19" y1="365.34" x2="781.99" y2="365.34" style="stroke:#F0F0F0;stroke-width:9.72"/>
	<line x1="814.39" y1="365.34" x2="879.19" y2="365.34" style="stroke:#F0F0F0;stroke-width:9.72"/>
	<line x1="911.59" y1="365.34" x2="976.39" y2="365.34" style="stroke:#F0F0F0;stroke-width:9.72"/>
	<line x1="1008.79" y1="365.34" x2="1073.59" y2="365.34" style="stroke:#F0F0F0;stroke-width:9.72"/>
	<line x1="1105.99" y1="365.34" x2="1170.79" y2="365.34" style="stroke:#F0F0F0;stroke-width:9.72"/>
	<line x1="1203.19" y1="365.34" x2="1267.99" y2="365.34" style="stroke:#F0F0F0;stroke-width:9.72"/>
	<line x1="1300.39" y1="365.34" x2="1365.19" y2="365.34" style="stroke:#F0F0F0;stroke-width:9.72"/>
	<line x1="1397.59" y1="365.34" x2="1462.39" y2="365.34" style="stroke:#F0F0F0;stroke-width:9.72"/>
	<line x1="1494.79" y1="365.34" x2="1559.59" y2="365.34" style="stroke:#F0F0F0;stroke-width:9.72"/>
	<line x1="1591.99" y1="365.34" x2="1656.79" y2="365.34" style="stroke:#F0F0F0;stroke-width:9.72"/>
	<line x1="1689.19" y1="365.34" x2="1753.99" y2="365.34" style="stroke:#F0F0F0;stroke-width:9.72"/>
	<line x1="1786.39" y1="365.34" x2="1851.19" y2="365.34" style="stroke:#F0F0F0;stroke-width:9.72"/>
	<line x1="1883.59" y1="365.34" x2="1948.39" y2="365.34" style="stroke:#F0F0F0;stroke-width:9.72"/>
	<line x1="1980.79" y1="365.34" x2="2045.59" y2="365.34" style="stroke:#F0F0F0;stroke-width:9.72"/>
	<line x1="2077.99" y1="365.34" x2="2142.79" y2="365.34" style="stroke:#F0F0F0;stroke-width:9.72"/>
	<line x1="2175.19" y1="365.34" x2="2239.99" y2="365.34" style="stroke:#F0F0F0;stroke-width:9.72"/>
	<line x1="2272.39" y1="365.34" x2="2337.19" y2="365.34" style="stroke:#F0F0F0;stroke-width:9.72"/>
	<line x1="2369.59" y1="365.34" x2="2434.39" y2="365.34" style="stroke:#F0F0F0;stroke-width:9.72"/>
	<line x1="2466.79" y1="365.34" x2="2531.59" y2="365.34" style="stroke:#F0F0F0;stroke-width:9.72"/>
	<line x1="2563.99" y1="365.34" x2="2628.79" y2="365.34" style="stroke:#F0F0F0;stroke-width:9.72"/>
	<line x1="2661.19" y1="365.34" x2="2725.99" y2="365.34" style="stroke:#F0F0F0;stroke-width:9.72"/>
	<line x1="2758.39" y1="365.34" x2="2823.19" y2="365.34" style="stroke:#F0F0F0;stroke-width:9.72"/>
	<line x1="2855.59" y1="365.34" x2="2920.39" y2="365.34" style="stroke:#F0F0F0;stroke-width:9.72"/>
	<line x1="2952.79" y1="365.34" x2="3017.59" y2="365.34" style="stroke:#F0F0F0;stroke-width:9.72"/>
	<line x1="3049.99" y1="365.34" x2="3114.79" y2="365.34" style="stroke:#F0F0F0;stroke-width:9.72"/>
	<line x1="3147.19" y1="365.34" x2="3211.99" y2="365.34" style="stroke:#F0F0F0;stroke-width:9.72"/>
	<line x1="3244.39" y1="365.34" x2="3309.19" y2="365.34" style="stroke:#F0F0F0;stroke-width:9.72"/>
	<line x1="3341.59" y1="365.34" x2="3406.39" y2="365.34" style="stroke:#F0F0F0;stroke-width:9.72"/>
	<line x1="3438.79" y1="365.34" x2="3503.59" y2="365.34" style="stroke:#F0F0F0;stroke-width:9.72"/>
	<line x1="3535.99" y1="365.34" x2="3600.79" y2="365.34" style="stroke:#F0F0F0;stroke-width:9.72"/>
	<line x1="3633.19" y1="365.34" x2="3697.99" y2="365.34" style="stroke:#F0F0F0;stroke-width:9.72"/>
	<line x1="3730.39" y1="365.34" x2="3795.19" y2="365.34" style="stroke:#F0F0F0;stroke-width:9.72"/>
	<line x1="3827.59" y1="365.34" x2="3892.39" y2="365.34" style="stroke:#F0F0F0;stroke-width:9.72"/>
	<line x1="3924.79" y1="365.34" x2="3989.59" y2="365.34" style="stroke:#F0F0F0;stroke-width:9.72"/>
	<line x1="4021.99" y1="365.34" x2="4086.79" y2="365.34" style="stroke:#F0F0F0;stroke-width:9.72"/>
	<line x1="4119.19" y1="365.34" x2="4183.99" y2="365.34" style="stroke:#F0F0F0;stroke-width:9.72"/>
	<line x1="4216.39" y1="365.34" x2="4281.19" y2="365.34" style="stroke:#F0F0F0;stroke-width:9.72"/>
	<line x1="4313.59" y1="365.34" x2="4378.39" y2="365.34" style="stroke:#F0F0F0;stroke-width:9.72"/>
	<line x1="594.00" y1="2766.66" x2="594.00" y2="2701.86" style="stroke:#F0F0F0;stroke-width:9.72"/>
	<line x1="594.00" y1="2669.46" x2="594.00" y2="2604.66" style="stroke:#F0F0F0;stroke-width:9.72"/>
	<line x1="594.00" y1="2572.26" x2="594.00" y2="2507.46" style="stroke:#F0F0F0;stroke-width:9.72"/>
	<line x1="594.00" y1="2475.06" x2="594.00" y2="2410.26" style="stroke:#F0F0F0;stroke-width:9.72"/>
	<line x1="594.00" y1="2377.86" x2="594.00" y2="2313.06" style="stroke:#F0F0F0;stroke-width:9.72"/>
	<line x1="594.00" y1="2280.66" x2="594.00" y2="2215.86" style="stroke:#F0F0F0;stroke-width:9.72"/>
	<line x1="594.00" y1="2183.46" x2="594.00" y2="2118.66" style="stroke:#F0F0F0;stroke-width:9.72"/>
	<line x1="594.00" y1="2086.26" x2="594.00" y2="2021.46" style="stroke:#F0F0F0;stroke-width:9.72"/>
	<line x1="594.00" y1="1989.06" x2="594.00" y2="1924.26" style="stroke:#F0F0F0;stroke-width:9.72"/>
	<line x1="594.00" y1="1891.86" x2="594.00" y2="1827.06" style="stroke:#F0F0F0;stroke-width:9.72"/>
	<line x1="594.00" y1="1794.66" x2="594.00" y2="1729.86" style="stroke:#F0F0F0;stroke-width:9.72"/>
	<line x1="594.00" y1="1697.46" x2="594.00" y2="1632.66" style="stroke:#F0F0F0;stroke-width:9.72"/>
	<line x1="594.00" y1="1600.26" x2="594.00" y2="1535.46" style="stroke:#F0F0F0;stroke-width:9.72"/>
	<line x1="594.00" y1="1503.06" x2="594.00" y2="1438.26" style="stroke:#F0F0F0;stroke-width:9.72"/>
	<line x1="594.00" y1="1405.86" x2="594.00" y2="1341.06" style="stroke:#F0F0F0;stroke-width:9.72"/>
	<line x1="594.00" y1="1308.66" x2="594.00" y2="1243.86" style="stroke:#F0F0F0;stroke-width:9.72"/>
	<line x1="594.00" y1="1211.46" x2="594.00" y2="1146.66" style="stroke:#F0F0F0;stroke-width:9.72"/>
	<line x1="594.00" y1="1114.26" x2="594.00" y2="1049.46" style="stroke:#F0F0F0;stroke-width:9.72"/>
	<line x1="594.00" y1="1017.06" x2="594.00" y2="952.26" style="stroke:#F0F0F0;stroke-width:9.72"/>
	<line x1="594.00" y1="919.86" x2="594.00" y2="855.06" style="stroke:#F0F0F0;stroke-width:9.72"/>
	<line x1="594.00" y1="822.66" x2="594.00" y2="757.86" style="stroke:#F0F0F0;stroke-width:9.72"/>
	<line x1="594.00" y1="725.46" x2="594.00" y2="660.66" style="stroke:#F0F0F0;stroke-width:9.72"/>
	<line x1="594.00" y1="628.26" x2="594.00" y2="563.46" style="stroke:#F0F0F0;stroke-width:9.72"/>
	<line x1="594.00" y1="531.06" x2="594.00" y2="466.26" style="stroke:#F0F0F0;stroke-width:9.72"/>
	<line x1="594.00" y1="433.86" x2="594.00" y2="369.06" style="stroke:#F0F0F0;stroke-width:9.72"/>
	<line x1="594.00" y1="336.66" x2="594.00" y2="293.96" style="stroke:#F0F0F0;stroke-width:9.72"/>
	<line x1="2462.40" y1="2766.66" x2="2462.40" y2="2701.86" style="stroke:#F0F0F0;stroke-width:9.72"/>
	<line x1="2462.40" y1="2669.46" x2="2462.40" y2="2604.66" style="stroke:#F0F0F0;stroke-width:9.72"/>
	<line x1="2462.40" y1="2572.26" x2="2462.40" y2="2507.46" style="stroke:#F0F0F0;stroke-width:9.72"/>
	<line x1="2462.40" y1="2475.06" x2="2462.40" y2="2410.26" style="stroke:#F0F0F0;stroke-width:9.72"/>
	<line x1="2462.40" y1="2377.86" x2="2462.40" y2="2313.06" style="stroke:#F0F0F0;stroke-width:9.72"/>
	<line x1="2462.40" y1="2280.66" x2="2462.40" y2="2215.86" style="stroke:#F0F0F0;stroke-width:9.72"/>
	<line x1="2462.40" y1="2183.46" x2="2462.40" y2="2118.66" style="stroke:#F0F0F0;stroke-width:9.72"/>
	<line x1="2462.40" y1="2086.26" x2="2462.40" y2="2021.46" style="stroke:#F0F0F0;stroke-width:9.72"/>
	<line x1="2462.40" y1="1989.06" x2="2462.40" y2="1924.26" style="stroke:#F0F0F0;stroke-width:9.72"/>
	<line x1="2462.40" y1="1891.86" x2="2462.40" y2="1827.06" style="stroke:#F0F0F0;stroke-width:9.72"/>
	<line x1="2462.40" y1="1794.66" x2="2462.40" y2="1729.86" style="stroke:#F0F0F0;stroke-width:9.72"/>
	<line x1="2462.40" y1="1697.46" x2="2462.40" y2="1632.66" style="stroke:#F0F0F0;stroke-width:9.72"/>
	<line x1="2462.40" y1="1600.26" x2="2462.40" y2="1535.46" style="stroke:#F0F0F0;stroke-width:9.72"/>
	<line x1="2462.40" y1="1503.06" x2="2462.40" y2="1438.26" style="stroke:#F0F0F0;stroke-width:9.72"/>
	<line x1="2462.40" y1="1405.86" x2="2462.40" y2="1341.06" style="stroke:#F0F0F0;stroke-width:9.72"/>
	<line x1="2462.40" y1="1308.66" x2="2462.40" y2="1243.86" style="stroke:#F0F0F0;stroke-width:9.72"/>
	<line x1="2462.40" y1="1211.46" x2="2462.40" y2="1146.66" style="stroke:#F0F0F0;stroke-width:9.72"/>
	<line x1="2462.40" y1="1114.26" x2="2462.40" y2="1049.46" style="stroke:#F0F0F0;stroke-width:9.72"/>
	<line x1="2462.40" y1="1017.06" x2="2462.40" y2="952.26" style="stroke:#F0F0F0;stroke-width:9.72"/>
	<line x1="2462.40" y1="919.86" x2="2462.40" y2="855.06" style="stroke:#F0F0F0;stroke-width:9.72"/>
	<line x1="2462.40" y1="822.66" x2="2462.40" y2="757.86" style="stroke:#F0F0F0;stroke-width:9.72"/>
	<line x1="2462.40" y1="725.46" x2="2462.40" y2="660.66" style="stroke:#F0F0F0;stroke-width:9.72"/>
	<line x1="2462.40" y1="628.26" x2="2462.40" y2="563.46" style="stroke:#F0F0F0;stroke-width:9.72"/>
	<line x1="2462.40" y1="531.06" x2="2462.40" y2="466.26" style="stroke:#F0F0F0;stroke-width:9.72"/>
	<line x1="2462.40" y1="433.86" x2="2462.40" y2="369.06" style="stroke:#F0F0F0;stroke-width:9.72"/>
	<line x1="2462.40" y1="336.66" x2="2462.40" y2="293.96" style="stroke:#F0F0F0;stroke-width:9.72"/>
	<line x1="4330.97" y1="2766.66" x2="4330.97" y2="2701.86" style="stroke:#F0F0F0;stroke-width:9.72"/>
	<line x1="4330.97" y1="2669.46" x2="4330.97" y2="2604.66" style="stroke:#F0F0F0;stroke-width:9.72"/>
	<line x1="4330.97" y1="2572.26" x2="4330.97" y2="2507.46" style="stroke:#F0F0F0;stroke-width:9.72"/>
	<line x1="4330.97" y1="2475.06" x2="4330.97" y2="2410.26" style="stroke:#F0F0F0;stroke-width:9.72"/>
	<line x1="4330.97" y1="2377.86" x2="4330.97" y2="2313.06" style="stroke:#F0F0F0;stroke-width:9.72"/>
	<line x1="4330.97" y1="2280.66" x2="4330.97" y2="2215.86" style="stroke:#F0F0F0;stroke-width:9.72"/>
	<line x1="4330.97" y1="2183.46" x2="4330.97" y2="2118.66" style="stroke:#F0F0F0;stroke-width:9.72"/>
	<line x1="4330.97" y1="2086.26" x2="4330.97" y2="2021.46" style="stroke:#F0F0F0;stroke-width:9.72"/>
	<line x1="4330.97" y1="1989.06" x2="4330.97" y2="1924.26" style="stroke:#F0F0F0;stroke-width:9.72"/>
	<line x1="4330.97" y1="1891.86" x2="4330.97" y2="1827.06" style="stroke:#F0F0F0;stroke-width:9.72"/>
	<line x1="4330.97" y1="1794.66" x2="4330.97" y2="1729.86" style="stroke:#F0F0F0;stroke-width:9.72"/>
	<line x1="4330.97" y1="1697.46" x2="4330.97" y2="1632.66" style="stroke:#F0F0F0;stroke-width:9.72"/>
	<line x1="4330.97" y1="1600.26" x2="4330.97" y2="1535.46" style="stroke:#F0F0F0;stroke-width:9.72"/>
	<line x1="4330.97" y1="1503.06" x2="4330.97" y2="1438.26" style="stroke:#F0F0F0;stroke-width:9.72"/>
	<line x1="4330.97" y1="1405.86" x2="4330.97" y2="1341.06" style="stroke:#F0F0F0;stroke-width:9.72"/>
	<line x1="4330.97" y1="1308.66" x2="4330.97" y2="1243.86" style="stroke:#F0F0F0;stroke-width:9.72"/>
	<line x1="4330.97" y1="1211.46" x2="4330.97" y2="1146.66" style="stroke:#F0F0F0;stroke-width:9.72"/>
	<line x1="4330.97" y1="1114.26" x2="4330.97" y2="1049.46" style="stroke:#F0F0F0;stroke-width:9.72"/>
	<line x1="4330.97" y1="1017.06" x2="4330.97" y2="952.26" style="stroke:#F0F0F0;stroke-width:9.72"/>
	<line x1="4330.97" y1="919.86" x2="4330.97" y2="855.06" style="stroke:#F0F0F0;stroke-width:9.72"/>
	<line x1="4330.97" y1="822.66" x2="4330.97" y2="757.86" style="stroke:#F0F0F0;stroke-width:9.72"/>
	<line x1="4330.97" y1="725.46" x2="4330.97" y2="660.66" style="stroke:#F0F0F0;stroke-width:9.72"/>
	<line x1="4330.97" y1="628.26" x2="4330.97" y2="563.46" style="stroke:#F0F0F0;stroke-width:9.72"/>
	<line x1="4330.97" y1="531.06" x2="4330.97" y2="466.26" style="stroke:#F0F0F0;stroke-width:9.72"/>
	<line x1="4330.97" y1="433.86" x2="4330.97" y2="369.06" style="stroke:#F0F0F0;stroke-width:9.72"/>
	<line x1="4330.97" y1="336.66" x2="4330.97" y2="293.96" style="stroke:#F0F0F0;stroke-width:9.72"/>
	<line x1="594.00" y1="656.61" x2="594.00" y2="379.69" style="stroke:#1A85FF;stroke-width:9.72"/>
	<line x1="577.13" y1="379.69" x2="610.88" y2="379.69" stroke-linecap="round" style="stroke:#1A85FF;stroke-width:9.72"/>
	<line x1="577.13" y1="656.61" x2="610.88" y2="656.61" stroke-linecap="round" style="stroke:#1A85FF;stroke-width:9.72"/>
	<line x1="2462.40" y1="707.74" x2="2462.40" y2="545.74" style="stroke:#1A85FF;stroke-width:9.72"/>
	<line x1="2445.53" y1="545.74" x2="2479.28" y2="545.74" stroke-linecap="round" style="stroke:#1A85FF;stroke-width:9.72"/>
	<line x1="2445.53" y1="707.74" x2="2479.28" y2="707.74" stroke-linecap="round" style="stroke:#1A85FF;stroke-width:9.72"/>
	<line x1="4330.97" y1="846.11" x2="4330.97" y2="624.38" style="stroke:#1A85FF;stroke-width:9.72"/>
	<line x1="4314.09" y1="624.38" x2="4347.84" y2="624.38" stroke-linecap="round" style="stroke:#1A85FF;stroke-width:9.72"/>
	<line x1="4314.09" y1="846.11" x2="4347.84" y2="846.11" stroke-linecap="round" style="stroke:#1A85FF;stroke-width:9.72"/>
	<line x1="594.00" y1="2695.28" x2="594.00" y2="2453.63" style="stroke:#D41159;stroke-width:9.72"/>
	<line x1="577.13" y1="2453.63" x2="610.88" y2="2453.63" stroke-linecap="round" style="stroke:#D41159;stroke-width:9.72"/>
	<line x1="577.13" y1="2695.28" x2="610.88" y2="2695.28" stroke-linecap="round" style="stroke:#D41159;stroke-width:9.72"/>
	<line x1="2462.40" y1="2270.87" x2="2462.40" y2="2120.68" style="stroke:#D41159;stroke-width:9.72"/>
	<line x1="2445.53" y1="2120.68" x2="2479.28" y2="2120.68" stroke-linecap="round" style="stroke:#D41159;stroke-width:9.72"/>
	<line x1="2445.53" y1="2270.87" x2="2479.28" y2="2270.87" stroke-linecap="round" style="stroke:#D41159;stroke-width:9.72"/>
	<line x1="4330.97" y1="1935.90" x2="4330.97" y2="1697.96" style="stroke:#D41159;stroke-width:9.72"/>
	<line x1="4314.09" y1="1697.96" x2="4347.84" y2="1697.96" stroke-linecap="round" style="stroke:#D41159;stroke-width:9.72"/>
	<line x1="4314.09" y1="1935.90" x2="4347.84" y2="1935.90" stroke-linecap="round" style="stroke:#D41159;stroke-width:9.72"/>
	<path d=" M594.00 518.23 L2462.40 626.74 L4330.80 735.24" stroke-linejoin="round" style="fill:none;stroke:#1A85FF;stroke-width:9.72"/>
	<circle cx="594.00" cy="518.23" r="21.74" style="fill:#1A85FF"/>
	<circle cx="594.00" cy="518.23" r="16.88" style="fill:none;stroke:#1A85FF;stroke-width:9.72"/>
	<circle cx="2462.40" cy="626.74" r="21.74" style="fill:#1A85FF"/>
	<circle cx="2462.40" cy="626.74" r="16.88" style="fill:none;stroke:#1A85FF;stroke-width:9.72"/>
	<circle cx="4330.80" cy="735.24" r="21.74" style="fill:#1A85FF"/>
	<circle cx="4330.80" cy="735.24" r="16.88" style="fill:none;stroke:#1A85FF;stroke-width:9.72"/>
	<path d=" M594.00 2574.62 L2462.40 2195.78 L4330.80 1817.10" stroke-linejoin="round" style="fill:none;stroke:#D41159;stroke-width:9.72"/>
	<circle cx="594.00" cy="2574.62" r="21.74" style="fill:#D41159"/>
	<circle cx="594.00" cy="2574.62" r="16.88" style="fill:none;stroke:#D41159;stroke-width:9.72"/>
	<circle cx="2462.40" cy="2195.78" r="21.74" style="fill:#D41159"/>
	<circle cx="2462.40" cy="2195.78" r="16.88" style="fill:none;stroke:#D41159;stroke-width:9.72"/>
	<circle cx="4330.80" cy="1817.10" r="21.74" style="fill:#D41159"/>
	<circle cx="4330.80" cy="1817.10" r="16.88" style="fill:none;stroke:#D41159;stroke-width:9.72"/>
	<line x1="522.79" y1="2766.66" x2="522.79" y2="293.96" style="stroke:#000000;stroke-width:6.48"/>
	<line x1="522.79" y1="2671.48" x2="477.73" y2="2671.48" style="stroke:#000000;stroke-width:6.48"/>
	<text x="455.29" y="2710.92" style="font-family:'Helvetica';font-size:112.56px;fill:#000000" text-anchor="end">10</text>
	<line x1="522.79" y1="2094.86" x2="477.73" y2="2094.86" style="stroke:#000000;stroke-width:6.48"/>
	<text x="455.29" y="2134.30" style="font-family:'Helvetica';font-size:112.56px;fill:#000000" text-anchor="end">12</text>
	<line x1="522.79" y1="1518.41" x2="477.73" y2="1518.41" style="stroke:#000000;stroke-width:6.48"/>
	<text x="455.29" y="1557.85" style="font-family:'Helvetica';font-size:112.56px;fill:#000000" text-anchor="end">14</text>
	<line x1="522.79" y1="941.79" x2="477.73" y2="941.79" style="stroke:#000000;stroke-width:6.48"/>
	<text x="455.29" y="981.23" style="font-family:'Helvetica';font-size:112.56px;fill:#000000" text-anchor="end">16</text>
	<line x1="522.79" y1="365.34" x2="477.73" y2="365.34" style="stroke:#000000;stroke-width:6.48"/>
	<text x="455.29" y="404.78" style="font-family:'Helvetica';font-size:112.56px;fill:#000000" text-anchor="end">18</text>
	<text x="214.55" y="1530.39" style="font-family:'Helvetica';font-size:112.56px;fill:#000000" transform="rotate(-90 214.55,1530.39)" text-anchor="middle">Linear prediction</text>
	<line x1="522.79" y1="2766.66" x2="4402.18" y2="2766.66" style="stroke:#000000;stroke-width:6.48"/>
	<line x1="594.00" y1="2766.66" x2="594.00" y2="2811.54" style="stroke:#000000;stroke-width:6.48"/>
	<text x="594.00" y="2912.86" style="font-family:'Helvetica';font-size:112.56px;fill:#000000" text-anchor="middle">20</text>
	<line x1="2462.40" y1="2766.66" x2="2462.40" y2="2811.54" style="stroke:#000000;stroke-width:6.48"/>
	<text x="2462.40" y="2912.86" style="font-family:'Helvetica';font-size:112.56px;fill:#000000" text-anchor="middle">45</text>
	<line x1="4330.97" y1="2766.66" x2="4330.97" y2="2811.54" style="stroke:#000000;stroke-width:6.48"/>
	<text x="4330.97" y="2912.86" style="font-family:'Helvetica';font-size:112.56px;fill:#000000" text-anchor="middle">70</text>
	<text x="2462.40" y="3070.31" style="font-family:'Helvetica';font-size:112.56px;fill:#000000" text-anchor="middle">Age (years)</text>
	<rect x="4441.16" y="1346.79" width="806.63" height="367.20" style="fill:#FFFFFF"/>
	<rect x="4444.40" y="1350.03" width="800.15" height="360.72" style="fill:none;stroke:#FFFFFF;stroke-width:6.48"/>
	<line x1="4489.76" y1="1451.59" x2="4748.96" y2="1451.59" style="stroke:#1A85FF;stroke-width:9.72"/>
	<circle cx="4619.36" cy="1451.59" r="21.74" style="fill:#1A85FF"/>
	<circle cx="4619.36" cy="1451.59" r="16.88" style="fill:none;stroke:#1A85FF;stroke-width:9.72"/>
	<line x1="4489.76" y1="1609.03" x2="4748.96" y2="1609.03" style="stroke:#D41159;stroke-width:9.72"/>
	<circle cx="4619.36" cy="1609.03" r="21.74" style="fill:#D41159"/>
	<circle cx="4619.36" cy="1609.03" r="16.88" style="fill:none;stroke:#D41159;stroke-width:9.72"/>
	<text x="4816.46" y="1491.02" style="font-family:'Helvetica';font-size:112.56px;fill:#000000">Male</text>
	<text x="4816.46" y="1648.47" style="font-family:'Helvetica';font-size:112.56px;fill:#000000">Female</text>
	<text x="2700.00" y="231.95" style="font-family:'Helvetica';font-size:141.75px;fill:#000000" text-anchor="middle">Predictive margins of sex with 95% CIs</text>
</svg>
